<svg style="vertical-align:-.566ex" xmlns="http://www.w3.org/2000/svg" width="29.213ex" height="2.262ex" viewBox="0 -750 12912 1000" xmlns:xlink="http://www.w3.org/1999/xlink"><defs><path id="a" d="M311 43q-15-13-44-28T206 0q-63 0-101 45T66 160q0 105 77 193t171 89q47 0 87-48l3 4q2 3 5 6t9 8 13 7 16 3q14 0 23-9t10-19q0-15-57-242T363-80q-18-54-77-89t-135-36q-141 0-141 68 0 26 18 46t46 20q15 0 28-9t14-31q0-10-2-19t-7-14-8-10-7-8l-2-2h1q10-3 60-3 38 0 60 12 23 11 43 33t28 47q6 19 16 62 13 48 13 56m73 285-4 11q-3 11-5 15t-6 14-10 14-13 11-18 9-22 3q-44 0-85-53-30-39-50-119t-20-116q0-79 62-79 56 0 110 70l8 10z"/><path id="b" d="M94 250q0 69 10 131t23 107 37 88 38 67 42 52 33 34 25 21h17q14 0 14-9 0-3-17-21t-41-53-49-86-42-138-17-193 17-192 41-139 49-86 42-53 17-21q0-9-15-9h-16l-28 24q-94 85-137 212T94 250"/><path id="c" d="M52 289q7 42 54 97t116 56q35 0 64-18t43-45q42 63 101 63 37 0 64-22t28-59q0-29-14-47t-27-22-23-4q-19 0-31 11t-12 29q0 46 50 63-11 13-40 13-13 0-19-2-38-16-56-66-60-221-60-258 0-28 16-40t35-12q37 0 73 33t49 81q3 10 6 11t16 2h4q15 0 15-8 0-1-2-11-16-57-62-101T333-11q-70 0-106 63-41-62-94-62h-6q-49 0-70 26T35 71q0 32 19 52t45 20q43 0 43-42 0-20-12-35t-23-20-13-5l-3-1q0-1 6-4t16-7 19-3q36 0 62 45 9 16 23 68t28 108 16 66q5 27 5 39 0 28-15 40t-34 12q-40 0-75-32t-49-82q-2-9-5-10t-16-2H58q-6 6-6 11"/><path id="d" d="M56 237v13l14 20h299v150l1 150q10 13 19 13 13 0 20-15V270h298q15-8 15-20t-15-20H409V-68q-8-14-18-14h-4q-12 0-18 14v298H70q-14 7-14 20Z"/><path id="e" d="M137 683q1 0 72 5t73 6q12 0 12-9 0-11-36-151-38-148-38-151 0-2 7 5 61 54 130 54 54 0 87-27t34-79q0-51-38-158T402 50q1-14 5-19t15-5q28 0 52 30t39 82q3 11 6 13t16 2q20 0 20-8 0-1-4-15-16-59-51-97-34-43-81-43h-5q-47 0-68 27t-21 57q0 16 36 118t37 153q0 59-44 59h-5q-83 0-144-98l-7-13-34-135Q132 28 127 16q-13-27-44-27-14 0-24 9T48 16q0 14 73 304l74 296q0 13-7 16t-39 5h-21q-6 6-6 8t2 19q5 19 13 19"/><path id="f" d="m60 749 4 1h22l28-24q94-85 137-212t43-264q0-68-10-131T261 12t-37-88-38-67-41-51-32-33-23-19l-4-4H63q-3 0-5 3t-3 9q1 1 11 13Q221-64 221 250T66 725q-10 12-11 13 0 8 5 11"/><path id="g" d="M56 347q0 13 14 20h637q15-8 15-20 0-11-14-19l-318-1H72q-16 5-16 20m0-194q0 15 16 20h636q14-10 14-20 0-13-15-20H70q-14 7-14 20"/><path id="h" d="M231 637q-27 0-32 1t-5 11q0 27 11 33 1 1 130 1 259 0 273-2 63-10 105-45t43-92q0-64-58-115t-133-69l-10-3q64-9 105-46t42-92q0-73-72-141T453 1q-7-1-211-1Q42 0 39 2q-4 3-4 8 0 7 2 14 5 19 10 21 4 1 15 1h6q27 0 60 3 14 3 19 12 3 4 72 278t69 289q0 7-57 9m418-93q0 30-15 56t-49 34q-7 2-92 3h-42q-22 0-35-1h-13q-15-1-19-10-2-4-32-120 0-3-1-6l-31-126h81q81 0 93 2 60 10 107 58t48 110m-54-315q0 44-23 73t-60 34q-6 1-83 1-118 0-119-1 0-2-17-73t-35-141l-18-70q0-4 12-4t81-2q89 0 96 1 62 7 114 58t52 124"/><path id="i" d="M96 585q56 81 153 81 48 0 96-26t78-92q37-83 37-228 0-155-43-237-20-42-55-67t-61-31-51-7q-26 0-52 6t-61 32-55 67q-43 82-43 237 0 174 57 265m225 12q-30 32-71 32-42 0-72-32-25-26-33-72t-8-192q0-158 8-208t36-79q28-30 69-30 40 0 68 30 29 30 36 84t8 203q0 145-8 191t-33 73"/></defs><g stroke="currentColor" fill="currentColor" stroke-width="0"><use data-c="1D454" xlink:href="#a" transform="scale(1 -1)"/><use data-c="28" xlink:href="#b" transform="scale(1 -1) translate(477)"/><use data-c="1D465" xlink:href="#c" transform="scale(1 -1) translate(866)"/><use data-c="2B" xlink:href="#d" transform="scale(1 -1) translate(1660.2)"/><use data-c="210E" xlink:href="#e" transform="scale(1 -1) translate(2660.4)"/><use data-c="29" xlink:href="#f" transform="scale(1 -1) translate(3236.4)"/><use data-c="3D" xlink:href="#g" transform="scale(1 -1) translate(3903.2)"/><g><use data-c="1D435" xlink:href="#h" transform="scale(1 -1) translate(4959)"/><use data-c="30" xlink:href="#i" transform="scale(1 -1) translate(4959) translate(792 -150)scale(.707)"/></g><use data-c="2B" xlink:href="#d" transform="scale(1 -1) translate(6376.8)"/><use data-c="210E" xlink:href="#e" transform="scale(1 -1) translate(7377)"/><use data-c="3D" xlink:href="#g" transform="scale(1 -1) translate(8230.8)"/><use data-c="1D454" xlink:href="#a" transform="scale(1 -1) translate(9286.6)"/><use data-c="28" xlink:href="#b" transform="scale(1 -1) translate(9763.6)"/><use data-c="1D465" xlink:href="#c" transform="scale(1 -1) translate(10152.6)"/><use data-c="29" xlink:href="#f" transform="scale(1 -1) translate(10724.6)"/><use data-c="2B" xlink:href="#d" transform="scale(1 -1) translate(11335.8)"/><use data-c="210E" xlink:href="#e" transform="scale(1 -1) translate(12336)"/></g></svg>