<svg style="vertical-align:-6.904ex" xmlns="http://www.w3.org/2000/svg" width="20.824ex" height="14.94ex" viewBox="0 -3551.7 9204.1 6603.4" xmlns:xlink="http://www.w3.org/1999/xlink"><defs><path id="a" d="M114-798q18-26 51-26h2q28 0 56 60t52 164 45 209 42 227q3 21 5 31 72 425 156 788t122 472l10 30q4 12 17 44t27 56 34 49 44 40 51 14q56 0 84-35t32-80q0-25-12-40t-23-19-22-3q-21 0-38 15t-17 41q0 48 53 57l-3 4q-3 3-8 7t-8 6q-15 10-33 10-14 0-26-12t-32-56-39-116-47-203-56-308Q574 293 510-5T410-437t-55-192q-77-233-190-233-40 0-73 31t-37 85q0 35 19 48t38 13q21 0 38-15t17-41q0-48-53-57"/><path id="b" d="M52 289q7 42 54 97t116 56q35 0 64-18t43-45q42 63 101 63 37 0 64-22t28-59q0-29-14-47t-27-22-23-4q-19 0-31 11t-12 29q0 46 50 63-11 13-40 13-13 0-19-2-38-16-56-66-60-221-60-258 0-28 16-40t35-12q37 0 73 33t49 81q3 10 6 11t16 2h4q15 0 15-8 0-1-2-11-16-57-62-101T333-11q-70 0-106 63-41-62-94-62h-6q-49 0-70 26T35 71q0 32 19 52t45 20q43 0 43-42 0-20-12-35t-23-20-13-5l-3-1q0-1 6-4t16-7 19-3q36 0 62 45 9 16 23 68t28 108 16 66q5 27 5 39 0 28-15 40t-34 12q-40 0-75-32t-49-82q-2-9-5-10t-16-2H58q-6 6-6 11"/><path id="c" d="M96 585q56 81 153 81 48 0 96-26t78-92q37-83 37-228 0-155-43-237-20-42-55-67t-61-31-51-7q-26 0-52 6t-61 32-55 67q-43 82-43 237 0 174 57 265m225 12q-30 32-71 32-42 0-72-32-25-26-33-72t-8-192q0-158 8-208t36-79q28-30 69-30 40 0 68 30 29 30 36 84t8 203q0 145-8 191t-33 73"/><path id="d" d="m213 578-13-5q-14-5-40-10t-58-7H83v46h19q47 2 87 15t56 24 28 22q2 3 12 3 9 0 17-6V361l1-300q7-7 12-9t24-4 62-2h26V0h-11q-21 3-159 3-136 0-157-3H88v46h64q16 0 25 1t16 3 8 2 6 5 6 4z"/><path id="e" d="M366 683q1 0 72 5t73 6q12 0 12-8 0-7-73-302T375 83t-1-15q0-42 28-42 9 1 20 9 21 20 41 96 6 20 10 21 2 1 10 1h8q15 0 15-8 0-5-3-16-13-50-30-81T445 8 417-8q-8-2-24-2-34 0-57 15t-30 31l-6 15q-1 1-4-1l-4-4q-59-56-120-56-55 0-97 40T33 157q0 48 20 98t48 86q47 57 94 79t85 22q56 0 84-42 5-6 5-4 1 4 27 109t28 111q0 13-7 16t-39 5h-21q-6 6-6 8t2 19q5 19 13 19m-14-357q-23 79-75 79-35 0-67-31t-50-81q-29-79-41-164v-11q0-8-1-12 0-45 18-62t43-18q54 0 111 72l8 11z"/><path id="f" d="M56 347q0 13 14 20h637q15-8 15-20 0-11-14-19l-318-1H72q-16 5-16 20m0-194q0 15 16 20h636q14-10 14-20 0-13-15-20H70q-14 7-14 20"/><path id="g" d="M60 948q3 2 605 2h602l58-135q59-138 63-146h-40l-7 14q-21 41-56 78-50 48-111 77t-141 43-151 17-183 4H251l8-11q463-633 465-639 1-2 0-6-3-3-264-302L196-356q0-1 211-1h141q89 0 128-1 136 0 220 5t167 21 141 49 103 87q21 26 41 72h40q0-1-7-21t-25-65-31-84l-58-155-601-1q-602 0-605 2-6 2-6 9 0 2 2 6l533 610q0 1-33 45T452 366 322 544L56 909l-1 15q0 21 5 24"/><path id="h" d="M184 600q0 24 19 42t44 19q18 0 30-12t13-30q0-23-20-42t-44-20q-15 0-28 10t-14 33M21 287q0 8 9 31t24 51 44 51 60 22q39 0 65-23t27-62q0-17-14-56t-40-105-42-113q-5-22-5-32 0-25 17-25 9 0 19 3t23 14 27 35 25 59q3 12 5 14t17 2q20 0 20-10 0-8-9-31t-25-51-45-50-62-22q-32 0-59 21T74 74q0 17 5 32t43 114q38 101 44 121t7 39q0 24-17 24h-2q-30 0-55-33t-38-84q-1-1-2-3t-1-3-2-2-3-1-4 0-8 0H27q-6 6-6 9"/><path id="i" d="M21 287q1 6 3 16t12 38 20 47 33 37 46 17q36 0 60-18t30-34 6-21q0-2 1-2l11 11q61 64 139 64 54 0 87-27t34-79-38-157-38-127q0-26 17-26 6 0 9 1 29 5 52 38t35 80q2 8 20 8 20 0 20-8 0-1-4-15-8-29-22-57t-46-56-69-27q-47 0-68 27t-21 56q0 19 36 120t37 152q0 59-44 59h-5q-86 0-145-101l-7-12-33-134Q156 26 151 16q-13-27-43-27-13 0-21 6T76 7t-2 10q0 13 38 163t40 163q1 5 1 23 0 39-24 39-38 0-63-100-6-20-6-21-2-6-19-6H27q-6 6-6 9"/><path id="j" d="M51 0q-5 4-5 7 0 2 169 350t173 352q3 7 28 7 23 0 28-7 3-4 172-352T786 7q0-3-5-7zm456 344L384 596 137 92l246-1h247q0 2-123 253"/><path id="k" d="M78 250q0 24 17 42t43 18q24 0 42-16t19-43q0-25-17-43t-43-18-43 17-18 43"/><path id="l" d="M180 96v154l25 291 61 229 87 174 91 125 83 81h28q6-6 6-9 0-4-16-21t-41-48-57-77-61-117-56-157-42-208-16-262q0-118 8-195 13-143 46-265t73-196 76-126 61-78 25-31q0-3-6-9h-28q-44 37-84 81t-90 125-87 173-61 229Z"/><path id="m" d="M35 1138q0 12 16 12h18q44-37 84-81t90-125 87-173 61-230 25-291-25-290-61-230-87-173-91-125-83-81H56q-13 0-17 2t-4 10q30 30 75 89Q283-316 316 56q8 77 8 195 0 117-8 194-38 432-268 678-12 14-13 15"/><path id="n" d="M78 60q0 24 17 42t43 18q24 0 42-16t19-43q0-25-17-43T139 0 96 17 78 60"/></defs><g stroke="currentColor" fill="currentColor" stroke-width="0"><g><g><g><g><use data-c="222B" xlink:href="#a" transform="scale(1 -1) translate(0 1640.7) translate(0 1)"/><g data-mjx-texclass="ORD"><use data-c="1D465" xlink:href="#b" transform="scale(1 -1) translate(0 1640.7) translate(1046.4 1088.1)scale(.707)"/></g><g data-mjx-texclass="ORD"><use data-c="30" xlink:href="#c" transform="scale(1 -1) translate(0 1640.7) translate(589 -896.4)scale(.707)"/></g></g><use data-c="31" xlink:href="#d" transform="scale(1 -1) translate(0 1640.7) translate(1667.5)"/><use data-c="1D451" xlink:href="#e" transform="scale(1 -1) translate(0 1640.7) translate(2334.5)"/><use data-c="1D465" xlink:href="#b" transform="scale(1 -1) translate(0 1640.7) translate(2854.5)"/></g><g><use data-c="3D" xlink:href="#f" transform="scale(1 -1) translate(0 1640.7) translate(3426.5) translate(277.8)"/><g><use data-c="2211" xlink:href="#g" transform="scale(1 -1) translate(0 1640.7) translate(3426.5) translate(1333.6)"/><g data-mjx-texclass="ORD"><use data-c="1D456" xlink:href="#h" transform="scale(1 -1) translate(0 1640.7) translate(3426.5) translate(1333.6) translate(148.2 -1087.9)scale(.707)"/><use data-c="3D" xlink:href="#f" transform="scale(1 -1) translate(0 1640.7) translate(3426.5) translate(1333.6) translate(148.2 -1087.9)scale(.707) translate(345)"/><use data-c="30" xlink:href="#c" transform="scale(1 -1) translate(0 1640.7) translate(3426.5) translate(1333.6) translate(148.2 -1087.9)scale(.707) translate(1123)"/></g><g data-mjx-texclass="ORD"><g transform="scale(1 -1) translate(0 1640.7) translate(3426.5) translate(1333.6) translate(215.2 1311.4)scale(.707)"><use data-c="1D45B" xlink:href="#i" transform="translate(504.6 394)scale(.707)"/><g><use data-c="394" xlink:href="#j" transform="translate(220 -346.3)scale(.707)"/><use data-c="1D465" xlink:href="#b" transform="translate(220 -346.3)scale(.707) translate(833)"/></g><path stroke="none" d="M120 220H1313.5V280H120z"/></g></g></g><use data-c="31" xlink:href="#d" transform="scale(1 -1) translate(0 1640.7) translate(3426.5) translate(2944.2)"/><use data-c="22C5" xlink:href="#k" transform="scale(1 -1) translate(0 1640.7) translate(3426.5) translate(3666.4)"/><use data-c="394" xlink:href="#j" transform="scale(1 -1) translate(0 1640.7) translate(3426.5) translate(4166.7)"/><use data-c="1D465" xlink:href="#b" transform="scale(1 -1) translate(0 1640.7) translate(3426.5) translate(4999.7)"/></g></g><g><g><use data-c="3D" xlink:href="#f" transform="scale(1 -1) translate(0 -1054.7) translate(3426.5) translate(277.8)"/><g><use data-c="28" xlink:href="#l" transform="scale(1 -1) translate(0 -1054.7) translate(3426.5) translate(1333.6) translate(0 -.5)"/><g transform="scale(1 -1) translate(0 -1054.7) translate(3426.5) translate(1333.6) translate(597)"><use data-c="1D45B" xlink:href="#i" transform="translate(622.5 676)"/><g><use data-c="394" xlink:href="#j" transform="translate(220 -686)"/><use data-c="1D465" xlink:href="#b" transform="translate(220 -686) translate(833)"/></g><path stroke="none" d="M120 220H1725V280H120z"/></g><use data-c="29" xlink:href="#m" transform="scale(1 -1) translate(0 -1054.7) translate(3426.5) translate(1333.6) translate(2442 -.5)"/></g><use data-c="394" xlink:href="#j" transform="scale(1 -1) translate(0 -1054.7) translate(3426.5) translate(4372.6)"/><use data-c="1D465" xlink:href="#b" transform="scale(1 -1) translate(0 -1054.7) translate(3426.5) translate(5205.6)"/></g></g><g><g><use data-c="3D" xlink:href="#f" transform="scale(1 -1) translate(0 -2801.7) translate(3426.5) translate(277.8)"/><use data-c="1D465" xlink:href="#b" transform="scale(1 -1) translate(0 -2801.7) translate(3426.5) translate(1333.6)"/><use data-c="2E" xlink:href="#n" transform="scale(1 -1) translate(0 -2801.7) translate(3426.5) translate(1905.6)"/></g></g></g></g></svg>