<svg style="vertical-align:-8.772ex" xmlns="http://www.w3.org/2000/svg" width="44.563ex" height="18.675ex" viewBox="0 -4377.2 19697 8254.4" xmlns:xlink="http://www.w3.org/1999/xlink"><defs><path id="a" d="M114-798q18-26 51-26h2q28 0 56 60t52 164 45 209 42 227q3 21 5 31 72 425 156 788t122 472l10 30q4 12 17 44t27 56 34 49 44 40 51 14q56 0 84-35t32-80q0-25-12-40t-23-19-22-3q-21 0-38 15t-17 41q0 48 53 57l-3 4q-3 3-8 7t-8 6q-15 10-33 10-14 0-26-12t-32-56-39-116-47-203-56-308Q574 293 510-5T410-437t-55-192q-77-233-190-233-40 0-73 31t-37 85q0 35 19 48t38 13q21 0 38-15t17-41q0-48-53-57"/><path id="b" d="M52 289q7 42 54 97t116 56q35 0 64-18t43-45q42 63 101 63 37 0 64-22t28-59q0-29-14-47t-27-22-23-4q-19 0-31 11t-12 29q0 46 50 63-11 13-40 13-13 0-19-2-38-16-56-66-60-221-60-258 0-28 16-40t35-12q37 0 73 33t49 81q3 10 6 11t16 2h4q15 0 15-8 0-1-2-11-16-57-62-101T333-11q-70 0-106 63-41-62-94-62h-6q-49 0-70 26T35 71q0 32 19 52t45 20q43 0 43-42 0-20-12-35t-23-20-13-5l-3-1q0-1 6-4t16-7 19-3q36 0 62 45 9 16 23 68t28 108 16 66q5 27 5 39 0 28-15 40t-34 12q-40 0-75-32t-49-82q-2-9-5-10t-16-2H58q-6 6-6 11"/><path id="c" d="M96 585q56 81 153 81 48 0 96-26t78-92q37-83 37-228 0-155-43-237-20-42-55-67t-61-31-51-7q-26 0-52 6t-61 32-55 67q-43 82-43 237 0 174 57 265m225 12q-30 32-71 32-42 0-72-32-25-26-33-72t-8-192q0-158 8-208t36-79q28-30 69-30 40 0 68 30 29 30 36 84t8 203q0 145-8 191t-33 73"/><path id="d" d="M366 683q1 0 72 5t73 6q12 0 12-8 0-7-73-302T375 83t-1-15q0-42 28-42 9 1 20 9 21 20 41 96 6 20 10 21 2 1 10 1h8q15 0 15-8 0-5-3-16-13-50-30-81T445 8 417-8q-8-2-24-2-34 0-57 15t-30 31l-6 15q-1 1-4-1l-4-4q-59-56-120-56-55 0-97 40T33 157q0 48 20 98t48 86q47 57 94 79t85 22q56 0 84-42 5-6 5-4 1 4 27 109t28 111q0 13-7 16t-39 5h-21q-6 6-6 8t2 19q5 19 13 19m-14-357q-23 79-75 79-35 0-67-31t-50-81q-29-79-41-164v-11q0-8-1-12 0-45 18-62t43-18q54 0 111 72l8 11z"/><path id="e" d="M56 347q0 13 14 20h637q15-8 15-20 0-11-14-19l-318-1H72q-16 5-16 20m0-194q0 15 16 20h636q14-10 14-20 0-13-15-20H70q-14 7-14 20"/><path id="f" d="M42 46h14q39 0 47 14v64q0 19 1 43t0 50 0 55 0 57v213q0 26-1 44t0 17q-3 19-14 25t-45 9H26v23q0 23 2 23l10 1q10 1 29 2t37 2q17 1 37 2t30 3 11 1h3V379q0-317 1-319 4-8 12-11 21-3 49-3h16V0h-8l-23 1q-23 1-49 1t-38 1-38 0-50-2L34 0h-8v46z"/><path id="g" d="M69 609q0 28 18 44t44 16q23-2 40-17t17-43q0-30-17-45t-42-15-42 15-18 45M247 0q-15 3-104 3h-37Q80 3 56 1L34 0h-8v46h16q28 0 49 3 9 4 11 11t2 42v191q0 52-2 66t-14 19q-14 7-47 7H30v23q0 23 2 23l10 1q10 1 28 2t36 2q17 1 36 2t29 3 11 1h3V62q5-10 12-12t35-4h23V0z"/><path id="h" d="M41 46h14q39 0 47 14v62q0 17 1 39t0 42v66q0 35-1 59v23q-3 19-14 25t-45 9H25v23q0 23 2 23l10 1q10 1 28 2t37 2q17 1 36 2t29 3 11 1h3v-40q0-38 1-38t5 5 12 15 19 18 29 19 38 16 51 5q15 0 28-2t23-6 19-8 15-9 11-11 9-11 7-11 4-10 3-8l2-5 3 4 6 8q3 4 9 11t13 13 15 13 20 12 23 10 26 7 31 3q126 0 137-113 1-7 1-139v-86q0-38 2-45t11-10q21-3 49-3h16V0h-8l-23 1q-24 1-51 1t-38 1Q596 3 587 0h-8v46h16q61 0 61 16 1 2 1 138-1 135-2 143-6 28-20 42t-24 17-26 2q-45 0-79-34-27-27-34-55t-8-83V108q0-30 1-40t3-13 9-6q21-3 49-3h16V0h-8l-24 1q-23 1-50 1t-38 1Q319 3 310 0h-8v46h16q61 0 61 16 1 2 1 138-1 135-2 143-6 28-20 42t-24 17-26 2q-45 0-79-34-27-27-34-55t-8-83V108q0-30 1-40t3-13 9-6q21-3 49-3h16V0h-8l-23 1q-24 1-51 1t-38 1Q42 3 33 0h-8v46z"/><path id="i" d="M51 0q-5 4-5 7 0 2 169 350t173 352q3 7 28 7 23 0 28-7 3-4 172-352T786 7q0-3-5-7zm456 344L384 596 137 92l246-1h247q0 2-123 253"/><path id="j" d="M56 237v13l14 20h765q-116 87-143 223v3q0 2-1 3 0 12 17 12h3q9 0 12-1t6-4 3-9 3-16 8-25q22-67 73-120t119-75q9-3 9-11 0-6-5-9t-24-10-38-19q-41-26-71-60t-45-67-21-50-8-31q-2-10-5-12t-16-3q-20 0-20 11 0 7 5 25 32 126 139 205H70q-14 7-14 20Z"/><path id="k" d="M269-1249v2999h308v-73H342v-2853h235v-73z"/><path id="l" d="M21 287q1 6 3 16t12 38 20 47 33 37 46 17q36 0 60-18t30-34 6-21q0-2 1-2l11 11q61 64 139 64 54 0 87-27t34-79-38-157-38-127q0-26 17-26 6 0 9 1 29 5 52 38t35 80q2 8 20 8 20 0 20-8 0-1-4-15-8-29-22-57t-46-56-69-27q-47 0-68 27t-21 56q0 19 36 120t37 152q0 59-44 59h-5q-86 0-145-101l-7-12-33-134Q156 26 151 16q-13-27-43-27-13 0-21 6T76 7t-2 10q0 13 38 163t40 163q1 5 1 23 0 39-24 39-38 0-63-100-6-20-6-21-2-6-19-6H27q-6 6-6 9"/><path id="m" d="M152 251q0 395 236 599h28q6-6 6-9 0-4-19-25t-46-63-55-104-47-167-19-232q0-126 19-231t46-166 55-104 47-64 19-25q0-3-6-9h-28q-29 24-56 53t-61 83-59 116-42 153-18 195"/><path id="n" d="M56 237v13l14 20h299v150l1 150q10 13 19 13 13 0 20-15V270h298q15-8 15-20t-15-20H409V-68q-8-14-18-14h-4q-12 0-18 14v298H70q-14 7-14 20Z"/><path id="o" d="m213 578-13-5q-14-5-40-10t-58-7H83v46h19q47 2 87 15t56 24 28 22q2 3 12 3 9 0 17-6V361l1-300q7-7 12-9t24-4 62-2h26V0h-11q-21 3-159 3-136 0-157-3H88v46h64q16 0 25 1t16 3 8 2 6 5 6 4z"/><path id="p" d="M305 251q0-396-236-600H56q-13 0-17 2t-4 9q2 5 25 31t48 68 52 103 44 163 17 223-17 223-44 163-52 104-48 67-25 32q0 11 15 11h19q128-107 187-284 49-141 49-315"/><path id="q" d="M109 429q-27 0-43 18t-16 44q0 71 53 123t132 52q91 0 152-56t62-145q0-43-20-82t-48-68-80-74q-36-31-100-92l-59-56 76-1q157 0 167 5 7 2 24 89v3h40v-3q-1-3-13-91T421 3V0H50v31q0 7 6 15t30 35q29 32 50 56 9 10 34 37t34 37 29 33 28 34 23 30 21 32 15 29 13 32 7 30 3 33q0 63-34 109t-97 46q-33 0-58-17t-35-33-10-19q0-1 5-1 18 0 37-14t19-46q0-25-16-42t-45-18"/><path id="r" d="M78 250q0 24 17 42t43 18q24 0 42-16t19-43q0-25-17-43t-43-18-43 17-18 43"/><path id="s" d="M94 250q0 69 10 131t23 107 37 88 38 67 42 52 33 34 25 21h17q14 0 14-9 0-3-17-21t-41-53-49-86-42-138-17-193 17-192 41-139 49-86 42-53 17-21q0-9-15-9h-16l-28 24q-94 85-137 212T94 250"/><path id="t" d="m60 749 4 1h22l28-24q94-85 137-212t43-264q0-68-10-131T261 12t-37-88-38-67-41-51-32-33-23-19l-4-4H63q-3 0-5 3t-3 9q1 1 11 13Q221-64 221 250T66 725q-10 12-11 13 0 8 5 11"/><path id="u" d="M5 1677v73h308v-2999H5v73h235v2853z"/><path id="v" d="M247-949v2399h269v-62H309V-887h207v-62z"/><path id="w" d="M11 1388v62h269V-949H11v62h207v2275z"/><path id="x" d="M78 60q0 24 17 42t43 18q24 0 42-16t19-43q0-25-17-43T139 0 96 17 78 60"/></defs><g stroke="currentColor" fill="currentColor" stroke-width="0"><g><g><g><g><use data-c="222B" xlink:href="#a" transform="scale(1 -1) translate(0 2627.7) translate(0 1)"/><g data-mjx-texclass="ORD"><use data-c="1D465" xlink:href="#b" transform="scale(1 -1) translate(0 2627.7) translate(1046.4 1088.1)scale(.707)"/></g><g data-mjx-texclass="ORD"><use data-c="30" xlink:href="#c" transform="scale(1 -1) translate(0 2627.7) translate(589 -896.4)scale(.707)"/></g></g><use data-c="1D465" xlink:href="#b" transform="scale(1 -1) translate(0 2627.7) translate(1667.5)"/><use data-c="1D451" xlink:href="#d" transform="scale(1 -1) translate(0 2627.7) translate(2406.5)"/><use data-c="1D465" xlink:href="#b" transform="scale(1 -1) translate(0 2627.7) translate(2926.5)"/></g><g><use data-c="3D" xlink:href="#e" transform="scale(1 -1) translate(0 2627.7) translate(3498.5) translate(277.8)"/><g><g transform="scale(1 -1) translate(0 2627.7) translate(3498.5) translate(1333.6) translate(332.6)"><use data-c="6C" xlink:href="#f"/><use data-c="69" xlink:href="#g" transform="translate(278)"/><use data-c="6D" xlink:href="#h" transform="translate(556)"/></g><g data-mjx-texclass="ORD"><use data-c="394" xlink:href="#i" transform="scale(1 -1) translate(0 2627.7) translate(3498.5) translate(1333.6) translate(0 -673.3)scale(.707)"/><use data-c="1D465" xlink:href="#b" transform="scale(1 -1) translate(0 2627.7) translate(3498.5) translate(1333.6) translate(0 -673.3)scale(.707) translate(833)"/><use data-c="2192" xlink:href="#j" transform="scale(1 -1) translate(0 2627.7) translate(3498.5) translate(1333.6) translate(0 -673.3)scale(.707) translate(1405)"/><use data-c="30" xlink:href="#c" transform="scale(1 -1) translate(0 2627.7) translate(3498.5) translate(1333.6) translate(0 -673.3)scale(.707) translate(2405)"/></g></g><g><use data-c="5B" xlink:href="#k" transform="scale(1 -1) translate(0 2627.7) translate(3498.5) translate(3554.4) translate(0 -.5)"/><g transform="scale(1 -1) translate(0 2627.7) translate(3498.5) translate(3554.4) translate(583)"><g><g transform="translate(220 814.1)"><use data-c="1D45B" xlink:href="#l" transform="translate(504.6 394)scale(.707)"/><g><use data-c="394" xlink:href="#i" transform="translate(220 -346.3)scale(.707)"/><use data-c="1D465" xlink:href="#b" transform="translate(220 -346.3)scale(.707) translate(833)"/></g><path stroke="none" d="M120 220H1313.5V280H120z"/></g><g><use data-c="28" xlink:href="#m" transform="translate(220 814.1) translate(1433.5) translate(0 -.5)"/><g transform="translate(220 814.1) translate(1433.5) translate(458)"><use data-c="1D45B" xlink:href="#l" transform="translate(504.6 394)scale(.707)"/><g><use data-c="394" xlink:href="#i" transform="translate(220 -346.3)scale(.707)"/><use data-c="1D465" xlink:href="#b" transform="translate(220 -346.3)scale(.707) translate(833)"/></g><path stroke="none" d="M120 220H1313.5V280H120z"/></g><use data-c="2B" xlink:href="#n" transform="translate(220 814.1) translate(1433.5) translate(2113.7)"/><use data-c="31" xlink:href="#o" transform="translate(220 814.1) translate(1433.5) translate(3113.9)"/><use data-c="29" xlink:href="#p" transform="translate(220 814.1) translate(1433.5) translate(3613.9 -.5)"/></g></g><use data-c="32" xlink:href="#q" transform="translate(2722.7 -686)"/><path stroke="none" d="M120 220H5825.4V280H120z"/></g><use data-c="22C5" xlink:href="#r" transform="scale(1 -1) translate(0 2627.7) translate(3498.5) translate(3554.4) translate(6750.6)"/><use data-c="28" xlink:href="#s" transform="scale(1 -1) translate(0 2627.7) translate(3498.5) translate(3554.4) translate(7250.9)"/><use data-c="394" xlink:href="#i" transform="scale(1 -1) translate(0 2627.7) translate(3498.5) translate(3554.4) translate(7639.9)"/><use data-c="1D465" xlink:href="#b" transform="scale(1 -1) translate(0 2627.7) translate(3498.5) translate(3554.4) translate(8472.9)"/><g><use data-c="29" xlink:href="#t" transform="scale(1 -1) translate(0 2627.7) translate(3498.5) translate(3554.4) translate(9044.9)"/><use data-c="32" xlink:href="#q" transform="scale(1 -1) translate(0 2627.7) translate(3498.5) translate(3554.4) translate(9044.9) translate(422 413)scale(.707)"/></g><use data-c="5D" xlink:href="#u" transform="scale(1 -1) translate(0 2627.7) translate(3498.5) translate(3554.4) translate(9870.4 -.5)"/></g></g></g><g><g><use data-c="3D" xlink:href="#e" transform="scale(1 -1) translate(0 -431.7) translate(3498.5) translate(277.8)"/><g><g transform="scale(1 -1) translate(0 -431.7) translate(3498.5) translate(1333.6) translate(332.6)"><use data-c="6C" xlink:href="#f"/><use data-c="69" xlink:href="#g" transform="translate(278)"/><use data-c="6D" xlink:href="#h" transform="translate(556)"/></g><g data-mjx-texclass="ORD"><use data-c="394" xlink:href="#i" transform="scale(1 -1) translate(0 -431.7) translate(3498.5) translate(1333.6) translate(0 -673.3)scale(.707)"/><use data-c="1D465" xlink:href="#b" transform="scale(1 -1) translate(0 -431.7) translate(3498.5) translate(1333.6) translate(0 -673.3)scale(.707) translate(833)"/><use data-c="2192" xlink:href="#j" transform="scale(1 -1) translate(0 -431.7) translate(3498.5) translate(1333.6) translate(0 -673.3)scale(.707) translate(1405)"/><use data-c="30" xlink:href="#c" transform="scale(1 -1) translate(0 -431.7) translate(3498.5) translate(1333.6) translate(0 -673.3)scale(.707) translate(2405)"/></g></g><g><use data-c="5B" xlink:href="#v" transform="scale(1 -1) translate(0 -431.7) translate(3498.5) translate(3554.4) translate(0 -.5)"/><g transform="scale(1 -1) translate(0 -431.7) translate(3498.5) translate(3554.4) translate(528)"><g><use data-c="1D45B" xlink:href="#l" transform="translate(872.5 676)"/><use data-c="32" xlink:href="#q" transform="translate(872.5 676) translate(633 363)scale(.707)"/></g><g><use data-c="32" xlink:href="#q" transform="translate(220 -719.9)"/><use data-c="394" xlink:href="#i" transform="translate(220 -719.9) translate(500)"/><g><use data-c="1D465" xlink:href="#b" transform="translate(220 -719.9) translate(1333)"/><use data-c="32" xlink:href="#q" transform="translate(220 -719.9) translate(1333) translate(605 289)scale(.707)"/></g></g><path stroke="none" d="M120 220H2661.6V280H120z"/></g><use data-c="28" xlink:href="#s" transform="scale(1 -1) translate(0 -431.7) translate(3498.5) translate(3554.4) translate(3309.6)"/><use data-c="394" xlink:href="#i" transform="scale(1 -1) translate(0 -431.7) translate(3498.5) translate(3554.4) translate(3698.6)"/><use data-c="1D465" xlink:href="#b" transform="scale(1 -1) translate(0 -431.7) translate(3498.5) translate(3554.4) translate(4531.6)"/><g><use data-c="29" xlink:href="#t" transform="scale(1 -1) translate(0 -431.7) translate(3498.5) translate(3554.4) translate(5103.6)"/><use data-c="32" xlink:href="#q" transform="scale(1 -1) translate(0 -431.7) translate(3498.5) translate(3554.4) translate(5103.6) translate(422 413)scale(.707)"/></g><use data-c="2B" xlink:href="#n" transform="scale(1 -1) translate(0 -431.7) translate(3498.5) translate(3554.4) translate(6151.3)"/><g transform="scale(1 -1) translate(0 -431.7) translate(3498.5) translate(3554.4) translate(7151.6)"><use data-c="1D45B" xlink:href="#l" transform="translate(872.5 676)"/><g><use data-c="32" xlink:href="#q" transform="translate(220 -686)"/><use data-c="394" xlink:href="#i" transform="translate(220 -686) translate(500)"/><use data-c="1D465" xlink:href="#b" transform="translate(220 -686) translate(1333)"/></g><path stroke="none" d="M120 220H2225V280H120z"/></g><use data-c="28" xlink:href="#s" transform="scale(1 -1) translate(0 -431.7) translate(3498.5) translate(3554.4) translate(9496.6)"/><use data-c="394" xlink:href="#i" transform="scale(1 -1) translate(0 -431.7) translate(3498.5) translate(3554.4) translate(9885.6)"/><use data-c="1D465" xlink:href="#b" transform="scale(1 -1) translate(0 -431.7) translate(3498.5) translate(3554.4) translate(10718.6)"/><g><use data-c="29" xlink:href="#t" transform="scale(1 -1) translate(0 -431.7) translate(3498.5) translate(3554.4) translate(11290.6)"/><use data-c="32" xlink:href="#q" transform="scale(1 -1) translate(0 -431.7) translate(3498.5) translate(3554.4) translate(11290.6) translate(422 413)scale(.707)"/></g><use data-c="5D" xlink:href="#w" transform="scale(1 -1) translate(0 -431.7) translate(3498.5) translate(3554.4) translate(12116.1 -.5)"/></g></g></g><g><g><use data-c="3D" xlink:href="#e" transform="scale(1 -1) translate(0 -3191.2) translate(3498.5) translate(277.8)"/><g transform="scale(1 -1) translate(0 -3191.2) translate(3498.5) translate(1333.6)"><g><use data-c="1D45B" xlink:href="#l" transform="translate(220 676)"/><use data-c="32" xlink:href="#q" transform="translate(220 676) translate(633 363)scale(.707)"/></g><use data-c="32" xlink:href="#q" transform="translate(488.3 -686)"/><path stroke="none" d="M120 220H1356.6V280H120z"/></g><use data-c="2B" xlink:href="#n" transform="scale(1 -1) translate(0 -3191.2) translate(3498.5) translate(3032.3)"/><g transform="scale(1 -1) translate(0 -3191.2) translate(3498.5) translate(4032.6)"><g><use data-c="1D45B" xlink:href="#l" transform="translate(220 676)"/><use data-c="394" xlink:href="#i" transform="translate(220 676) translate(767)"/><use data-c="1D465" xlink:href="#b" transform="translate(220 676) translate(1600)"/></g><use data-c="32" xlink:href="#q" transform="translate(1056 -686)"/><path stroke="none" d="M120 220H2492V280H120z"/></g><use data-c="2E" xlink:href="#x" transform="scale(1 -1) translate(0 -3191.2) translate(3498.5) translate(6644.6)"/></g></g></g></g></svg>