<svg style="vertical-align:-.025ex" xmlns="http://www.w3.org/2000/svg" width="1.303ex" height="1.595ex" viewBox="0 -694 576 705" xmlns:xlink="http://www.w3.org/1999/xlink"><defs><path id="a" d="M137 683q1 0 72 5t73 6q12 0 12-9 0-11-36-151-38-148-38-151 0-2 7 5 61 54 130 54 54 0 87-27t34-79q0-51-38-158T402 50q1-14 5-19t15-5q28 0 52 30t39 82q3 11 6 13t16 2q20 0 20-8 0-1-4-15-16-59-51-97-34-43-81-43h-5q-47 0-68 27t-21 57q0 16 36 118t37 153q0 59-44 59h-5q-83 0-144-98l-7-13-34-135Q132 28 127 16q-13-27-44-27-14 0-24 9T48 16q0 14 73 304l74 296q0 13-7 16t-39 5h-21q-6 6-6 8t2 19q5 19 13 19"/></defs><g stroke="currentColor" fill="currentColor" stroke-width="0"><use data-c="210E" xlink:href="#a" transform="scale(1 -1)"/></g></svg>