<svg style="vertical-align:-.025ex" xmlns="http://www.w3.org/2000/svg" width=".817ex" height="1.441ex" viewBox="0 -626 361 637" xmlns:xlink="http://www.w3.org/1999/xlink"><defs><path id="a" d="M26 385q-7 7-7 10 0 4 3 16t5 14q2 5 9 5t51 1h53l19 80q3 11 7 29t7 26 6 20 8 17 10 12 14 9 18 2q18-1 25-11t7-19q0-7-9-47t-20-79l-10-37q0-2 50-2h51q7-7 7-11 0-22-13-35H210l-36-145Q135 80 135 68q0-42 27-42 35 0 68 34t53 84q2 6 5 7t15 2h4q15 0 15-8 0-3-3-12-5-16-18-38t-34-47-51-42-61-17q-30 0-57 15T59 56q-2 8-2 27v18l35 140q35 141 36 142 0 2-51 2z"/></defs><g stroke="currentColor" fill="currentColor" stroke-width="0"><use data-c="1D461" xlink:href="#a" transform="scale(1 -1)"/></g></svg>