<svg style="vertical-align:-8.354ex" xmlns="http://www.w3.org/2000/svg" width="62.212ex" height="17.839ex" viewBox="0 -4192.4 27497.7 7884.9" xmlns:xlink="http://www.w3.org/1999/xlink"><defs><path id="a" d="M52 289q7 42 54 97t116 56q35 0 64-18t43-45q42 63 101 63 37 0 64-22t28-59q0-29-14-47t-27-22-23-4q-19 0-31 11t-12 29q0 46 50 63-11 13-40 13-13 0-19-2-38-16-56-66-60-221-60-258 0-28 16-40t35-12q37 0 73 33t49 81q3 10 6 11t16 2h4q15 0 15-8 0-1-2-11-16-57-62-101T333-11q-70 0-106 63-41-62-94-62h-6q-49 0-70 26T35 71q0 32 19 52t45 20q43 0 43-42 0-20-12-35t-23-20-13-5l-3-1q0-1 6-4t16-7 19-3q36 0 62 45 9 16 23 68t28 108 16 66q5 27 5 39 0 28-15 40t-34 12q-40 0-75-32t-49-82q-2-9-5-10t-16-2H58q-6 6-6 11"/><path id="b" d="M51 0q-5 4-5 7 0 2 169 350t173 352q3 7 28 7 23 0 28-7 3-4 172-352T786 7q0-3-5-7zm456 344L384 596 137 92l246-1h247q0 2-123 253"/><path id="c" d="M42 0h-2Q26 0 26 11q0 4 3 16 4 14 7 16t19 3q86 3 135 52 10 10 116 126t105 118Q302 620 297 625q-9 11-63 12h-28q-6 6-6 8t2 19q4 13 10 19h14q34-2 121-2h61q28 0 45 1t20 0q17 0 17-11 0-1-2-13-4-15-7-18t-16-3q-31-3-54-17l77-194 53 59q105 113 105 125 0 18-24 25-5 0-13 2-15 0-15 11 0 2 2 16 4 13 10 19h37q24 0 54-2t41-1q90 0 99 3h8q7-7 7-11-2-25-12-35h-16q-34-1-61-9t-41-17-24-18l-11-9q0 1-95-104l-87-96q0-1 31-80t65-162 37-86q10-9 61-10 35 0 35-9 0-2-2-14-4-16-7-19t-14-3h-33q-30 0-89 1h-93q-32 0-35-1-17 0-17 9 0 1 2 15 2 10 4 14t5 5 9 2 16 1 26 7q17 8 17 10-1 0-47 117l-47 118Q241 95 236 84q-4-8-4-12 0-19 29-25h6q5 0 6-1h4q1 0 3-1t3-3 1-7q0-9-2-16-3-13-6-15t-15-3h-18q-15 0-42 1t-59 0Q64 2 42 0"/><path id="d" d="M56 237v13l14 20h299v150l1 150q10 13 19 13 13 0 20-15V270h298q15-8 15-20t-15-20H409V-68q-8-14-18-14h-4q-12 0-18 14v298H70q-14 7-14 20Z"/><path id="e" d="M94 250q0 69 10 131t23 107 37 88 38 67 42 52 33 34 25 21h17q14 0 14-9 0-3-17-21t-41-53-49-86-42-138-17-193 17-192 41-139 49-86 42-53 17-21q0-9-15-9h-16l-28 24q-94 85-137 212T94 250"/><path id="f" d="m60 749 4 1h22l28-24q94-85 137-212t43-264q0-68-10-131T261 12t-37-88-38-67-41-51-32-33-23-19l-4-4H63q-3 0-5 3t-3 9q1 1 11 13Q221-64 221 250T66 725q-10 12-11 13 0 8 5 11"/><path id="g" d="M109 429q-27 0-43 18t-16 44q0 71 53 123t132 52q91 0 152-56t62-145q0-43-20-82t-48-68-80-74q-36-31-100-92l-59-56 76-1q157 0 167 5 7 2 24 89v3h40v-3q-1-3-13-91T421 3V0H50v31q0 7 6 15t30 35q29 32 50 56 9 10 34 37t34 37 29 33 28 34 23 30 21 32 15 29 13 32 7 30 3 33q0 63-34 109t-97 46q-33 0-58-17t-35-33-10-19q0-1 5-1 18 0 37-14t19-46q0-25-16-42t-45-18"/><path id="h" d="M56 347q0 13 14 20h637q15-8 15-20 0-11-14-19l-318-1H72q-16 5-16 20m0-194q0 15 16 20h636q14-10 14-20 0-13-15-20H70q-14 7-14 20"/><path id="i" d="M84 237v13l14 20h581q15-8 15-20t-15-20H98q-14 7-14 20Z"/><path id="j" d="M78 35v25l16 43 43 18q28 0 50-25t23-88q0-35-9-68t-21-57-26-41-24-27-13-9q-4 0-13 9t-9 13 11 16 25 30 26 50 16 73V9l-1-1q-2-1-5-2t-6-3-9-2-12-1q-27 0-44 17Z"/><path id="k" d="M127 463q-27 0-42 17t-16 44q0 55 48 98t116 43q35 0 44-1 74-12 113-53t40-89q0-52-34-101t-94-71l-3-2q0-1 9-3t29-9 38-21q82-53 82-140 0-79-62-138T238-22q-80 0-138 43T42 130q0 28 18 45t45 18q28 0 46-18t18-45q0-11-3-20t-7-16-11-12-12-8-10-4-8-3l-4-1q51-45 124-45 55 0 83 53 17 33 17 101v20q0 95-64 127-15 6-61 7l-42 1-3 2q-2 3-2 16 0 18 8 18 28 0 58 5 34 5 62 42t28 112v8q0 57-35 79-22 14-47 14-32 0-59-11t-38-23-11-12h3q3-1 8-2t10-5 12-7 10-11 8-15 3-20q0-22-14-39t-45-18"/><path id="l" d="M462 0q-18 3-129 3-116 0-134-3h-9v46h58q7 0 17 2t14 5 7 8q1 2 1 54v50H28v46l151 231q153 232 155 233 2 2 21 2h18l6-6V211h92v-46h-92V66q0-7 6-12 8-7 57-8h29V0zM293 211v334L74 212l109-1z"/><path id="m" d="M78 60q0 24 17 42t43 18q24 0 42-16t19-43q0-25-17-43T139 0 96 17 78 60"/></defs><g stroke="currentColor" fill="currentColor" stroke-width="0"><g><g><g><use data-c="1D465" xlink:href="#a" transform="scale(1 -1) translate(0 2648.5) translate(11535.1)"/><use data-c="394" xlink:href="#b" transform="scale(1 -1) translate(0 2648.5) translate(11535.1) translate(739)"/><use data-c="1D44B" xlink:href="#c" transform="scale(1 -1) translate(0 2648.5) translate(11535.1) translate(1572)"/><use data-c="2B" xlink:href="#d" transform="scale(1 -1) translate(0 2648.5) translate(11535.1) translate(2646.2)"/><g transform="scale(1 -1) translate(0 2648.5) translate(11535.1) translate(3646.4)"><g><use data-c="28" xlink:href="#e" transform="translate(220 710)"/><use data-c="394" xlink:href="#b" transform="translate(220 710) translate(389)"/><use data-c="1D44B" xlink:href="#c" transform="translate(220 710) translate(1222)"/><g><use data-c="29" xlink:href="#f" transform="translate(220 710) translate(2074)"/><use data-c="32" xlink:href="#g" transform="translate(220 710) translate(2074) translate(422 363)scale(.707)"/></g></g><use data-c="32" xlink:href="#g" transform="translate(1419.8 -686)"/><path stroke="none" d="M120 220H3219.6V280H120z"/></g></g><g><use data-c="3D" xlink:href="#h" transform="scale(1 -1) translate(0 2648.5) translate(18521.1) translate(277.8)"/><g transform="scale(1 -1) translate(0 2648.5) translate(18521.1) translate(1333.6)"><g><use data-c="28" xlink:href="#e" transform="translate(220 710)"/><use data-c="1D465" xlink:href="#a" transform="translate(220 710) translate(389)"/><use data-c="2B" xlink:href="#d" transform="translate(220 710) translate(1183.2)"/><use data-c="394" xlink:href="#b" transform="translate(220 710) translate(2183.4)"/><use data-c="1D44B" xlink:href="#c" transform="translate(220 710) translate(3016.4)"/><g><use data-c="29" xlink:href="#f" transform="translate(220 710) translate(3868.4)"/><use data-c="32" xlink:href="#g" transform="translate(220 710) translate(3868.4) translate(422 363)scale(.707)"/></g><use data-c="2212" xlink:href="#i" transform="translate(220 710) translate(4916.2)"/><g><use data-c="1D465" xlink:href="#a" transform="translate(220 710) translate(5916.4)"/><use data-c="32" xlink:href="#g" transform="translate(220 710) translate(5916.4) translate(605 363)scale(.707)"/></g></g><use data-c="32" xlink:href="#g" transform="translate(3432.5 -686)"/><path stroke="none" d="M120 220H7245V280H120z"/></g><use data-c="2C" xlink:href="#j" transform="scale(1 -1) translate(0 2648.5) translate(18521.1) translate(8698.6)"/></g></g><g><g><g><use data-c="1D465" xlink:href="#a" transform="scale(1 -1) translate(0 -163.7) translate(6237.6)"/><use data-c="32" xlink:href="#g" transform="scale(1 -1) translate(0 -163.7) translate(6237.6) translate(605 413)scale(.707)"/></g><use data-c="394" xlink:href="#b" transform="scale(1 -1) translate(0 -163.7) translate(6237.6) translate(1175.6)"/><use data-c="1D44B" xlink:href="#c" transform="scale(1 -1) translate(0 -163.7) translate(6237.6) translate(2008.6)"/><use data-c="2B" xlink:href="#d" transform="scale(1 -1) translate(0 -163.7) translate(6237.6) translate(3082.8)"/><use data-c="1D465" xlink:href="#a" transform="scale(1 -1) translate(0 -163.7) translate(6237.6) translate(4083)"/><use data-c="28" xlink:href="#e" transform="scale(1 -1) translate(0 -163.7) translate(6237.6) translate(4822)"/><use data-c="394" xlink:href="#b" transform="scale(1 -1) translate(0 -163.7) translate(6237.6) translate(5211)"/><use data-c="1D44B" xlink:href="#c" transform="scale(1 -1) translate(0 -163.7) translate(6237.6) translate(6044)"/><g><use data-c="29" xlink:href="#f" transform="scale(1 -1) translate(0 -163.7) translate(6237.6) translate(6896)"/><use data-c="32" xlink:href="#g" transform="scale(1 -1) translate(0 -163.7) translate(6237.6) translate(6896) translate(422 413)scale(.707)"/></g><use data-c="2B" xlink:href="#d" transform="scale(1 -1) translate(0 -163.7) translate(6237.6) translate(7943.8)"/><g transform="scale(1 -1) translate(0 -163.7) translate(6237.6) translate(8944)"><g><use data-c="28" xlink:href="#e" transform="translate(220 710)"/><use data-c="394" xlink:href="#b" transform="translate(220 710) translate(389)"/><use data-c="1D44B" xlink:href="#c" transform="translate(220 710) translate(1222)"/><g><use data-c="29" xlink:href="#f" transform="translate(220 710) translate(2074)"/><use data-c="33" xlink:href="#k" transform="translate(220 710) translate(2074) translate(422 363)scale(.707)"/></g></g><use data-c="33" xlink:href="#k" transform="translate(1419.8 -686)"/><path stroke="none" d="M120 220H3219.6V280H120z"/></g></g><g><use data-c="3D" xlink:href="#h" transform="scale(1 -1) translate(0 -163.7) translate(18521.1) translate(277.8)"/><g transform="scale(1 -1) translate(0 -163.7) translate(18521.1) translate(1333.6)"><g><use data-c="28" xlink:href="#e" transform="translate(220 710)"/><use data-c="1D465" xlink:href="#a" transform="translate(220 710) translate(389)"/><use data-c="2B" xlink:href="#d" transform="translate(220 710) translate(1183.2)"/><use data-c="394" xlink:href="#b" transform="translate(220 710) translate(2183.4)"/><use data-c="1D44B" xlink:href="#c" transform="translate(220 710) translate(3016.4)"/><g><use data-c="29" xlink:href="#f" transform="translate(220 710) translate(3868.4)"/><use data-c="33" xlink:href="#k" transform="translate(220 710) translate(3868.4) translate(422 363)scale(.707)"/></g><use data-c="2212" xlink:href="#i" transform="translate(220 710) translate(4916.2)"/><g><use data-c="1D465" xlink:href="#a" transform="translate(220 710) translate(5916.4)"/><use data-c="33" xlink:href="#k" transform="translate(220 710) translate(5916.4) translate(605 363)scale(.707)"/></g></g><use data-c="33" xlink:href="#k" transform="translate(3432.5 -686)"/><path stroke="none" d="M120 220H7245V280H120z"/></g><use data-c="2C" xlink:href="#j" transform="scale(1 -1) translate(0 -163.7) translate(18521.1) translate(8698.6)"/></g></g><g><g><g><use data-c="1D465" xlink:href="#a" transform="scale(1 -1) translate(0 -3006.4)"/><use data-c="33" xlink:href="#k" transform="scale(1 -1) translate(0 -3006.4) translate(605 413)scale(.707)"/></g><use data-c="394" xlink:href="#b" transform="scale(1 -1) translate(0 -3006.4) translate(1175.6)"/><use data-c="1D44B" xlink:href="#c" transform="scale(1 -1) translate(0 -3006.4) translate(2008.6)"/><use data-c="2B" xlink:href="#d" transform="scale(1 -1) translate(0 -3006.4) translate(3082.8)"/><g transform="scale(1 -1) translate(0 -3006.4) translate(4083)"><g><use data-c="33" xlink:href="#k" transform="translate(220 710)"/><g><use data-c="1D465" xlink:href="#a" transform="translate(220 710) translate(500)"/><use data-c="32" xlink:href="#g" transform="translate(220 710) translate(500) translate(605 363)scale(.707)"/></g><use data-c="28" xlink:href="#e" transform="translate(220 710) translate(1675.6)"/><use data-c="394" xlink:href="#b" transform="translate(220 710) translate(2064.6)"/><use data-c="1D44B" xlink:href="#c" transform="translate(220 710) translate(2897.6)"/><g><use data-c="29" xlink:href="#f" transform="translate(220 710) translate(3749.6)"/><use data-c="32" xlink:href="#g" transform="translate(220 710) translate(3749.6) translate(422 363)scale(.707)"/></g></g><use data-c="32" xlink:href="#g" transform="translate(2257.6 -686)"/><path stroke="none" d="M120 220H4895.1V280H120z"/></g><use data-c="2B" xlink:href="#d" transform="scale(1 -1) translate(0 -3006.4) translate(9320.3)"/><use data-c="1D465" xlink:href="#a" transform="scale(1 -1) translate(0 -3006.4) translate(10320.5)"/><use data-c="28" xlink:href="#e" transform="scale(1 -1) translate(0 -3006.4) translate(11059.5)"/><use data-c="394" xlink:href="#b" transform="scale(1 -1) translate(0 -3006.4) translate(11448.5)"/><use data-c="1D44B" xlink:href="#c" transform="scale(1 -1) translate(0 -3006.4) translate(12281.5)"/><g><use data-c="29" xlink:href="#f" transform="scale(1 -1) translate(0 -3006.4) translate(13133.5)"/><use data-c="33" xlink:href="#k" transform="scale(1 -1) translate(0 -3006.4) translate(13133.5) translate(422 413)scale(.707)"/></g><use data-c="2B" xlink:href="#d" transform="scale(1 -1) translate(0 -3006.4) translate(14181.3)"/><g transform="scale(1 -1) translate(0 -3006.4) translate(15181.5)"><g><use data-c="28" xlink:href="#e" transform="translate(220 710)"/><use data-c="394" xlink:href="#b" transform="translate(220 710) translate(389)"/><use data-c="1D44B" xlink:href="#c" transform="translate(220 710) translate(1222)"/><g><use data-c="29" xlink:href="#f" transform="translate(220 710) translate(2074)"/><use data-c="34" xlink:href="#l" transform="translate(220 710) translate(2074) translate(422 363)scale(.707)"/></g></g><use data-c="32" xlink:href="#g" transform="translate(1419.8 -686)"/><path stroke="none" d="M120 220H3219.6V280H120z"/></g></g><g><use data-c="3D" xlink:href="#h" transform="scale(1 -1) translate(0 -3006.4) translate(18521.1) translate(277.8)"/><g transform="scale(1 -1) translate(0 -3006.4) translate(18521.1) translate(1333.6)"><g><use data-c="28" xlink:href="#e" transform="translate(220 710)"/><use data-c="1D465" xlink:href="#a" transform="translate(220 710) translate(389)"/><use data-c="2B" xlink:href="#d" transform="translate(220 710) translate(1183.2)"/><use data-c="394" xlink:href="#b" transform="translate(220 710) translate(2183.4)"/><use data-c="1D44B" xlink:href="#c" transform="translate(220 710) translate(3016.4)"/><g><use data-c="29" xlink:href="#f" transform="translate(220 710) translate(3868.4)"/><use data-c="34" xlink:href="#l" transform="translate(220 710) translate(3868.4) translate(422 363)scale(.707)"/></g><use data-c="2212" xlink:href="#i" transform="translate(220 710) translate(4916.2)"/><g><use data-c="1D465" xlink:href="#a" transform="translate(220 710) translate(5916.4)"/><use data-c="34" xlink:href="#l" transform="translate(220 710) translate(5916.4) translate(605 363)scale(.707)"/></g></g><use data-c="34" xlink:href="#l" transform="translate(3432.5 -686)"/><path stroke="none" d="M120 220H7245V280H120z"/></g><use data-c="2E" xlink:href="#m" transform="scale(1 -1) translate(0 -3006.4) translate(18521.1) translate(8698.6)"/></g></g></g></g></svg>