<svg style="vertical-align:-.025ex" xmlns="http://www.w3.org/2000/svg" width="4.163ex" height="2.025ex" viewBox="0 -883.9 1839.9 894.9" xmlns:xlink="http://www.w3.org/1999/xlink"><defs><path id="a" d="M73 647q0 10 4 23t12 13q1 0 72 5t73 6q12 0 12-9t-34-143q-8-34-17-70t-15-54l-4-19q0-3 6 3 49 40 101 40 62 0 100-46t39-116q0-111-79-201T173-11q-50 0-91 38T40 150v9q0 21 8 58t49 197q50 197 50 209t-38 14H83q-3 0-7 3t-3 7m263-322v6q0 74-61 74-17 0-35-8t-33-21-26-24-18-22l-6-8-21-86q-22-86-22-122 0-48 24-72 16-16 40-16 33 0 67 32 25 23 40 56t33 105 18 106"/><path id="b" d="M21 287q1 6 3 16t12 38 20 47 33 37 46 17q36 0 60-18t30-34 6-21q0-2 1-2l11 11q61 64 139 64 54 0 87-27t34-79-38-157-38-127q0-26 17-26 6 0 9 1 29 5 52 38t35 80q2 8 20 8 20 0 20-8 0-1-4-15-8-29-22-57t-46-56-69-27q-47 0-68 27t-21 56q0 19 36 120t37 152q0 59-44 59h-5q-86 0-145-101l-7-12-33-134Q156 26 151 16q-13-27-43-27-13 0-21 6T76 7t-2 10q0 13 38 163t40 163q1 5 1 23 0 39-24 39-38 0-63-100-6-20-6-21-2-6-19-6H27q-6 6-6 9"/><path id="c" d="M56 237v13l14 20h299v150l1 150q10 13 19 13 13 0 20-15V270h298q15-8 15-20t-15-20H409V-68q-8-14-18-14h-4q-12 0-18 14v298H70q-14 7-14 20Z"/><path id="d" d="m213 578-13-5q-14-5-40-10t-58-7H83v46h19q47 2 87 15t56 24 28 22q2 3 12 3 9 0 17-6V361l1-300q7-7 12-9t24-4 62-2h26V0h-11q-21 3-159 3-136 0-157-3H88v46h64q16 0 25 1t16 3 8 2 6 5 6 4z"/></defs><g stroke="currentColor" fill="currentColor" stroke-width="0"><g><use data-c="1D44F" xlink:href="#a" transform="scale(1 -1)"/><g data-mjx-texclass="ORD"><use data-c="1D45B" xlink:href="#b" transform="scale(1 -1) translate(462 413)scale(.707)"/><use data-c="2B" xlink:href="#c" transform="scale(1 -1) translate(462 413)scale(.707) translate(600)"/><use data-c="31" xlink:href="#d" transform="scale(1 -1) translate(462 413)scale(.707) translate(1378)"/></g></g></g></svg>