<svg style="vertical-align:-.566ex" xmlns="http://www.w3.org/2000/svg" width="86.867ex" height="2.262ex" viewBox="0 -750 38395.1 1000" xmlns:xlink="http://www.w3.org/1999/xlink"><defs><path id="a" d="M295 316q0 40-27 69t-78 29q-36 0-62-13-30-19-30-52-1-5 0-13t16-24 43-25q18-5 44-9t44-9 32-13q17-8 33-20t32-41 17-62q0-62-38-102T198-10h-8q-52 0-96 36l-8-7-9-9Q71 4 65-1L54-11H42q-3 0-9 6v137q0 21 2 25t10 5h9q12 0 16-4t5-12 7-27 19-42q35-51 97-51 97 0 97 78 0 29-18 47-20 24-83 36t-83 23q-36 17-57 46t-21 62q0 39 17 66t43 40 50 18 44 5h11q40 0 70-15l15-8 9 7q10 9 22 17h12q3 0 9-6V310l-6-6h-28q-6 6-6 12"/><path id="b" d="M69 609q0 28 18 44t44 16q23-2 40-17t17-43q0-30-17-45t-42-15-42 15-18 45M247 0q-15 3-104 3h-37Q80 3 56 1L34 0h-8v46h16q28 0 49 3 9 4 11 11t2 42v191q0 52-2 66t-14 19q-14 7-47 7H30v23q0 23 2 23l10 1q10 1 28 2t36 2q17 1 36 2t29 3 11 1h3V62q5-10 12-12t35-4h23V0z"/><path id="c" d="M41 46h14q39 0 47 14v62q0 17 1 39t0 42v66q0 35-1 59v23q-3 19-14 25t-45 9H25v23q0 23 2 23l10 1q10 1 28 2t37 2q17 1 36 2t29 3 11 1h3v-40q0-38 1-38t5 5 12 15 19 18 29 19 38 16 51 5q114-4 127-113 1-7 1-139v-86q0-38 2-45t11-10q21-3 49-3h16V0h-8l-24 1q-23 1-50 1t-38 1Q319 3 310 0h-8v46h16q61 0 61 16 1 2 1 138-1 135-2 143-6 28-20 42t-24 17-26 2q-45 0-79-34-27-27-34-55t-8-83V108q0-30 1-40t3-13 9-6q21-3 49-3h16V0h-8l-23 1q-24 1-51 1t-38 1Q42 3 33 0h-8v46z"/><path id="d" d="M94 250q0 69 10 131t23 107 37 88 38 67 42 52 33 34 25 21h17q14 0 14-9 0-3-17-21t-41-53-49-86-42-138-17-193 17-192 41-139 49-86 42-53 17-21q0-9-15-9h-16l-28 24q-94 85-137 212T94 250"/><path id="e" d="M51 0q-5 4-5 7 0 2 169 350t173 352q3 7 28 7 23 0 28-7 3-4 172-352T786 7q0-3-5-7zm456 344L384 596 137 92l246-1h247q0 2-123 253"/><path id="f" d="M52 289q7 42 54 97t116 56q35 0 64-18t43-45q42 63 101 63 37 0 64-22t28-59q0-29-14-47t-27-22-23-4q-19 0-31 11t-12 29q0 46 50 63-11 13-40 13-13 0-19-2-38-16-56-66-60-221-60-258 0-28 16-40t35-12q37 0 73 33t49 81q3 10 6 11t16 2h4q15 0 15-8 0-1-2-11-16-57-62-101T333-11q-70 0-106 63-41-62-94-62h-6q-49 0-70 26T35 71q0 32 19 52t45 20q43 0 43-42 0-20-12-35t-23-20-13-5l-3-1q0-1 6-4t16-7 19-3q36 0 62 45 9 16 23 68t28 108 16 66q5 27 5 39 0 28-15 40t-34 12q-40 0-75-32t-49-82q-2-9-5-10t-16-2H58q-6 6-6 11"/><path id="g" d="m60 749 4 1h22l28-24q94-85 137-212t43-264q0-68-10-131T261 12t-37-88-38-67-41-51-32-33-23-19l-4-4H63q-3 0-5 3t-3 9q1 1 11 13Q221-64 221 250T66 725q-10 12-11 13 0 8 5 11"/><path id="h" d="M84 237v13l14 20h581q15-8 15-20t-15-20H98q-14 7-14 20Z"/><path id="i" d="M96 585q56 81 153 81 48 0 96-26t78-92q37-83 37-228 0-155-43-237-20-42-55-67t-61-31-51-7q-26 0-52 6t-61 32-55 67q-43 82-43 237 0 174 57 265m225 12q-30 32-71 32-42 0-72-32-25-26-33-72t-8-192q0-158 8-208t36-79q28-30 69-30 40 0 68 30 29 30 36 84t8 203q0 145-8 191t-33 73"/><path id="j" d="M56 237v13l14 20h299v150l1 150q10 13 19 13 13 0 20-15V270h298q15-8 15-20t-15-20H409V-68q-8-14-18-14h-4q-12 0-18 14v298H70q-14 7-14 20Z"/><path id="k" d="M109 429q-27 0-43 18t-16 44q0 71 53 123t132 52q91 0 152-56t62-145q0-43-20-82t-48-68-80-74q-36-31-100-92l-59-56 76-1q157 0 167 5 7 2 24 89v3h40v-3q-1-3-13-91T421 3V0H50v31q0 7 6 15t30 35q29 32 50 56 9 10 34 37t34 37 29 33 28 34 23 30 21 32 15 29 13 32 7 30 3 33q0 63-34 109t-97 46q-33 0-58-17t-35-33-10-19q0-1 5-1 18 0 37-14t19-46q0-25-16-42t-45-18"/><path id="l" d="M78 250q0 24 17 42t43 18q24 0 42-16t19-43q0-25-17-43t-43-18-43 17-18 43m447 0q0 24 17 42t43 18q24 0 42-16t19-43q0-25-17-43t-43-18-43 17-18 43m447 0q0 24 17 42t43 18q24 0 42-16t19-43q0-25-17-43t-43-18-43 17-18 43"/><path id="m" d="M234 637h-8q-25 0-30 1t-5 11q0 27 11 33 2 1 97 1h88q11 0 14-6 211-496 215-509l54 213q53 211 53 225 0 27-64 31-24 0-24 11 0 2 2 12 4 16 6 19t10 4q3 0 31-1t83-2q50 0 76 1t30 1q15 0 15-10 0-22-8-30-2-5-22-5-71-4-89-40L620 7q-2-7-21-7-14 0-17 2-3 3-129 303L326 604l-65-260Q196 88 196 79q5-33 72-33h10q6-5 6-8t-2-19q-4-13-10-19h-13q-31 2-108 2H63Q49 2 46 1q-15 0-15 9 0 4 3 16t5 14q2 6 23 6 68 3 88 39 4 6 71 277l68 272q-2 1-55 3"/><path id="n" d="M56 347q0 13 14 20h637q15-8 15-20 0-11-14-19l-318-1H72q-16 5-16 20m0-194q0 15 16 20h636q14-10 14-20 0-13-15-20H70q-14 7-14 20"/><path id="o" d="M78 60q0 24 17 42t43 18q24 0 42-16t19-43q0-25-17-43T139 0 96 17 78 60"/></defs><g stroke="currentColor" fill="currentColor" stroke-width="0"><g transform="scale(1 -1)"><use data-c="73" xlink:href="#a"/><use data-c="69" xlink:href="#b" transform="translate(394)"/><use data-c="6E" xlink:href="#c" transform="translate(672)"/></g><use data-c="28" xlink:href="#d" transform="scale(1 -1) translate(1228)"/><use data-c="394" xlink:href="#e" transform="scale(1 -1) translate(1617)"/><use data-c="1D465" xlink:href="#f" transform="scale(1 -1) translate(2450)"/><use data-c="29" xlink:href="#g" transform="scale(1 -1) translate(3022)"/><use data-c="2212" xlink:href="#h" transform="scale(1 -1) translate(3633.2)"/><g transform="scale(1 -1) translate(4633.4)"><use data-c="73" xlink:href="#a"/><use data-c="69" xlink:href="#b" transform="translate(394)"/><use data-c="6E" xlink:href="#c" transform="translate(672)"/></g><use data-c="28" xlink:href="#d" transform="scale(1 -1) translate(5861.4)"/><use data-c="30" xlink:href="#i" transform="scale(1 -1) translate(6250.4)"/><use data-c="29" xlink:href="#g" transform="scale(1 -1) translate(6750.4)"/><use data-c="2B" xlink:href="#j" transform="scale(1 -1) translate(7361.7)"/><g transform="scale(1 -1) translate(8361.9)"><use data-c="73" xlink:href="#a"/><use data-c="69" xlink:href="#b" transform="translate(394)"/><use data-c="6E" xlink:href="#c" transform="translate(672)"/></g><use data-c="28" xlink:href="#d" transform="scale(1 -1) translate(9589.9)"/><use data-c="32" xlink:href="#k" transform="scale(1 -1) translate(9978.9)"/><use data-c="394" xlink:href="#e" transform="scale(1 -1) translate(10478.9)"/><use data-c="1D465" xlink:href="#f" transform="scale(1 -1) translate(11311.9)"/><use data-c="29" xlink:href="#g" transform="scale(1 -1) translate(11883.9)"/><use data-c="2212" xlink:href="#h" transform="scale(1 -1) translate(12495.1)"/><g transform="scale(1 -1) translate(13495.3)"><use data-c="73" xlink:href="#a"/><use data-c="69" xlink:href="#b" transform="translate(394)"/><use data-c="6E" xlink:href="#c" transform="translate(672)"/></g><use data-c="28" xlink:href="#d" transform="scale(1 -1) translate(14723.3)"/><use data-c="394" xlink:href="#e" transform="scale(1 -1) translate(15112.3)"/><use data-c="1D465" xlink:href="#f" transform="scale(1 -1) translate(15945.3)"/><use data-c="29" xlink:href="#g" transform="scale(1 -1) translate(16517.3)"/><use data-c="2B" xlink:href="#j" transform="scale(1 -1) translate(17128.6)"/><use data-c="22EF" xlink:href="#l" transform="scale(1 -1) translate(18128.8)"/><use data-c="2B" xlink:href="#j" transform="scale(1 -1) translate(19523)"/><g transform="scale(1 -1) translate(20523.2)"><use data-c="73" xlink:href="#a"/><use data-c="69" xlink:href="#b" transform="translate(394)"/><use data-c="6E" xlink:href="#c" transform="translate(672)"/></g><use data-c="28" xlink:href="#d" transform="scale(1 -1) translate(21751.2)"/><use data-c="1D441" xlink:href="#m" transform="scale(1 -1) translate(22140.2)"/><use data-c="29" xlink:href="#g" transform="scale(1 -1) translate(23028.2)"/><use data-c="2212" xlink:href="#h" transform="scale(1 -1) translate(23639.4)"/><g transform="scale(1 -1) translate(24639.7)"><use data-c="73" xlink:href="#a"/><use data-c="69" xlink:href="#b" transform="translate(394)"/><use data-c="6E" xlink:href="#c" transform="translate(672)"/></g><use data-c="28" xlink:href="#d" transform="scale(1 -1) translate(25867.7)"/><use data-c="1D441" xlink:href="#m" transform="scale(1 -1) translate(26256.7)"/><use data-c="2212" xlink:href="#h" transform="scale(1 -1) translate(27366.9)"/><use data-c="394" xlink:href="#e" transform="scale(1 -1) translate(28367.1)"/><use data-c="1D465" xlink:href="#f" transform="scale(1 -1) translate(29200.1)"/><use data-c="29" xlink:href="#g" transform="scale(1 -1) translate(29772.1)"/><use data-c="3D" xlink:href="#n" transform="scale(1 -1) translate(30438.9)"/><g transform="scale(1 -1) translate(31494.7)"><use data-c="73" xlink:href="#a"/><use data-c="69" xlink:href="#b" transform="translate(394)"/><use data-c="6E" xlink:href="#c" transform="translate(672)"/></g><use data-c="28" xlink:href="#d" transform="scale(1 -1) translate(32722.7)"/><use data-c="1D441" xlink:href="#m" transform="scale(1 -1) translate(33111.7)"/><use data-c="29" xlink:href="#g" transform="scale(1 -1) translate(33999.7)"/><use data-c="2212" xlink:href="#h" transform="scale(1 -1) translate(34610.9)"/><g transform="scale(1 -1) translate(35611.1)"><use data-c="73" xlink:href="#a"/><use data-c="69" xlink:href="#b" transform="translate(394)"/><use data-c="6E" xlink:href="#c" transform="translate(672)"/></g><use data-c="28" xlink:href="#d" transform="scale(1 -1) translate(36839.1)"/><use data-c="30" xlink:href="#i" transform="scale(1 -1) translate(37228.1)"/><use data-c="29" xlink:href="#g" transform="scale(1 -1) translate(37728.1)"/><use data-c="2E" xlink:href="#o" transform="scale(1 -1) translate(38117.1)"/></g></svg>