<svg style="vertical-align:-.566ex" xmlns="http://www.w3.org/2000/svg" width="5.946ex" height="2.262ex" viewBox="0 -750 2628 1000" xmlns:xlink="http://www.w3.org/1999/xlink"><defs><path id="a" d="M42 46h14q39 0 47 14v64q0 19 1 43t0 50 0 55 0 57v213q0 26-1 44t0 17q-3 19-14 25t-45 9H26v23q0 23 2 23l10 1q10 1 29 2t37 2q17 1 37 2t30 3 11 1h3V379q0-317 1-319 4-8 12-11 21-3 49-3h16V0h-8l-23 1q-23 1-49 1t-38 1-38 0-50-2L34 0h-8v46z"/><path id="b" d="M28 214q0 95 65 164t157 70q90 0 155-68t66-165q0-95-64-160T250-10q-97 0-159 67T28 214M250 30q122 0 122 163v57q0 22-1 38t-7 38-16 36-31 28-49 20q-5 1-16 1-30 0-57-12-43-22-56-61t-13-92v-20q0-96 19-135 32-61 105-61"/><path id="c" d="M329 409q44 44 100 44 30 0 43-19t13-38q0-14-9-25t-27-11q-33 0-37 30-2 14 3 21 0 1 1 3v1q-28-3-53-22-8-5-8-7 0-1 4-5t9-12 11-18 9-26 4-33q0-62-49-105t-121-44q-50 0-99 28-11-18-11-38 0-35 26-52 9-6 17-6t72-2q84-1 108-6 61-9 96-41 39-39 39-98 0-67-78-103-60-31-142-31-83 0-143 31-78 35-78 100 0 36 21 60t42 33l11 6q-36 31-36 84 0 47 29 85-44 44-44 99 0 63 50 106t121 44q51 0 95-26zm-30-66q-5 28-26 44t-52 17q-29 0-50-16t-26-45q-3-17-3-51 0-44 7-65t30-35q17-10 43-10 22 0 38 7t23 18 11 20 5 15q3 16 3 50t-3 51M403-75q0 25-14 41t-41 23-49 9-54 2h-27q-67 0-80-6-20-9-31-28T95-74q0-10 6-23t21-30 48-28 80-12q69 0 111 28t42 64"/><path id="d" d="M94 250q0 69 10 131t23 107 37 88 38 67 42 52 33 34 25 21h17q14 0 14-9 0-3-17-21t-41-53-49-86-42-138-17-193 17-192 41-139 49-86 42-53 17-21q0-9-15-9h-16l-28 24q-94 85-137 212T94 250"/><path id="e" d="M52 289q7 42 54 97t116 56q35 0 64-18t43-45q42 63 101 63 37 0 64-22t28-59q0-29-14-47t-27-22-23-4q-19 0-31 11t-12 29q0 46 50 63-11 13-40 13-13 0-19-2-38-16-56-66-60-221-60-258 0-28 16-40t35-12q37 0 73 33t49 81q3 10 6 11t16 2h4q15 0 15-8 0-1-2-11-16-57-62-101T333-11q-70 0-106 63-41-62-94-62h-6q-49 0-70 26T35 71q0 32 19 52t45 20q43 0 43-42 0-20-12-35t-23-20-13-5l-3-1q0-1 6-4t16-7 19-3q36 0 62 45 9 16 23 68t28 108 16 66q5 27 5 39 0 28-15 40t-34 12q-40 0-75-32t-49-82q-2-9-5-10t-16-2H58q-6 6-6 11"/><path id="f" d="m60 749 4 1h22l28-24q94-85 137-212t43-264q0-68-10-131T261 12t-37-88-38-67-41-51-32-33-23-19l-4-4H63q-3 0-5 3t-3 9q1 1 11 13Q221-64 221 250T66 725q-10 12-11 13 0 8 5 11"/></defs><g stroke="currentColor" fill="currentColor" stroke-width="0"><g transform="scale(1 -1)"><use data-c="6C" xlink:href="#a"/><use data-c="6F" xlink:href="#b" transform="translate(278)"/><use data-c="67" xlink:href="#c" transform="translate(778)"/></g><use data-c="28" xlink:href="#d" transform="scale(1 -1) translate(1278)"/><use data-c="1D465" xlink:href="#e" transform="scale(1 -1) translate(1667)"/><use data-c="29" xlink:href="#f" transform="scale(1 -1) translate(2239)"/></g></svg>