<svg style="vertical-align:-.566ex" xmlns="http://www.w3.org/2000/svg" width="16.416ex" height="2.262ex" viewBox="0 -750 7256 1000" xmlns:xlink="http://www.w3.org/1999/xlink"><defs><path id="a" d="M48 1Q31 1 31 11q0 2 3 14 4 16 8 18t23 3q27 0 60 3 14 3 19 12 2 5 71 281t70 280q0 7-4 7-8 3-53 5h-31q-6 6-6 8t2 17q4 17 10 21h539q7-4 7-11 0-5-13-112t-14-110q-2-7-20-7h-12q-7 5-7 13 0 1 3 24t3 53-7 49-19 31-37 16-51 7-72 1h-23q-82-1-87-3t-7-8q-1-1-34-131l-32-129h78q20 0 28 1t22 3 24 7 17 12q13 12 22 33t13 38 5 18q3 5 19 5h12q7-5 7-10 0-3-31-131t-34-132q-2-7-20-7h-12q-7 6-7 12 0 3 5 22t5 40q0 29-20 36t-89 7h-55l-32-127Q245 66 245 60q0-14 89-14h25q6-6 6-7t-2-20q-4-13-10-19h-17q-41 2-151 2H86Q52 2 48 1"/><path id="b" d="M94 250q0 69 10 131t23 107 37 88 38 67 42 52 33 34 25 21h17q14 0 14-9 0-3-17-21t-41-53-49-86-42-138-17-193 17-192 41-139 49-86 42-53 17-21q0-9-15-9h-16l-28 24q-94 85-137 212T94 250"/><path id="c" d="M52 289q7 42 54 97t116 56q35 0 64-18t43-45q42 63 101 63 37 0 64-22t28-59q0-29-14-47t-27-22-23-4q-19 0-31 11t-12 29q0 46 50 63-11 13-40 13-13 0-19-2-38-16-56-66-60-221-60-258 0-28 16-40t35-12q37 0 73 33t49 81q3 10 6 11t16 2h4q15 0 15-8 0-1-2-11-16-57-62-101T333-11q-70 0-106 63-41-62-94-62h-6q-49 0-70 26T35 71q0 32 19 52t45 20q43 0 43-42 0-20-12-35t-23-20-13-5l-3-1q0-1 6-4t16-7 19-3q36 0 62 45 9 16 23 68t28 108 16 66q5 27 5 39 0 28-15 40t-34 12q-40 0-75-32t-49-82q-2-9-5-10t-16-2H58q-6 6-6 11"/><path id="d" d="M184 600q0 24 19 42t44 19q18 0 30-12t13-30q0-23-20-42t-44-20q-15 0-28 10t-14 33M21 287q0 8 9 31t24 51 44 51 60 22q39 0 65-23t27-62q0-17-14-56t-40-105-42-113q-5-22-5-32 0-25 17-25 9 0 19 3t23 14 27 35 25 59q3 12 5 14t17 2q20 0 20-10 0-8-9-31t-25-51-45-50-62-22q-32 0-59 21T74 74q0 17 5 32t43 114q38 101 44 121t7 39q0 24-17 24h-2q-30 0-55-33t-38-84q-1-1-2-3t-1-3-2-2-3-1-4 0-8 0H27q-6 6-6 9"/><path id="e" d="M56 237v13l14 20h299v150l1 150q10 13 19 13 13 0 20-15V270h298q15-8 15-20t-15-20H409V-68q-8-14-18-14h-4q-12 0-18 14v298H70q-14 7-14 20Z"/><path id="f" d="m213 578-13-5q-14-5-40-10t-58-7H83v46h19q47 2 87 15t56 24 28 22q2 3 12 3 9 0 17-6V361l1-300q7-7 12-9t24-4 62-2h26V0h-11q-21 3-159 3-136 0-157-3H88v46h64q16 0 25 1t16 3 8 2 6 5 6 4z"/><path id="g" d="m60 749 4 1h22l28-24q94-85 137-212t43-264q0-68-10-131T261 12t-37-88-38-67-41-51-32-33-23-19l-4-4H63q-3 0-5 3t-3 9q1 1 11 13Q221-64 221 250T66 725q-10 12-11 13 0 8 5 11"/><path id="h" d="M84 237v13l14 20h581q15-8 15-20t-15-20H98q-14 7-14 20Z"/><path id="i" d="M78 60q0 24 17 42t43 18q24 0 42-16t19-43q0-25-17-43T139 0 96 17 78 60"/></defs><g stroke="currentColor" fill="currentColor" stroke-width="0"><use data-c="1D439" xlink:href="#a" transform="scale(1 -1)"/><use data-c="28" xlink:href="#b" transform="scale(1 -1) translate(749)"/><g><use data-c="1D465" xlink:href="#c" transform="scale(1 -1) translate(1138)"/><g data-mjx-texclass="ORD"><use data-c="1D456" xlink:href="#d" transform="scale(1 -1) translate(1138) translate(605 -150)scale(.707)"/><use data-c="2B" xlink:href="#e" transform="scale(1 -1) translate(1138) translate(605 -150)scale(.707) translate(345)"/><use data-c="31" xlink:href="#f" transform="scale(1 -1) translate(1138) translate(605 -150)scale(.707) translate(1123)"/></g></g><use data-c="29" xlink:href="#g" transform="scale(1 -1) translate(2940.6)"/><use data-c="2212" xlink:href="#h" transform="scale(1 -1) translate(3551.9)"/><use data-c="1D439" xlink:href="#a" transform="scale(1 -1) translate(4552.1)"/><use data-c="28" xlink:href="#b" transform="scale(1 -1) translate(5301.1)"/><g><use data-c="1D465" xlink:href="#c" transform="scale(1 -1) translate(5690.1)"/><use data-c="1D456" xlink:href="#d" transform="scale(1 -1) translate(5690.1) translate(605 -150)scale(.707)"/></g><use data-c="29" xlink:href="#g" transform="scale(1 -1) translate(6589)"/><use data-c="2E" xlink:href="#i" transform="scale(1 -1) translate(6978)"/></g></svg>