<svg style="vertical-align:-3.014ex" xmlns="http://www.w3.org/2000/svg" width="27.403ex" height="6.549ex" viewBox="0 -1562.5 12112.1 2894.7" xmlns:xlink="http://www.w3.org/1999/xlink"><defs><path id="a" d="M94 250q0 69 10 131t23 107 37 88 38 67 42 52 33 34 25 21h17q14 0 14-9 0-3-17-21t-41-53-49-86-42-138-17-193 17-192 41-139 49-86 42-53 17-21q0-9-15-9h-16l-28 24q-94 85-137 212T94 250"/><path id="b" d="M33 157q0 101 76 192t171 92q51 0 90-49 16 30 46 30 13 0 23-8t10-20q0-13-37-160T374 68q0-25 7-33t21-9q9 1 20 9 21 20 41 96 6 20 10 21 2 1 10 1h4q19 0 19-9 0-6-5-27t-20-54-32-50Q436 0 417-8q-8-2-24-2-34 0-57 15t-30 31l-6 15q-1 1-4-1l-4-4q-59-56-120-56-55 0-97 40T33 157m318 171q0 6-5 22t-23 35-46 20q-35 0-67-31t-50-81q-29-79-41-164v-11q0-8-1-12 0-45 18-62t43-18q38 0 75 33t44 51q2 4 27 107t26 111"/><path id="c" d="M56 237v13l14 20h299v150l1 150q10 13 19 13 13 0 20-15V270h298q15-8 15-20t-15-20H409V-68q-8-14-18-14h-4q-12 0-18 14v298H70q-14 7-14 20Z"/><path id="d" d="M73 647q0 10 4 23t12 13q1 0 72 5t73 6q12 0 12-9t-34-143q-8-34-17-70t-15-54l-4-19q0-3 6 3 49 40 101 40 62 0 100-46t39-116q0-111-79-201T173-11q-50 0-91 38T40 150v9q0 21 8 58t49 197q50 197 50 209t-38 14H83q-3 0-7 3t-3 7m263-322v6q0 74-61 74-17 0-35-8t-33-21-26-24-18-22l-6-8-21-86q-22-86-22-122 0-48 24-72 16-16 40-16 33 0 67 32 25 23 40 56t33 105 18 106"/><path id="e" d="m60 749 4 1h22l28-24q94-85 137-212t43-264q0-68-10-131T261 12t-37-88-38-67-41-51-32-33-23-19l-4-4H63q-3 0-5 3t-3 9q1 1 11 13Q221-64 221 250T66 725q-10 12-11 13 0 8 5 11"/><path id="f" d="M21 287q1 6 3 16t12 38 20 47 32 37 44 17 43-7 30-18 16-22 8-19l2-7q0-2 1-2l11 11q60 64 141 64 17 0 31-2t26-7 19-10 15-12 10-13 8-13 4-12 3-9 2-7l8 10q63 75 149 75 54 0 87-27t34-79q0-51-38-158T704 50q1-14 5-19t15-5q28 0 52 30t39 82q3 11 6 13t16 2q20 0 20-8 0-1-4-15-8-29-22-57t-46-56-69-27q-47 0-68 27t-21 56q0 19 36 120t37 152q0 59-44 59h-5q-86 0-145-101l-7-12-33-134Q433 26 428 16q-13-27-43-27-13 0-21 7T353 8t-3 10q0 11 34 143l36 146q3 15 3 38 0 59-44 59h-5q-86 0-145-101l-7-12-33-134Q156 26 151 16q-13-27-43-27-13 0-21 6T76 7t-2 10q0 13 38 164 39 154 39 161 3 15 3 27 0 36-25 36-22 0-37-28t-23-61-12-36q-2-2-16-2H27q-6 6-6 9"/><path id="g" d="M56 347q0 13 14 20h637q15-8 15-20 0-11-14-19l-318-1H72q-16 5-16 20m0-194q0 15 16 20h636q14-10 14-20 0-13-15-20H70q-14 7-14 20"/><path id="h" d="M60 948q3 2 605 2h602l58-135q59-138 63-146h-40l-7 14q-21 41-56 78-50 48-111 77t-141 43-151 17-183 4H251l8-11q463-633 465-639 1-2 0-6-3-3-264-302L196-356q0-1 211-1h141q89 0 128-1 136 0 220 5t167 21 141 49 103 87q21 26 41 72h40q0-1-7-21t-25-65-31-84l-58-155-601-1q-602 0-605 2-6 2-6 9 0 2 2 6l533 610q0 1-33 45T452 366 322 544L56 909l-1 15q0 21 5 24"/><path id="i" d="M297 596q0 31 21 48t43 17q17 0 28-10t14-28q0-28-19-47t-44-19q-18 0-30 10t-13 29m-9-220q0 29-26 29-22 0-42-12t-35-31-24-37-17-32l-7-14q-2-1-16-1h-14q-6 6-6 8t4 13q21 49 59 92t88 50h8q7 0 12 1 24-1 44-10 25-14 38-31t13-53v-16l-49-199Q267-67 264-75q-18-50-70-89T75-204q-50 0-68 21t-19 46q0 27 19 46t46 20q17 0 29-10t13-31q0-36-32-55 6-1 14-1 34 0 62 28t43 66l11 42q11 43 26 104t32 125 27 111 11 57q0 7-1 11"/><path id="j" d="M96 585q56 81 153 81 48 0 96-26t78-92q37-83 37-228 0-155-43-237-20-42-55-67t-61-31-51-7q-26 0-52 6t-61 32-55 67q-43 82-43 237 0 174 57 265m225 12q-30 32-71 32-42 0-72-32-25-26-33-72t-8-192q0-158 8-208t36-79q28-30 69-30 40 0 68 30 29 30 36 84t8 203q0 145-8 191t-33 73"/><path id="k" d="M701-940q0-3-6-9h-31q-2 2-28 27t-45 43-54 61-62 81-63 101-62 125-55 149-45 176-29 203-12 234q0 711 364 1110 23 25 43 44t33 32 15 13h31q6-6 6-9 0-5-20-26t-52-59-72-95-81-143-76-191-60-252-32-316q-2-38-2-109 0-389 94-680t290-494q11-12 11-16"/><path id="l" d="M34 1438q0 8 3 10t13 2h21q2-2 28-27t45-43 54-61 62-81 63-101 62-124 55-149 45-176 29-203 12-234q0-117-7-198-47-572-357-913-23-25-43-44t-33-32-15-13H56q-13 0-17 2t-5 10q54 54 106 124Q428-430 428 251q0 202-26 377t-64 294-93 224-100 163-99 116l-4 4q-2 2-3 4t-3 3z"/><path id="m" d="M84 237v13l14 20h581q15-8 15-20t-15-20H98q-14 7-14 20Z"/><path id="n" d="M78 35v25l16 43 43 18q28 0 50-25t23-88q0-35-9-68t-21-57-26-41-24-27-13-9q-4 0-13 9t-9 13 11 16 25 30 26 50 16 73V9l-1-1q-2-1-5-2t-6-3-9-2-12-1q-27 0-44 17Z"/></defs><g stroke="currentColor" fill="currentColor" stroke-width="0"><use data-c="28" xlink:href="#a" transform="scale(1 -1)"/><use data-c="1D44E" xlink:href="#b" transform="scale(1 -1) translate(389)"/><use data-c="2B" xlink:href="#c" transform="scale(1 -1) translate(1140.2)"/><use data-c="1D44F" xlink:href="#d" transform="scale(1 -1) translate(2140.4)"/><g><use data-c="29" xlink:href="#e" transform="scale(1 -1) translate(2569.4)"/><use data-c="1D45A" xlink:href="#f" transform="scale(1 -1) translate(2569.4) translate(422 413)scale(.707)"/></g><use data-c="3D" xlink:href="#g" transform="scale(1 -1) translate(3940.1)"/><g><use data-c="2211" xlink:href="#h" transform="scale(1 -1) translate(4995.8)"/><g data-mjx-texclass="ORD"><use data-c="1D457" xlink:href="#i" transform="scale(1 -1) translate(4995.8) translate(124.5 -1087.9)scale(.707)"/><use data-c="3D" xlink:href="#g" transform="scale(1 -1) translate(4995.8) translate(124.5 -1087.9)scale(.707) translate(412)"/><use data-c="30" xlink:href="#j" transform="scale(1 -1) translate(4995.8) translate(124.5 -1087.9)scale(.707) translate(1190)"/></g><g data-mjx-texclass="ORD"><use data-c="1D45A" xlink:href="#f" transform="scale(1 -1) translate(4995.8) translate(411.6 1150)scale(.707)"/></g></g><g><g data-mjx-texclass="OPEN"><use data-c="28" xlink:href="#k" transform="scale(1 -1) translate(6606.5) translate(0 -.5)"/></g><g><use data-c="1D45A" xlink:href="#f" transform="scale(1 -1) translate(6606.5) translate(736) translate(0 676)"/><use data-c="1D457" xlink:href="#i" transform="scale(1 -1) translate(6606.5) translate(736) translate(233 -686)"/></g><g data-mjx-texclass="CLOSE"><use data-c="29" xlink:href="#l" transform="scale(1 -1) translate(6606.5) translate(1614) translate(0 -.5)"/></g></g><g><use data-c="1D44E" xlink:href="#b" transform="scale(1 -1) translate(8956.5)"/><g data-mjx-texclass="ORD"><use data-c="1D45A" xlink:href="#f" transform="scale(1 -1) translate(8956.5) translate(562 413)scale(.707)"/><use data-c="2212" xlink:href="#m" transform="scale(1 -1) translate(8956.5) translate(562 413)scale(.707) translate(878)"/><use data-c="1D457" xlink:href="#i" transform="scale(1 -1) translate(8956.5) translate(562 413)scale(.707) translate(1656)"/></g></g><g><use data-c="1D44F" xlink:href="#d" transform="scale(1 -1) translate(11030.8)"/><use data-c="1D457" xlink:href="#i" transform="scale(1 -1) translate(11030.8) translate(462 413)scale(.707)"/></g><use data-c="2C" xlink:href="#n" transform="scale(1 -1) translate(11834.1)"/></g></svg>