<svg style="vertical-align:-.186ex" xmlns="http://www.w3.org/2000/svg" width="3.063ex" height="1.756ex" viewBox="0 -694 1354 776" xmlns:xlink="http://www.w3.org/1999/xlink"><defs><path id="a" d="M56 237v13l14 20h299v150l1 150q10 13 19 13 13 0 20-15V270h298q15-8 15-20t-15-20H409V-68q-8-14-18-14h-4q-12 0-18 14v298H70q-14 7-14 20Z"/><path id="b" d="M137 683q1 0 72 5t73 6q12 0 12-9 0-11-36-151-38-148-38-151 0-2 7 5 61 54 130 54 54 0 87-27t34-79q0-51-38-158T402 50q1-14 5-19t15-5q28 0 52 30t39 82q3 11 6 13t16 2q20 0 20-8 0-1-4-15-16-59-51-97-34-43-81-43h-5q-47 0-68 27t-21 57q0 16 36 118t37 153q0 59-44 59h-5q-83 0-144-98l-7-13-34-135Q132 28 127 16q-13-27-44-27-14 0-24 9T48 16q0 14 73 304l74 296q0 13-7 16t-39 5h-21q-6 6-6 8t2 19q5 19 13 19"/></defs><g stroke="currentColor" fill="currentColor" stroke-width="0"><use data-c="2B" xlink:href="#a" transform="scale(1 -1)"/><use data-c="210E" xlink:href="#b" transform="scale(1 -1) translate(778)"/></g></svg>