<svg style="vertical-align:-2.172ex" xmlns="http://www.w3.org/2000/svg" width="19.593ex" height="5.451ex" viewBox="0 -1449.5 8660 2409.5" xmlns:xlink="http://www.w3.org/1999/xlink"><defs><path id="a" d="M701-940q0-3-6-9h-31q-2 2-28 27t-45 43-54 61-62 81-63 101-62 125-55 149-45 176-29 203-12 234q0 711 364 1110 23 25 43 44t33 32 15 13h31q6-6 6-9 0-5-20-26t-52-59-72-95-81-143-76-191-60-252-32-316q-2-38-2-109 0-389 94-680t290-494q11-12 11-16"/><path id="b" d="M21 287q1 6 3 16t12 38 20 47 32 37 44 17 43-7 30-18 16-22 8-19l2-7q0-2 1-2l11 11q60 64 141 64 17 0 31-2t26-7 19-10 15-12 10-13 8-13 4-12 3-9 2-7l8 10q63 75 149 75 54 0 87-27t34-79q0-51-38-158T704 50q1-14 5-19t15-5q28 0 52 30t39 82q3 11 6 13t16 2q20 0 20-8 0-1-4-15-8-29-22-57t-46-56-69-27q-47 0-68 27t-21 56q0 19 36 120t37 152q0 59-44 59h-5q-86 0-145-101l-7-12-33-134Q433 26 428 16q-13-27-43-27-13 0-21 7T353 8t-3 10q0 11 34 143l36 146q3 15 3 38 0 59-44 59h-5q-86 0-145-101l-7-12-33-134Q156 26 151 16q-13-27-43-27-13 0-21 6T76 7t-2 10q0 13 38 164 39 154 39 161 3 15 3 27 0 36-25 36-22 0-37-28t-23-61-12-36q-2-2-16-2H27q-6 6-6 9"/><path id="c" d="M297 596q0 31 21 48t43 17q17 0 28-10t14-28q0-28-19-47t-44-19q-18 0-30 10t-13 29m-9-220q0 29-26 29-22 0-42-12t-35-31-24-37-17-32l-7-14q-2-1-16-1h-14q-6 6-6 8t4 13q21 49 59 92t88 50h8q7 0 12 1 24-1 44-10 25-14 38-31t13-53v-16l-49-199Q267-67 264-75q-18-50-70-89T75-204q-50 0-68 21t-19 46q0 27 19 46t46 20q17 0 29-10t13-31q0-36-32-55 6-1 14-1 34 0 62 28t43 66l11 42q11 43 26 104t32 125 27 111 11 57q0 7-1 11"/><path id="d" d="M34 1438q0 8 3 10t13 2h21q2-2 28-27t45-43 54-61 62-81 63-101 62-124 55-149 45-176 29-203 12-234q0-117-7-198-47-572-357-913-23-25-43-44t-33-32-15-13H56q-13 0-17 2t-5 10q54 54 106 124Q428-430 428 251q0 202-26 377t-64 294-93 224-100 163-99 116l-4 4q-2 2-3 4t-3 3z"/><path id="e" d="M56 347q0 13 14 20h637q15-8 15-20 0-11-14-19l-318-1H72q-16 5-16 20m0-194q0 15 16 20h636q14-10 14-20 0-13-15-20H70q-14 7-14 20"/><path id="f" d="M78 661q0 21 18 38t42 17 42-16 19-39q0-7-20-229t-21-226q-2-8-19-8-18 0-20 8-1 3-21 225T78 661m1-600q0 28 18 44t44 16q23-2 40-17t17-43q0-30-17-45T139 1 97 16 79 61"/><path id="g" d="M94 250q0 69 10 131t23 107 37 88 38 67 42 52 33 34 25 21h17q14 0 14-9 0-3-17-21t-41-53-49-86-42-138-17-193 17-192 41-139 49-86 42-53 17-21q0-9-15-9h-16l-28 24q-94 85-137 212T94 250"/><path id="h" d="M84 237v13l14 20h581q15-8 15-20t-15-20H98q-14 7-14 20Z"/><path id="i" d="m60 749 4 1h22l28-24q94-85 137-212t43-264q0-68-10-131T261 12t-37-88-38-67-41-51-32-33-23-19l-4-4H63q-3 0-5 3t-3 9q1 1 11 13Q221-64 221 250T66 725q-10 12-11 13 0 8 5 11"/><path id="j" d="M78 60q0 24 17 42t43 18q24 0 42-16t19-43q0-25-17-43T139 0 96 17 78 60"/></defs><g stroke="currentColor" fill="currentColor" stroke-width="0"><g><g data-mjx-texclass="OPEN"><use data-c="28" xlink:href="#a" transform="scale(1 -1) translate(0 -.5)"/></g><g><use data-c="1D45A" xlink:href="#b" transform="scale(1 -1) translate(736) translate(0 676)"/><use data-c="1D457" xlink:href="#c" transform="scale(1 -1) translate(736) translate(233 -686)"/></g><g data-mjx-texclass="CLOSE"><use data-c="29" xlink:href="#d" transform="scale(1 -1) translate(1614) translate(0 -.5)"/></g></g><use data-c="3D" xlink:href="#e" transform="scale(1 -1) translate(2627.8)"/><g transform="scale(1 -1) translate(3683.6)"><g><use data-c="1D45A" xlink:href="#b" transform="translate(1771.2 676)"/><use data-c="21" xlink:href="#f" transform="translate(1771.2 676) translate(878)"/></g><g><use data-c="1D457" xlink:href="#c" transform="translate(220 -710)"/><use data-c="21" xlink:href="#f" transform="translate(220 -710) translate(412)"/><use data-c="28" xlink:href="#g" transform="translate(220 -710) translate(690)"/><use data-c="1D45A" xlink:href="#b" transform="translate(220 -710) translate(1079)"/><use data-c="2212" xlink:href="#h" transform="translate(220 -710) translate(2179.2)"/><use data-c="1D457" xlink:href="#c" transform="translate(220 -710) translate(3179.4)"/><use data-c="29" xlink:href="#i" transform="translate(220 -710) translate(3591.4)"/><use data-c="21" xlink:href="#f" transform="translate(220 -710) translate(3980.4)"/></g><path stroke="none" d="M120 220H4578.4V280H120z"/></g><use data-c="2E" xlink:href="#j" transform="scale(1 -1) translate(8382)"/></g></svg>