<svg style="vertical-align:-2.148ex" xmlns="http://www.w3.org/2000/svg" width="68.901ex" height="5.428ex" viewBox="0 -1449.5 30454.3 2399" xmlns:xlink="http://www.w3.org/1999/xlink"><defs><path id="a" d="M94 250q0 69 10 131t23 107 37 88 38 67 42 52 33 34 25 21h17q14 0 14-9 0-3-17-21t-41-53-49-86-42-138-17-193 17-192 41-139 49-86 42-53 17-21q0-9-15-9h-16l-28 24q-94 85-137 212T94 250"/><path id="b" d="M21 287q1 6 3 16t12 38 20 47 33 37 46 17q36 0 60-18t30-34 6-21q0-2 1-2l11 11q61 64 139 64 54 0 87-27t34-79-38-157-38-127q0-26 17-26 6 0 9 1 29 5 52 38t35 80q2 8 20 8 20 0 20-8 0-1-4-15-8-29-22-57t-46-56-69-27q-47 0-68 27t-21 56q0 19 36 120t37 152q0 59-44 59h-5q-86 0-145-101l-7-12-33-134Q156 26 151 16q-13-27-43-27-13 0-21 6T76 7t-2 10q0 13 38 163t40 163q1 5 1 23 0 39-24 39-38 0-63-100-6-20-6-21-2-6-19-6H27q-6 6-6 9"/><path id="c" d="M56 237v13l14 20h299v150l1 150q10 13 19 13 13 0 20-15V270h298q15-8 15-20t-15-20H409V-68q-8-14-18-14h-4q-12 0-18 14v298H70q-14 7-14 20Z"/><path id="d" d="m213 578-13-5q-14-5-40-10t-58-7H83v46h19q47 2 87 15t56 24 28 22q2 3 12 3 9 0 17-6V361l1-300q7-7 12-9t24-4 62-2h26V0h-11q-21 3-159 3-136 0-157-3H88v46h64q16 0 25 1t16 3 8 2 6 5 6 4z"/><path id="e" d="m60 749 4 1h22l28-24q94-85 137-212t43-264q0-68-10-131T261 12t-37-88-38-67-41-51-32-33-23-19l-4-4H63q-3 0-5 3t-3 9q1 1 11 13Q221-64 221 250T66 725q-10 12-11 13 0 8 5 11"/><path id="f" d="M23 287q1 3 2 8t5 22 10 31 15 33 20 30 26 22 33 9q75 0 96-64l10 9q62 55 118 55 65 0 102-47t37-114q0-108-76-199T249-10q-22 0-39 6-11 5-23 15t-19 17l-7 8q-1-1-22-87t-21-87q0-6 8-7t37-3h25q6-7 6-9t-3-18q-3-12-6-15t-13-4h-11q-9 0-34 1t-62 1q-70 0-89-2h-8q-7 7-7 11 2 27 13 35h20q34 1 39 12 3 6 61 239t61 247q1 5 1 14 0 41-25 41-22 0-37-28t-23-61-12-36q-2-2-16-2H29q-6 6-6 9m155-185q22-76 74-76 30 0 58 23t46 58q18 34 36 108t19 110v6q0 74-61 74-11 0-22-3t-22-9-20-13-17-15-15-15-11-14-8-10l-3-4q0-1-3-14t-11-44-14-52q-26-106-26-110"/><path id="g" d="M84 237v13l14 20h581q15-8 15-20t-15-20H98q-14 7-14 20Z"/><path id="h" d="M56 347q0 13 14 20h637q15-8 15-20 0-11-14-19l-318-1H72q-16 5-16 20m0-194q0 15 16 20h636q14-10 14-20 0-13-15-20H70q-14 7-14 20"/><path id="i" d="M701-940q0-3-6-9h-31q-2 2-28 27t-45 43-54 61-62 81-63 101-62 125-55 149-45 176-29 203-12 234q0 711 364 1110 23 25 43 44t33 32 15 13h31q6-6 6-9 0-5-20-26t-52-59-72-95-81-143-76-191-60-252-32-316q-2-38-2-109 0-389 94-680t290-494q11-12 11-16"/><path id="j" d="M34 1438q0 8 3 10t13 2h21q2-2 28-27t45-43 54-61 62-81 63-101 62-124 55-149 45-176 29-203 12-234q0-117-7-198-47-572-357-913-23-25-43-44t-33-32-15-13H56q-13 0-17 2t-5 10q54 54 106 124Q428-430 428 251q0 202-26 377t-64 294-93 224-100 163-99 116l-4 4q-2 2-3 4t-3 3z"/><path id="k" d="M109 429q-27 0-43 18t-16 44q0 71 53 123t132 52q91 0 152-56t62-145q0-43-20-82t-48-68-80-74q-36-31-100-92l-59-56 76-1q157 0 167 5 7 2 24 89v3h40v-3q-1-3-13-91T421 3V0H50v31q0 7 6 15t30 35q29 32 50 56 9 10 34 37t34 37 29 33 28 34 23 30 21 32 15 29 13 32 7 30 3 33q0 63-34 109t-97 46q-33 0-58-17t-35-33-10-19q0-1 5-1 18 0 37-14t19-46q0-25-16-42t-45-18"/><path id="l" d="M78 250q0 24 17 42t43 18q24 0 42-16t19-43q0-25-17-43t-43-18-43 17-18 43m447 0q0 24 17 42t43 18q24 0 42-16t19-43q0-25-17-43t-43-18-43 17-18 43m447 0q0 24 17 42t43 18q24 0 42-16t19-43q0-25-17-43t-43-18-43 17-18 43"/><path id="m" d="M78 60q0 24 17 42t43 18q24 0 42-16t19-43q0-25-17-43T139 0 96 17 78 60"/></defs><g stroke="currentColor" fill="currentColor" stroke-width="0"><use data-c="28" xlink:href="#a" transform="scale(1 -1)"/><use data-c="1D45B" xlink:href="#b" transform="scale(1 -1) translate(389)"/><use data-c="2B" xlink:href="#c" transform="scale(1 -1) translate(1211.2)"/><use data-c="31" xlink:href="#d" transform="scale(1 -1) translate(2211.4)"/><g><use data-c="29" xlink:href="#e" transform="scale(1 -1) translate(2711.4)"/><g data-mjx-texclass="ORD"><use data-c="1D45D" xlink:href="#f" transform="scale(1 -1) translate(2711.4) translate(422 413)scale(.707)"/><use data-c="2B" xlink:href="#c" transform="scale(1 -1) translate(2711.4) translate(422 413)scale(.707) translate(503)"/><use data-c="31" xlink:href="#d" transform="scale(1 -1) translate(2711.4) translate(422 413)scale(.707) translate(1281)"/></g></g><use data-c="2212" xlink:href="#g" transform="scale(1 -1) translate(4665)"/><g><use data-c="1D45B" xlink:href="#b" transform="scale(1 -1) translate(5665.2)"/><g data-mjx-texclass="ORD"><use data-c="1D45D" xlink:href="#f" transform="scale(1 -1) translate(5665.2) translate(633 413)scale(.707)"/><use data-c="2B" xlink:href="#c" transform="scale(1 -1) translate(5665.2) translate(633 413)scale(.707) translate(503)"/><use data-c="31" xlink:href="#d" transform="scale(1 -1) translate(5665.2) translate(633 413)scale(.707) translate(1281)"/></g></g><use data-c="3D" xlink:href="#h" transform="scale(1 -1) translate(7885.4)"/><g><g data-mjx-texclass="OPEN"><use data-c="28" xlink:href="#i" transform="scale(1 -1) translate(8941.2) translate(0 -.5)"/></g><g><g><use data-c="1D45D" xlink:href="#f" transform="scale(1 -1) translate(8941.2) translate(736) translate(0 676)"/><use data-c="2B" xlink:href="#c" transform="scale(1 -1) translate(8941.2) translate(736) translate(0 676) translate(725.2)"/><use data-c="31" xlink:href="#d" transform="scale(1 -1) translate(8941.2) translate(736) translate(0 676) translate(1725.4)"/></g><use data-c="31" xlink:href="#d" transform="scale(1 -1) translate(8941.2) translate(736) translate(862.7 -686)"/></g><g data-mjx-texclass="CLOSE"><use data-c="29" xlink:href="#j" transform="scale(1 -1) translate(8941.2) translate(2961.4) translate(0 -.5)"/></g></g><g><use data-c="1D45B" xlink:href="#b" transform="scale(1 -1) translate(12638.6)"/><use data-c="1D45D" xlink:href="#f" transform="scale(1 -1) translate(12638.6) translate(633 413)scale(.707)"/></g><use data-c="2B" xlink:href="#c" transform="scale(1 -1) translate(13899.5)"/><g><g data-mjx-texclass="OPEN"><use data-c="28" xlink:href="#i" transform="scale(1 -1) translate(14899.7) translate(0 -.5)"/></g><g><g><use data-c="1D45D" xlink:href="#f" transform="scale(1 -1) translate(14899.7) translate(736) translate(0 676)"/><use data-c="2B" xlink:href="#c" transform="scale(1 -1) translate(14899.7) translate(736) translate(0 676) translate(725.2)"/><use data-c="31" xlink:href="#d" transform="scale(1 -1) translate(14899.7) translate(736) translate(0 676) translate(1725.4)"/></g><use data-c="32" xlink:href="#k" transform="scale(1 -1) translate(14899.7) translate(736) translate(862.7 -686)"/></g><g data-mjx-texclass="CLOSE"><use data-c="29" xlink:href="#j" transform="scale(1 -1) translate(14899.7) translate(2961.4) translate(0 -.5)"/></g></g><g><use data-c="1D45B" xlink:href="#b" transform="scale(1 -1) translate(18597.2)"/><g data-mjx-texclass="ORD"><use data-c="1D45D" xlink:href="#f" transform="scale(1 -1) translate(18597.2) translate(633 413)scale(.707)"/><use data-c="2212" xlink:href="#g" transform="scale(1 -1) translate(18597.2) translate(633 413)scale(.707) translate(503)"/><use data-c="31" xlink:href="#d" transform="scale(1 -1) translate(18597.2) translate(633 413)scale(.707) translate(1281)"/></g></g><use data-c="2B" xlink:href="#c" transform="scale(1 -1) translate(20761.7)"/><use data-c="22EF" xlink:href="#l" transform="scale(1 -1) translate(21762)"/><use data-c="2B" xlink:href="#c" transform="scale(1 -1) translate(23156.2)"/><g><g data-mjx-texclass="OPEN"><use data-c="28" xlink:href="#i" transform="scale(1 -1) translate(24156.4) translate(0 -.5)"/></g><g><g><use data-c="1D45D" xlink:href="#f" transform="scale(1 -1) translate(24156.4) translate(736) translate(0 676)"/><use data-c="2B" xlink:href="#c" transform="scale(1 -1) translate(24156.4) translate(736) translate(0 676) translate(725.2)"/><use data-c="31" xlink:href="#d" transform="scale(1 -1) translate(24156.4) translate(736) translate(0 676) translate(1725.4)"/></g><use data-c="1D45D" xlink:href="#f" transform="scale(1 -1) translate(24156.4) translate(736) translate(861.2 -686)"/></g><g data-mjx-texclass="CLOSE"><use data-c="29" xlink:href="#j" transform="scale(1 -1) translate(24156.4) translate(2961.4) translate(0 -.5)"/></g></g><use data-c="1D45B" xlink:href="#b" transform="scale(1 -1) translate(27853.9)"/><use data-c="2B" xlink:href="#c" transform="scale(1 -1) translate(28676.1)"/><g transform="scale(1 -1) translate(29676.3)"><use data-c="31" xlink:href="#d"/><use data-c="2E" xlink:href="#m" transform="translate(500)"/></g></g></svg>