<svg style="vertical-align:-.566ex" xmlns="http://www.w3.org/2000/svg" width="112.131ex" height="2.262ex" viewBox="0 -750 49561.8 1000" xmlns:xlink="http://www.w3.org/1999/xlink"><defs><path id="a" d="M48 1Q31 1 31 11q0 2 3 14 4 16 8 18t23 3q27 0 60 3 14 3 19 12 2 5 71 281t70 280q0 7-4 7-8 3-53 5h-31q-6 6-6 8t2 17q4 17 10 21h539q7-4 7-11 0-5-13-112t-14-110q-2-7-20-7h-12q-7 5-7 13 0 1 3 24t3 53-7 49-19 31-37 16-51 7-72 1h-23q-82-1-87-3t-7-8q-1-1-34-131l-32-129h78q20 0 28 1t22 3 24 7 17 12q13 12 22 33t13 38 5 18q3 5 19 5h12q7-5 7-10 0-3-31-131t-34-132q-2-7-20-7h-12q-7 6-7 12 0 3 5 22t5 40q0 29-20 36t-89 7h-55l-32-127Q245 66 245 60q0-14 89-14h25q6-6 6-7t-2-20q-4-13-10-19h-17q-41 2-151 2H86Q52 2 48 1"/><path id="b" d="M94 250q0 69 10 131t23 107 37 88 38 67 42 52 33 34 25 21h17q14 0 14-9 0-3-17-21t-41-53-49-86-42-138-17-193 17-192 41-139 49-86 42-53 17-21q0-9-15-9h-16l-28 24q-94 85-137 212T94 250"/><path id="c" d="M52 289q7 42 54 97t116 56q35 0 64-18t43-45q42 63 101 63 37 0 64-22t28-59q0-29-14-47t-27-22-23-4q-19 0-31 11t-12 29q0 46 50 63-11 13-40 13-13 0-19-2-38-16-56-66-60-221-60-258 0-28 16-40t35-12q37 0 73 33t49 81q3 10 6 11t16 2h4q15 0 15-8 0-1-2-11-16-57-62-101T333-11q-70 0-106 63-41-62-94-62h-6q-49 0-70 26T35 71q0 32 19 52t45 20q43 0 43-42 0-20-12-35t-23-20-13-5l-3-1q0-1 6-4t16-7 19-3q36 0 62 45 9 16 23 68t28 108 16 66q5 27 5 39 0 28-15 40t-34 12q-40 0-75-32t-49-82q-2-9-5-10t-16-2H58q-6 6-6 11"/><path id="d" d="M56 237v13l14 20h299v150l1 150q10 13 19 13 13 0 20-15V270h298q15-8 15-20t-15-20H409V-68q-8-14-18-14h-4q-12 0-18 14v298H70q-14 7-14 20Z"/><path id="e" d="M51 0q-5 4-5 7 0 2 169 350t173 352q3 7 28 7 23 0 28-7 3-4 172-352T786 7q0-3-5-7zm456 344L384 596 137 92l246-1h247q0 2-123 253"/><path id="f" d="m60 749 4 1h22l28-24q94-85 137-212t43-264q0-68-10-131T261 12t-37-88-38-67-41-51-32-33-23-19l-4-4H63q-3 0-5 3t-3 9q1 1 11 13Q221-64 221 250T66 725q-10 12-11 13 0 8 5 11"/><path id="g" d="M84 237v13l14 20h581q15-8 15-20t-15-20H98q-14 7-14 20Z"/><path id="h" d="M109 429q-27 0-43 18t-16 44q0 71 53 123t132 52q91 0 152-56t62-145q0-43-20-82t-48-68-80-74q-36-31-100-92l-59-56 76-1q157 0 167 5 7 2 24 89v3h40v-3q-1-3-13-91T421 3V0H50v31q0 7 6 15t30 35q29 32 50 56 9 10 34 37t34 37 29 33 28 34 23 30 21 32 15 29 13 32 7 30 3 33q0 63-34 109t-97 46q-33 0-58-17t-35-33-10-19q0-1 5-1 18 0 37-14t19-46q0-25-16-42t-45-18"/><path id="i" d="M78 250q0 24 17 42t43 18q24 0 42-16t19-43q0-25-17-43t-43-18-43 17-18 43m447 0q0 24 17 42t43 18q24 0 42-16t19-43q0-25-17-43t-43-18-43 17-18 43m447 0q0 24 17 42t43 18q24 0 42-16t19-43q0-25-17-43t-43-18-43 17-18 43"/><path id="j" d="M234 637h-8q-25 0-30 1t-5 11q0 27 11 33 2 1 97 1h88q11 0 14-6 211-496 215-509l54 213q53 211 53 225 0 27-64 31-24 0-24 11 0 2 2 12 4 16 6 19t10 4q3 0 31-1t83-2q50 0 76 1t30 1q15 0 15-10 0-22-8-30-2-5-22-5-71-4-89-40L620 7q-2-7-21-7-14 0-17 2-3 3-129 303L326 604l-65-260Q196 88 196 79q5-33 72-33h10q6-5 6-8t-2-19q-4-13-10-19h-13q-31 2-108 2H63Q49 2 46 1q-15 0-15 9 0 4 3 16t5 14q2 6 23 6 68 3 88 39 4 6 71 277l68 272q-2 1-55 3"/><path id="k" d="m213 578-13-5q-14-5-40-10t-58-7H83v46h19q47 2 87 15t56 24 28 22q2 3 12 3 9 0 17-6V361l1-300q7-7 12-9t24-4 62-2h26V0h-11q-21 3-159 3-136 0-157-3H88v46h64q16 0 25 1t16 3 8 2 6 5 6 4z"/><path id="l" d="M56 347q0 13 14 20h637q15-8 15-20 0-11-14-19l-318-1H72q-16 5-16 20m0-194q0 15 16 20h636q14-10 14-20 0-13-15-20H70q-14 7-14 20"/><path id="m" d="M78 60q0 24 17 42t43 18q24 0 42-16t19-43q0-25-17-43T139 0 96 17 78 60"/></defs><g stroke="currentColor" fill="currentColor" stroke-width="0"><use data-c="1D439" xlink:href="#a" transform="scale(1 -1)"/><use data-c="28" xlink:href="#b" transform="scale(1 -1) translate(749)"/><use data-c="1D465" xlink:href="#c" transform="scale(1 -1) translate(1138)"/><use data-c="2B" xlink:href="#d" transform="scale(1 -1) translate(1932.2)"/><use data-c="394" xlink:href="#e" transform="scale(1 -1) translate(2932.4)"/><use data-c="1D465" xlink:href="#c" transform="scale(1 -1) translate(3765.4)"/><use data-c="29" xlink:href="#f" transform="scale(1 -1) translate(4337.4)"/><use data-c="2212" xlink:href="#g" transform="scale(1 -1) translate(4948.7)"/><use data-c="1D439" xlink:href="#a" transform="scale(1 -1) translate(5948.9)"/><use data-c="28" xlink:href="#b" transform="scale(1 -1) translate(6697.9)"/><use data-c="1D465" xlink:href="#c" transform="scale(1 -1) translate(7086.9)"/><use data-c="29" xlink:href="#f" transform="scale(1 -1) translate(7658.9)"/><use data-c="2B" xlink:href="#d" transform="scale(1 -1) translate(8270.1)"/><use data-c="1D439" xlink:href="#a" transform="scale(1 -1) translate(9270.3)"/><use data-c="28" xlink:href="#b" transform="scale(1 -1) translate(10019.3)"/><use data-c="1D465" xlink:href="#c" transform="scale(1 -1) translate(10408.3)"/><use data-c="2B" xlink:href="#d" transform="scale(1 -1) translate(11202.6)"/><use data-c="32" xlink:href="#h" transform="scale(1 -1) translate(12202.8)"/><use data-c="394" xlink:href="#e" transform="scale(1 -1) translate(12702.8)"/><use data-c="1D465" xlink:href="#c" transform="scale(1 -1) translate(13535.8)"/><use data-c="29" xlink:href="#f" transform="scale(1 -1) translate(14107.8)"/><use data-c="2212" xlink:href="#g" transform="scale(1 -1) translate(14719)"/><use data-c="1D439" xlink:href="#a" transform="scale(1 -1) translate(15719.2)"/><use data-c="28" xlink:href="#b" transform="scale(1 -1) translate(16468.2)"/><use data-c="1D465" xlink:href="#c" transform="scale(1 -1) translate(16857.2)"/><use data-c="2B" xlink:href="#d" transform="scale(1 -1) translate(17651.4)"/><use data-c="394" xlink:href="#e" transform="scale(1 -1) translate(18651.7)"/><use data-c="1D465" xlink:href="#c" transform="scale(1 -1) translate(19484.7)"/><use data-c="29" xlink:href="#f" transform="scale(1 -1) translate(20056.7)"/><use data-c="2B" xlink:href="#d" transform="scale(1 -1) translate(20667.9)"/><use data-c="22EF" xlink:href="#i" transform="scale(1 -1) translate(21668.1)"/><use data-c="2B" xlink:href="#d" transform="scale(1 -1) translate(23062.3)"/><use data-c="1D439" xlink:href="#a" transform="scale(1 -1) translate(24062.6)"/><use data-c="28" xlink:href="#b" transform="scale(1 -1) translate(24811.6)"/><use data-c="1D465" xlink:href="#c" transform="scale(1 -1) translate(25200.6)"/><use data-c="2B" xlink:href="#d" transform="scale(1 -1) translate(25994.8)"/><use data-c="1D441" xlink:href="#j" transform="scale(1 -1) translate(26995)"/><use data-c="394" xlink:href="#e" transform="scale(1 -1) translate(27883)"/><use data-c="1D465" xlink:href="#c" transform="scale(1 -1) translate(28716)"/><use data-c="29" xlink:href="#f" transform="scale(1 -1) translate(29288)"/><use data-c="2212" xlink:href="#g" transform="scale(1 -1) translate(29899.2)"/><use data-c="1D439" xlink:href="#a" transform="scale(1 -1) translate(30899.4)"/><use data-c="28" xlink:href="#b" transform="scale(1 -1) translate(31648.4)"/><use data-c="1D465" xlink:href="#c" transform="scale(1 -1) translate(32037.4)"/><use data-c="2B" xlink:href="#d" transform="scale(1 -1) translate(32831.7)"/><use data-c="28" xlink:href="#b" transform="scale(1 -1) translate(33831.9)"/><use data-c="1D441" xlink:href="#j" transform="scale(1 -1) translate(34220.9)"/><use data-c="2212" xlink:href="#g" transform="scale(1 -1) translate(35331.1)"/><use data-c="31" xlink:href="#k" transform="scale(1 -1) translate(36331.3)"/><use data-c="29" xlink:href="#f" transform="scale(1 -1) translate(36831.3)"/><use data-c="394" xlink:href="#e" transform="scale(1 -1) translate(37220.3)"/><use data-c="1D465" xlink:href="#c" transform="scale(1 -1) translate(38053.3)"/><use data-c="29" xlink:href="#f" transform="scale(1 -1) translate(38625.3)"/><use data-c="3D" xlink:href="#l" transform="scale(1 -1) translate(39292.1)"/><use data-c="1D439" xlink:href="#a" transform="scale(1 -1) translate(40347.9)"/><use data-c="28" xlink:href="#b" transform="scale(1 -1) translate(41096.9)"/><use data-c="1D465" xlink:href="#c" transform="scale(1 -1) translate(41485.9)"/><use data-c="2B" xlink:href="#d" transform="scale(1 -1) translate(42280.1)"/><use data-c="1D441" xlink:href="#j" transform="scale(1 -1) translate(43280.3)"/><use data-c="394" xlink:href="#e" transform="scale(1 -1) translate(44168.3)"/><use data-c="1D465" xlink:href="#c" transform="scale(1 -1) translate(45001.3)"/><use data-c="29" xlink:href="#f" transform="scale(1 -1) translate(45573.3)"/><use data-c="2212" xlink:href="#g" transform="scale(1 -1) translate(46184.6)"/><use data-c="1D439" xlink:href="#a" transform="scale(1 -1) translate(47184.8)"/><use data-c="28" xlink:href="#b" transform="scale(1 -1) translate(47933.8)"/><use data-c="1D465" xlink:href="#c" transform="scale(1 -1) translate(48322.8)"/><use data-c="29" xlink:href="#f" transform="scale(1 -1) translate(48894.8)"/><use data-c="2E" xlink:href="#m" transform="scale(1 -1) translate(49283.8)"/></g></svg>