<svg style="vertical-align:-.564ex" xmlns="http://www.w3.org/2000/svg" width="6.7ex" height="2.26ex" viewBox="0 -749.5 2961.6 999" xmlns:xlink="http://www.w3.org/1999/xlink"><defs><path id="a" d="M139-249h-2q-12 0-18 14v486l1 486q10 13 19 13 13 0 20-15v-970q-8-14-18-14z"/><path id="b" d="M52 289q7 42 54 97t116 56q35 0 64-18t43-45q42 63 101 63 37 0 64-22t28-59q0-29-14-47t-27-22-23-4q-19 0-31 11t-12 29q0 46 50 63-11 13-40 13-13 0-19-2-38-16-56-66-60-221-60-258 0-28 16-40t35-12q37 0 73 33t49 81q3 10 6 11t16 2h4q15 0 15-8 0-1-2-11-16-57-62-101T333-11q-70 0-106 63-41-62-94-62h-6q-49 0-70 26T35 71q0 32 19 52t45 20q43 0 43-42 0-20-12-35t-23-20-13-5l-3-1q0-1 6-4t16-7 19-3q36 0 62 45 9 16 23 68t28 108 16 66q5 27 5 39 0 28-15 40t-34 12q-40 0-75-32t-49-82q-2-9-5-10t-16-2H58q-6 6-6 11"/><path id="c" d="M84 520q0 8 4 13t8 6l3 1q7 0 154-69t291-137l143-69q7-5 7-15t-7-15q-2-2-292-139L107-40h-6q-18 2-18 20v3q-1 7 15 16 19 10 150 72 78 37 130 61l248 118-248 118Q90 504 86 509q-2 4-2 11"/><path id="d" d="m213 578-13-5q-14-5-40-10t-58-7H83v46h19q47 2 87 15t56 24 28 22q2 3 12 3 9 0 17-6V361l1-300q7-7 12-9t24-4 62-2h26V0h-11q-21 3-159 3-136 0-157-3H88v46h64q16 0 25 1t16 3 8 2 6 5 6 4z"/></defs><g stroke="currentColor" fill="currentColor" stroke-width="0"><use data-c="7C" xlink:href="#a" transform="scale(1 -1) translate(0 -.5)"/><use data-c="1D465" xlink:href="#b" transform="scale(1 -1) translate(278)"/><g data-mjx-texclass="ORD"><use data-c="7C" xlink:href="#a" transform="scale(1 -1) translate(850) translate(0 -.5)"/></g><use data-c="3E" xlink:href="#c" transform="scale(1 -1) translate(1405.8)"/><use data-c="31" xlink:href="#d" transform="scale(1 -1) translate(2461.6)"/></g></svg>