<svg style="vertical-align:-7.07ex" xmlns="http://www.w3.org/2000/svg" width="36.329ex" height="15.271ex" viewBox="0 -3625 16057.2 6750" xmlns:xlink="http://www.w3.org/1999/xlink"><defs><path id="a" d="M128 619q-7 7-11 9t-16 3-43 3H25v46h557v-4q2-6 14-116t14-116v-4h-40v4q-7 49-9 57-6 37-18 62t-27 38-39 21-46 9-57 2h-88q-34 0-42-2t-11-10q-1-2-1-131V363h71q16 0 24 1t22 3 23 6 17 12q18 18 21 74v21h40V200h-40v21q-3 55-21 75-8 7-18 11t-23 6-21 3-24 1-19 0h-52V189l1-128q7-7 12-9t25-4 63-2h27V0h-12q-24 3-166 3Q51 3 36 0H25v46h33q42 1 51 3t19 12z"/><path id="b" d="M28 214q0 95 65 164t157 70q90 0 155-68t66-165q0-95-64-160T250-10q-97 0-159 67T28 214M250 30q122 0 122 163v57q0 22-1 38t-7 38-16 36-31 28-49 20q-5 1-16 1-30 0-57-12-43-22-56-61t-13-92v-20q0-96 19-135 32-61 105-61"/><path id="c" d="M36 46h14q39 0 47 14v31q0 14 1 31t0 39 0 42v125l-1 23q-3 19-14 25t-45 9H20v23q0 23 2 23l10 1q10 1 28 2t36 2q16 1 35 2t29 3 11 1h3v-69q39 68 97 68h6q45 0 66-22t21-46q0-21-13-36t-38-15-37 16-13 34q0 9 2 16t5 12 3 5q-2 2-23-4-16-8-24-15-47-45-47-179V101q0-12 1-20t0-15v-5q1-2 3-4t5-3 5-3 7-2 7-1 9-1 9 0 10-1 10 0h31V0h-9q-18 3-127 3Q37 3 28 0h-8v46z"/><path id="d" d="M184 600q0 24 19 42t44 19q18 0 30-12t13-30q0-23-20-42t-44-20q-15 0-28 10t-14 33M21 287q0 8 9 31t24 51 44 51 60 22q39 0 65-23t27-62q0-17-14-56t-40-105-42-113q-5-22-5-32 0-25 17-25 9 0 19 3t23 14 27 35 25 59q3 12 5 14t17 2q20 0 20-10 0-8-9-31t-25-51-45-50-62-22q-32 0-59 21T74 74q0 17 5 32t43 114q38 101 44 121t7 39q0 24-17 24h-2q-30 0-55-33t-38-84q-1-1-2-3t-1-3-2-2-3-1-4 0-8 0H27q-6 6-6 9"/><path id="e" d="M56 347q0 13 14 20h637q15-8 15-20 0-11-14-19l-318-1H72q-16 5-16 20m0-194q0 15 16 20h636q14-10 14-20 0-13-15-20H70q-14 7-14 20"/><path id="f" d="M96 585q56 81 153 81 48 0 96-26t78-92q37-83 37-228 0-155-43-237-20-42-55-67t-61-31-51-7q-26 0-52 6t-61 32-55 67q-43 82-43 237 0 174 57 265m225 12q-30 32-71 32-42 0-72-32-25-26-33-72t-8-192q0-158 8-208t36-79q28-30 69-30 40 0 68 30 29 30 36 84t8 203q0 145-8 191t-33 73"/><path id="g" d="M78 370q0 24 17 42t43 18q24 0 42-16t19-43q0-25-17-43t-43-18-43 17-18 43m0-310q0 24 17 42t43 18q24 0 42-16t19-43q0-25-17-43T139 0 96 17 78 60"/><path id="h" d="M48 1Q31 1 31 11q0 2 3 14 4 16 8 18t23 3q27 0 60 3 14 3 19 12 2 5 71 281t70 280q0 7-4 7-8 3-53 5h-31q-6 6-6 8t2 17q4 17 10 21h539q7-4 7-11 0-5-13-112t-14-110q-2-7-20-7h-12q-7 5-7 13 0 1 3 24t3 53-7 49-19 31-37 16-51 7-72 1h-23q-82-1-87-3t-7-8q-1-1-34-131l-32-129h78q20 0 28 1t22 3 24 7 17 12q13 12 22 33t13 38 5 18q3 5 19 5h12q7-5 7-10 0-3-31-131t-34-132q-2-7-20-7h-12q-7 6-7 12 0 3 5 22t5 40q0 29-20 36t-89 7h-55l-32-127Q245 66 245 60q0-14 89-14h25q6-6 6-7t-2-20q-4-13-10-19h-17q-41 2-151 2H86Q52 2 48 1"/><path id="i" d="M94 250q0 69 10 131t23 107 37 88 38 67 42 52 33 34 25 21h17q14 0 14-9 0-3-17-21t-41-53-49-86-42-138-17-193 17-192 41-139 49-86 42-53 17-21q0-9-15-9h-16l-28 24q-94 85-137 212T94 250"/><path id="j" d="M52 289q7 42 54 97t116 56q35 0 64-18t43-45q42 63 101 63 37 0 64-22t28-59q0-29-14-47t-27-22-23-4q-19 0-31 11t-12 29q0 46 50 63-11 13-40 13-13 0-19-2-38-16-56-66-60-221-60-258 0-28 16-40t35-12q37 0 73 33t49 81q3 10 6 11t16 2h4q15 0 15-8 0-1-2-11-16-57-62-101T333-11q-70 0-106 63-41-62-94-62h-6q-49 0-70 26T35 71q0 32 19 52t45 20q43 0 43-42 0-20-12-35t-23-20-13-5l-3-1q0-1 6-4t16-7 19-3q36 0 62 45 9 16 23 68t28 108 16 66q5 27 5 39 0 28-15 40t-34 12q-40 0-75-32t-49-82q-2-9-5-10t-16-2H58q-6 6-6 11"/><path id="k" d="m213 578-13-5q-14-5-40-10t-58-7H83v46h19q47 2 87 15t56 24 28 22q2 3 12 3 9 0 17-6V361l1-300q7-7 12-9t24-4 62-2h26V0h-11q-21 3-159 3-136 0-157-3H88v46h64q16 0 25 1t16 3 8 2 6 5 6 4z"/><path id="l" d="m60 749 4 1h22l28-24q94-85 137-212t43-264q0-68-10-131T261 12t-37-88-38-67-41-51-32-33-23-19l-4-4H63q-3 0-5 3t-3 9q1 1 11 13Q221-64 221 250T66 725q-10 12-11 13 0 8 5 11"/><path id="m" d="M84 237v13l14 20h581q15-8 15-20t-15-20H98q-14 7-14 20Z"/><path id="n" d="M78 35v25l16 43 43 18q28 0 50-25t23-88q0-35-9-68t-21-57-26-41-24-27-13-9q-4 0-13 9t-9 13 11 16 25 30 26 50 16 73V9l-1-1q-2-1-5-2t-6-3-9-2-12-1q-27 0-44 17Z"/><path id="o" d="M109 429q-27 0-43 18t-16 44q0 71 53 123t132 52q91 0 152-56t62-145q0-43-20-82t-48-68-80-74q-36-31-100-92l-59-56 76-1q157 0 167 5 7 2 24 89v3h40v-3q-1-3-13-91T421 3V0H50v31q0 7 6 15t30 35q29 32 50 56 9 10 34 37t34 37 29 33 28 34 23 30 21 32 15 29 13 32 7 30 3 33q0 63-34 109t-97 46q-33 0-58-17t-35-33-10-19q0-1 5-1 18 0 37-14t19-46q0-25-16-42t-45-18"/><path id="p" d="M127 463q-27 0-42 17t-16 44q0 55 48 98t116 43q35 0 44-1 74-12 113-53t40-89q0-52-34-101t-94-71l-3-2q0-1 9-3t29-9 38-21q82-53 82-140 0-79-62-138T238-22q-80 0-138 43T42 130q0 28 18 45t45 18q28 0 46-18t18-45q0-11-3-20t-7-16-11-12-12-8-10-4-8-3l-4-1q51-45 124-45 55 0 83 53 17 33 17 101v20q0 95-64 127-15 6-61 7l-42 1-3 2q-2 3-2 16 0 18 8 18 28 0 58 5 34 5 62 42t28 112v8q0 57-35 79-22 14-47 14-32 0-59-11t-38-23-11-12h3q3-1 8-2t10-5 12-7 10-11 8-15 3-20q0-22-14-39t-45-18"/><path id="q" d="M78 30q0 24 17 42t43 18q24 0 42-16t19-43q0-25-17-43t-43-18-43 17-18 43m0 410q0 24 17 42t43 18q24 0 42-16t19-43q0-25-17-43t-43-18-43 17-18 43m0 400q0 24 17 42t43 18q24 0 42-16t19-43q0-25-17-43t-43-18-43 17-18 43"/><path id="r" d="M289 629q0 6-57 8-24 0-31 1t-7 10q0 1 2 11 1 3 2 7t1 5 2 5 2 3 4 2 5 2 8 0 12 1h30q24 0 45-1h91q12 0 16-5 1-4 37-282l36-279 23 37q24 36 64 100t88 140q175 279 177 281l3 3q2 2 4 3l6 2h136q23 0 29 1 34 0 34-11 0-5-3-17t-3-13q-4-6-37-6-40-1-51-3t-18-11q-3-5-72-283T797 59q0-4 1-5t7-4 17-2 33-2h31q6-9 6-11 0-16-7-30-5-5-16-5-5 0-41 1t-92 1h-92q-31 0-35-1-17 0-17 10 0 2 2 14 4 16 8 18t23 3q27 0 60 3 14 3 19 12 2 4 38 146t71 283 35 141L654 322Q458 10 453 5l-4-2q-5-3-16-3-15 0-18 7-2 4-41 310l-39 307-68-270Q200 88 200 79q6-33 72-33h10q6-5 7-9t-3-18q-4-16-8-18-4-1-11-1h-12q-10 0-34 1t-64 1q-30 0-62-1T58 0Q43 0 39 2t-4 9q0 2 3 14t5 15q2 6 22 6 70 0 89 40 4 6 69 268t66 275"/><path id="s" d="M78 60q0 24 17 42t43 18q24 0 42-16t19-43q0-25-17-43T139 0 96 17 78 60"/></defs><g stroke="currentColor" fill="currentColor" stroke-width="0"><g><g><g><g transform="scale(1 -1) translate(0 2875) translate(2273.4)"><use data-c="46" xlink:href="#a"/><use data-c="6F" xlink:href="#b" transform="translate(653)"/><use data-c="72" xlink:href="#c" transform="translate(1153)"/></g><use data-c="1D456" xlink:href="#d" transform="scale(1 -1) translate(0 2875) translate(2273.4) translate(1795)"/><use data-c="3D" xlink:href="#e" transform="scale(1 -1) translate(0 2875) translate(2273.4) translate(2417.8)"/><use data-c="30" xlink:href="#f" transform="scale(1 -1) translate(0 2875) translate(2273.4) translate(3473.6)"/><use data-c="3A" xlink:href="#g" transform="scale(1 -1) translate(0 2875) translate(2273.4) translate(4251.3)"/></g><g><use data-c="1D439" xlink:href="#h" transform="scale(1 -1) translate(0 2875) translate(6802.8) translate(1000)"/><use data-c="28" xlink:href="#i" transform="scale(1 -1) translate(0 2875) translate(6802.8) translate(1749)"/><g><use data-c="1D465" xlink:href="#j" transform="scale(1 -1) translate(0 2875) translate(6802.8) translate(2138)"/><use data-c="31" xlink:href="#k" transform="scale(1 -1) translate(0 2875) translate(6802.8) translate(2138) translate(605 -150)scale(.707)"/></g><use data-c="29" xlink:href="#l" transform="scale(1 -1) translate(0 2875) translate(6802.8) translate(3146.6)"/><use data-c="2212" xlink:href="#m" transform="scale(1 -1) translate(0 2875) translate(6802.8) translate(3757.8)"/><use data-c="1D439" xlink:href="#h" transform="scale(1 -1) translate(0 2875) translate(6802.8) translate(4758)"/><use data-c="28" xlink:href="#i" transform="scale(1 -1) translate(0 2875) translate(6802.8) translate(5507)"/><g><use data-c="1D465" xlink:href="#j" transform="scale(1 -1) translate(0 2875) translate(6802.8) translate(5896)"/><use data-c="30" xlink:href="#f" transform="scale(1 -1) translate(0 2875) translate(6802.8) translate(5896) translate(605 -150)scale(.707)"/></g><use data-c="29" xlink:href="#l" transform="scale(1 -1) translate(0 2875) translate(6802.8) translate(6904.6)"/><use data-c="2C" xlink:href="#n" transform="scale(1 -1) translate(0 2875) translate(6802.8) translate(7293.6)"/></g></g><g><g><g transform="scale(1 -1) translate(0 1575) translate(2273.4)"><use data-c="46" xlink:href="#a"/><use data-c="6F" xlink:href="#b" transform="translate(653)"/><use data-c="72" xlink:href="#c" transform="translate(1153)"/></g><use data-c="1D456" xlink:href="#d" transform="scale(1 -1) translate(0 1575) translate(2273.4) translate(1795)"/><use data-c="3D" xlink:href="#e" transform="scale(1 -1) translate(0 1575) translate(2273.4) translate(2417.8)"/><use data-c="31" xlink:href="#k" transform="scale(1 -1) translate(0 1575) translate(2273.4) translate(3473.6)"/><use data-c="3A" xlink:href="#g" transform="scale(1 -1) translate(0 1575) translate(2273.4) translate(4251.3)"/></g><g><use data-c="1D439" xlink:href="#h" transform="scale(1 -1) translate(0 1575) translate(6802.8) translate(1000)"/><use data-c="28" xlink:href="#i" transform="scale(1 -1) translate(0 1575) translate(6802.8) translate(1749)"/><g><use data-c="1D465" xlink:href="#j" transform="scale(1 -1) translate(0 1575) translate(6802.8) translate(2138)"/><use data-c="32" xlink:href="#o" transform="scale(1 -1) translate(0 1575) translate(6802.8) translate(2138) translate(605 -150)scale(.707)"/></g><use data-c="29" xlink:href="#l" transform="scale(1 -1) translate(0 1575) translate(6802.8) translate(3146.6)"/><use data-c="2212" xlink:href="#m" transform="scale(1 -1) translate(0 1575) translate(6802.8) translate(3757.8)"/><use data-c="1D439" xlink:href="#h" transform="scale(1 -1) translate(0 1575) translate(6802.8) translate(4758)"/><use data-c="28" xlink:href="#i" transform="scale(1 -1) translate(0 1575) translate(6802.8) translate(5507)"/><g><use data-c="1D465" xlink:href="#j" transform="scale(1 -1) translate(0 1575) translate(6802.8) translate(5896)"/><use data-c="31" xlink:href="#k" transform="scale(1 -1) translate(0 1575) translate(6802.8) translate(5896) translate(605 -150)scale(.707)"/></g><use data-c="29" xlink:href="#l" transform="scale(1 -1) translate(0 1575) translate(6802.8) translate(6904.6)"/><use data-c="2C" xlink:href="#n" transform="scale(1 -1) translate(0 1575) translate(6802.8) translate(7293.6)"/></g></g><g><g><g transform="scale(1 -1) translate(0 275) translate(2273.4)"><use data-c="46" xlink:href="#a"/><use data-c="6F" xlink:href="#b" transform="translate(653)"/><use data-c="72" xlink:href="#c" transform="translate(1153)"/></g><use data-c="1D456" xlink:href="#d" transform="scale(1 -1) translate(0 275) translate(2273.4) translate(1795)"/><use data-c="3D" xlink:href="#e" transform="scale(1 -1) translate(0 275) translate(2273.4) translate(2417.8)"/><use data-c="32" xlink:href="#o" transform="scale(1 -1) translate(0 275) translate(2273.4) translate(3473.6)"/><use data-c="3A" xlink:href="#g" transform="scale(1 -1) translate(0 275) translate(2273.4) translate(4251.3)"/></g><g><use data-c="1D439" xlink:href="#h" transform="scale(1 -1) translate(0 275) translate(6802.8) translate(1000)"/><use data-c="28" xlink:href="#i" transform="scale(1 -1) translate(0 275) translate(6802.8) translate(1749)"/><g><use data-c="1D465" xlink:href="#j" transform="scale(1 -1) translate(0 275) translate(6802.8) translate(2138)"/><use data-c="33" xlink:href="#p" transform="scale(1 -1) translate(0 275) translate(6802.8) translate(2138) translate(605 -150)scale(.707)"/></g><use data-c="29" xlink:href="#l" transform="scale(1 -1) translate(0 275) translate(6802.8) translate(3146.6)"/><use data-c="2212" xlink:href="#m" transform="scale(1 -1) translate(0 275) translate(6802.8) translate(3757.8)"/><use data-c="1D439" xlink:href="#h" transform="scale(1 -1) translate(0 275) translate(6802.8) translate(4758)"/><use data-c="28" xlink:href="#i" transform="scale(1 -1) translate(0 275) translate(6802.8) translate(5507)"/><g><use data-c="1D465" xlink:href="#j" transform="scale(1 -1) translate(0 275) translate(6802.8) translate(5896)"/><use data-c="32" xlink:href="#o" transform="scale(1 -1) translate(0 275) translate(6802.8) translate(5896) translate(605 -150)scale(.707)"/></g><use data-c="29" xlink:href="#l" transform="scale(1 -1) translate(0 275) translate(6802.8) translate(6904.6)"/><use data-c="2C" xlink:href="#n" transform="scale(1 -1) translate(0 275) translate(6802.8) translate(7293.6)"/></g></g><g><g><g data-mjx-texclass="ORD"><use data-c="22EE" xlink:href="#q" transform="scale(1 -1) translate(0 -1575) translate(6802.8) translate(1000)"/></g></g></g><g><g><g transform="scale(1 -1) translate(0 -2875)"><use data-c="46" xlink:href="#a"/><use data-c="6F" xlink:href="#b" transform="translate(653)"/><use data-c="72" xlink:href="#c" transform="translate(1153)"/></g><use data-c="1D456" xlink:href="#d" transform="scale(1 -1) translate(0 -2875) translate(1795)"/><use data-c="3D" xlink:href="#e" transform="scale(1 -1) translate(0 -2875) translate(2417.8)"/><use data-c="1D440" xlink:href="#r" transform="scale(1 -1) translate(0 -2875) translate(3473.6)"/><use data-c="2212" xlink:href="#m" transform="scale(1 -1) translate(0 -2875) translate(4746.8)"/><use data-c="31" xlink:href="#k" transform="scale(1 -1) translate(0 -2875) translate(5747)"/><use data-c="3A" xlink:href="#g" transform="scale(1 -1) translate(0 -2875) translate(6524.8)"/></g><g><use data-c="1D439" xlink:href="#h" transform="scale(1 -1) translate(0 -2875) translate(6802.8) translate(1000)"/><use data-c="28" xlink:href="#i" transform="scale(1 -1) translate(0 -2875) translate(6802.8) translate(1749)"/><g><use data-c="1D465" xlink:href="#j" transform="scale(1 -1) translate(0 -2875) translate(6802.8) translate(2138)"/><use data-c="1D440" xlink:href="#r" transform="scale(1 -1) translate(0 -2875) translate(6802.8) translate(2138) translate(605 -150)scale(.707)"/></g><use data-c="29" xlink:href="#l" transform="scale(1 -1) translate(0 -2875) translate(6802.8) translate(3536.2)"/><use data-c="2212" xlink:href="#m" transform="scale(1 -1) translate(0 -2875) translate(6802.8) translate(4147.4)"/><use data-c="1D439" xlink:href="#h" transform="scale(1 -1) translate(0 -2875) translate(6802.8) translate(5147.6)"/><use data-c="28" xlink:href="#i" transform="scale(1 -1) translate(0 -2875) translate(6802.8) translate(5896.6)"/><g><use data-c="1D465" xlink:href="#j" transform="scale(1 -1) translate(0 -2875) translate(6802.8) translate(6285.6)"/><g data-mjx-texclass="ORD"><use data-c="1D440" xlink:href="#r" transform="scale(1 -1) translate(0 -2875) translate(6802.8) translate(6285.6) translate(605 -150)scale(.707)"/><use data-c="2212" xlink:href="#m" transform="scale(1 -1) translate(0 -2875) translate(6802.8) translate(6285.6) translate(605 -150)scale(.707) translate(1051)"/><use data-c="31" xlink:href="#k" transform="scale(1 -1) translate(0 -2875) translate(6802.8) translate(6285.6) translate(605 -150)scale(.707) translate(1829)"/></g></g><use data-c="29" xlink:href="#l" transform="scale(1 -1) translate(0 -2875) translate(6802.8) translate(8587.5)"/><use data-c="2E" xlink:href="#s" transform="scale(1 -1) translate(0 -2875) translate(6802.8) translate(8976.5)"/></g></g></g></g></svg>