<svg style="vertical-align:-1.785ex" xmlns="http://www.w3.org/2000/svg" width="36.06ex" height="4.385ex" viewBox="0 -1149.5 15938.6 1938.3" xmlns:xlink="http://www.w3.org/1999/xlink"><defs><path id="a" d="M42 46h14q39 0 47 14v64q0 19 1 43t0 50 0 55 0 57v213q0 26-1 44t0 17q-3 19-14 25t-45 9H26v23q0 23 2 23l10 1q10 1 29 2t37 2q17 1 37 2t30 3 11 1h3V379q0-317 1-319 4-8 12-11 21-3 49-3h16V0h-8l-23 1q-23 1-49 1t-38 1-38 0-50-2L34 0h-8v46z"/><path id="b" d="M69 609q0 28 18 44t44 16q23-2 40-17t17-43q0-30-17-45t-42-15-42 15-18 45M247 0q-15 3-104 3h-37Q80 3 56 1L34 0h-8v46h16q28 0 49 3 9 4 11 11t2 42v191q0 52-2 66t-14 19q-14 7-47 7H30v23q0 23 2 23l10 1q10 1 28 2t36 2q17 1 36 2t29 3 11 1h3V62q5-10 12-12t35-4h23V0z"/><path id="c" d="M41 46h14q39 0 47 14v62q0 17 1 39t0 42v66q0 35-1 59v23q-3 19-14 25t-45 9H25v23q0 23 2 23l10 1q10 1 28 2t37 2q17 1 36 2t29 3 11 1h3v-40q0-38 1-38t5 5 12 15 19 18 29 19 38 16 51 5q15 0 28-2t23-6 19-8 15-9 11-11 9-11 7-11 4-10 3-8l2-5 3 4 6 8q3 4 9 11t13 13 15 13 20 12 23 10 26 7 31 3q126 0 137-113 1-7 1-139v-86q0-38 2-45t11-10q21-3 49-3h16V0h-8l-23 1q-24 1-51 1t-38 1Q596 3 587 0h-8v46h16q61 0 61 16 1 2 1 138-1 135-2 143-6 28-20 42t-24 17-26 2q-45 0-79-34-27-27-34-55t-8-83V108q0-30 1-40t3-13 9-6q21-3 49-3h16V0h-8l-24 1q-23 1-50 1t-38 1Q319 3 310 0h-8v46h16q61 0 61 16 1 2 1 138-1 135-2 143-6 28-20 42t-24 17-26 2q-45 0-79-34-27-27-34-55t-8-83V108q0-30 1-40t3-13 9-6q21-3 49-3h16V0h-8l-23 1q-24 1-51 1t-38 1Q42 3 33 0h-8v46z"/><path id="d" d="M51 0q-5 4-5 7 0 2 169 350t173 352q3 7 28 7 23 0 28-7 3-4 172-352T786 7q0-3-5-7zm456 344L384 596 137 92l246-1h247q0 2-123 253"/><path id="e" d="M52 289q7 42 54 97t116 56q35 0 64-18t43-45q42 63 101 63 37 0 64-22t28-59q0-29-14-47t-27-22-23-4q-19 0-31 11t-12 29q0 46 50 63-11 13-40 13-13 0-19-2-38-16-56-66-60-221-60-258 0-28 16-40t35-12q37 0 73 33t49 81q3 10 6 11t16 2h4q15 0 15-8 0-1-2-11-16-57-62-101T333-11q-70 0-106 63-41-62-94-62h-6q-49 0-70 26T35 71q0 32 19 52t45 20q43 0 43-42 0-20-12-35t-23-20-13-5l-3-1q0-1 6-4t16-7 19-3q36 0 62 45 9 16 23 68t28 108 16 66q5 27 5 39 0 28-15 40t-34 12q-40 0-75-32t-49-82q-2-9-5-10t-16-2H58q-6 6-6 11"/><path id="f" d="M56 237v13l14 20h765q-116 87-143 223v3q0 2-1 3 0 12 17 12h3q9 0 12-1t6-4 3-9 3-16 8-25q22-67 73-120t119-75q9-3 9-11 0-6-5-9t-24-10-38-19q-41-26-71-60t-45-67-21-50-8-31q-2-10-5-12t-16-3q-20 0-20 11 0 7 5 25 32 126 139 205H70q-14 7-14 20Z"/><path id="g" d="M96 585q56 81 153 81 48 0 96-26t78-92q37-83 37-228 0-155-43-237-20-42-55-67t-61-31-51-7q-26 0-52 6t-61 32-55 67q-43 82-43 237 0 174 57 265m225 12q-30 32-71 32-42 0-72-32-25-26-33-72t-8-192q0-158 8-208t36-79q28-30 69-30 40 0 68 30 29 30 36 84t8 203q0 145-8 191t-33 73"/><path id="h" d="M224-649v1799h231v-51H275V-598h180v-51z"/><path id="i" d="M48 1Q31 1 31 11q0 2 3 14 4 16 8 18t23 3q27 0 60 3 14 3 19 12 2 5 71 281t70 280q0 7-4 7-8 3-53 5h-31q-6 6-6 8t2 17q4 17 10 21h539q7-4 7-11 0-5-13-112t-14-110q-2-7-20-7h-12q-7 5-7 13 0 1 3 24t3 53-7 49-19 31-37 16-51 7-72 1h-23q-82-1-87-3t-7-8q-1-1-34-131l-32-129h78q20 0 28 1t22 3 24 7 17 12q13 12 22 33t13 38 5 18q3 5 19 5h12q7-5 7-10 0-3-31-131t-34-132q-2-7-20-7h-12q-7 6-7 12 0 3 5 22t5 40q0 29-20 36t-89 7h-55l-32-127Q245 66 245 60q0-14 89-14h25q6-6 6-7t-2-20q-4-13-10-19h-17q-41 2-151 2H86Q52 2 48 1"/><path id="j" d="M94 250q0 69 10 131t23 107 37 88 38 67 42 52 33 34 25 21h17q14 0 14-9 0-3-17-21t-41-53-49-86-42-138-17-193 17-192 41-139 49-86 42-53 17-21q0-9-15-9h-16l-28 24q-94 85-137 212T94 250"/><path id="k" d="M234 637h-8q-25 0-30 1t-5 11q0 27 11 33 2 1 97 1h88q11 0 14-6 211-496 215-509l54 213q53 211 53 225 0 27-64 31-24 0-24 11 0 2 2 12 4 16 6 19t10 4q3 0 31-1t83-2q50 0 76 1t30 1q15 0 15-10 0-22-8-30-2-5-22-5-71-4-89-40L620 7q-2-7-21-7-14 0-17 2-3 3-129 303L326 604l-65-260Q196 88 196 79q5-33 72-33h10q6-5 6-8t-2-19q-4-13-10-19h-13q-31 2-108 2H63Q49 2 46 1q-15 0-15 9 0 4 3 16t5 14q2 6 23 6 68 3 88 39 4 6 71 277l68 272q-2 1-55 3"/><path id="l" d="m60 749 4 1h22l28-24q94-85 137-212t43-264q0-68-10-131T261 12t-37-88-38-67-41-51-32-33-23-19l-4-4H63q-3 0-5 3t-3 9q1 1 11 13Q221-64 221 250T66 725q-10 12-11 13 0 8 5 11"/><path id="m" d="M84 237v13l14 20h581q15-8 15-20t-15-20H98q-14 7-14 20Z"/><path id="n" d="M16 1099v51h231V-649H16v51h180v1697z"/><path id="o" d="M56 347q0 13 14 20h637q15-8 15-20 0-11-14-19l-318-1H72q-16 5-16 20m0-194q0 15 16 20h636q14-10 14-20 0-13-15-20H70q-14 7-14 20"/><path id="p" d="M78 60q0 24 17 42t43 18q24 0 42-16t19-43q0-25-17-43T139 0 96 17 78 60"/></defs><g stroke="currentColor" fill="currentColor" stroke-width="0"><g><g transform="scale(1 -1) translate(332.6)"><use data-c="6C" xlink:href="#a"/><use data-c="69" xlink:href="#b" transform="translate(278)"/><use data-c="6D" xlink:href="#c" transform="translate(556)"/></g><g data-mjx-texclass="ORD"><use data-c="394" xlink:href="#d" transform="scale(1 -1) translate(0 -673.3)scale(.707)"/><use data-c="1D465" xlink:href="#e" transform="scale(1 -1) translate(0 -673.3)scale(.707) translate(833)"/><use data-c="2192" xlink:href="#f" transform="scale(1 -1) translate(0 -673.3)scale(.707) translate(1405)"/><use data-c="30" xlink:href="#g" transform="scale(1 -1) translate(0 -673.3)scale(.707) translate(2405)"/></g></g><g data-mjx-texclass="OPEN"><use data-c="5B" xlink:href="#h" transform="scale(1 -1) translate(2054.1) translate(0 -.5)"/></g><use data-c="1D439" xlink:href="#i" transform="scale(1 -1) translate(2526.1)"/><use data-c="28" xlink:href="#j" transform="scale(1 -1) translate(3275.1)"/><use data-c="1D441" xlink:href="#k" transform="scale(1 -1) translate(3664.1)"/><use data-c="29" xlink:href="#l" transform="scale(1 -1) translate(4552.1)"/><use data-c="2212" xlink:href="#m" transform="scale(1 -1) translate(5163.4)"/><use data-c="1D439" xlink:href="#i" transform="scale(1 -1) translate(6163.6)"/><use data-c="28" xlink:href="#j" transform="scale(1 -1) translate(6912.6)"/><use data-c="30" xlink:href="#g" transform="scale(1 -1) translate(7301.6)"/><use data-c="29" xlink:href="#l" transform="scale(1 -1) translate(7801.6)"/><g data-mjx-texclass="CLOSE"><use data-c="5D" xlink:href="#n" transform="scale(1 -1) translate(8190.6) translate(0 -.5)"/></g><use data-c="3D" xlink:href="#o" transform="scale(1 -1) translate(8940.4)"/><use data-c="1D439" xlink:href="#i" transform="scale(1 -1) translate(9996.1)"/><use data-c="28" xlink:href="#j" transform="scale(1 -1) translate(10745.1)"/><use data-c="1D441" xlink:href="#k" transform="scale(1 -1) translate(11134.1)"/><use data-c="29" xlink:href="#l" transform="scale(1 -1) translate(12022.1)"/><use data-c="2212" xlink:href="#m" transform="scale(1 -1) translate(12633.4)"/><use data-c="1D439" xlink:href="#i" transform="scale(1 -1) translate(13633.6)"/><use data-c="28" xlink:href="#j" transform="scale(1 -1) translate(14382.6)"/><use data-c="30" xlink:href="#g" transform="scale(1 -1) translate(14771.6)"/><use data-c="29" xlink:href="#l" transform="scale(1 -1) translate(15271.6)"/><use data-c="2E" xlink:href="#p" transform="scale(1 -1) translate(15660.6)"/></g></svg>