<svg style="vertical-align:-7.766ex" xmlns="http://www.w3.org/2000/svg" width="81.202ex" height="16.662ex" viewBox="0 -3932.4 35891.5 7364.8" xmlns:xlink="http://www.w3.org/1999/xlink"><defs><path id="a" d="M48 1Q31 1 31 11q0 2 3 14 4 16 8 18t23 3q27 0 60 3 14 3 19 12 2 5 71 281t70 280q0 7-4 7-8 3-53 5h-31q-6 6-6 8t2 17q4 17 10 21h539q7-4 7-11 0-5-13-112t-14-110q-2-7-20-7h-12q-7 5-7 13 0 1 3 24t3 53-7 49-19 31-37 16-51 7-72 1h-23q-82-1-87-3t-7-8q-1-1-34-131l-32-129h78q20 0 28 1t22 3 24 7 17 12q13 12 22 33t13 38 5 18q3 5 19 5h12q7-5 7-10 0-3-31-131t-34-132q-2-7-20-7h-12q-7 6-7 12 0 3 5 22t5 40q0 29-20 36t-89 7h-55l-32-127Q245 66 245 60q0-14 89-14h25q6-6 6-7t-2-20q-4-13-10-19h-17q-41 2-151 2H86Q52 2 48 1"/><path id="b" d="M94 250q0 69 10 131t23 107 37 88 38 67 42 52 33 34 25 21h17q14 0 14-9 0-3-17-21t-41-53-49-86-42-138-17-193 17-192 41-139 49-86 42-53 17-21q0-9-15-9h-16l-28 24q-94 85-137 212T94 250"/><path id="c" d="M52 289q7 42 54 97t116 56q35 0 64-18t43-45q42 63 101 63 37 0 64-22t28-59q0-29-14-47t-27-22-23-4q-19 0-31 11t-12 29q0 46 50 63-11 13-40 13-13 0-19-2-38-16-56-66-60-221-60-258 0-28 16-40t35-12q37 0 73 33t49 81q3 10 6 11t16 2h4q15 0 15-8 0-1-2-11-16-57-62-101T333-11q-70 0-106 63-41-62-94-62h-6q-49 0-70 26T35 71q0 32 19 52t45 20q43 0 43-42 0-20-12-35t-23-20-13-5l-3-1q0-1 6-4t16-7 19-3q36 0 62 45 9 16 23 68t28 108 16 66q5 27 5 39 0 28-15 40t-34 12q-40 0-75-32t-49-82q-2-9-5-10t-16-2H58q-6 6-6 11"/><path id="d" d="M56 237v13l14 20h299v150l1 150q10 13 19 13 13 0 20-15V270h298q15-8 15-20t-15-20H409V-68q-8-14-18-14h-4q-12 0-18 14v298H70q-14 7-14 20Z"/><path id="e" d="M51 0q-5 4-5 7 0 2 169 350t173 352q3 7 28 7 23 0 28-7 3-4 172-352T786 7q0-3-5-7zm456 344L384 596 137 92l246-1h247q0 2-123 253"/><path id="f" d="m60 749 4 1h22l28-24q94-85 137-212t43-264q0-68-10-131T261 12t-37-88-38-67-41-51-32-33-23-19l-4-4H63q-3 0-5 3t-3 9q1 1 11 13Q221-64 221 250T66 725q-10 12-11 13 0 8 5 11"/><path id="g" d="M84 237v13l14 20h581q15-8 15-20t-15-20H98q-14 7-14 20Z"/><path id="h" d="M56 347q0 13 14 20h637q15-8 15-20 0-11-14-19l-318-1H72q-16 5-16 20m0-194q0 15 16 20h636q14-10 14-20 0-13-15-20H70q-14 7-14 20"/><path id="i" d="M118-162q2 0 6-2t11-3 12-1q13 0 24 13t16 29q10 27 34 153t46 240 22 115v3h-47q-47 0-50 2-4 3-4 10l7 28q2 5 8 5t47 1q48 0 48 1 0 2 9 50t12 58q37 165 146 165 37-2 61-22t24-53q0-36-21-52t-42-17q-44 0-44 42 0 19 11 33t24 21l9 5q-16 6-30 6-12 0-23-10t-15-28q-7-29-16-78t-16-83-7-36 55-2q45 0 52-1t11-6q1-4-2-17t-5-16q-2-5-9-5t-54-1h-56l-23-122Q301 15 282-47q-27-85-70-126-37-32-73-32-32 0-58 19t-26 54q0 37 21 54t42 17q44 0 44-42 0-19-11-33t-24-21z"/><path id="j" d="M208 74q0-24 46-28 18 0 18-11 0-1-2-13-3-14-6-18t-13-4h-12q-10 0-34 1t-64 1Q70 2 50 0h-8q-7 7-7 11 2 27 13 35h14q70 3 102 50 6 6 181 305t178 303q7 12 24 12h25q6-9 6-10l28-323q28-323 30-326 5-11 65-11 25 0 25-10 0-2-3-14-3-15-5-18t-14-4h-14q-11 0-39 1t-73 1q-94 0-123-2h-12q-6 6-6 9t2 18q4 13 6 16l4 3h20q54 3 64 17l-12 150H283l-34-58q-41-69-41-81m308 186q0 11-12 156t-14 146l-27-43q-16-27-63-107l-90-152 103-1q103 0 103 1"/><path id="k" d="m213 578-13-5q-14-5-40-10t-58-7H83v46h19q47 2 87 15t56 24 28 22q2 3 12 3 9 0 17-6V361l1-300q7-7 12-9t24-4 62-2h26V0h-11q-21 3-159 3-136 0-157-3H88v46h64q16 0 25 1t16 3 8 2 6 5 6 4z"/><path id="l" d="M127 463q-27 0-42 17t-16 44q0 55 48 98t116 43q35 0 44-1 74-12 113-53t40-89q0-52-34-101t-94-71l-3-2q0-1 9-3t29-9 38-21q82-53 82-140 0-79-62-138T238-22q-80 0-138 43T42 130q0 28 18 45t45 18q28 0 46-18t18-45q0-11-3-20t-7-16-11-12-12-8-10-4-8-3l-4-1q51-45 124-45 55 0 83 53 17 33 17 101v20q0 95-64 127-15 6-61 7l-42 1-3 2q-2 3-2 16 0 18 8 18 28 0 58 5 34 5 62 42t28 112v8q0 57-35 79-22 14-47 14-32 0-59-11t-38-23-11-12h3q3-1 8-2t10-5 12-7 10-11 8-15 3-20q0-22-14-39t-45-18"/><path id="m" d="M109 429q-27 0-43 18t-16 44q0 71 53 123t132 52q91 0 152-56t62-145q0-43-20-82t-48-68-80-74q-36-31-100-92l-59-56 76-1q157 0 167 5 7 2 24 89v3h40v-3q-1-3-13-91T421 3V0H50v31q0 7 6 15t30 35q29 32 50 56 9 10 34 37t34 37 29 33 28 34 23 30 21 32 15 29 13 32 7 30 3 33q0 63-34 109t-97 46q-33 0-58-17t-35-33-10-19q0-1 5-1 18 0 37-14t19-46q0-25-16-42t-45-18"/><path id="n" d="M462 0q-18 3-129 3-116 0-134-3h-9v46h58q7 0 17 2t14 5 7 8q1 2 1 54v50H28v46l151 231q153 232 155 233 2 2 21 2h18l6-6V211h92v-46h-92V66q0-7 6-12 8-7 57-8h29V0zM293 211v334L74 212l109-1z"/><path id="o" d="M78 60q0 24 17 42t43 18q24 0 42-16t19-43q0-25-17-43T139 0 96 17 78 60m447 0q0 24 17 42t43 18q24 0 42-16t19-43q0-25-17-43T586 0t-43 17-18 43m447 0q0 24 17 42t43 18q24 0 42-16t19-43q0-25-17-43t-43-18-43 17-18 43"/><path id="p" d="M78 35v25l16 43 43 18q28 0 50-25t23-88q0-35-9-68t-21-57-26-41-24-27-13-9q-4 0-13 9t-9 13 11 16 25 30 26 50 16 73V9l-1-1q-2-1-5-2t-6-3-9-2-12-1q-27 0-44 17Z"/><path id="q" d="M78 30q0 24 17 42t43 18q24 0 42-16t19-43q0-25-17-43t-43-18-43 17-18 43m0 410q0 24 17 42t43 18q24 0 42-16t19-43q0-25-17-43t-43-18-43 17-18 43m0 400q0 24 17 42t43 18q24 0 42-16t19-43q0-25-17-43t-43-18-43 17-18 43"/><path id="r" d="M234 637h-8q-25 0-30 1t-5 11q0 27 11 33 2 1 97 1h88q11 0 14-6 211-496 215-509l54 213q53 211 53 225 0 27-64 31-24 0-24 11 0 2 2 12 4 16 6 19t10 4q3 0 31-1t83-2q50 0 76 1t30 1q15 0 15-10 0-22-8-30-2-5-22-5-71-4-89-40L620 7q-2-7-21-7-14 0-17 2-3 3-129 303L326 604l-65-260Q196 88 196 79q5-33 72-33h10q6-5 6-8t-2-19q-4-13-10-19h-13q-31 2-108 2H63Q49 2 46 1q-15 0-15 9 0 4 3 16t5 14q2 6 23 6 68 3 88 39 4 6 71 277l68 272q-2 1-55 3"/><path id="s" d="M78 60q0 24 17 42t43 18q24 0 42-16t19-43q0-25-17-43T139 0 96 17 78 60"/></defs><g stroke="currentColor" fill="currentColor" stroke-width="0"><g><g><g><use data-c="1D439" xlink:href="#a" transform="scale(1 -1) translate(0 3048.4) translate(6903.9)"/><use data-c="28" xlink:href="#b" transform="scale(1 -1) translate(0 3048.4) translate(6903.9) translate(749)"/><use data-c="1D465" xlink:href="#c" transform="scale(1 -1) translate(0 3048.4) translate(6903.9) translate(1138)"/><use data-c="2B" xlink:href="#d" transform="scale(1 -1) translate(0 3048.4) translate(6903.9) translate(1932.2)"/><use data-c="394" xlink:href="#e" transform="scale(1 -1) translate(0 3048.4) translate(6903.9) translate(2932.4)"/><use data-c="1D465" xlink:href="#c" transform="scale(1 -1) translate(0 3048.4) translate(6903.9) translate(3765.4)"/><use data-c="29" xlink:href="#f" transform="scale(1 -1) translate(0 3048.4) translate(6903.9) translate(4337.4)"/><use data-c="2212" xlink:href="#g" transform="scale(1 -1) translate(0 3048.4) translate(6903.9) translate(4948.7)"/><use data-c="1D439" xlink:href="#a" transform="scale(1 -1) translate(0 3048.4) translate(6903.9) translate(5948.9)"/><use data-c="28" xlink:href="#b" transform="scale(1 -1) translate(0 3048.4) translate(6903.9) translate(6697.9)"/><use data-c="1D465" xlink:href="#c" transform="scale(1 -1) translate(0 3048.4) translate(6903.9) translate(7086.9)"/><use data-c="29" xlink:href="#f" transform="scale(1 -1) translate(0 3048.4) translate(6903.9) translate(7658.9)"/></g><g><use data-c="3D" xlink:href="#h" transform="scale(1 -1) translate(0 3048.4) translate(14951.8) translate(277.8)"/><g><use data-c="1D453" xlink:href="#i" transform="scale(1 -1) translate(0 3048.4) translate(14951.8) translate(1333.6)"/><g data-mjx-texclass="ORD"><g><use data-c="1D434" xlink:href="#j" transform="scale(1 -1) translate(0 3048.4) translate(14951.8) translate(1333.6) translate(523 -152.7)scale(.707)"/><use data-c="31" xlink:href="#k" transform="scale(1 -1) translate(0 3048.4) translate(14951.8) translate(1333.6) translate(523 -152.7)scale(.707) translate(783 -150)scale(.707)"/></g></g></g><use data-c="394" xlink:href="#e" transform="scale(1 -1) translate(0 3048.4) translate(14951.8) translate(2912.6)"/><use data-c="1D465" xlink:href="#c" transform="scale(1 -1) translate(0 3048.4) translate(14951.8) translate(3745.6)"/><use data-c="2B" xlink:href="#d" transform="scale(1 -1) translate(0 3048.4) translate(14951.8) translate(4539.8)"/><g><use data-c="1D453" xlink:href="#i" transform="scale(1 -1) translate(0 3048.4) translate(14951.8) translate(5540)"/><g data-mjx-texclass="ORD"><g><use data-c="1D434" xlink:href="#j" transform="scale(1 -1) translate(0 3048.4) translate(14951.8) translate(5540) translate(523 -152.7)scale(.707)"/><use data-c="33" xlink:href="#l" transform="scale(1 -1) translate(0 3048.4) translate(14951.8) translate(5540) translate(523 -152.7)scale(.707) translate(783 -150)scale(.707)"/></g></g></g><use data-c="28" xlink:href="#b" transform="scale(1 -1) translate(0 3048.4) translate(14951.8) translate(7119)"/><use data-c="394" xlink:href="#e" transform="scale(1 -1) translate(0 3048.4) translate(14951.8) translate(7508)"/><use data-c="1D465" xlink:href="#c" transform="scale(1 -1) translate(0 3048.4) translate(14951.8) translate(8341)"/><g><use data-c="29" xlink:href="#f" transform="scale(1 -1) translate(0 3048.4) translate(14951.8) translate(8913)"/><use data-c="32" xlink:href="#m" transform="scale(1 -1) translate(0 3048.4) translate(14951.8) translate(8913) translate(422 413)scale(.707)"/></g><use data-c="2B" xlink:href="#d" transform="scale(1 -1) translate(0 3048.4) translate(14951.8) translate(9960.8)"/><g><use data-c="1D453" xlink:href="#i" transform="scale(1 -1) translate(0 3048.4) translate(14951.8) translate(10961)"/><g data-mjx-texclass="ORD"><g><use data-c="1D434" xlink:href="#j" transform="scale(1 -1) translate(0 3048.4) translate(14951.8) translate(10961) translate(523 -152.7)scale(.707)"/><use data-c="34" xlink:href="#n" transform="scale(1 -1) translate(0 3048.4) translate(14951.8) translate(10961) translate(523 -152.7)scale(.707) translate(783 -150)scale(.707)"/></g></g></g><use data-c="28" xlink:href="#b" transform="scale(1 -1) translate(0 3048.4) translate(14951.8) translate(12540.1)"/><use data-c="394" xlink:href="#e" transform="scale(1 -1) translate(0 3048.4) translate(14951.8) translate(12929.1)"/><use data-c="1D465" xlink:href="#c" transform="scale(1 -1) translate(0 3048.4) translate(14951.8) translate(13762.1)"/><g><use data-c="29" xlink:href="#f" transform="scale(1 -1) translate(0 3048.4) translate(14951.8) translate(14334.1)"/><use data-c="33" xlink:href="#l" transform="scale(1 -1) translate(0 3048.4) translate(14951.8) translate(14334.1) translate(422 413)scale(.707)"/></g><use data-c="2B" xlink:href="#d" transform="scale(1 -1) translate(0 3048.4) translate(14951.8) translate(15381.8)"/><use data-c="2026" xlink:href="#o" transform="scale(1 -1) translate(0 3048.4) translate(14951.8) translate(16382.1)"/><use data-c="2C" xlink:href="#p" transform="scale(1 -1) translate(0 3048.4) translate(14951.8) translate(17720.7)"/></g></g><g><g><use data-c="1D439" xlink:href="#a" transform="scale(1 -1) translate(0 1594.8) translate(3776.4)"/><use data-c="28" xlink:href="#b" transform="scale(1 -1) translate(0 1594.8) translate(3776.4) translate(749)"/><use data-c="1D465" xlink:href="#c" transform="scale(1 -1) translate(0 1594.8) translate(3776.4) translate(1138)"/><use data-c="2B" xlink:href="#d" transform="scale(1 -1) translate(0 1594.8) translate(3776.4) translate(1932.2)"/><use data-c="32" xlink:href="#m" transform="scale(1 -1) translate(0 1594.8) translate(3776.4) translate(2932.4)"/><use data-c="394" xlink:href="#e" transform="scale(1 -1) translate(0 1594.8) translate(3776.4) translate(3432.4)"/><use data-c="1D465" xlink:href="#c" transform="scale(1 -1) translate(0 1594.8) translate(3776.4) translate(4265.4)"/><use data-c="29" xlink:href="#f" transform="scale(1 -1) translate(0 1594.8) translate(3776.4) translate(4837.4)"/><use data-c="2212" xlink:href="#g" transform="scale(1 -1) translate(0 1594.8) translate(3776.4) translate(5448.7)"/><use data-c="1D439" xlink:href="#a" transform="scale(1 -1) translate(0 1594.8) translate(3776.4) translate(6448.9)"/><use data-c="28" xlink:href="#b" transform="scale(1 -1) translate(0 1594.8) translate(3776.4) translate(7197.9)"/><use data-c="1D465" xlink:href="#c" transform="scale(1 -1) translate(0 1594.8) translate(3776.4) translate(7586.9)"/><use data-c="2B" xlink:href="#d" transform="scale(1 -1) translate(0 1594.8) translate(3776.4) translate(8381.1)"/><use data-c="394" xlink:href="#e" transform="scale(1 -1) translate(0 1594.8) translate(3776.4) translate(9381.3)"/><use data-c="1D465" xlink:href="#c" transform="scale(1 -1) translate(0 1594.8) translate(3776.4) translate(10214.3)"/><use data-c="29" xlink:href="#f" transform="scale(1 -1) translate(0 1594.8) translate(3776.4) translate(10786.3)"/></g><g><use data-c="3D" xlink:href="#h" transform="scale(1 -1) translate(0 1594.8) translate(14951.8) translate(277.8)"/><g><use data-c="1D453" xlink:href="#i" transform="scale(1 -1) translate(0 1594.8) translate(14951.8) translate(1333.6)"/><g data-mjx-texclass="ORD"><g><use data-c="1D434" xlink:href="#j" transform="scale(1 -1) translate(0 1594.8) translate(14951.8) translate(1333.6) translate(523 -152.7)scale(.707)"/><use data-c="31" xlink:href="#k" transform="scale(1 -1) translate(0 1594.8) translate(14951.8) translate(1333.6) translate(523 -152.7)scale(.707) translate(783 -150)scale(.707)"/></g></g></g><use data-c="28" xlink:href="#b" transform="scale(1 -1) translate(0 1594.8) translate(14951.8) translate(2745.6)"/><use data-c="32" xlink:href="#m" transform="scale(1 -1) translate(0 1594.8) translate(14951.8) translate(3134.6)"/><use data-c="394" xlink:href="#e" transform="scale(1 -1) translate(0 1594.8) translate(14951.8) translate(3634.6)"/><use data-c="1D465" xlink:href="#c" transform="scale(1 -1) translate(0 1594.8) translate(14951.8) translate(4467.6)"/><use data-c="29" xlink:href="#f" transform="scale(1 -1) translate(0 1594.8) translate(14951.8) translate(5039.6)"/><use data-c="2B" xlink:href="#d" transform="scale(1 -1) translate(0 1594.8) translate(14951.8) translate(5650.8)"/><g><use data-c="1D453" xlink:href="#i" transform="scale(1 -1) translate(0 1594.8) translate(14951.8) translate(6651)"/><g data-mjx-texclass="ORD"><g><use data-c="1D434" xlink:href="#j" transform="scale(1 -1) translate(0 1594.8) translate(14951.8) translate(6651) translate(523 -152.7)scale(.707)"/><use data-c="33" xlink:href="#l" transform="scale(1 -1) translate(0 1594.8) translate(14951.8) translate(6651) translate(523 -152.7)scale(.707) translate(783 -150)scale(.707)"/></g></g></g><use data-c="28" xlink:href="#b" transform="scale(1 -1) translate(0 1594.8) translate(14951.8) translate(8063)"/><use data-c="32" xlink:href="#m" transform="scale(1 -1) translate(0 1594.8) translate(14951.8) translate(8452)"/><use data-c="394" xlink:href="#e" transform="scale(1 -1) translate(0 1594.8) translate(14951.8) translate(8952)"/><use data-c="1D465" xlink:href="#c" transform="scale(1 -1) translate(0 1594.8) translate(14951.8) translate(9785)"/><g><use data-c="29" xlink:href="#f" transform="scale(1 -1) translate(0 1594.8) translate(14951.8) translate(10357)"/><use data-c="32" xlink:href="#m" transform="scale(1 -1) translate(0 1594.8) translate(14951.8) translate(10357) translate(422 413)scale(.707)"/></g><use data-c="2B" xlink:href="#d" transform="scale(1 -1) translate(0 1594.8) translate(14951.8) translate(11404.8)"/><g><use data-c="1D453" xlink:href="#i" transform="scale(1 -1) translate(0 1594.8) translate(14951.8) translate(12405)"/><g data-mjx-texclass="ORD"><g><use data-c="1D434" xlink:href="#j" transform="scale(1 -1) translate(0 1594.8) translate(14951.8) translate(12405) translate(523 -152.7)scale(.707)"/><use data-c="34" xlink:href="#n" transform="scale(1 -1) translate(0 1594.8) translate(14951.8) translate(12405) translate(523 -152.7)scale(.707) translate(783 -150)scale(.707)"/></g></g></g><use data-c="28" xlink:href="#b" transform="scale(1 -1) translate(0 1594.8) translate(14951.8) translate(13817.1)"/><use data-c="32" xlink:href="#m" transform="scale(1 -1) translate(0 1594.8) translate(14951.8) translate(14206.1)"/><use data-c="394" xlink:href="#e" transform="scale(1 -1) translate(0 1594.8) translate(14951.8) translate(14706.1)"/><use data-c="1D465" xlink:href="#c" transform="scale(1 -1) translate(0 1594.8) translate(14951.8) translate(15539.1)"/><g><use data-c="29" xlink:href="#f" transform="scale(1 -1) translate(0 1594.8) translate(14951.8) translate(16111.1)"/><use data-c="33" xlink:href="#l" transform="scale(1 -1) translate(0 1594.8) translate(14951.8) translate(16111.1) translate(422 413)scale(.707)"/></g><use data-c="2B" xlink:href="#d" transform="scale(1 -1) translate(0 1594.8) translate(14951.8) translate(17158.8)"/><use data-c="2026" xlink:href="#o" transform="scale(1 -1) translate(0 1594.8) translate(14951.8) translate(18159.1)"/><use data-c="2C" xlink:href="#p" transform="scale(1 -1) translate(0 1594.8) translate(14951.8) translate(19497.7)"/></g></g><g><g><use data-c="1D439" xlink:href="#a" transform="scale(1 -1) translate(0 141.1) translate(3276.4)"/><use data-c="28" xlink:href="#b" transform="scale(1 -1) translate(0 141.1) translate(3276.4) translate(749)"/><use data-c="1D465" xlink:href="#c" transform="scale(1 -1) translate(0 141.1) translate(3276.4) translate(1138)"/><use data-c="2B" xlink:href="#d" transform="scale(1 -1) translate(0 141.1) translate(3276.4) translate(1932.2)"/><use data-c="33" xlink:href="#l" transform="scale(1 -1) translate(0 141.1) translate(3276.4) translate(2932.4)"/><use data-c="394" xlink:href="#e" transform="scale(1 -1) translate(0 141.1) translate(3276.4) translate(3432.4)"/><use data-c="1D465" xlink:href="#c" transform="scale(1 -1) translate(0 141.1) translate(3276.4) translate(4265.4)"/><use data-c="29" xlink:href="#f" transform="scale(1 -1) translate(0 141.1) translate(3276.4) translate(4837.4)"/><use data-c="2212" xlink:href="#g" transform="scale(1 -1) translate(0 141.1) translate(3276.4) translate(5448.7)"/><use data-c="1D439" xlink:href="#a" transform="scale(1 -1) translate(0 141.1) translate(3276.4) translate(6448.9)"/><use data-c="28" xlink:href="#b" transform="scale(1 -1) translate(0 141.1) translate(3276.4) translate(7197.9)"/><use data-c="1D465" xlink:href="#c" transform="scale(1 -1) translate(0 141.1) translate(3276.4) translate(7586.9)"/><use data-c="2B" xlink:href="#d" transform="scale(1 -1) translate(0 141.1) translate(3276.4) translate(8381.1)"/><use data-c="32" xlink:href="#m" transform="scale(1 -1) translate(0 141.1) translate(3276.4) translate(9381.3)"/><use data-c="394" xlink:href="#e" transform="scale(1 -1) translate(0 141.1) translate(3276.4) translate(9881.3)"/><use data-c="1D465" xlink:href="#c" transform="scale(1 -1) translate(0 141.1) translate(3276.4) translate(10714.3)"/><use data-c="29" xlink:href="#f" transform="scale(1 -1) translate(0 141.1) translate(3276.4) translate(11286.3)"/></g><g><use data-c="3D" xlink:href="#h" transform="scale(1 -1) translate(0 141.1) translate(14951.8) translate(277.8)"/><g><use data-c="1D453" xlink:href="#i" transform="scale(1 -1) translate(0 141.1) translate(14951.8) translate(1333.6)"/><g data-mjx-texclass="ORD"><g><use data-c="1D434" xlink:href="#j" transform="scale(1 -1) translate(0 141.1) translate(14951.8) translate(1333.6) translate(523 -152.7)scale(.707)"/><use data-c="31" xlink:href="#k" transform="scale(1 -1) translate(0 141.1) translate(14951.8) translate(1333.6) translate(523 -152.7)scale(.707) translate(783 -150)scale(.707)"/></g></g></g><use data-c="28" xlink:href="#b" transform="scale(1 -1) translate(0 141.1) translate(14951.8) translate(2745.6)"/><use data-c="33" xlink:href="#l" transform="scale(1 -1) translate(0 141.1) translate(14951.8) translate(3134.6)"/><use data-c="394" xlink:href="#e" transform="scale(1 -1) translate(0 141.1) translate(14951.8) translate(3634.6)"/><use data-c="1D465" xlink:href="#c" transform="scale(1 -1) translate(0 141.1) translate(14951.8) translate(4467.6)"/><use data-c="29" xlink:href="#f" transform="scale(1 -1) translate(0 141.1) translate(14951.8) translate(5039.6)"/><use data-c="2B" xlink:href="#d" transform="scale(1 -1) translate(0 141.1) translate(14951.8) translate(5650.8)"/><g><use data-c="1D453" xlink:href="#i" transform="scale(1 -1) translate(0 141.1) translate(14951.8) translate(6651)"/><g data-mjx-texclass="ORD"><g><use data-c="1D434" xlink:href="#j" transform="scale(1 -1) translate(0 141.1) translate(14951.8) translate(6651) translate(523 -152.7)scale(.707)"/><use data-c="33" xlink:href="#l" transform="scale(1 -1) translate(0 141.1) translate(14951.8) translate(6651) translate(523 -152.7)scale(.707) translate(783 -150)scale(.707)"/></g></g></g><use data-c="28" xlink:href="#b" transform="scale(1 -1) translate(0 141.1) translate(14951.8) translate(8063)"/><use data-c="33" xlink:href="#l" transform="scale(1 -1) translate(0 141.1) translate(14951.8) translate(8452)"/><use data-c="394" xlink:href="#e" transform="scale(1 -1) translate(0 141.1) translate(14951.8) translate(8952)"/><use data-c="1D465" xlink:href="#c" transform="scale(1 -1) translate(0 141.1) translate(14951.8) translate(9785)"/><g><use data-c="29" xlink:href="#f" transform="scale(1 -1) translate(0 141.1) translate(14951.8) translate(10357)"/><use data-c="32" xlink:href="#m" transform="scale(1 -1) translate(0 141.1) translate(14951.8) translate(10357) translate(422 413)scale(.707)"/></g><use data-c="2B" xlink:href="#d" transform="scale(1 -1) translate(0 141.1) translate(14951.8) translate(11404.8)"/><g><use data-c="1D453" xlink:href="#i" transform="scale(1 -1) translate(0 141.1) translate(14951.8) translate(12405)"/><g data-mjx-texclass="ORD"><g><use data-c="1D434" xlink:href="#j" transform="scale(1 -1) translate(0 141.1) translate(14951.8) translate(12405) translate(523 -152.7)scale(.707)"/><use data-c="34" xlink:href="#n" transform="scale(1 -1) translate(0 141.1) translate(14951.8) translate(12405) translate(523 -152.7)scale(.707) translate(783 -150)scale(.707)"/></g></g></g><use data-c="28" xlink:href="#b" transform="scale(1 -1) translate(0 141.1) translate(14951.8) translate(13817.1)"/><use data-c="33" xlink:href="#l" transform="scale(1 -1) translate(0 141.1) translate(14951.8) translate(14206.1)"/><use data-c="394" xlink:href="#e" transform="scale(1 -1) translate(0 141.1) translate(14951.8) translate(14706.1)"/><use data-c="1D465" xlink:href="#c" transform="scale(1 -1) translate(0 141.1) translate(14951.8) translate(15539.1)"/><g><use data-c="29" xlink:href="#f" transform="scale(1 -1) translate(0 141.1) translate(14951.8) translate(16111.1)"/><use data-c="33" xlink:href="#l" transform="scale(1 -1) translate(0 141.1) translate(14951.8) translate(16111.1) translate(422 413)scale(.707)"/></g><use data-c="2B" xlink:href="#d" transform="scale(1 -1) translate(0 141.1) translate(14951.8) translate(17158.8)"/><use data-c="2026" xlink:href="#o" transform="scale(1 -1) translate(0 141.1) translate(14951.8) translate(18159.1)"/><use data-c="2C" xlink:href="#p" transform="scale(1 -1) translate(0 141.1) translate(14951.8) translate(19497.7)"/></g></g><g><g><g data-mjx-texclass="ORD"><use data-c="22EE" xlink:href="#q" transform="scale(1 -1) translate(0 -1728.7) translate(14951.8) translate(278)"/></g></g></g><g><g><use data-c="1D439" xlink:href="#a" transform="scale(1 -1) translate(0 -3162.6)"/><use data-c="28" xlink:href="#b" transform="scale(1 -1) translate(0 -3162.6) translate(749)"/><use data-c="1D465" xlink:href="#c" transform="scale(1 -1) translate(0 -3162.6) translate(1138)"/><use data-c="2B" xlink:href="#d" transform="scale(1 -1) translate(0 -3162.6) translate(1932.2)"/><use data-c="1D441" xlink:href="#r" transform="scale(1 -1) translate(0 -3162.6) translate(2932.4)"/><use data-c="394" xlink:href="#e" transform="scale(1 -1) translate(0 -3162.6) translate(3820.4)"/><use data-c="1D465" xlink:href="#c" transform="scale(1 -1) translate(0 -3162.6) translate(4653.4)"/><use data-c="29" xlink:href="#f" transform="scale(1 -1) translate(0 -3162.6) translate(5225.4)"/><use data-c="2212" xlink:href="#g" transform="scale(1 -1) translate(0 -3162.6) translate(5836.7)"/><use data-c="1D439" xlink:href="#a" transform="scale(1 -1) translate(0 -3162.6) translate(6836.9)"/><use data-c="28" xlink:href="#b" transform="scale(1 -1) translate(0 -3162.6) translate(7585.9)"/><use data-c="1D465" xlink:href="#c" transform="scale(1 -1) translate(0 -3162.6) translate(7974.9)"/><use data-c="2B" xlink:href="#d" transform="scale(1 -1) translate(0 -3162.6) translate(8769.1)"/><use data-c="28" xlink:href="#b" transform="scale(1 -1) translate(0 -3162.6) translate(9769.3)"/><use data-c="1D441" xlink:href="#r" transform="scale(1 -1) translate(0 -3162.6) translate(10158.3)"/><use data-c="2212" xlink:href="#g" transform="scale(1 -1) translate(0 -3162.6) translate(11268.6)"/><use data-c="31" xlink:href="#k" transform="scale(1 -1) translate(0 -3162.6) translate(12268.8)"/><use data-c="29" xlink:href="#f" transform="scale(1 -1) translate(0 -3162.6) translate(12768.8)"/><use data-c="394" xlink:href="#e" transform="scale(1 -1) translate(0 -3162.6) translate(13157.8)"/><use data-c="1D465" xlink:href="#c" transform="scale(1 -1) translate(0 -3162.6) translate(13990.8)"/><use data-c="29" xlink:href="#f" transform="scale(1 -1) translate(0 -3162.6) translate(14562.8)"/></g><g><use data-c="3D" xlink:href="#h" transform="scale(1 -1) translate(0 -3162.6) translate(14951.8) translate(277.8)"/><g><use data-c="1D453" xlink:href="#i" transform="scale(1 -1) translate(0 -3162.6) translate(14951.8) translate(1333.6)"/><g data-mjx-texclass="ORD"><g><use data-c="1D434" xlink:href="#j" transform="scale(1 -1) translate(0 -3162.6) translate(14951.8) translate(1333.6) translate(523 -152.7)scale(.707)"/><use data-c="31" xlink:href="#k" transform="scale(1 -1) translate(0 -3162.6) translate(14951.8) translate(1333.6) translate(523 -152.7)scale(.707) translate(783 -150)scale(.707)"/></g></g></g><use data-c="28" xlink:href="#b" transform="scale(1 -1) translate(0 -3162.6) translate(14951.8) translate(2745.6)"/><use data-c="1D441" xlink:href="#r" transform="scale(1 -1) translate(0 -3162.6) translate(14951.8) translate(3134.6)"/><use data-c="394" xlink:href="#e" transform="scale(1 -1) translate(0 -3162.6) translate(14951.8) translate(4022.6)"/><use data-c="1D465" xlink:href="#c" transform="scale(1 -1) translate(0 -3162.6) translate(14951.8) translate(4855.6)"/><use data-c="29" xlink:href="#f" transform="scale(1 -1) translate(0 -3162.6) translate(14951.8) translate(5427.6)"/><use data-c="2B" xlink:href="#d" transform="scale(1 -1) translate(0 -3162.6) translate(14951.8) translate(6038.8)"/><g><use data-c="1D453" xlink:href="#i" transform="scale(1 -1) translate(0 -3162.6) translate(14951.8) translate(7039)"/><g data-mjx-texclass="ORD"><g><use data-c="1D434" xlink:href="#j" transform="scale(1 -1) translate(0 -3162.6) translate(14951.8) translate(7039) translate(523 -152.7)scale(.707)"/><use data-c="33" xlink:href="#l" transform="scale(1 -1) translate(0 -3162.6) translate(14951.8) translate(7039) translate(523 -152.7)scale(.707) translate(783 -150)scale(.707)"/></g></g></g><use data-c="28" xlink:href="#b" transform="scale(1 -1) translate(0 -3162.6) translate(14951.8) translate(8451)"/><use data-c="1D441" xlink:href="#r" transform="scale(1 -1) translate(0 -3162.6) translate(14951.8) translate(8840)"/><use data-c="394" xlink:href="#e" transform="scale(1 -1) translate(0 -3162.6) translate(14951.8) translate(9728)"/><use data-c="1D465" xlink:href="#c" transform="scale(1 -1) translate(0 -3162.6) translate(14951.8) translate(10561)"/><g><use data-c="29" xlink:href="#f" transform="scale(1 -1) translate(0 -3162.6) translate(14951.8) translate(11133)"/><use data-c="32" xlink:href="#m" transform="scale(1 -1) translate(0 -3162.6) translate(14951.8) translate(11133) translate(422 413)scale(.707)"/></g><use data-c="2B" xlink:href="#d" transform="scale(1 -1) translate(0 -3162.6) translate(14951.8) translate(12180.8)"/><g><use data-c="1D453" xlink:href="#i" transform="scale(1 -1) translate(0 -3162.6) translate(14951.8) translate(13181)"/><g data-mjx-texclass="ORD"><g><use data-c="1D434" xlink:href="#j" transform="scale(1 -1) translate(0 -3162.6) translate(14951.8) translate(13181) translate(523 -152.7)scale(.707)"/><use data-c="34" xlink:href="#n" transform="scale(1 -1) translate(0 -3162.6) translate(14951.8) translate(13181) translate(523 -152.7)scale(.707) translate(783 -150)scale(.707)"/></g></g></g><use data-c="28" xlink:href="#b" transform="scale(1 -1) translate(0 -3162.6) translate(14951.8) translate(14593.1)"/><use data-c="1D441" xlink:href="#r" transform="scale(1 -1) translate(0 -3162.6) translate(14951.8) translate(14982.1)"/><use data-c="394" xlink:href="#e" transform="scale(1 -1) translate(0 -3162.6) translate(14951.8) translate(15870.1)"/><use data-c="1D465" xlink:href="#c" transform="scale(1 -1) translate(0 -3162.6) translate(14951.8) translate(16703.1)"/><g><use data-c="29" xlink:href="#f" transform="scale(1 -1) translate(0 -3162.6) translate(14951.8) translate(17275.1)"/><use data-c="33" xlink:href="#l" transform="scale(1 -1) translate(0 -3162.6) translate(14951.8) translate(17275.1) translate(422 413)scale(.707)"/></g><use data-c="2B" xlink:href="#d" transform="scale(1 -1) translate(0 -3162.6) translate(14951.8) translate(18322.8)"/><use data-c="2026" xlink:href="#o" transform="scale(1 -1) translate(0 -3162.6) translate(14951.8) translate(19323.1)"/><use data-c="2E" xlink:href="#s" transform="scale(1 -1) translate(0 -3162.6) translate(14951.8) translate(20661.7)"/></g></g></g></g></svg>