<svg style="vertical-align:-2.148ex" xmlns="http://www.w3.org/2000/svg" width="55.979ex" height="5.428ex" viewBox="0 -1449.5 24742.9 2399" xmlns:xlink="http://www.w3.org/1999/xlink"><defs><path id="a" d="M42 46h14q39 0 47 14v64q0 19 1 43t0 50 0 55 0 57v213q0 26-1 44t0 17q-3 19-14 25t-45 9H26v23q0 23 2 23l10 1q10 1 29 2t37 2q17 1 37 2t30 3 11 1h3V379q0-317 1-319 4-8 12-11 21-3 49-3h16V0h-8l-23 1q-23 1-49 1t-38 1-38 0-50-2L34 0h-8v46z"/><path id="b" d="M28 214q0 95 65 164t157 70q90 0 155-68t66-165q0-95-64-160T250-10q-97 0-159 67T28 214M250 30q122 0 122 163v57q0 22-1 38t-7 38-16 36-31 28-49 20q-5 1-16 1-30 0-57-12-43-22-56-61t-13-92v-20q0-96 19-135 32-61 105-61"/><path id="c" d="M329 409q44 44 100 44 30 0 43-19t13-38q0-14-9-25t-27-11q-33 0-37 30-2 14 3 21 0 1 1 3v1q-28-3-53-22-8-5-8-7 0-1 4-5t9-12 11-18 9-26 4-33q0-62-49-105t-121-44q-50 0-99 28-11-18-11-38 0-35 26-52 9-6 17-6t72-2q84-1 108-6 61-9 96-41 39-39 39-98 0-67-78-103-60-31-142-31-83 0-143 31-78 35-78 100 0 36 21 60t42 33l11 6q-36 31-36 84 0 47 29 85-44 44-44 99 0 63 50 106t121 44q51 0 95-26zm-30-66q-5 28-26 44t-52 17q-29 0-50-16t-26-45q-3-17-3-51 0-44 7-65t30-35q17-10 43-10 22 0 38 7t23 18 11 20 5 15q3 16 3 50t-3 51M403-75q0 25-14 41t-41 23-49 9-54 2h-27q-67 0-80-6-20-9-31-28T95-74q0-10 6-23t21-30 48-28 80-12q69 0 111 28t42 64"/><path id="d" d="M94 250q0 69 10 131t23 107 37 88 38 67 42 52 33 34 25 21h17q14 0 14-9 0-3-17-21t-41-53-49-86-42-138-17-193 17-192 41-139 49-86 42-53 17-21q0-9-15-9h-16l-28 24q-94 85-137 212T94 250"/><path id="e" d="M52 289q7 42 54 97t116 56q35 0 64-18t43-45q42 63 101 63 37 0 64-22t28-59q0-29-14-47t-27-22-23-4q-19 0-31 11t-12 29q0 46 50 63-11 13-40 13-13 0-19-2-38-16-56-66-60-221-60-258 0-28 16-40t35-12q37 0 73 33t49 81q3 10 6 11t16 2h4q15 0 15-8 0-1-2-11-16-57-62-101T333-11q-70 0-106 63-41-62-94-62h-6q-49 0-70 26T35 71q0 32 19 52t45 20q43 0 43-42 0-20-12-35t-23-20-13-5l-3-1q0-1 6-4t16-7 19-3q36 0 62 45 9 16 23 68t28 108 16 66q5 27 5 39 0 28-15 40t-34 12q-40 0-75-32t-49-82q-2-9-5-10t-16-2H58q-6 6-6 11"/><path id="f" d="M56 237v13l14 20h299v150l1 150q10 13 19 13 13 0 20-15V270h298q15-8 15-20t-15-20H409V-68q-8-14-18-14h-4q-12 0-18 14v298H70q-14 7-14 20Z"/><path id="g" d="M137 683q1 0 72 5t73 6q12 0 12-9 0-11-36-151-38-148-38-151 0-2 7 5 61 54 130 54 54 0 87-27t34-79q0-51-38-158T402 50q1-14 5-19t15-5q28 0 52 30t39 82q3 11 6 13t16 2q20 0 20-8 0-1-4-15-16-59-51-97-34-43-81-43h-5q-47 0-68 27t-21 57q0 16 36 118t37 153q0 59-44 59h-5q-83 0-144-98l-7-13-34-135Q132 28 127 16q-13-27-44-27-14 0-24 9T48 16q0 14 73 304l74 296q0 13-7 16t-39 5h-21q-6 6-6 8t2 19q5 19 13 19"/><path id="h" d="m60 749 4 1h22l28-24q94-85 137-212t43-264q0-68-10-131T261 12t-37-88-38-67-41-51-32-33-23-19l-4-4H63q-3 0-5 3t-3 9q1 1 11 13Q221-64 221 250T66 725q-10 12-11 13 0 8 5 11"/><path id="i" d="M56 347q0 13 14 20h637q15-8 15-20 0-11-14-19l-318-1H72q-16 5-16 20m0-194q0 15 16 20h636q14-10 14-20 0-13-15-20H70q-14 7-14 20"/><path id="j" d="M701-940q0-3-6-9h-31q-2 2-28 27t-45 43-54 61-62 81-63 101-62 125-55 149-45 176-29 203-12 234q0 711 364 1110 23 25 43 44t33 32 15 13h31q6-6 6-9 0-5-20-26t-52-59-72-95-81-143-76-191-60-252-32-316q-2-38-2-109 0-389 94-680t290-494q11-12 11-16"/><path id="k" d="m213 578-13-5q-14-5-40-10t-58-7H83v46h19q47 2 87 15t56 24 28 22q2 3 12 3 9 0 17-6V361l1-300q7-7 12-9t24-4 62-2h26V0h-11q-21 3-159 3-136 0-157-3H88v46h64q16 0 25 1t16 3 8 2 6 5 6 4z"/><path id="l" d="M34 1438q0 8 3 10t13 2h21q2-2 28-27t45-43 54-61 62-81 63-101 62-124 55-149 45-176 29-203 12-234q0-117-7-198-47-572-357-913-23-25-43-44t-33-32-15-13H56q-13 0-17 2t-5 10q54 54 106 124Q428-430 428 251q0 202-26 377t-64 294-93 224-100 163-99 116l-4 4q-2 2-3 4t-3 3z"/><path id="m" d="M78 60q0 24 17 42t43 18q24 0 42-16t19-43q0-25-17-43T139 0 96 17 78 60"/></defs><g stroke="currentColor" fill="currentColor" stroke-width="0"><g transform="scale(1 -1)"><use data-c="6C" xlink:href="#a"/><use data-c="6F" xlink:href="#b" transform="translate(278)"/><use data-c="67" xlink:href="#c" transform="translate(778)"/></g><use data-c="28" xlink:href="#d" transform="scale(1 -1) translate(1278)"/><use data-c="1D465" xlink:href="#e" transform="scale(1 -1) translate(1667)"/><use data-c="2B" xlink:href="#f" transform="scale(1 -1) translate(2461.2)"/><use data-c="210E" xlink:href="#g" transform="scale(1 -1) translate(3461.4)"/><use data-c="29" xlink:href="#h" transform="scale(1 -1) translate(4037.4)"/><use data-c="3D" xlink:href="#i" transform="scale(1 -1) translate(4704.2)"/><g transform="scale(1 -1) translate(5760)"><use data-c="6C" xlink:href="#a"/><use data-c="6F" xlink:href="#b" transform="translate(278)"/><use data-c="67" xlink:href="#c" transform="translate(778)"/></g><g><use data-c="28" xlink:href="#j" transform="scale(1 -1) translate(7204.7) translate(0 -.5)"/><use data-c="1D465" xlink:href="#e" transform="scale(1 -1) translate(7204.7) translate(736)"/><g><use data-c="28" xlink:href="#j" transform="scale(1 -1) translate(7204.7) translate(1474.7) translate(0 -.5)"/><use data-c="31" xlink:href="#k" transform="scale(1 -1) translate(7204.7) translate(1474.7) translate(736)"/><use data-c="2B" xlink:href="#f" transform="scale(1 -1) translate(7204.7) translate(1474.7) translate(1458.2)"/><g transform="scale(1 -1) translate(7204.7) translate(1474.7) translate(2458.4)"><use data-c="210E" xlink:href="#g" transform="translate(220 676)"/><use data-c="1D465" xlink:href="#e" transform="translate(222 -686)"/><path stroke="none" d="M120 220H896V280H120z"/></g><use data-c="29" xlink:href="#l" transform="scale(1 -1) translate(7204.7) translate(1474.7) translate(3474.4 -.5)"/></g><use data-c="29" xlink:href="#l" transform="scale(1 -1) translate(7204.7) translate(5685.1 -.5)"/></g><use data-c="3D" xlink:href="#i" transform="scale(1 -1) translate(13903.6)"/><g transform="scale(1 -1) translate(14959.3)"><use data-c="6C" xlink:href="#a"/><use data-c="6F" xlink:href="#b" transform="translate(278)"/><use data-c="67" xlink:href="#c" transform="translate(778)"/></g><use data-c="28" xlink:href="#d" transform="scale(1 -1) translate(16237.3)"/><use data-c="1D465" xlink:href="#e" transform="scale(1 -1) translate(16626.3)"/><use data-c="29" xlink:href="#h" transform="scale(1 -1) translate(17198.3)"/><use data-c="2B" xlink:href="#f" transform="scale(1 -1) translate(17809.6)"/><g transform="scale(1 -1) translate(18809.8)"><use data-c="6C" xlink:href="#a"/><use data-c="6F" xlink:href="#b" transform="translate(278)"/><use data-c="67" xlink:href="#c" transform="translate(778)"/></g><g><use data-c="28" xlink:href="#j" transform="scale(1 -1) translate(20254.4) translate(0 -.5)"/><use data-c="31" xlink:href="#k" transform="scale(1 -1) translate(20254.4) translate(736)"/><use data-c="2B" xlink:href="#f" transform="scale(1 -1) translate(20254.4) translate(1458.2)"/><g transform="scale(1 -1) translate(20254.4) translate(2458.4)"><use data-c="210E" xlink:href="#g" transform="translate(220 676)"/><use data-c="1D465" xlink:href="#e" transform="translate(222 -686)"/><path stroke="none" d="M120 220H896V280H120z"/></g><use data-c="29" xlink:href="#l" transform="scale(1 -1) translate(20254.4) translate(3474.4 -.5)"/></g><use data-c="2E" xlink:href="#m" transform="scale(1 -1) translate(24464.9)"/></g></svg>