<svg style="vertical-align:-2.819ex" xmlns="http://www.w3.org/2000/svg" width="40.648ex" height="7.045ex" viewBox="0 -1868.1 17966.4 3114" xmlns:xlink="http://www.w3.org/1999/xlink"><defs><path id="a" d="M60 948q3 2 605 2h602l58-135q59-138 63-146h-40l-7 14q-21 41-56 78-50 48-111 77t-141 43-151 17-183 4H251l8-11q463-633 465-639 1-2 0-6-3-3-264-302L196-356q0-1 211-1h141q89 0 128-1 136 0 220 5t167 21 141 49 103 87q21 26 41 72h40q0-1-7-21t-25-65-31-84l-58-155-601-1q-602 0-605 2-6 2-6 9 0 2 2 6l533 610q0 1-33 45T452 366 322 544L56 909l-1 15q0 21 5 24"/><path id="b" d="M184 600q0 24 19 42t44 19q18 0 30-12t13-30q0-23-20-42t-44-20q-15 0-28 10t-14 33M21 287q0 8 9 31t24 51 44 51 60 22q39 0 65-23t27-62q0-17-14-56t-40-105-42-113q-5-22-5-32 0-25 17-25 9 0 19 3t23 14 27 35 25 59q3 12 5 14t17 2q20 0 20-10 0-8-9-31t-25-51-45-50-62-22q-32 0-59 21T74 74q0 17 5 32t43 114q38 101 44 121t7 39q0 24-17 24h-2q-30 0-55-33t-38-84q-1-1-2-3t-1-3-2-2-3-1-4 0-8 0H27q-6 6-6 9"/><path id="c" d="M56 347q0 13 14 20h637q15-8 15-20 0-11-14-19l-318-1H72q-16 5-16 20m0-194q0 15 16 20h636q14-10 14-20 0-13-15-20H70q-14 7-14 20"/><path id="d" d="M96 585q56 81 153 81 48 0 96-26t78-92q37-83 37-228 0-155-43-237-20-42-55-67t-61-31-51-7q-26 0-52 6t-61 32-55 67q-43 82-43 237 0 174 57 265m225 12q-30 32-71 32-42 0-72-32-25-26-33-72t-8-192q0-158 8-208t36-79q28-30 69-30 40 0 68 30 29 30 36 84t8 203q0 145-8 191t-33 73"/><path id="e" d="M234 637h-8q-25 0-30 1t-5 11q0 27 11 33 2 1 97 1h88q11 0 14-6 211-496 215-509l54 213q53 211 53 225 0 27-64 31-24 0-24 11 0 2 2 12 4 16 6 19t10 4q3 0 31-1t83-2q50 0 76 1t30 1q15 0 15-10 0-22-8-30-2-5-22-5-71-4-89-40L620 7q-2-7-21-7-14 0-17 2-3 3-129 303L326 604l-65-260Q196 88 196 79q5-33 72-33h10q6-5 6-8t-2-19q-4-13-10-19h-13q-31 2-108 2H63Q49 2 46 1q-15 0-15 9 0 4 3 16t5 14q2 6 23 6 68 3 88 39 4 6 71 277l68 272q-2 1-55 3"/><path id="f" d="M423 750q9 0 15-6t6-14q0-5-173-482T92-240q-7-10-17-10-7 0-13 5t-6 14q0 10 174 488t177 483q4 10 16 10"/><path id="g" d="M51 0q-5 4-5 7 0 2 169 350t173 352q3 7 28 7 23 0 28-7 3-4 172-352T786 7q0-3-5-7zm456 344L384 596 137 92l246-1h247q0 2-123 253"/><path id="h" d="M52 289q7 42 54 97t116 56q35 0 64-18t43-45q42 63 101 63 37 0 64-22t28-59q0-29-14-47t-27-22-23-4q-19 0-31 11t-12 29q0 46 50 63-11 13-40 13-13 0-19-2-38-16-56-66-60-221-60-258 0-28 16-40t35-12q37 0 73 33t49 81q3 10 6 11t16 2h4q15 0 15-8 0-1-2-11-16-57-62-101T333-11q-70 0-106 63-41-62-94-62h-6q-49 0-70 26T35 71q0 32 19 52t45 20q43 0 43-42 0-20-12-35t-23-20-13-5l-3-1q0-1 6-4t16-7 19-3q36 0 62 45 9 16 23 68t28 108 16 66q5 27 5 39 0 28-15 40t-34 12q-40 0-75-32t-49-82q-2-9-5-10t-16-2H58q-6 6-6 11"/><path id="i" d="M84 237v13l14 20h581q15-8 15-20t-15-20H98q-14 7-14 20Z"/><path id="j" d="m213 578-13-5q-14-5-40-10t-58-7H83v46h19q47 2 87 15t56 24 28 22q2 3 12 3 9 0 17-6V361l1-300q7-7 12-9t24-4 62-2h26V0h-11q-21 3-159 3-136 0-157-3H88v46h64q16 0 25 1t16 3 8 2 6 5 6 4z"/><path id="k" d="M224-649v1799h231v-51H275V-598h180v-51z"/><path id="l" d="M48 1Q31 1 31 11q0 2 3 14 4 16 8 18t23 3q27 0 60 3 14 3 19 12 2 5 71 281t70 280q0 7-4 7-8 3-53 5h-31q-6 6-6 8t2 17q4 17 10 21h539q7-4 7-11 0-5-13-112t-14-110q-2-7-20-7h-12q-7 5-7 13 0 1 3 24t3 53-7 49-19 31-37 16-51 7-72 1h-23q-82-1-87-3t-7-8q-1-1-34-131l-32-129h78q20 0 28 1t22 3 24 7 17 12q13 12 22 33t13 38 5 18q3 5 19 5h12q7-5 7-10 0-3-31-131t-34-132q-2-7-20-7h-12q-7 6-7 12 0 3 5 22t5 40q0 29-20 36t-89 7h-55l-32-127Q245 66 245 60q0-14 89-14h25q6-6 6-7t-2-20q-4-13-10-19h-17q-41 2-151 2H86Q52 2 48 1"/><path id="m" d="M94 250q0 69 10 131t23 107 37 88 38 67 42 52 33 34 25 21h17q14 0 14-9 0-3-17-21t-41-53-49-86-42-138-17-193 17-192 41-139 49-86 42-53 17-21q0-9-15-9h-16l-28 24q-94 85-137 212T94 250"/><path id="n" d="M56 237v13l14 20h299v150l1 150q10 13 19 13 13 0 20-15V270h298q15-8 15-20t-15-20H409V-68q-8-14-18-14h-4q-12 0-18 14v298H70q-14 7-14 20Z"/><path id="o" d="m60 749 4 1h22l28-24q94-85 137-212t43-264q0-68-10-131T261 12t-37-88-38-67-41-51-32-33-23-19l-4-4H63q-3 0-5 3t-3 9q1 1 11 13Q221-64 221 250T66 725q-10 12-11 13 0 8 5 11"/><path id="p" d="M16 1099v51h231V-649H16v51h180v1697z"/><path id="q" d="M78 60q0 24 17 42t43 18q24 0 42-16t19-43q0-25-17-43T139 0 96 17 78 60"/></defs><g stroke="currentColor" fill="currentColor" stroke-width="0"><g><use data-c="2211" xlink:href="#a" transform="scale(1 -1) translate(717.3)"/><g data-mjx-texclass="ORD"><use data-c="1D456" xlink:href="#b" transform="scale(1 -1) translate(865.5 -1087.9)scale(.707)"/><use data-c="3D" xlink:href="#c" transform="scale(1 -1) translate(865.5 -1087.9)scale(.707) translate(345)"/><use data-c="30" xlink:href="#d" transform="scale(1 -1) translate(865.5 -1087.9)scale(.707) translate(1123)"/></g><g data-mjx-texclass="ORD"><use data-c="1D441" xlink:href="#e" transform="scale(1 -1) translate(0 1237.8)scale(.707)"/><g data-mjx-texclass="ORD"><use data-c="2F" xlink:href="#f" transform="scale(1 -1) translate(0 1237.8)scale(.707) translate(888)"/></g><use data-c="394" xlink:href="#g" transform="scale(1 -1) translate(0 1237.8)scale(.707) translate(1388)"/><use data-c="1D465" xlink:href="#h" transform="scale(1 -1) translate(0 1237.8)scale(.707) translate(2221)"/><use data-c="2212" xlink:href="#i" transform="scale(1 -1) translate(0 1237.8)scale(.707) translate(2793)"/><use data-c="31" xlink:href="#j" transform="scale(1 -1) translate(0 1237.8)scale(.707) translate(3571)"/></g></g><g data-mjx-texclass="OPEN"><use data-c="5B" xlink:href="#k" transform="scale(1 -1) translate(2878.6) translate(0 -.5)"/></g><use data-c="1D439" xlink:href="#l" transform="scale(1 -1) translate(3350.6)"/><use data-c="28" xlink:href="#m" transform="scale(1 -1) translate(4099.6)"/><use data-c="1D465" xlink:href="#h" transform="scale(1 -1) translate(4488.6)"/><use data-c="2B" xlink:href="#n" transform="scale(1 -1) translate(5282.9)"/><use data-c="28" xlink:href="#m" transform="scale(1 -1) translate(6283.1)"/><use data-c="1D456" xlink:href="#b" transform="scale(1 -1) translate(6672.1)"/><use data-c="2B" xlink:href="#n" transform="scale(1 -1) translate(7239.3)"/><use data-c="31" xlink:href="#j" transform="scale(1 -1) translate(8239.5)"/><use data-c="29" xlink:href="#o" transform="scale(1 -1) translate(8739.5)"/><use data-c="394" xlink:href="#g" transform="scale(1 -1) translate(9128.5)"/><use data-c="1D465" xlink:href="#h" transform="scale(1 -1) translate(9961.5)"/><use data-c="29" xlink:href="#o" transform="scale(1 -1) translate(10533.5)"/><use data-c="2212" xlink:href="#i" transform="scale(1 -1) translate(11144.7)"/><use data-c="1D439" xlink:href="#l" transform="scale(1 -1) translate(12145)"/><use data-c="28" xlink:href="#m" transform="scale(1 -1) translate(12894)"/><use data-c="1D465" xlink:href="#h" transform="scale(1 -1) translate(13283)"/><use data-c="2B" xlink:href="#n" transform="scale(1 -1) translate(14077.2)"/><use data-c="1D456" xlink:href="#b" transform="scale(1 -1) translate(15077.4)"/><use data-c="394" xlink:href="#g" transform="scale(1 -1) translate(15422.4)"/><use data-c="1D465" xlink:href="#h" transform="scale(1 -1) translate(16255.4)"/><use data-c="29" xlink:href="#o" transform="scale(1 -1) translate(16827.4)"/><g data-mjx-texclass="CLOSE"><use data-c="5D" xlink:href="#p" transform="scale(1 -1) translate(17216.4) translate(0 -.5)"/></g><use data-c="2E" xlink:href="#q" transform="scale(1 -1) translate(17688.4)"/></g></svg>