<svg style="vertical-align:-.025ex" xmlns="http://www.w3.org/2000/svg" width="2.282ex" height="2.042ex" viewBox="0 -891.7 1008.6 902.7" xmlns:xlink="http://www.w3.org/1999/xlink"><defs><path id="a" d="M52 289q7 42 54 97t116 56q35 0 64-18t43-45q42 63 101 63 37 0 64-22t28-59q0-29-14-47t-27-22-23-4q-19 0-31 11t-12 29q0 46 50 63-11 13-40 13-13 0-19-2-38-16-56-66-60-221-60-258 0-28 16-40t35-12q37 0 73 33t49 81q3 10 6 11t16 2h4q15 0 15-8 0-1-2-11-16-57-62-101T333-11q-70 0-106 63-41-62-94-62h-6q-49 0-70 26T35 71q0 32 19 52t45 20q43 0 43-42 0-20-12-35t-23-20-13-5l-3-1q0-1 6-4t16-7 19-3q36 0 62 45 9 16 23 68t28 108 16 66q5 27 5 39 0 28-15 40t-34 12q-40 0-75-32t-49-82q-2-9-5-10t-16-2H58q-6 6-6 11"/><path id="b" d="M462 0q-18 3-129 3-116 0-134-3h-9v46h58q7 0 17 2t14 5 7 8q1 2 1 54v50H28v46l151 231q153 232 155 233 2 2 21 2h18l6-6V211h92v-46h-92V66q0-7 6-12 8-7 57-8h29V0zM293 211v334L74 212l109-1z"/></defs><g stroke="currentColor" fill="currentColor" stroke-width="0"><g><use data-c="1D465" xlink:href="#a" transform="scale(1 -1)"/><use data-c="34" xlink:href="#b" transform="scale(1 -1) translate(605 413)scale(.707)"/></g></g></svg>