<svg style="vertical-align:-.566ex" xmlns="http://www.w3.org/2000/svg" width="6.324ex" height="2.262ex" viewBox="0 -750 2795 1000" xmlns:xlink="http://www.w3.org/1999/xlink"><defs><path id="a" d="M27 422q53 4 82 56t32 122v15h40V431h135v-46H181V241q1-125 1-141t7-32q14-39 49-39 44 0 54 71 1 8 1 46v35h40v-47q0-77-42-117-27-27-70-27-34 0-59 12t-38 31-19 35-7 32q-1 7-1 148v137H18v37z"/><path id="b" d="M137 305h-22l-37 15-15 39q0 35 34 62t121 27q73 0 118-32t60-76q5-14 5-31t1-115v-70q0-48 5-66t21-18q15 0 20 16t5 53v36h40v-39q-1-40-3-47-9-30-35-47T400-6t-47 18-24 42v4l-2-3q-2-3-5-6t-8-9-12-11-15-12-18-11-22-8-26-6-31-3q-60 0-108 31t-48 87q0 21 7 40t27 41 48 37 78 28 110 15h14v22q0 34-6 50-22 71-97 71-18 0-34-1t-25-4-8-3q22-15 22-44 0-25-16-39Zm-11-199q0-31 24-55t59-25q38 0 67 23t39 60q2 7 3 66 0 58-1 58-8 0-21-1t-45-9-58-20-46-37-21-60"/><path id="c" d="M41 46h14q39 0 47 14v62q0 17 1 39t0 42v66q0 35-1 59v23q-3 19-14 25t-45 9H25v23q0 23 2 23l10 1q10 1 28 2t37 2q17 1 36 2t29 3 11 1h3v-40q0-38 1-38t5 5 12 15 19 18 29 19 38 16 51 5q114-4 127-113 1-7 1-139v-86q0-38 2-45t11-10q21-3 49-3h16V0h-8l-24 1q-23 1-50 1t-38 1Q319 3 310 0h-8v46h16q61 0 61 16 1 2 1 138-1 135-2 143-6 28-20 42t-24 17-26 2q-45 0-79-34-27-27-34-55t-8-83V108q0-30 1-40t3-13 9-6q21-3 49-3h16V0h-8l-23 1q-24 1-51 1t-38 1Q42 3 33 0h-8v46z"/><path id="d" d="M94 250q0 69 10 131t23 107 37 88 38 67 42 52 33 34 25 21h17q14 0 14-9 0-3-17-21t-41-53-49-86-42-138-17-193 17-192 41-139 49-86 42-53 17-21q0-9-15-9h-16l-28 24q-94 85-137 212T94 250"/><path id="e" d="M52 289q7 42 54 97t116 56q35 0 64-18t43-45q42 63 101 63 37 0 64-22t28-59q0-29-14-47t-27-22-23-4q-19 0-31 11t-12 29q0 46 50 63-11 13-40 13-13 0-19-2-38-16-56-66-60-221-60-258 0-28 16-40t35-12q37 0 73 33t49 81q3 10 6 11t16 2h4q15 0 15-8 0-1-2-11-16-57-62-101T333-11q-70 0-106 63-41-62-94-62h-6q-49 0-70 26T35 71q0 32 19 52t45 20q43 0 43-42 0-20-12-35t-23-20-13-5l-3-1q0-1 6-4t16-7 19-3q36 0 62 45 9 16 23 68t28 108 16 66q5 27 5 39 0 28-15 40t-34 12q-40 0-75-32t-49-82q-2-9-5-10t-16-2H58q-6 6-6 11"/><path id="f" d="m60 749 4 1h22l28-24q94-85 137-212t43-264q0-68-10-131T261 12t-37-88-38-67-41-51-32-33-23-19l-4-4H63q-3 0-5 3t-3 9q1 1 11 13Q221-64 221 250T66 725q-10 12-11 13 0 8 5 11"/></defs><g stroke="currentColor" fill="currentColor" stroke-width="0"><g transform="scale(1 -1)"><use data-c="74" xlink:href="#a"/><use data-c="61" xlink:href="#b" transform="translate(389)"/><use data-c="6E" xlink:href="#c" transform="translate(889)"/></g><use data-c="28" xlink:href="#d" transform="scale(1 -1) translate(1445)"/><use data-c="1D465" xlink:href="#e" transform="scale(1 -1) translate(1834)"/><use data-c="29" xlink:href="#f" transform="scale(1 -1) translate(2406)"/></g></svg>