<svg style="vertical-align:-2.819ex" xmlns="http://www.w3.org/2000/svg" width="22.278ex" height="6.74ex" viewBox="0 -1733 9846.9 2978.9" xmlns:xlink="http://www.w3.org/1999/xlink"><defs><path id="a" d="M60 948q3 2 605 2h602l58-135q59-138 63-146h-40l-7 14q-21 41-56 78-50 48-111 77t-141 43-151 17-183 4H251l8-11q463-633 465-639 1-2 0-6-3-3-264-302L196-356q0-1 211-1h141q89 0 128-1 136 0 220 5t167 21 141 49 103 87q21 26 41 72h40q0-1-7-21t-25-65-31-84l-58-155-601-1q-602 0-605 2-6 2-6 9 0 2 2 6l533 610q0 1-33 45T452 366 322 544L56 909l-1 15q0 21 5 24"/><path id="b" d="M184 600q0 24 19 42t44 19q18 0 30-12t13-30q0-23-20-42t-44-20q-15 0-28 10t-14 33M21 287q0 8 9 31t24 51 44 51 60 22q39 0 65-23t27-62q0-17-14-56t-40-105-42-113q-5-22-5-32 0-25 17-25 9 0 19 3t23 14 27 35 25 59q3 12 5 14t17 2q20 0 20-10 0-8-9-31t-25-51-45-50-62-22q-32 0-59 21T74 74q0 17 5 32t43 114q38 101 44 121t7 39q0 24-17 24h-2q-30 0-55-33t-38-84q-1-1-2-3t-1-3-2-2-3-1-4 0-8 0H27q-6 6-6 9"/><path id="c" d="M56 347q0 13 14 20h637q15-8 15-20 0-11-14-19l-318-1H72q-16 5-16 20m0-194q0 15 16 20h636q14-10 14-20 0-13-15-20H70q-14 7-14 20"/><path id="d" d="M96 585q56 81 153 81 48 0 96-26t78-92q37-83 37-228 0-155-43-237-20-42-55-67t-61-31-51-7q-26 0-52 6t-61 32-55 67q-43 82-43 237 0 174 57 265m225 12q-30 32-71 32-42 0-72-32-25-26-33-72t-8-192q0-158 8-208t36-79q28-30 69-30 40 0 68 30 29 30 36 84t8 203q0 145-8 191t-33 73"/><path id="e" d="M289 629q0 6-57 8-24 0-31 1t-7 10q0 1 2 11 1 3 2 7t1 5 2 5 2 3 4 2 5 2 8 0 12 1h30q24 0 45-1h91q12 0 16-5 1-4 37-282l36-279 23 37q24 36 64 100t88 140q175 279 177 281l3 3q2 2 4 3l6 2h136q23 0 29 1 34 0 34-11 0-5-3-17t-3-13q-4-6-37-6-40-1-51-3t-18-11q-3-5-72-283T797 59q0-4 1-5t7-4 17-2 33-2h31q6-9 6-11 0-16-7-30-5-5-16-5-5 0-41 1t-92 1h-92q-31 0-35-1-17 0-17 10 0 2 2 14 4 16 8 18t23 3q27 0 60 3 14 3 19 12 2 4 38 146t71 283 35 141L654 322Q458 10 453 5l-4-2q-5-3-16-3-15 0-18 7-2 4-41 310l-39 307-68-270Q200 88 200 79q6-33 72-33h10q6-5 7-9t-3-18q-4-16-8-18-4-1-11-1h-12q-10 0-34 1t-64 1q-30 0-62-1T58 0Q43 0 39 2t-4 9q0 2 3 14t5 15q2 6 22 6 70 0 89 40 4 6 69 268t66 275"/><path id="f" d="M84 237v13l14 20h581q15-8 15-20t-15-20H98q-14 7-14 20Z"/><path id="g" d="m213 578-13-5q-14-5-40-10t-58-7H83v46h19q47 2 87 15t56 24 28 22q2 3 12 3 9 0 17-6V361l1-300q7-7 12-9t24-4 62-2h26V0h-11q-21 3-159 3-136 0-157-3H88v46h64q16 0 25 1t16 3 8 2 6 5 6 4z"/><path id="h" d="M224-649v1799h231v-51H275V-598h180v-51z"/><path id="i" d="M48 1Q31 1 31 11q0 2 3 14 4 16 8 18t23 3q27 0 60 3 14 3 19 12 2 5 71 281t70 280q0 7-4 7-8 3-53 5h-31q-6 6-6 8t2 17q4 17 10 21h539q7-4 7-11 0-5-13-112t-14-110q-2-7-20-7h-12q-7 5-7 13 0 1 3 24t3 53-7 49-19 31-37 16-51 7-72 1h-23q-82-1-87-3t-7-8q-1-1-34-131l-32-129h78q20 0 28 1t22 3 24 7 17 12q13 12 22 33t13 38 5 18q3 5 19 5h12q7-5 7-10 0-3-31-131t-34-132q-2-7-20-7h-12q-7 6-7 12 0 3 5 22t5 40q0 29-20 36t-89 7h-55l-32-127Q245 66 245 60q0-14 89-14h25q6-6 6-7t-2-20q-4-13-10-19h-17q-41 2-151 2H86Q52 2 48 1"/><path id="j" d="M94 250q0 69 10 131t23 107 37 88 38 67 42 52 33 34 25 21h17q14 0 14-9 0-3-17-21t-41-53-49-86-42-138-17-193 17-192 41-139 49-86 42-53 17-21q0-9-15-9h-16l-28 24q-94 85-137 212T94 250"/><path id="k" d="M52 289q7 42 54 97t116 56q35 0 64-18t43-45q42 63 101 63 37 0 64-22t28-59q0-29-14-47t-27-22-23-4q-19 0-31 11t-12 29q0 46 50 63-11 13-40 13-13 0-19-2-38-16-56-66-60-221-60-258 0-28 16-40t35-12q37 0 73 33t49 81q3 10 6 11t16 2h4q15 0 15-8 0-1-2-11-16-57-62-101T333-11q-70 0-106 63-41-62-94-62h-6q-49 0-70 26T35 71q0 32 19 52t45 20q43 0 43-42 0-20-12-35t-23-20-13-5l-3-1q0-1 6-4t16-7 19-3q36 0 62 45 9 16 23 68t28 108 16 66q5 27 5 39 0 28-15 40t-34 12q-40 0-75-32t-49-82q-2-9-5-10t-16-2H58q-6 6-6 11"/><path id="l" d="M56 237v13l14 20h299v150l1 150q10 13 19 13 13 0 20-15V270h298q15-8 15-20t-15-20H409V-68q-8-14-18-14h-4q-12 0-18 14v298H70q-14 7-14 20Z"/><path id="m" d="m60 749 4 1h22l28-24q94-85 137-212t43-264q0-68-10-131T261 12t-37-88-38-67-41-51-32-33-23-19l-4-4H63q-3 0-5 3t-3 9q1 1 11 13Q221-64 221 250T66 725q-10 12-11 13 0 8 5 11"/><path id="n" d="M16 1099v51h231V-649H16v51h180v1697z"/><path id="o" d="M78 60q0 24 17 42t43 18q24 0 42-16t19-43q0-25-17-43T139 0 96 17 78 60"/></defs><g stroke="currentColor" fill="currentColor" stroke-width="0"><g><use data-c="2211" xlink:href="#a" transform="scale(1 -1) translate(101.4)"/><g data-mjx-texclass="ORD"><use data-c="1D456" xlink:href="#b" transform="scale(1 -1) translate(249.6 -1087.9)scale(.707)"/><use data-c="3D" xlink:href="#c" transform="scale(1 -1) translate(249.6 -1087.9)scale(.707) translate(345)"/><use data-c="30" xlink:href="#d" transform="scale(1 -1) translate(249.6 -1087.9)scale(.707) translate(1123)"/></g><g data-mjx-texclass="ORD"><use data-c="1D440" xlink:href="#e" transform="scale(1 -1) translate(0 1150)scale(.707)"/><use data-c="2212" xlink:href="#f" transform="scale(1 -1) translate(0 1150)scale(.707) translate(1051)"/><use data-c="31" xlink:href="#g" transform="scale(1 -1) translate(0 1150)scale(.707) translate(1829)"/></g></g><g data-mjx-texclass="OPEN"><use data-c="5B" xlink:href="#h" transform="scale(1 -1) translate(1646.9) translate(0 -.5)"/></g><use data-c="1D439" xlink:href="#i" transform="scale(1 -1) translate(2118.9)"/><use data-c="28" xlink:href="#j" transform="scale(1 -1) translate(2867.9)"/><g><use data-c="1D465" xlink:href="#k" transform="scale(1 -1) translate(3256.9)"/><g data-mjx-texclass="ORD"><use data-c="1D456" xlink:href="#b" transform="scale(1 -1) translate(3256.9) translate(605 -150)scale(.707)"/><use data-c="2B" xlink:href="#l" transform="scale(1 -1) translate(3256.9) translate(605 -150)scale(.707) translate(345)"/><use data-c="31" xlink:href="#g" transform="scale(1 -1) translate(3256.9) translate(605 -150)scale(.707) translate(1123)"/></g></g><use data-c="29" xlink:href="#m" transform="scale(1 -1) translate(5059.5)"/><use data-c="2212" xlink:href="#f" transform="scale(1 -1) translate(5670.7)"/><use data-c="1D439" xlink:href="#i" transform="scale(1 -1) translate(6670.9)"/><use data-c="28" xlink:href="#j" transform="scale(1 -1) translate(7419.9)"/><g><use data-c="1D465" xlink:href="#k" transform="scale(1 -1) translate(7808.9)"/><use data-c="1D456" xlink:href="#b" transform="scale(1 -1) translate(7808.9) translate(605 -150)scale(.707)"/></g><use data-c="29" xlink:href="#m" transform="scale(1 -1) translate(8707.9)"/><g data-mjx-texclass="CLOSE"><use data-c="5D" xlink:href="#n" transform="scale(1 -1) translate(9096.9) translate(0 -.5)"/></g><use data-c="2E" xlink:href="#o" transform="scale(1 -1) translate(9568.9)"/></g></svg>