<svg style="vertical-align:-.025ex" xmlns="http://www.w3.org/2000/svg" width="1.02ex" height="1.025ex" viewBox="0 -442 451 453" xmlns:xlink="http://www.w3.org/1999/xlink"><defs><path id="a" d="M21 287q1 3 2 8t5 22 10 31 15 33 20 30 26 22 33 9q29 0 51-12t31-22 11-20q2-6 3-6t8 7q48 52 111 52h3q48 0 72-41 8-19 8-37 0-30-13-48t-26-23-25-4q-20 0-32 11t-12 29q0 48 56 64-22 13-36 13-56 0-103-74-10-16-15-33t-34-133Q156 25 151 16q-13-27-43-27-13 0-21 6T76 7t-2 10q0 13 40 172t40 177q0 39-26 39-21 0-36-28t-24-61-11-36q-2-2-16-2H27q-6 6-6 9"/></defs><g stroke="currentColor" fill="currentColor" stroke-width="0"><use data-c="1D45F" xlink:href="#a" transform="scale(1 -1)"/></g></svg>