<svg style="vertical-align:-1.738ex" xmlns="http://www.w3.org/2000/svg" width="42.288ex" height="5.171ex" viewBox="0 -1517.7 18691.1 2285.7" xmlns:xlink="http://www.w3.org/1999/xlink"><defs><path id="a" d="m213 578-13-5q-14-5-40-10t-58-7H83v46h19q47 2 87 15t56 24 28 22q2 3 12 3 9 0 17-6V361l1-300q7-7 12-9t24-4 62-2h26V0h-11q-21 3-159 3-136 0-157-3H88v46h64q16 0 25 1t16 3 8 2 6 5 6 4z"/><path id="b" d="M52 289q7 42 54 97t116 56q35 0 64-18t43-45q42 63 101 63 37 0 64-22t28-59q0-29-14-47t-27-22-23-4q-19 0-31 11t-12 29q0 46 50 63-11 13-40 13-13 0-19-2-38-16-56-66-60-221-60-258 0-28 16-40t35-12q37 0 73 33t49 81q3 10 6 11t16 2h4q15 0 15-8 0-1-2-11-16-57-62-101T333-11q-70 0-106 63-41-62-94-62h-6q-49 0-70 26T35 71q0 32 19 52t45 20q43 0 43-42 0-20-12-35t-23-20-13-5l-3-1q0-1 6-4t16-7 19-3q36 0 62 45 9 16 23 68t28 108 16 66q5 27 5 39 0 28-15 40t-34 12q-40 0-75-32t-49-82q-2-9-5-10t-16-2H58q-6 6-6 11"/><path id="c" d="M56 237v13l14 20h299v150l1 150q10 13 19 13 13 0 20-15V270h298q15-8 15-20t-15-20H409V-68q-8-14-18-14h-4q-12 0-18 14v298H70q-14 7-14 20Z"/><path id="d" d="M137 683q1 0 72 5t73 6q12 0 12-9 0-11-36-151-38-148-38-151 0-2 7 5 61 54 130 54 54 0 87-27t34-79q0-51-38-158T402 50q1-14 5-19t15-5q28 0 52 30t39 82q3 11 6 13t16 2q20 0 20-8 0-1-4-15-16-59-51-97-34-43-81-43h-5q-47 0-68 27t-21 57q0 16 36 118t37 153q0 59-44 59h-5q-83 0-144-98l-7-13-34-135Q132 28 127 16q-13-27-44-27-14 0-24 9T48 16q0 14 73 304l74 296q0 13-7 16t-39 5h-21q-6 6-6 8t2 19q5 19 13 19"/><path id="e" d="M56 347q0 13 14 20h637q15-8 15-20 0-11-14-19l-318-1H72q-16 5-16 20m0-194q0 15 16 20h636q14-10 14-20 0-13-15-20H70q-14 7-14 20"/><path id="f" d="M84 237v13l14 20h581q15-8 15-20t-15-20H98q-14 7-14 20Z"/><path id="g" d="M109 429q-27 0-43 18t-16 44q0 71 53 123t132 52q91 0 152-56t62-145q0-43-20-82t-48-68-80-74q-36-31-100-92l-59-56 76-1q157 0 167 5 7 2 24 89v3h40v-3q-1-3-13-91T421 3V0H50v31q0 7 6 15t30 35q29 32 50 56 9 10 34 37t34 37 29 33 28 34 23 30 21 32 15 29 13 32 7 30 3 33q0 63-34 109t-97 46q-33 0-58-17t-35-33-10-19q0-1 5-1 18 0 37-14t19-46q0-25-16-42t-45-18"/><path id="h" d="M127 463q-27 0-42 17t-16 44q0 55 48 98t116 43q35 0 44-1 74-12 113-53t40-89q0-52-34-101t-94-71l-3-2q0-1 9-3t29-9 38-21q82-53 82-140 0-79-62-138T238-22q-80 0-138 43T42 130q0 28 18 45t45 18q28 0 46-18t18-45q0-11-3-20t-7-16-11-12-12-8-10-4-8-3l-4-1q51-45 124-45 55 0 83 53 17 33 17 101v20q0 95-64 127-15 6-61 7l-42 1-3 2q-2 3-2 16 0 18 8 18 28 0 58 5 34 5 62 42t28 112v8q0 57-35 79-22 14-47 14-32 0-59-11t-38-23-11-12h3q3-1 8-2t10-5 12-7 10-11 8-15 3-20q0-22-14-39t-45-18"/><path id="i" d="M462 0q-18 3-129 3-116 0-134-3h-9v46h58q7 0 17 2t14 5 7 8q1 2 1 54v50H28v46l151 231q153 232 155 233 2 2 21 2h18l6-6V211h92v-46h-92V66q0-7 6-12 8-7 57-8h29V0zM293 211v334L74 212l109-1z"/><path id="j" d="M164 157q0-24-16-40t-39-16h-7q46-79 122-79 70 0 102 60 19 33 19 128 0 103-27 139-26 33-58 33h-6q-78 0-118-68-4-7-7-8t-15-2q-17 0-19 6-2 4-2 175v129q0 50 5 50 2 2 4 2 1 0 21-8t55-16 75-8q71 0 136 28 8 4 13 4 8 0 8-18v-13q-82-97-205-97-31 0-56 6l-10 2V374q19 14 30 22t36 16 51 8q81 0 137-65t56-154q0-92-64-157T229-22q-81 0-130 54T50 154q0 24 11 38t23 18 23 4q25 0 41-17t16-40"/><path id="k" d="M78 60q0 24 17 42t43 18q24 0 42-16t19-43q0-25-17-43T139 0 96 17 78 60m447 0q0 24 17 42t43 18q24 0 42-16t19-43q0-25-17-43T586 0t-43 17-18 43m447 0q0 24 17 42t43 18q24 0 42-16t19-43q0-25-17-43t-43-18-43 17-18 43"/><path id="l" d="M78 60q0 24 17 42t43 18q24 0 42-16t19-43q0-25-17-43T139 0 96 17 78 60"/></defs><g stroke="currentColor" fill="currentColor" stroke-width="0"><g transform="scale(1 -1)"><use data-c="31" xlink:href="#a" transform="translate(1155.2 676)"/><g><use data-c="1D465" xlink:href="#b" transform="translate(220 -686)"/><use data-c="2B" xlink:href="#c" transform="translate(220 -686) translate(794.2)"/><use data-c="210E" xlink:href="#d" transform="translate(220 -686) translate(1794.4)"/></g><path stroke="none" d="M120 220H2690.4V280H120z"/></g><use data-c="3D" xlink:href="#e" transform="scale(1 -1) translate(3088.2)"/><g transform="scale(1 -1) translate(4144)"><use data-c="31" xlink:href="#a" transform="translate(256 676)"/><use data-c="1D465" xlink:href="#b" transform="translate(220 -686)"/><path stroke="none" d="M120 220H892V280H120z"/></g><use data-c="2212" xlink:href="#f" transform="scale(1 -1) translate(5378.2)"/><g transform="scale(1 -1) translate(6378.4)"><use data-c="210E" xlink:href="#d" transform="translate(436.3 676)"/><g><use data-c="1D465" xlink:href="#b" transform="translate(220 -719.9)"/><use data-c="32" xlink:href="#g" transform="translate(220 -719.9) translate(605 289)scale(.707)"/></g><path stroke="none" d="M120 220H1328.6V280H120z"/></g><use data-c="2B" xlink:href="#c" transform="scale(1 -1) translate(8049.2)"/><g transform="scale(1 -1) translate(9049.4)"><g><use data-c="210E" xlink:href="#d" transform="translate(220 676)"/><use data-c="32" xlink:href="#g" transform="translate(220 676) translate(609 363)scale(.707)"/></g><g><use data-c="1D465" xlink:href="#b" transform="translate(222 -719.2)"/><use data-c="33" xlink:href="#h" transform="translate(222 -719.2) translate(605 289)scale(.707)"/></g><path stroke="none" d="M120 220H1332.6V280H120z"/></g><use data-c="2212" xlink:href="#f" transform="scale(1 -1) translate(10724.2)"/><g transform="scale(1 -1) translate(11724.4)"><g><use data-c="210E" xlink:href="#d" transform="translate(220 676)"/><use data-c="33" xlink:href="#h" transform="translate(220 676) translate(609 363)scale(.707)"/></g><g><use data-c="1D465" xlink:href="#b" transform="translate(222 -727.7)"/><use data-c="34" xlink:href="#i" transform="translate(222 -727.7) translate(605 289)scale(.707)"/></g><path stroke="none" d="M120 220H1332.6V280H120z"/></g><use data-c="2B" xlink:href="#c" transform="scale(1 -1) translate(13399.2)"/><g transform="scale(1 -1) translate(14399.4)"><g><use data-c="210E" xlink:href="#d" transform="translate(220 676)"/><use data-c="34" xlink:href="#i" transform="translate(220 676) translate(609 363)scale(.707)"/></g><g><use data-c="1D465" xlink:href="#b" transform="translate(222 -719.9)"/><use data-c="35" xlink:href="#j" transform="translate(222 -719.9) translate(605 289)scale(.707)"/></g><path stroke="none" d="M120 220H1332.6V280H120z"/></g><use data-c="2212" xlink:href="#f" transform="scale(1 -1) translate(16074.2)"/><use data-c="2026" xlink:href="#k" transform="scale(1 -1) translate(17074.4)"/><use data-c="2E" xlink:href="#l" transform="scale(1 -1) translate(18413.1)"/></g></svg>