<svg style="vertical-align:-.566ex" xmlns="http://www.w3.org/2000/svg" width="8.754ex" height="2.262ex" viewBox="0 -750 3869.3 1000" xmlns:xlink="http://www.w3.org/1999/xlink"><defs><path id="a" d="M118-250V750h137v-40h-97v-920h97v-40z"/><path id="b" d="M52 289q7 42 54 97t116 56q35 0 64-18t43-45q42 63 101 63 37 0 64-22t28-59q0-29-14-47t-27-22-23-4q-19 0-31 11t-12 29q0 46 50 63-11 13-40 13-13 0-19-2-38-16-56-66-60-221-60-258 0-28 16-40t35-12q37 0 73 33t49 81q3 10 6 11t16 2h4q15 0 15-8 0-1-2-11-16-57-62-101T333-11q-70 0-106 63-41-62-94-62h-6q-49 0-70 26T35 71q0 32 19 52t45 20q43 0 43-42 0-20-12-35t-23-20-13-5l-3-1q0-1 6-4t16-7 19-3q36 0 62 45 9 16 23 68t28 108 16 66q5 27 5 39 0 28-15 40t-34 12q-40 0-75-32t-49-82q-2-9-5-10t-16-2H58q-6 6-6 11"/><path id="c" d="M184 600q0 24 19 42t44 19q18 0 30-12t13-30q0-23-20-42t-44-20q-15 0-28 10t-14 33M21 287q0 8 9 31t24 51 44 51 60 22q39 0 65-23t27-62q0-17-14-56t-40-105-42-113q-5-22-5-32 0-25 17-25 9 0 19 3t23 14 27 35 25 59q3 12 5 14t17 2q20 0 20-10 0-8-9-31t-25-51-45-50-62-22q-32 0-59 21T74 74q0 17 5 32t43 114q38 101 44 121t7 39q0 24-17 24h-2q-30 0-55-33t-38-84q-1-1-2-3t-1-3-2-2-3-1-4 0-8 0H27q-6 6-6 9"/><path id="d" d="M78 35v25l16 43 43 18q28 0 50-25t23-88q0-35-9-68t-21-57-26-41-24-27-13-9q-4 0-13 9t-9 13 11 16 25 30 26 50 16 73V9l-1-1q-2-1-5-2t-6-3-9-2-12-1q-27 0-44 17Z"/><path id="e" d="M56 237v13l14 20h299v150l1 150q10 13 19 13 13 0 20-15V270h298q15-8 15-20t-15-20H409V-68q-8-14-18-14h-4q-12 0-18 14v298H70q-14 7-14 20Z"/><path id="f" d="m213 578-13-5q-14-5-40-10t-58-7H83v46h19q47 2 87 15t56 24 28 22q2 3 12 3 9 0 17-6V361l1-300q7-7 12-9t24-4 62-2h26V0h-11q-21 3-159 3-136 0-157-3H88v46h64q16 0 25 1t16 3 8 2 6 5 6 4z"/><path id="g" d="M22 710v40h137V-250H22v40h97v920z"/></defs><g stroke="currentColor" fill="currentColor" stroke-width="0"><use data-c="5B" xlink:href="#a" transform="scale(1 -1)"/><g><use data-c="1D465" xlink:href="#b" transform="scale(1 -1) translate(278)"/><use data-c="1D456" xlink:href="#c" transform="scale(1 -1) translate(278) translate(605 -150)scale(.707)"/></g><use data-c="2C" xlink:href="#d" transform="scale(1 -1) translate(1177)"/><g><use data-c="1D465" xlink:href="#b" transform="scale(1 -1) translate(1788.6)"/><g data-mjx-texclass="ORD"><use data-c="1D456" xlink:href="#c" transform="scale(1 -1) translate(1788.6) translate(605 -150)scale(.707)"/><use data-c="2B" xlink:href="#e" transform="scale(1 -1) translate(1788.6) translate(605 -150)scale(.707) translate(345)"/><use data-c="31" xlink:href="#f" transform="scale(1 -1) translate(1788.6) translate(605 -150)scale(.707) translate(1123)"/></g></g><use data-c="5D" xlink:href="#g" transform="scale(1 -1) translate(3591.3)"/></g></svg>