<svg style="vertical-align:-.025ex" xmlns="http://www.w3.org/2000/svg" width="8.16ex" height="1.57ex" viewBox="0 -683 3606.6 694" xmlns:xlink="http://www.w3.org/1999/xlink"><defs><path id="a" d="M289 629q0 6-57 8-24 0-31 1t-7 10q0 1 2 11 1 3 2 7t1 5 2 5 2 3 4 2 5 2 8 0 12 1h30q24 0 45-1h91q12 0 16-5 1-4 37-282l36-279 23 37q24 36 64 100t88 140q175 279 177 281l3 3q2 2 4 3l6 2h136q23 0 29 1 34 0 34-11 0-5-3-17t-3-13q-4-6-37-6-40-1-51-3t-18-11q-3-5-72-283T797 59q0-4 1-5t7-4 17-2 33-2h31q6-9 6-11 0-16-7-30-5-5-16-5-5 0-41 1t-92 1h-92q-31 0-35-1-17 0-17 10 0 2 2 14 4 16 8 18t23 3q27 0 60 3 14 3 19 12 2 4 38 146t71 283 35 141L654 322Q458 10 453 5l-4-2q-5-3-16-3-15 0-18 7-2 4-41 310l-39 307-68-270Q200 88 200 79q6-33 72-33h10q6-5 7-9t-3-18q-4-16-8-18-4-1-11-1h-12q-10 0-34 1t-64 1q-30 0-62-1T58 0Q43 0 39 2t-4 9q0 2 3 14t5 15q2 6 22 6 70 0 89 40 4 6 69 268t66 275"/><path id="b" d="M56 237v13l14 20h765q-116 87-143 223v3q0 2-1 3 0 12 17 12h3q9 0 12-1t6-4 3-9 3-16 8-25q22-67 73-120t119-75q9-3 9-11 0-6-5-9t-24-10-38-19q-41-26-71-60t-45-67-21-50-8-31q-2-10-5-12t-16-3q-20 0-20 11 0 7 5 25 32 126 139 205H70q-14 7-14 20Z"/><path id="c" d="M55 217q0 88 56 156t143 69q88 0 165-61 38-31 74-78l14-19 7 10q104 148 233 148 86 0 141-68t56-160q0-86-55-155T743-11q-86 0-163 61-38 31-74 78l-14 19-7-10Q381-11 252-11q-86 0-141 68T55 217m852 0q0 68-38 124t-108 56q-21 0-41-5t-38-14-34-19-29-24-25-25-20-25-15-22-11-17l-5-8 31-40q31-40 48-60t42-44 50-33 51-10q62 0 102 49t40 117m-815-3q0-69 39-125t108-56q118 0 217 160l-31 40q-61 79-91 104-49 43-101 43-62 0-101-49T92 214"/></defs><g stroke="currentColor" fill="currentColor" stroke-width="0"><use data-c="1D440" xlink:href="#a" transform="scale(1 -1)"/><use data-c="2192" xlink:href="#b" transform="scale(1 -1) translate(1328.8)"/><use data-c="221E" xlink:href="#c" transform="scale(1 -1) translate(2606.6)"/></g></svg>