<svg style="vertical-align:-2.044ex" xmlns="http://www.w3.org/2000/svg" width="26.074ex" height="5.616ex" viewBox="0 -1578.8 11524.9 2482.2" xmlns:xlink="http://www.w3.org/1999/xlink"><defs><path id="a" d="M114-798q18-26 51-26h2q28 0 56 60t52 164 45 209 42 227q3 21 5 31 72 425 156 788t122 472l10 30q4 12 17 44t27 56 34 49 44 40 51 14q56 0 84-35t32-80q0-25-12-40t-23-19-22-3q-21 0-38 15t-17 41q0 48 53 57l-3 4q-3 3-8 7t-8 6q-15 10-33 10-14 0-26-12t-32-56-39-116-47-203-56-308Q574 293 510-5T410-437t-55-192q-77-233-190-233-40 0-73 31t-37 85q0 35 19 48t38 13q21 0 38-15t17-41q0-48-53-57"/><path id="b" d="M73 647q0 10 4 23t12 13q1 0 72 5t73 6q12 0 12-9t-34-143q-8-34-17-70t-15-54l-4-19q0-3 6 3 49 40 101 40 62 0 100-46t39-116q0-111-79-201T173-11q-50 0-91 38T40 150v9q0 21 8 58t49 197q50 197 50 209t-38 14H83q-3 0-7 3t-3 7m263-322v6q0 74-61 74-17 0-35-8t-33-21-26-24-18-22l-6-8-21-86q-22-86-22-122 0-48 24-72 16-16 40-16 33 0 67 32 25 23 40 56t33 105 18 106"/><path id="c" d="M33 157q0 101 76 192t171 92q51 0 90-49 16 30 46 30 13 0 23-8t10-20q0-13-37-160T374 68q0-25 7-33t21-9q9 1 20 9 21 20 41 96 6 20 10 21 2 1 10 1h4q19 0 19-9 0-6-5-27t-20-54-32-50Q436 0 417-8q-8-2-24-2-34 0-57 15t-30 31l-6 15q-1 1-4-1l-4-4q-59-56-120-56-55 0-97 40T33 157m318 171q0 6-5 22t-23 35-46 20q-35 0-67-31t-50-81q-29-79-41-164v-11q0-8-1-12 0-45 18-62t43-18q38 0 75 33t44 51q2 4 27 107t26 111"/><path id="d" d="M21 287q0 8 9 31t25 52 44 50 59 22q46 0 69-25t23-59q0-18-34-112t-34-141q0-43 14-60t42-18 53 17 37 34l11 17q2 4 38 152 30 120 36 140t14 29q17 15 36 15 17 0 25-10t8-19L420 84q-1-5-1-16 0-25 7-33t21-9q22 3 35 31t30 88q2 8 20 8 19 0 19-9-1-5-2-14t-9-32-17-43-25-38-36-25q-8-2-24-2-66 0-91 56-2-1-11-10t-18-15-22-15-29-12-34-5q-44 0-78 18-52 31-52 106 0 57 35 149t35 117v14q0 3-4 7t-11 4h-4q-23 0-42-19t-30-41-17-42-8-22-16-2H27q-6 6-6 9"/><path id="e" d="M366 683q1 0 72 5t73 6q12 0 12-8 0-7-73-302T375 83t-1-15q0-42 28-42 9 1 20 9 21 20 41 96 6 20 10 21 2 1 10 1h8q15 0 15-8 0-5-3-16-13-50-30-81T445 8 417-8q-8-2-24-2-34 0-57 15t-30 31l-6 15q-1 1-4-1l-4-4q-59-56-120-56-55 0-97 40T33 157q0 48 20 98t48 86q47 57 94 79t85 22q56 0 84-42 5-6 5-4 1 4 27 109t28 111q0 13-7 16t-39 5h-21q-6 6-6 8t2 19q5 19 13 19m-14-357q-23 79-75 79-35 0-67-31t-50-81q-29-79-41-164v-11q0-8-1-12 0-45 18-62t43-18q54 0 111 72l8 11z"/><path id="f" d="M173 380q0 25-19 25-24 0-50-29t-43-89q-1-1-2-3t-1-3-2-2-3-1-4 0-8 0H27q-6 6-6 9 0 7 8 29t24 52 44 51 63 22q42 0 65-24t24-56q0-17-3-26 0-6-15-44t-31-89-18-89q0-27 5-44 13-43 63-43 37 0 69 34t50 79 29 83 11 55q0 23-8 40t-18 26-18 18-8 22q0 22 19 41t41 19q19 0 34-18t16-58q0-27-12-83t-37-125-71-119-106-51q-64 0-102 33-37 32-37 95 0 31 8 64t41 117q22 64 22 82"/><path id="g" d="M56 237v13l14 20h299v150l1 150q10 13 19 13 13 0 20-15V270h298q15-8 15-20t-15-20H409V-68q-8-14-18-14h-4q-12 0-18 14v298H70q-14 7-14 20Z"/><path id="h" d="M56 347q0 13 14 20h637q15-8 15-20 0-11-14-19l-318-1H72q-16 5-16 20m0-194q0 15 16 20h636q14-10 14-20 0-13-15-20H70q-14 7-14 20"/><path id="i" d="M118-250V750h137v-40h-97v-920h97v-40z"/><path id="j" d="M22 710v40h137V-250H22v40h97v920z"/><path id="k" d="M78 35v25l16 43 43 18q28 0 50-25t23-88q0-35-9-68t-21-57-26-41-24-27-13-9q-4 0-13 9t-9 13 11 16 25 30 26 50 16 73V9l-1-1q-2-1-5-2t-6-3-9-2-12-1q-27 0-44 17Z"/></defs><g stroke="currentColor" fill="currentColor" stroke-width="0"><g><use data-c="222B" xlink:href="#a" transform="scale(1 -1) translate(0 1)"/><g data-mjx-texclass="ORD"><use data-c="1D44F" xlink:href="#b" transform="scale(1 -1) translate(1046.4 1088.1)scale(.707)"/></g><g data-mjx-texclass="ORD"><use data-c="1D44E" xlink:href="#c" transform="scale(1 -1) translate(589 -896.4)scale(.707)"/></g></g><use data-c="1D462" xlink:href="#d" transform="scale(1 -1) translate(1566.4)"/><use data-c="1D451" xlink:href="#e" transform="scale(1 -1) translate(2305.4)"/><use data-c="1D463" xlink:href="#f" transform="scale(1 -1) translate(2825.4)"/><use data-c="2B" xlink:href="#g" transform="scale(1 -1) translate(3532.6)"/><g><use data-c="222B" xlink:href="#a" transform="scale(1 -1) translate(4532.9) translate(0 1)"/><g data-mjx-texclass="ORD"><use data-c="1D44F" xlink:href="#b" transform="scale(1 -1) translate(4532.9) translate(1046.4 1088.1)scale(.707)"/></g><g data-mjx-texclass="ORD"><use data-c="1D44E" xlink:href="#c" transform="scale(1 -1) translate(4532.9) translate(589 -896.4)scale(.707)"/></g></g><use data-c="1D463" xlink:href="#f" transform="scale(1 -1) translate(6099.3)"/><use data-c="1D451" xlink:href="#e" transform="scale(1 -1) translate(6751.3)"/><use data-c="1D462" xlink:href="#d" transform="scale(1 -1) translate(7271.3)"/><use data-c="3D" xlink:href="#h" transform="scale(1 -1) translate(8121.1)"/><use data-c="5B" xlink:href="#i" transform="scale(1 -1) translate(9176.8)"/><use data-c="1D462" xlink:href="#d" transform="scale(1 -1) translate(9454.8)"/><use data-c="1D463" xlink:href="#f" transform="scale(1 -1) translate(10026.8)"/><g><use data-c="5D" xlink:href="#j" transform="scale(1 -1) translate(10511.8)"/><g data-mjx-texclass="ORD"><use data-c="1D44F" xlink:href="#b" transform="scale(1 -1) translate(10511.8) translate(311 413)scale(.707)"/></g><g data-mjx-texclass="ORD"><use data-c="1D44E" xlink:href="#c" transform="scale(1 -1) translate(10511.8) translate(311 -247)scale(.707)"/></g></g><use data-c="2C" xlink:href="#k" transform="scale(1 -1) translate(11246.9)"/></g></svg>