<svg style="vertical-align:-.439ex" xmlns="http://www.w3.org/2000/svg" width="21.287ex" height="2.059ex" viewBox="0 -716 9408.7 910" xmlns:xlink="http://www.w3.org/1999/xlink"><defs><path id="a" d="M208 74q0-24 46-28 18 0 18-11 0-1-2-13-3-14-6-18t-13-4h-12q-10 0-34 1t-64 1Q70 2 50 0h-8q-7 7-7 11 2 27 13 35h14q70 3 102 50 6 6 181 305t178 303q7 12 24 12h25q6-9 6-10l28-323q28-323 30-326 5-11 65-11 25 0 25-10 0-2-3-14-3-15-5-18t-14-4h-14q-11 0-39 1t-73 1q-94 0-123-2h-12q-6 6-6 9t2 18q4 13 6 16l4 3h20q54 3 64 17l-12 150H283l-34-58q-41-69-41-81m308 186q0 11-12 156t-14 146l-27-43q-16-27-63-107l-90-152 103-1q103 0 103 1"/><path id="b" d="M96 585q56 81 153 81 48 0 96-26t78-92q37-83 37-228 0-155-43-237-20-42-55-67t-61-31-51-7q-26 0-52 6t-61 32-55 67q-43 82-43 237 0 174 57 265m225 12q-30 32-71 32-42 0-72-32-25-26-33-72t-8-192q0-158 8-208t36-79q28-30 69-30 40 0 68 30 29 30 36 84t8 203q0 145-8 191t-33 73"/><path id="c" d="M231 637q-27 0-32 1t-5 11q0 27 11 33 1 1 130 1 259 0 273-2 63-10 105-45t43-92q0-64-58-115t-133-69l-10-3q64-9 105-46t42-92q0-73-72-141T453 1q-7-1-211-1Q42 0 39 2q-4 3-4 8 0 7 2 14 5 19 10 21 4 1 15 1h6q27 0 60 3 14 3 19 12 3 4 72 278t69 289q0 7-57 9m418-93q0 30-15 56t-49 34q-7 2-92 3h-42q-22 0-35-1h-13q-15-1-19-10-2-4-32-120 0-3-1-6l-31-126h81q81 0 93 2 60 10 107 58t48 110m-54-315q0 44-23 73t-60 34q-6 1-83 1-118 0-119-1 0-2-17-73t-35-141l-18-70q0-4 12-4t81-2q89 0 96 1 62 7 114 58t52 124"/><path id="d" d="m213 578-13-5q-14-5-40-10t-58-7H83v46h19q47 2 87 15t56 24 28 22q2 3 12 3 9 0 17-6V361l1-300q7-7 12-9t24-4 62-2h26V0h-11q-21 3-159 3-136 0-157-3H88v46h64q16 0 25 1t16 3 8 2 6 5 6 4z"/><path id="e" d="M51 0q-5 4-5 7 0 2 169 350t173 352q3 7 28 7 23 0 28-7 3-4 172-352T786 7q0-3-5-7zm456 344L384 596 137 92l246-1h247q0 2-123 253"/><path id="f" d="M52 289q7 42 54 97t116 56q35 0 64-18t43-45q42 63 101 63 37 0 64-22t28-59q0-29-14-47t-27-22-23-4q-19 0-31 11t-12 29q0 46 50 63-11 13-40 13-13 0-19-2-38-16-56-66-60-221-60-258 0-28 16-40t35-12q37 0 73 33t49 81q3 10 6 11t16 2h4q15 0 15-8 0-1-2-11-16-57-62-101T333-11q-70 0-106 63-41-62-94-62h-6q-49 0-70 26T35 71q0 32 19 52t45 20q43 0 43-42 0-20-12-35t-23-20-13-5l-3-1q0-1 6-4t16-7 19-3q36 0 62 45 9 16 23 68t28 108 16 66q5 27 5 39 0 28-15 40t-34 12q-40 0-75-32t-49-82q-2-9-5-10t-16-2H58q-6 6-6 11"/><path id="g" d="M56 237v13l14 20h299v150l1 150q10 13 19 13 13 0 20-15V270h298q15-8 15-20t-15-20H409V-68q-8-14-18-14h-4q-12 0-18 14v298H70q-14 7-14 20Z"/><path id="h" d="M78 35v25l16 43 43 18q28 0 50-25t23-88q0-35-9-68t-21-57-26-41-24-27-13-9q-4 0-13 9t-9 13 11 16 25 30 26 50 16 73V9l-1-1q-2-1-5-2t-6-3-9-2-12-1q-27 0-44 17Z"/></defs><g stroke="currentColor" fill="currentColor" stroke-width="0"><g><use data-c="1D434" xlink:href="#a" transform="scale(1 -1)"/><use data-c="30" xlink:href="#b" transform="scale(1 -1) translate(783 -150)scale(.707)"/></g><g><use data-c="1D435" xlink:href="#c" transform="scale(1 -1) translate(1186.6)"/><use data-c="31" xlink:href="#d" transform="scale(1 -1) translate(1186.6) translate(792 -150)scale(.707)"/></g><use data-c="394" xlink:href="#e" transform="scale(1 -1) translate(2549.1)"/><use data-c="1D465" xlink:href="#f" transform="scale(1 -1) translate(3382.1)"/><use data-c="2B" xlink:href="#g" transform="scale(1 -1) translate(4176.3)"/><g><use data-c="1D434" xlink:href="#a" transform="scale(1 -1) translate(5176.6)"/><use data-c="31" xlink:href="#d" transform="scale(1 -1) translate(5176.6) translate(783 -150)scale(.707)"/></g><g><use data-c="1D435" xlink:href="#c" transform="scale(1 -1) translate(6363.1)"/><use data-c="30" xlink:href="#b" transform="scale(1 -1) translate(6363.1) translate(792 -150)scale(.707)"/></g><use data-c="394" xlink:href="#e" transform="scale(1 -1) translate(7725.7)"/><use data-c="1D465" xlink:href="#f" transform="scale(1 -1) translate(8558.7)"/><use data-c="2C" xlink:href="#h" transform="scale(1 -1) translate(9130.7)"/></g></svg>