<svg style="vertical-align:-3.844ex" xmlns="http://www.w3.org/2000/svg" width="87.074ex" height="8.819ex" viewBox="0 -2199 38486.8 3898" xmlns:xlink="http://www.w3.org/1999/xlink"><defs><path id="a" d="M118-162q2 0 6-2t11-3 12-1q13 0 24 13t16 29q10 27 34 153t46 240 22 115v3h-47q-47 0-50 2-4 3-4 10l7 28q2 5 8 5t47 1q48 0 48 1 0 2 9 50t12 58q37 165 146 165 37-2 61-22t24-53q0-36-21-52t-42-17q-44 0-44 42 0 19 11 33t24 21l9 5q-16 6-30 6-12 0-23-10t-15-28q-7-29-16-78t-16-83-7-36 55-2q45 0 52-1t11-6q1-4-2-17t-5-16q-2-5-9-5t-54-1h-56l-23-122Q301 15 282-47q-27-85-70-126-37-32-73-32-32 0-58 19t-26 54q0 37 21 54t42 17q44 0 44-42 0-19-11-33t-24-21z"/><path id="b" d="M94 250q0 69 10 131t23 107 37 88 38 67 42 52 33 34 25 21h17q14 0 14-9 0-3-17-21t-41-53-49-86-42-138-17-193 17-192 41-139 49-86 42-53 17-21q0-9-15-9h-16l-28 24q-94 85-137 212T94 250"/><path id="c" d="M52 289q7 42 54 97t116 56q35 0 64-18t43-45q42 63 101 63 37 0 64-22t28-59q0-29-14-47t-27-22-23-4q-19 0-31 11t-12 29q0 46 50 63-11 13-40 13-13 0-19-2-38-16-56-66-60-221-60-258 0-28 16-40t35-12q37 0 73 33t49 81q3 10 6 11t16 2h4q15 0 15-8 0-1-2-11-16-57-62-101T333-11q-70 0-106 63-41-62-94-62h-6q-49 0-70 26T35 71q0 32 19 52t45 20q43 0 43-42 0-20-12-35t-23-20-13-5l-3-1q0-1 6-4t16-7 19-3q36 0 62 45 9 16 23 68t28 108 16 66q5 27 5 39 0 28-15 40t-34 12q-40 0-75-32t-49-82q-2-9-5-10t-16-2H58q-6 6-6 11"/><path id="d" d="M56 237v13l14 20h299v150l1 150q10 13 19 13 13 0 20-15V270h298q15-8 15-20t-15-20H409V-68q-8-14-18-14h-4q-12 0-18 14v298H70q-14 7-14 20Z"/><path id="e" d="M51 0q-5 4-5 7 0 2 169 350t173 352q3 7 28 7 23 0 28-7 3-4 172-352T786 7q0-3-5-7zm456 344L384 596 137 92l246-1h247q0 2-123 253"/><path id="f" d="m60 749 4 1h22l28-24q94-85 137-212t43-264q0-68-10-131T261 12t-37-88-38-67-41-51-32-33-23-19l-4-4H63q-3 0-5 3t-3 9q1 1 11 13Q221-64 221 250T66 725q-10 12-11 13 0 8 5 11"/><path id="g" d="M50 252q0 115 67 221t169 168 204 63q90 0 143-51 9-10 15-17t8-10l1-3q3 0 27 26 7 6 15 14t16 16 10 11l15 15h6q14 0 14-7 0-4-32-137-36-139-36-140-2-5-5-6t-18-2h-16q-6 6-6 9 0 1 1 7t2 20 1 32q0 71-32 124t-109 54q-18 0-39-3t-53-13-61-28-63-48-58-71-47-102-31-134q-2-18-2-39 0-48 14-85t36-57 50-34 52-17 45-4q54 0 99 23t62 59q3 8 15 55t12 53q0 8-13 10t-60 3h-37q-6 6-6 8t2 19q4 13 10 19h17q40-2 140-2h65q25 0 36 1t12 0q14 0 14-9 0-2-2-14-5-19-10-21-3-1-15-1-20 0-41-3-7-3-10-9t-14-51q-9-33-15-56Q589 6 586 3q-2-2-5-2-10 0-28 20t-23 31q0 1-2 0t-6-5q-74-69-200-69-121 0-196 77T50 252"/><path id="h" d="M55 319q0 41 17 74t42 51 49 28 42 10h8q6 0 10 1 39 0 73-15t97-55l50-32q59-35 110-35 56 0 96 29t45 79q0 11 4 20t10 9q14 0 14-31 0-66-47-114t-120-49q-41 0-87 21t-80 47-80 47-84 22q-60 0-99-33t-42-75q-2-29-14-29-14 0-14 30m0-234q0 41 17 74t42 51 49 28 42 10h8q6 0 10 1 39 0 73-15t97-55l50-32q59-35 110-35 56 0 96 29t45 79q0 29 14 29t14-32q0-64-47-113T555 55q-41 0-87 21t-80 47-80 47-84 22q-60 0-99-33T83 84q-3-29-14-29-14 0-14 30"/><path id="i" d="M224-649v1799h231v-51H275V-598h180v-51z"/><path id="j" d="M208 74q0-24 46-28 18 0 18-11 0-1-2-13-3-14-6-18t-13-4h-12q-10 0-34 1t-64 1Q70 2 50 0h-8q-7 7-7 11 2 27 13 35h14q70 3 102 50 6 6 181 305t178 303q7 12 24 12h25q6-9 6-10l28-323q28-323 30-326 5-11 65-11 25 0 25-10 0-2-3-14-3-15-5-18t-14-4h-14q-11 0-39 1t-73 1q-94 0-123-2h-12q-6 6-6 9t2 18q4 13 6 16l4 3h20q54 3 64 17l-12 150H283l-34-58q-41-69-41-81m308 186q0 11-12 156t-14 146l-27-43q-16-27-63-107l-90-152 103-1q103 0 103 1"/><path id="k" d="m213 578-13-5q-14-5-40-10t-58-7H83v46h19q47 2 87 15t56 24 28 22q2 3 12 3 9 0 17-6V361l1-300q7-7 12-9t24-4 62-2h26V0h-11q-21 3-159 3-136 0-157-3H88v46h64q16 0 25 1t16 3 8 2 6 5 6 4z"/><path id="l" d="M16 1099v51h231V-649H16v51h180v1697z"/><path id="m" d="M311 43q-15-13-44-28T206 0q-63 0-101 45T66 160q0 105 77 193t171 89q47 0 87-48l3 4q2 3 5 6t9 8 13 7 16 3q14 0 23-9t10-19q0-15-57-242T363-80q-18-54-77-89t-135-36q-141 0-141 68 0 26 18 46t46 20q15 0 28-9t14-31q0-10-2-19t-7-14-8-10-7-8l-2-2h1q10-3 60-3 38 0 60 12 23 11 43 33t28 47q6 19 16 62 13 48 13 56m73 285-4 11q-3 11-5 15t-6 14-10 14-13 11-18 9-22 3q-44 0-85-53-30-39-50-119t-20-116q0-79 62-79 56 0 110 70l8 10z"/><path id="n" d="M56 347q0 13 14 20h637q15-8 15-20 0-11-14-19l-318-1H72q-16 5-16 20m0-194q0 15 16 20h636q14-10 14-20 0-13-15-20H70q-14 7-14 20"/><path id="o" d="M41 46h14q39 0 47 14v107q0 24 1 50t0 55 0 57v153q0 34-1 60t0 44 0 17q-3 19-14 25t-45 9H25v23q0 23 2 23l10 1q10 1 29 2t37 2q17 1 37 2t30 3 11 1h3V367q60 75 144 75 123 0 135-113 1-7 1-139v-86q0-38 2-45t11-10q21-3 49-3h16V0h-8l-24 1q-23 1-50 1t-38 1Q319 3 310 0h-8v46h16q61 0 61 16 1 2 1 138-1 135-2 143-6 28-20 42t-24 17-26 2q-45 0-79-34-27-27-34-55t-8-83V108q0-30 1-40t3-13 9-6q21-3 49-3h16V0h-8l-23 1q-24 1-51 1t-38 1Q42 3 33 0h-8v46z"/><path id="p" d="M69 609q0 28 18 44t44 16q23-2 40-17t17-43q0-30-17-45t-42-15-42 15-18 45M247 0q-15 3-104 3h-37Q80 3 56 1L34 0h-8v46h16q28 0 49 3 9 4 11 11t2 42v191q0 52-2 66t-14 19q-14 7-47 7H30v23q0 23 2 23l10 1q10 1 28 2t36 2q17 1 36 2t29 3 11 1h3V62q5-10 12-12t35-4h23V0z"/><path id="q" d="M329 409q44 44 100 44 30 0 43-19t13-38q0-14-9-25t-27-11q-33 0-37 30-2 14 3 21 0 1 1 3v1q-28-3-53-22-8-5-8-7 0-1 4-5t9-12 11-18 9-26 4-33q0-62-49-105t-121-44q-50 0-99 28-11-18-11-38 0-35 26-52 9-6 17-6t72-2q84-1 108-6 61-9 96-41 39-39 39-98 0-67-78-103-60-31-142-31-83 0-143 31-78 35-78 100 0 36 21 60t42 33l11 6q-36 31-36 84 0 47 29 85-44 44-44 99 0 63 50 106t121 44q51 0 95-26zm-30-66q-5 28-26 44t-52 17q-29 0-50-16t-26-45q-3-17-3-51 0-44 7-65t30-35q17-10 43-10 22 0 38 7t23 18 11 20 5 15q3 16 3 50t-3 51M403-75q0 25-14 41t-41 23-49 9-54 2h-27q-67 0-80-6-20-9-31-28T95-74q0-10 6-23t21-30 48-28 80-12q69 0 111 28t42 64"/><path id="r" d="M28 218q0 55 20 100t50 73 65 42 66 15q53 0 91-18t58-50 28-64 9-71q0-7-7-14H126v-15q0-148 100-180 20-6 44-6 42 0 72 32 17 17 27 42l10 24q3 3 16 3h3q17 0 17-10 0-4-3-13-19-55-63-87t-99-32q-95 0-158 69T28 218m305 57q-11 128-95 136h-2q-8 0-16-1t-25-8-29-21-23-41-16-66v-7h206z"/><path id="s" d="M36 46h14q39 0 47 14v31q0 14 1 31t0 39 0 42v125l-1 23q-3 19-14 25t-45 9H20v23q0 23 2 23l10 1q10 1 28 2t36 2q16 1 35 2t29 3 11 1h3v-69q39 68 97 68h6q45 0 66-22t21-46q0-21-13-36t-38-15-37 16-13 34q0 9 2 16t5 12 3 5q-2 2-23-4-16-8-24-15-47-45-47-179V101q0-12 1-20t0-15v-5q1-2 3-4t5-3 5-3 7-2 7-1 9-1 9 0 10-1 10 0h31V0h-9q-18 3-127 3Q37 3 28 0h-8v46z"/><path id="t" d="M28 214q0 95 65 164t157 70q90 0 155-68t66-165q0-95-64-160T250-10q-97 0-159 67T28 214M250 30q122 0 122 163v57q0 22-1 38t-7 38-16 36-31 28-49 20q-5 1-16 1-30 0-57-12-43-22-56-61t-13-92v-20q0-96 19-135 32-61 105-61"/><path id="u" d="M376 495v40q0 24 1 33 0 45-10 56t-51 13h-18v23q0 23 2 23l10 1q10 1 29 2t37 2q17 1 37 2t30 3 11 1h3V390q0-306 1-309 3-20 14-26t45-9h18V0q-2 0-76-5t-79-6h-7v55l-8-7q-58-48-130-48-77 0-139 61T34 215q0 100 63 163t147 64q75 0 132-49zm-3-153q-45 63-113 63-49 0-87-36-27-28-34-64t-8-94q0-56 7-91t35-61q30-33 78-33 71 0 122 77z"/><path id="v" d="M27 422q53 4 82 56t32 122v15h40V431h135v-46H181V241q1-125 1-141t7-32q14-39 49-39 44 0 54 71 1 8 1 46v35h40v-47q0-77-42-117-27-27-70-27-34 0-59 12t-38 31-19 35-7 32q-1 7-1 148v137H18v37z"/><path id="w" d="M41 46h14q39 0 47 14v62q0 17 1 39t0 42v66q0 35-1 59v23q-3 19-14 25t-45 9H25v23q0 23 2 23l10 1q10 1 28 2t37 2q17 1 36 2t29 3 11 1h3v-40q0-38 1-38t5 5 12 15 19 18 29 19 38 16 51 5q15 0 28-2t23-6 19-8 15-9 11-11 9-11 7-11 4-10 3-8l2-5 3 4 6 8q3 4 9 11t13 13 15 13 20 12 23 10 26 7 31 3q126 0 137-113 1-7 1-139v-86q0-38 2-45t11-10q21-3 49-3h16V0h-8l-23 1q-24 1-51 1t-38 1Q596 3 587 0h-8v46h16q61 0 61 16 1 2 1 138-1 135-2 143-6 28-20 42t-24 17-26 2q-45 0-79-34-27-27-34-55t-8-83V108q0-30 1-40t3-13 9-6q21-3 49-3h16V0h-8l-24 1q-23 1-50 1t-38 1Q319 3 310 0h-8v46h16q61 0 61 16 1 2 1 138-1 135-2 143-6 28-20 42t-24 17-26 2q-45 0-79-34-27-27-34-55t-8-83V108q0-30 1-40t3-13 9-6q21-3 49-3h16V0h-8l-23 1q-24 1-51 1t-38 1Q42 3 33 0h-8v46z"/><path id="x" d="M295 316q0 40-27 69t-78 29q-36 0-62-13-30-19-30-52-1-5 0-13t16-24 43-25q18-5 44-9t44-9 32-13q17-8 33-20t32-41 17-62q0-62-38-102T198-10h-8q-52 0-96 36l-8-7-9-9Q71 4 65-1L54-11H42q-3 0-9 6v137q0 21 2 25t10 5h9q12 0 16-4t5-12 7-27 19-42q35-51 97-51 97 0 97 78 0 29-18 47-20 24-83 36t-83 23q-36 17-57 46t-21 62q0 39 17 66t43 40 50 18 44 5h11q40 0 70-15l15-8 9 7q10 9 22 17h12q3 0 9-6V310l-6-6h-28q-6 6-6 12"/><path id="y" d="M78 60q0 24 17 42t43 18q24 0 42-16t19-43q0-25-17-43T139 0 96 17 78 60"/></defs><g stroke="currentColor" fill="currentColor" stroke-width="0"><g><g><g><use data-c="1D453" xlink:href="#a" transform="scale(1 -1) translate(0 1049.5)"/><use data-c="28" xlink:href="#b" transform="scale(1 -1) translate(0 1049.5) translate(550)"/><use data-c="1D465" xlink:href="#c" transform="scale(1 -1) translate(0 1049.5) translate(939)"/><use data-c="2B" xlink:href="#d" transform="scale(1 -1) translate(0 1049.5) translate(1733.2)"/><use data-c="394" xlink:href="#e" transform="scale(1 -1) translate(0 1049.5) translate(2733.4)"/><use data-c="1D465" xlink:href="#c" transform="scale(1 -1) translate(0 1049.5) translate(3566.4)"/><use data-c="29" xlink:href="#f" transform="scale(1 -1) translate(0 1049.5) translate(4138.4)"/><use data-c="1D43A" xlink:href="#g" transform="scale(1 -1) translate(0 1049.5) translate(4694.4)"/><use data-c="28" xlink:href="#b" transform="scale(1 -1) translate(0 1049.5) translate(5480.4)"/><use data-c="1D465" xlink:href="#c" transform="scale(1 -1) translate(0 1049.5) translate(5869.4)"/><use data-c="2B" xlink:href="#d" transform="scale(1 -1) translate(0 1049.5) translate(6663.7)"/><use data-c="394" xlink:href="#e" transform="scale(1 -1) translate(0 1049.5) translate(7663.9)"/><use data-c="1D465" xlink:href="#c" transform="scale(1 -1) translate(0 1049.5) translate(8496.9)"/><use data-c="29" xlink:href="#f" transform="scale(1 -1) translate(0 1049.5) translate(9068.9)"/></g><g><use data-c="2248" xlink:href="#h" transform="scale(1 -1) translate(0 1049.5) translate(9457.9) translate(277.8)"/><g data-mjx-texclass="OPEN"><use data-c="5B" xlink:href="#i" transform="scale(1 -1) translate(0 1049.5) translate(9457.9) translate(1333.6) translate(0 -.5)"/></g><use data-c="1D453" xlink:href="#a" transform="scale(1 -1) translate(0 1049.5) translate(9457.9) translate(1805.6)"/><use data-c="28" xlink:href="#b" transform="scale(1 -1) translate(0 1049.5) translate(9457.9) translate(2355.6)"/><use data-c="1D465" xlink:href="#c" transform="scale(1 -1) translate(0 1049.5) translate(9457.9) translate(2744.6)"/><use data-c="29" xlink:href="#f" transform="scale(1 -1) translate(0 1049.5) translate(9457.9) translate(3316.6)"/><use data-c="2B" xlink:href="#d" transform="scale(1 -1) translate(0 1049.5) translate(9457.9) translate(3927.8)"/><g><use data-c="1D453" xlink:href="#a" transform="scale(1 -1) translate(0 1049.5) translate(9457.9) translate(4928)"/><g data-mjx-texclass="ORD"><g><use data-c="1D434" xlink:href="#j" transform="scale(1 -1) translate(0 1049.5) translate(9457.9) translate(4928) translate(523 -152.7)scale(.707)"/><use data-c="31" xlink:href="#k" transform="scale(1 -1) translate(0 1049.5) translate(9457.9) translate(4928) translate(523 -152.7)scale(.707) translate(783 -150)scale(.707)"/></g></g></g><use data-c="28" xlink:href="#b" transform="scale(1 -1) translate(0 1049.5) translate(9457.9) translate(6340)"/><use data-c="1D465" xlink:href="#c" transform="scale(1 -1) translate(0 1049.5) translate(9457.9) translate(6729)"/><use data-c="29" xlink:href="#f" transform="scale(1 -1) translate(0 1049.5) translate(9457.9) translate(7301)"/><use data-c="394" xlink:href="#e" transform="scale(1 -1) translate(0 1049.5) translate(9457.9) translate(7857)"/><use data-c="1D465" xlink:href="#c" transform="scale(1 -1) translate(0 1049.5) translate(9457.9) translate(8690)"/><g data-mjx-texclass="CLOSE"><use data-c="5D" xlink:href="#l" transform="scale(1 -1) translate(0 1049.5) translate(9457.9) translate(9262) translate(0 -.5)"/></g><g data-mjx-texclass="OPEN"><use data-c="5B" xlink:href="#i" transform="scale(1 -1) translate(0 1049.5) translate(9457.9) translate(9734) translate(0 -.5)"/></g><use data-c="1D43A" xlink:href="#g" transform="scale(1 -1) translate(0 1049.5) translate(9457.9) translate(10206)"/><use data-c="28" xlink:href="#b" transform="scale(1 -1) translate(0 1049.5) translate(9457.9) translate(10992)"/><use data-c="1D465" xlink:href="#c" transform="scale(1 -1) translate(0 1049.5) translate(9457.9) translate(11381)"/><use data-c="29" xlink:href="#f" transform="scale(1 -1) translate(0 1049.5) translate(9457.9) translate(11953)"/><use data-c="2B" xlink:href="#d" transform="scale(1 -1) translate(0 1049.5) translate(9457.9) translate(12564.2)"/><use data-c="1D454" xlink:href="#m" transform="scale(1 -1) translate(0 1049.5) translate(9457.9) translate(13564.5)"/><use data-c="28" xlink:href="#b" transform="scale(1 -1) translate(0 1049.5) translate(9457.9) translate(14041.5)"/><use data-c="1D465" xlink:href="#c" transform="scale(1 -1) translate(0 1049.5) translate(9457.9) translate(14430.5)"/><use data-c="29" xlink:href="#f" transform="scale(1 -1) translate(0 1049.5) translate(9457.9) translate(15002.5)"/><use data-c="394" xlink:href="#e" transform="scale(1 -1) translate(0 1049.5) translate(9457.9) translate(15558.5)"/><use data-c="1D465" xlink:href="#c" transform="scale(1 -1) translate(0 1049.5) translate(9457.9) translate(16391.5)"/><g data-mjx-texclass="CLOSE"><use data-c="5D" xlink:href="#l" transform="scale(1 -1) translate(0 1049.5) translate(9457.9) translate(16963.5) translate(0 -.5)"/></g></g></g><g><g><use data-c="3D" xlink:href="#n" transform="scale(1 -1) translate(0 -1049.5) translate(9457.9) translate(277.8)"/><use data-c="1D453" xlink:href="#a" transform="scale(1 -1) translate(0 -1049.5) translate(9457.9) translate(1333.6)"/><use data-c="28" xlink:href="#b" transform="scale(1 -1) translate(0 -1049.5) translate(9457.9) translate(1883.6)"/><use data-c="1D465" xlink:href="#c" transform="scale(1 -1) translate(0 -1049.5) translate(9457.9) translate(2272.6)"/><use data-c="29" xlink:href="#f" transform="scale(1 -1) translate(0 -1049.5) translate(9457.9) translate(2844.6)"/><use data-c="1D43A" xlink:href="#g" transform="scale(1 -1) translate(0 -1049.5) translate(9457.9) translate(3233.6)"/><use data-c="28" xlink:href="#b" transform="scale(1 -1) translate(0 -1049.5) translate(9457.9) translate(4019.6)"/><use data-c="1D465" xlink:href="#c" transform="scale(1 -1) translate(0 -1049.5) translate(9457.9) translate(4408.6)"/><use data-c="29" xlink:href="#f" transform="scale(1 -1) translate(0 -1049.5) translate(9457.9) translate(4980.6)"/><use data-c="2B" xlink:href="#d" transform="scale(1 -1) translate(0 -1049.5) translate(9457.9) translate(5591.8)"/><g data-mjx-texclass="OPEN"><use data-c="5B" xlink:href="#i" transform="scale(1 -1) translate(0 -1049.5) translate(9457.9) translate(6592) translate(0 -.5)"/></g><use data-c="1D453" xlink:href="#a" transform="scale(1 -1) translate(0 -1049.5) translate(9457.9) translate(7064)"/><use data-c="28" xlink:href="#b" transform="scale(1 -1) translate(0 -1049.5) translate(9457.9) translate(7614)"/><use data-c="1D465" xlink:href="#c" transform="scale(1 -1) translate(0 -1049.5) translate(9457.9) translate(8003)"/><use data-c="29" xlink:href="#f" transform="scale(1 -1) translate(0 -1049.5) translate(9457.9) translate(8575)"/><use data-c="1D454" xlink:href="#m" transform="scale(1 -1) translate(0 -1049.5) translate(9457.9) translate(8964)"/><use data-c="28" xlink:href="#b" transform="scale(1 -1) translate(0 -1049.5) translate(9457.9) translate(9441)"/><use data-c="1D465" xlink:href="#c" transform="scale(1 -1) translate(0 -1049.5) translate(9457.9) translate(9830)"/><use data-c="29" xlink:href="#f" transform="scale(1 -1) translate(0 -1049.5) translate(9457.9) translate(10402)"/><use data-c="2B" xlink:href="#d" transform="scale(1 -1) translate(0 -1049.5) translate(9457.9) translate(11013.2)"/><use data-c="1D43A" xlink:href="#g" transform="scale(1 -1) translate(0 -1049.5) translate(9457.9) translate(12013.4)"/><use data-c="28" xlink:href="#b" transform="scale(1 -1) translate(0 -1049.5) translate(9457.9) translate(12799.4)"/><use data-c="1D465" xlink:href="#c" transform="scale(1 -1) translate(0 -1049.5) translate(9457.9) translate(13188.4)"/><use data-c="29" xlink:href="#f" transform="scale(1 -1) translate(0 -1049.5) translate(9457.9) translate(13760.4)"/><g><use data-c="1D453" xlink:href="#a" transform="scale(1 -1) translate(0 -1049.5) translate(9457.9) translate(14149.4)"/><g data-mjx-texclass="ORD"><g><use data-c="1D434" xlink:href="#j" transform="scale(1 -1) translate(0 -1049.5) translate(9457.9) translate(14149.4) translate(523 -152.7)scale(.707)"/><use data-c="31" xlink:href="#k" transform="scale(1 -1) translate(0 -1049.5) translate(9457.9) translate(14149.4) translate(523 -152.7)scale(.707) translate(783 -150)scale(.707)"/></g></g></g><use data-c="28" xlink:href="#b" transform="scale(1 -1) translate(0 -1049.5) translate(9457.9) translate(15561.5)"/><use data-c="1D465" xlink:href="#c" transform="scale(1 -1) translate(0 -1049.5) translate(9457.9) translate(15950.5)"/><use data-c="29" xlink:href="#f" transform="scale(1 -1) translate(0 -1049.5) translate(9457.9) translate(16522.5)"/><g data-mjx-texclass="CLOSE"><use data-c="5D" xlink:href="#l" transform="scale(1 -1) translate(0 -1049.5) translate(9457.9) translate(16911.5) translate(0 -.5)"/></g><use data-c="394" xlink:href="#e" transform="scale(1 -1) translate(0 -1049.5) translate(9457.9) translate(17383.5)"/><use data-c="1D465" xlink:href="#c" transform="scale(1 -1) translate(0 -1049.5) translate(9457.9) translate(18216.5)"/><use data-c="2B" xlink:href="#d" transform="scale(1 -1) translate(0 -1049.5) translate(9457.9) translate(19010.7)"/><g transform="scale(1 -1) translate(0 -1049.5) translate(9457.9) translate(20010.9)"><use data-c="28" xlink:href="#b"/><use data-c="68" xlink:href="#o" transform="translate(389)"/><use data-c="69" xlink:href="#p" transform="translate(945)"/><use data-c="67" xlink:href="#q" transform="translate(1223)"/><use data-c="68" xlink:href="#o" transform="translate(1723)"/><use data-c="65" xlink:href="#r" transform="translate(2279)"/><use data-c="72" xlink:href="#s" transform="translate(2723)"/><use data-c="6F" xlink:href="#t" transform="translate(3365)"/><use data-c="72" xlink:href="#s" transform="translate(3865)"/><use data-c="64" xlink:href="#u" transform="translate(4257)"/><use data-c="65" xlink:href="#r" transform="translate(4813)"/><use data-c="72" xlink:href="#s" transform="translate(5257)"/><use data-c="74" xlink:href="#v" transform="translate(5899)"/><use data-c="65" xlink:href="#r" transform="translate(6288)"/><use data-c="72" xlink:href="#s" transform="translate(6732)"/><use data-c="6D" xlink:href="#w" transform="translate(7124)"/><use data-c="73" xlink:href="#x" transform="translate(7957)"/><use data-c="29" xlink:href="#f" transform="translate(8351)"/></g><use data-c="2E" xlink:href="#y" transform="scale(1 -1) translate(0 -1049.5) translate(9457.9) translate(28750.9)"/></g></g></g></g></svg>