<svg style="vertical-align:-3.844ex" xmlns="http://www.w3.org/2000/svg" width="56.732ex" height="8.819ex" viewBox="0 -2199 25075.4 3898" xmlns:xlink="http://www.w3.org/1999/xlink"><defs><path id="a" d="M118-162q2 0 6-2t11-3 12-1q13 0 24 13t16 29q10 27 34 153t46 240 22 115v3h-47q-47 0-50 2-4 3-4 10l7 28q2 5 8 5t47 1q48 0 48 1 0 2 9 50t12 58q37 165 146 165 37-2 61-22t24-53q0-36-21-52t-42-17q-44 0-44 42 0 19 11 33t24 21l9 5q-16 6-30 6-12 0-23-10t-15-28q-7-29-16-78t-16-83-7-36 55-2q45 0 52-1t11-6q1-4-2-17t-5-16q-2-5-9-5t-54-1h-56l-23-122Q301 15 282-47q-27-85-70-126-37-32-73-32-32 0-58 19t-26 54q0 37 21 54t42 17q44 0 44-42 0-19-11-33t-24-21z"/><path id="b" d="M94 250q0 69 10 131t23 107 37 88 38 67 42 52 33 34 25 21h17q14 0 14-9 0-3-17-21t-41-53-49-86-42-138-17-193 17-192 41-139 49-86 42-53 17-21q0-9-15-9h-16l-28 24q-94 85-137 212T94 250"/><path id="c" d="M52 289q7 42 54 97t116 56q35 0 64-18t43-45q42 63 101 63 37 0 64-22t28-59q0-29-14-47t-27-22-23-4q-19 0-31 11t-12 29q0 46 50 63-11 13-40 13-13 0-19-2-38-16-56-66-60-221-60-258 0-28 16-40t35-12q37 0 73 33t49 81q3 10 6 11t16 2h4q15 0 15-8 0-1-2-11-16-57-62-101T333-11q-70 0-106 63-41-62-94-62h-6q-49 0-70 26T35 71q0 32 19 52t45 20q43 0 43-42 0-20-12-35t-23-20-13-5l-3-1q0-1 6-4t16-7 19-3q36 0 62 45 9 16 23 68t28 108 16 66q5 27 5 39 0 28-15 40t-34 12q-40 0-75-32t-49-82q-2-9-5-10t-16-2H58q-6 6-6 11"/><path id="d" d="M56 237v13l14 20h299v150l1 150q10 13 19 13 13 0 20-15V270h298q15-8 15-20t-15-20H409V-68q-8-14-18-14h-4q-12 0-18 14v298H70q-14 7-14 20Z"/><path id="e" d="M51 0q-5 4-5 7 0 2 169 350t173 352q3 7 28 7 23 0 28-7 3-4 172-352T786 7q0-3-5-7zm456 344L384 596 137 92l246-1h247q0 2-123 253"/><path id="f" d="m60 749 4 1h22l28-24q94-85 137-212t43-264q0-68-10-131T261 12t-37-88-38-67-41-51-32-33-23-19l-4-4H63q-3 0-5 3t-3 9q1 1 11 13Q221-64 221 250T66 725q-10 12-11 13 0 8 5 11"/><path id="g" d="M50 252q0 115 67 221t169 168 204 63q90 0 143-51 9-10 15-17t8-10l1-3q3 0 27 26 7 6 15 14t16 16 10 11l15 15h6q14 0 14-7 0-4-32-137-36-139-36-140-2-5-5-6t-18-2h-16q-6 6-6 9 0 1 1 7t2 20 1 32q0 71-32 124t-109 54q-18 0-39-3t-53-13-61-28-63-48-58-71-47-102-31-134q-2-18-2-39 0-48 14-85t36-57 50-34 52-17 45-4q54 0 99 23t62 59q3 8 15 55t12 53q0 8-13 10t-60 3h-37q-6 6-6 8t2 19q4 13 10 19h17q40-2 140-2h65q25 0 36 1t12 0q14 0 14-9 0-2-2-14-5-19-10-21-3-1-15-1-20 0-41-3-7-3-10-9t-14-51q-9-33-15-56Q589 6 586 3q-2-2-5-2-10 0-28 20t-23 31q0 1-2 0t-6-5q-74-69-200-69-121 0-196 77T50 252"/><path id="h" d="M56 347q0 13 14 20h637q15-8 15-20 0-11-14-19l-318-1H72q-16 5-16 20m0-194q0 15 16 20h636q14-10 14-20 0-13-15-20H70q-14 7-14 20"/><path id="i" d="M224-649v1799h231v-51H275V-598h180v-51z"/><path id="j" d="M208 74q0-24 46-28 18 0 18-11 0-1-2-13-3-14-6-18t-13-4h-12q-10 0-34 1t-64 1Q70 2 50 0h-8q-7 7-7 11 2 27 13 35h14q70 3 102 50 6 6 181 305t178 303q7 12 24 12h25q6-9 6-10l28-323q28-323 30-326 5-11 65-11 25 0 25-10 0-2-3-14-3-15-5-18t-14-4h-14q-11 0-39 1t-73 1q-94 0-123-2h-12q-6 6-6 9t2 18q4 13 6 16l4 3h20q54 3 64 17l-12 150H283l-34-58q-41-69-41-81m308 186q0 11-12 156t-14 146l-27-43q-16-27-63-107l-90-152 103-1q103 0 103 1"/><path id="k" d="M96 585q56 81 153 81 48 0 96-26t78-92q37-83 37-228 0-155-43-237-20-42-55-67t-61-31-51-7q-26 0-52 6t-61 32-55 67q-43 82-43 237 0 174 57 265m225 12q-30 32-71 32-42 0-72-32-25-26-33-72t-8-192q0-158 8-208t36-79q28-30 69-30 40 0 68 30 29 30 36 84t8 203q0 145-8 191t-33 73"/><path id="l" d="m213 578-13-5q-14-5-40-10t-58-7H83v46h19q47 2 87 15t56 24 28 22q2 3 12 3 9 0 17-6V361l1-300q7-7 12-9t24-4 62-2h26V0h-11q-21 3-159 3-136 0-157-3H88v46h64q16 0 25 1t16 3 8 2 6 5 6 4z"/><path id="m" d="M109 429q-27 0-43 18t-16 44q0 71 53 123t132 52q91 0 152-56t62-145q0-43-20-82t-48-68-80-74q-36-31-100-92l-59-56 76-1q157 0 167 5 7 2 24 89v3h40v-3q-1-3-13-91T421 3V0H50v31q0 7 6 15t30 35q29 32 50 56 9 10 34 37t34 37 29 33 28 34 23 30 21 32 15 29 13 32 7 30 3 33q0 63-34 109t-97 46q-33 0-58-17t-35-33-10-19q0-1 5-1 18 0 37-14t19-46q0-25-16-42t-45-18"/><path id="n" d="M78 250q0 24 17 42t43 18q24 0 42-16t19-43q0-25-17-43t-43-18-43 17-18 43m447 0q0 24 17 42t43 18q24 0 42-16t19-43q0-25-17-43t-43-18-43 17-18 43m447 0q0 24 17 42t43 18q24 0 42-16t19-43q0-25-17-43t-43-18-43 17-18 43"/><path id="o" d="M16 1099v51h231V-649H16v51h180v1697z"/><path id="p" d="M630 29q0-20-21-20-5 0-22 16t-94 93L389 222 284 117Q178 13 175 11q-4-2-7-2-8 0-14 6t-7 14q0 7 14 22t94 95l104 104-104 104q-81 81-94 95t-14 22q0 9 6 14t15 5q5 0 7-1 3-2 109-106l105-105 104 104q77 77 94 93t22 16q21 0 21-20 0-7-10-18t-98-98L418 250l104-105q84-84 96-97t12-19"/><path id="q" d="M231 637q-27 0-32 1t-5 11q0 27 11 33 1 1 130 1 259 0 273-2 63-10 105-45t43-92q0-64-58-115t-133-69l-10-3q64-9 105-46t42-92q0-73-72-141T453 1q-7-1-211-1Q42 0 39 2q-4 3-4 8 0 7 2 14 5 19 10 21 4 1 15 1h6q27 0 60 3 14 3 19 12 3 4 72 278t69 289q0 7-57 9m418-93q0 30-15 56t-49 34q-7 2-92 3h-42q-22 0-35-1h-13q-15-1-19-10-2-4-32-120 0-3-1-6l-31-126h81q81 0 93 2 60 10 107 58t48 110m-54-315q0 44-23 73t-60 34q-6 1-83 1-118 0-119-1 0-2-17-73t-35-141l-18-70q0-4 12-4t81-2q89 0 96 1 62 7 114 58t52 124"/><path id="r" d="M78 60q0 24 17 42t43 18q24 0 42-16t19-43q0-25-17-43T139 0 96 17 78 60"/></defs><g stroke="currentColor" fill="currentColor" stroke-width="0"><g><g><g><use data-c="1D453" xlink:href="#a" transform="scale(1 -1) translate(0 1049.5)"/><use data-c="28" xlink:href="#b" transform="scale(1 -1) translate(0 1049.5) translate(550)"/><use data-c="1D465" xlink:href="#c" transform="scale(1 -1) translate(0 1049.5) translate(939)"/><use data-c="2B" xlink:href="#d" transform="scale(1 -1) translate(0 1049.5) translate(1733.2)"/><use data-c="394" xlink:href="#e" transform="scale(1 -1) translate(0 1049.5) translate(2733.4)"/><use data-c="1D465" xlink:href="#c" transform="scale(1 -1) translate(0 1049.5) translate(3566.4)"/><use data-c="29" xlink:href="#f" transform="scale(1 -1) translate(0 1049.5) translate(4138.4)"/><use data-c="1D43A" xlink:href="#g" transform="scale(1 -1) translate(0 1049.5) translate(4527.4)"/><use data-c="28" xlink:href="#b" transform="scale(1 -1) translate(0 1049.5) translate(5313.4)"/><use data-c="1D465" xlink:href="#c" transform="scale(1 -1) translate(0 1049.5) translate(5702.4)"/><use data-c="2B" xlink:href="#d" transform="scale(1 -1) translate(0 1049.5) translate(6496.7)"/><use data-c="394" xlink:href="#e" transform="scale(1 -1) translate(0 1049.5) translate(7496.9)"/><use data-c="1D465" xlink:href="#c" transform="scale(1 -1) translate(0 1049.5) translate(8329.9)"/><use data-c="29" xlink:href="#f" transform="scale(1 -1) translate(0 1049.5) translate(8901.9)"/></g><g><use data-c="3D" xlink:href="#h" transform="scale(1 -1) translate(0 1049.5) translate(9290.9) translate(277.8)"/><g data-mjx-texclass="OPEN"><use data-c="5B" xlink:href="#i" transform="scale(1 -1) translate(0 1049.5) translate(9290.9) translate(1333.6) translate(0 -.5)"/></g><g><use data-c="1D434" xlink:href="#j" transform="scale(1 -1) translate(0 1049.5) translate(9290.9) translate(1805.6)"/><use data-c="30" xlink:href="#k" transform="scale(1 -1) translate(0 1049.5) translate(9290.9) translate(1805.6) translate(783 -150)scale(.707)"/></g><use data-c="2B" xlink:href="#d" transform="scale(1 -1) translate(0 1049.5) translate(9290.9) translate(3214.3)"/><g><use data-c="1D434" xlink:href="#j" transform="scale(1 -1) translate(0 1049.5) translate(9290.9) translate(4214.6)"/><use data-c="31" xlink:href="#l" transform="scale(1 -1) translate(0 1049.5) translate(9290.9) translate(4214.6) translate(783 -150)scale(.707)"/></g><use data-c="394" xlink:href="#e" transform="scale(1 -1) translate(0 1049.5) translate(9290.9) translate(5568.1)"/><use data-c="1D465" xlink:href="#c" transform="scale(1 -1) translate(0 1049.5) translate(9290.9) translate(6401.1)"/><use data-c="2B" xlink:href="#d" transform="scale(1 -1) translate(0 1049.5) translate(9290.9) translate(7195.3)"/><g><use data-c="1D434" xlink:href="#j" transform="scale(1 -1) translate(0 1049.5) translate(9290.9) translate(8195.6)"/><use data-c="32" xlink:href="#m" transform="scale(1 -1) translate(0 1049.5) translate(9290.9) translate(8195.6) translate(783 -150)scale(.707)"/></g><use data-c="28" xlink:href="#b" transform="scale(1 -1) translate(0 1049.5) translate(9290.9) translate(9549.1)"/><use data-c="394" xlink:href="#e" transform="scale(1 -1) translate(0 1049.5) translate(9290.9) translate(9938.1)"/><use data-c="1D465" xlink:href="#c" transform="scale(1 -1) translate(0 1049.5) translate(9290.9) translate(10771.1)"/><g><use data-c="29" xlink:href="#f" transform="scale(1 -1) translate(0 1049.5) translate(9290.9) translate(11343.1)"/><use data-c="32" xlink:href="#m" transform="scale(1 -1) translate(0 1049.5) translate(9290.9) translate(11343.1) translate(422 413)scale(.707)"/></g><use data-c="2B" xlink:href="#d" transform="scale(1 -1) translate(0 1049.5) translate(9290.9) translate(12390.9)"/><use data-c="22EF" xlink:href="#n" transform="scale(1 -1) translate(0 1049.5) translate(9290.9) translate(13391.1)"/><g data-mjx-texclass="CLOSE"><use data-c="5D" xlink:href="#o" transform="scale(1 -1) translate(0 1049.5) translate(9290.9) translate(14563.1) translate(0 -.5)"/></g></g></g><g><g><use data-c="D7" xlink:href="#p" transform="scale(1 -1) translate(0 -1049.5) translate(9290.9) translate(1000)"/><g data-mjx-texclass="OPEN"><use data-c="5B" xlink:href="#i" transform="scale(1 -1) translate(0 -1049.5) translate(9290.9) translate(1778) translate(0 -.5)"/></g><g><use data-c="1D435" xlink:href="#q" transform="scale(1 -1) translate(0 -1049.5) translate(9290.9) translate(2250)"/><use data-c="30" xlink:href="#k" transform="scale(1 -1) translate(0 -1049.5) translate(9290.9) translate(2250) translate(792 -150)scale(.707)"/></g><use data-c="2B" xlink:href="#d" transform="scale(1 -1) translate(0 -1049.5) translate(9290.9) translate(3667.8)"/><g><use data-c="1D435" xlink:href="#q" transform="scale(1 -1) translate(0 -1049.5) translate(9290.9) translate(4668)"/><use data-c="31" xlink:href="#l" transform="scale(1 -1) translate(0 -1049.5) translate(9290.9) translate(4668) translate(792 -150)scale(.707)"/></g><use data-c="394" xlink:href="#e" transform="scale(1 -1) translate(0 -1049.5) translate(9290.9) translate(6030.6)"/><use data-c="1D465" xlink:href="#c" transform="scale(1 -1) translate(0 -1049.5) translate(9290.9) translate(6863.6)"/><use data-c="2B" xlink:href="#d" transform="scale(1 -1) translate(0 -1049.5) translate(9290.9) translate(7657.8)"/><g><use data-c="1D435" xlink:href="#q" transform="scale(1 -1) translate(0 -1049.5) translate(9290.9) translate(8658)"/><use data-c="32" xlink:href="#m" transform="scale(1 -1) translate(0 -1049.5) translate(9290.9) translate(8658) translate(792 -150)scale(.707)"/></g><use data-c="28" xlink:href="#b" transform="scale(1 -1) translate(0 -1049.5) translate(9290.9) translate(10020.5)"/><use data-c="394" xlink:href="#e" transform="scale(1 -1) translate(0 -1049.5) translate(9290.9) translate(10409.5)"/><use data-c="1D465" xlink:href="#c" transform="scale(1 -1) translate(0 -1049.5) translate(9290.9) translate(11242.5)"/><g><use data-c="29" xlink:href="#f" transform="scale(1 -1) translate(0 -1049.5) translate(9290.9) translate(11814.5)"/><use data-c="32" xlink:href="#m" transform="scale(1 -1) translate(0 -1049.5) translate(9290.9) translate(11814.5) translate(422 413)scale(.707)"/></g><use data-c="2B" xlink:href="#d" transform="scale(1 -1) translate(0 -1049.5) translate(9290.9) translate(12862.3)"/><use data-c="22EF" xlink:href="#n" transform="scale(1 -1) translate(0 -1049.5) translate(9290.9) translate(13862.5)"/><g data-mjx-texclass="CLOSE"><use data-c="5D" xlink:href="#o" transform="scale(1 -1) translate(0 -1049.5) translate(9290.9) translate(15034.5) translate(0 -.5)"/></g><use data-c="2E" xlink:href="#r" transform="scale(1 -1) translate(0 -1049.5) translate(9290.9) translate(15506.5)"/></g></g></g></g></svg>