<svg style="vertical-align:-.566ex" xmlns="http://www.w3.org/2000/svg" width="84.162ex" height="2.583ex" viewBox="0 -891.7 37199.8 1141.7" xmlns:xlink="http://www.w3.org/1999/xlink"><defs><path id="a" d="M94 250q0 69 10 131t23 107 37 88 38 67 42 52 33 34 25 21h17q14 0 14-9 0-3-17-21t-41-53-49-86-42-138-17-193 17-192 41-139 49-86 42-53 17-21q0-9-15-9h-16l-28 24q-94 85-137 212T94 250"/><path id="b" d="M52 289q7 42 54 97t116 56q35 0 64-18t43-45q42 63 101 63 37 0 64-22t28-59q0-29-14-47t-27-22-23-4q-19 0-31 11t-12 29q0 46 50 63-11 13-40 13-13 0-19-2-38-16-56-66-60-221-60-258 0-28 16-40t35-12q37 0 73 33t49 81q3 10 6 11t16 2h4q15 0 15-8 0-1-2-11-16-57-62-101T333-11q-70 0-106 63-41-62-94-62h-6q-49 0-70 26T35 71q0 32 19 52t45 20q43 0 43-42 0-20-12-35t-23-20-13-5l-3-1q0-1 6-4t16-7 19-3q36 0 62 45 9 16 23 68t28 108 16 66q5 27 5 39 0 28-15 40t-34 12q-40 0-75-32t-49-82q-2-9-5-10t-16-2H58q-6 6-6 11"/><path id="c" d="M56 237v13l14 20h299v150l1 150q10 13 19 13 13 0 20-15V270h298q15-8 15-20t-15-20H409V-68q-8-14-18-14h-4q-12 0-18 14v298H70q-14 7-14 20Z"/><path id="d" d="M51 0q-5 4-5 7 0 2 169 350t173 352q3 7 28 7 23 0 28-7 3-4 172-352T786 7q0-3-5-7zm456 344L384 596 137 92l246-1h247q0 2-123 253"/><path id="e" d="m60 749 4 1h22l28-24q94-85 137-212t43-264q0-68-10-131T261 12t-37-88-38-67-41-51-32-33-23-19l-4-4H63q-3 0-5 3t-3 9q1 1 11 13Q221-64 221 250T66 725q-10 12-11 13 0 8 5 11"/><path id="f" d="M42 313q0 163 81 258t180 95q69 0 99-36t30-80q0-25-14-40t-39-15q-23 0-38 14t-15 39q0 44 47 53-22 22-62 25-71 0-117-60-47-66-47-202l1-4q5 6 8 13 41 60 107 60h4q46 0 81-19 24-14 48-40t39-57q21-49 21-107v-18q0-23-5-43-11-59-64-115T253-22q-28 0-54 8t-56 30-51 59-36 97-14 141m215 84q-30 0-52-17t-34-45-17-57-6-62q0-83 12-119t38-58q24-18 53-18 51 0 78 38 13 18 18 45t5 105q0 80-5 107t-18 45q-27 36-72 36"/><path id="g" d="M56 347q0 13 14 20h637q15-8 15-20 0-11-14-19l-318-1H72q-16 5-16 20m0-194q0 15 16 20h636q14-10 14-20 0-13-15-20H70q-14 7-14 20"/><path id="h" d="M164 157q0-24-16-40t-39-16h-7q46-79 122-79 70 0 102 60 19 33 19 128 0 103-27 139-26 33-58 33h-6q-78 0-118-68-4-7-7-8t-15-2q-17 0-19 6-2 4-2 175v129q0 50 5 50 2 2 4 2 1 0 21-8t55-16 75-8q71 0 136 28 8 4 13 4 8 0 8-18v-13q-82-97-205-97-31 0-56 6l-10 2V374q19 14 30 22t36 16 51 8q81 0 137-65t56-154q0-92-64-157T229-22q-81 0-130 54T50 154q0 24 11 38t23 18 23 4q25 0 41-17t16-40"/><path id="i" d="m213 578-13-5q-14-5-40-10t-58-7H83v46h19q47 2 87 15t56 24 28 22q2 3 12 3 9 0 17-6V361l1-300q7-7 12-9t24-4 62-2h26V0h-11q-21 3-159 3-136 0-157-3H88v46h64q16 0 25 1t16 3 8 2 6 5 6 4z"/><path id="j" d="M462 0q-18 3-129 3-116 0-134-3h-9v46h58q7 0 17 2t14 5 7 8q1 2 1 54v50H28v46l151 231q153 232 155 233 2 2 21 2h18l6-6V211h92v-46h-92V66q0-7 6-12 8-7 57-8h29V0zM293 211v334L74 212l109-1z"/><path id="k" d="M109 429q-27 0-43 18t-16 44q0 71 53 123t132 52q91 0 152-56t62-145q0-43-20-82t-48-68-80-74q-36-31-100-92l-59-56 76-1q157 0 167 5 7 2 24 89v3h40v-3q-1-3-13-91T421 3V0H50v31q0 7 6 15t30 35q29 32 50 56 9 10 34 37t34 37 29 33 28 34 23 30 21 32 15 29 13 32 7 30 3 33q0 63-34 109t-97 46q-33 0-58-17t-35-33-10-19q0-1 5-1 18 0 37-14t19-46q0-25-16-42t-45-18"/><path id="l" d="M96 585q56 81 153 81 48 0 96-26t78-92q37-83 37-228 0-155-43-237-20-42-55-67t-61-31-51-7q-26 0-52 6t-61 32-55 67q-43 82-43 237 0 174 57 265m225 12q-30 32-71 32-42 0-72-32-25-26-33-72t-8-192q0-158 8-208t36-79q28-30 69-30 40 0 68 30 29 30 36 84t8 203q0 145-8 191t-33 73"/><path id="m" d="M127 463q-27 0-42 17t-16 44q0 55 48 98t116 43q35 0 44-1 74-12 113-53t40-89q0-52-34-101t-94-71l-3-2q0-1 9-3t29-9 38-21q82-53 82-140 0-79-62-138T238-22q-80 0-138 43T42 130q0 28 18 45t45 18q28 0 46-18t18-45q0-11-3-20t-7-16-11-12-12-8-10-4-8-3l-4-1q51-45 124-45 55 0 83 53 17 33 17 101v20q0 95-64 127-15 6-61 7l-42 1-3 2q-2 3-2 16 0 18 8 18 28 0 58 5 34 5 62 42t28 112v8q0 57-35 79-22 14-47 14-32 0-59-11t-38-23-11-12h3q3-1 8-2t10-5 12-7 10-11 8-15 3-20q0-22-14-39t-45-18"/></defs><g stroke="currentColor" fill="currentColor" stroke-width="0"><use data-c="28" xlink:href="#a" transform="scale(1 -1)"/><use data-c="1D465" xlink:href="#b" transform="scale(1 -1) translate(389)"/><use data-c="2B" xlink:href="#c" transform="scale(1 -1) translate(1183.2)"/><use data-c="394" xlink:href="#d" transform="scale(1 -1) translate(2183.4)"/><use data-c="1D465" xlink:href="#b" transform="scale(1 -1) translate(3016.4)"/><g><use data-c="29" xlink:href="#e" transform="scale(1 -1) translate(3588.4)"/><use data-c="36" xlink:href="#f" transform="scale(1 -1) translate(3588.4) translate(422 413)scale(.707)"/></g><use data-c="3D" xlink:href="#g" transform="scale(1 -1) translate(4691.8)"/><g><use data-c="1D465" xlink:href="#b" transform="scale(1 -1) translate(5747.6)"/><use data-c="36" xlink:href="#f" transform="scale(1 -1) translate(5747.6) translate(605 413)scale(.707)"/></g><use data-c="2B" xlink:href="#c" transform="scale(1 -1) translate(6978.3)"/><use data-c="36" xlink:href="#f" transform="scale(1 -1) translate(7978.6)"/><g><use data-c="1D465" xlink:href="#b" transform="scale(1 -1) translate(8478.6)"/><use data-c="35" xlink:href="#h" transform="scale(1 -1) translate(8478.6) translate(605 413)scale(.707)"/></g><use data-c="394" xlink:href="#d" transform="scale(1 -1) translate(9487.1)"/><use data-c="1D465" xlink:href="#b" transform="scale(1 -1) translate(10320.1)"/><use data-c="2B" xlink:href="#c" transform="scale(1 -1) translate(11114.3)"/><g transform="scale(1 -1) translate(12114.5)"><use data-c="31" xlink:href="#i"/><use data-c="35" xlink:href="#h" transform="translate(500)"/></g><g><use data-c="1D465" xlink:href="#b" transform="scale(1 -1) translate(13114.5)"/><use data-c="34" xlink:href="#j" transform="scale(1 -1) translate(13114.5) translate(605 413)scale(.707)"/></g><use data-c="28" xlink:href="#a" transform="scale(1 -1) translate(14123.1)"/><use data-c="394" xlink:href="#d" transform="scale(1 -1) translate(14512.1)"/><use data-c="1D465" xlink:href="#b" transform="scale(1 -1) translate(15345.1)"/><g><use data-c="29" xlink:href="#e" transform="scale(1 -1) translate(15917.1)"/><use data-c="32" xlink:href="#k" transform="scale(1 -1) translate(15917.1) translate(422 413)scale(.707)"/></g><use data-c="2B" xlink:href="#c" transform="scale(1 -1) translate(16964.9)"/><g transform="scale(1 -1) translate(17965.1)"><use data-c="32" xlink:href="#k"/><use data-c="30" xlink:href="#l" transform="translate(500)"/></g><g><use data-c="1D465" xlink:href="#b" transform="scale(1 -1) translate(18965.1)"/><use data-c="33" xlink:href="#m" transform="scale(1 -1) translate(18965.1) translate(605 413)scale(.707)"/></g><use data-c="28" xlink:href="#a" transform="scale(1 -1) translate(19973.7)"/><use data-c="394" xlink:href="#d" transform="scale(1 -1) translate(20362.7)"/><use data-c="1D465" xlink:href="#b" transform="scale(1 -1) translate(21195.7)"/><g><use data-c="29" xlink:href="#e" transform="scale(1 -1) translate(21767.7)"/><use data-c="33" xlink:href="#m" transform="scale(1 -1) translate(21767.7) translate(422 413)scale(.707)"/></g><use data-c="2B" xlink:href="#c" transform="scale(1 -1) translate(22815.4)"/><g transform="scale(1 -1) translate(23815.7)"><use data-c="31" xlink:href="#i"/><use data-c="35" xlink:href="#h" transform="translate(500)"/></g><g><use data-c="1D465" xlink:href="#b" transform="scale(1 -1) translate(24815.7)"/><use data-c="32" xlink:href="#k" transform="scale(1 -1) translate(24815.7) translate(605 413)scale(.707)"/></g><use data-c="28" xlink:href="#a" transform="scale(1 -1) translate(25824.2)"/><use data-c="394" xlink:href="#d" transform="scale(1 -1) translate(26213.2)"/><use data-c="1D465" xlink:href="#b" transform="scale(1 -1) translate(27046.2)"/><g><use data-c="29" xlink:href="#e" transform="scale(1 -1) translate(27618.2)"/><use data-c="34" xlink:href="#j" transform="scale(1 -1) translate(27618.2) translate(422 413)scale(.707)"/></g><use data-c="2B" xlink:href="#c" transform="scale(1 -1) translate(28666)"/><use data-c="36" xlink:href="#f" transform="scale(1 -1) translate(29666.2)"/><use data-c="1D465" xlink:href="#b" transform="scale(1 -1) translate(30166.2)"/><use data-c="28" xlink:href="#a" transform="scale(1 -1) translate(30738.2)"/><use data-c="394" xlink:href="#d" transform="scale(1 -1) translate(31127.2)"/><use data-c="1D465" xlink:href="#b" transform="scale(1 -1) translate(31960.2)"/><g><use data-c="29" xlink:href="#e" transform="scale(1 -1) translate(32532.2)"/><use data-c="35" xlink:href="#h" transform="scale(1 -1) translate(32532.2) translate(422 413)scale(.707)"/></g><use data-c="2B" xlink:href="#c" transform="scale(1 -1) translate(33580)"/><use data-c="28" xlink:href="#a" transform="scale(1 -1) translate(34580.2)"/><use data-c="394" xlink:href="#d" transform="scale(1 -1) translate(34969.2)"/><use data-c="1D465" xlink:href="#b" transform="scale(1 -1) translate(35802.2)"/><g><use data-c="29" xlink:href="#e" transform="scale(1 -1) translate(36374.2)"/><use data-c="36" xlink:href="#f" transform="scale(1 -1) translate(36374.2) translate(422 413)scale(.707)"/></g></g></svg>