<svg style="vertical-align:-3.059ex" xmlns="http://www.w3.org/2000/svg" width="41.569ex" height="7.061ex" viewBox="0 -1769.1 18373.3 3121.1" xmlns:xlink="http://www.w3.org/1999/xlink"><defs><path id="a" d="M60 948q3 2 605 2h602l58-135q59-138 63-146h-40l-7 14q-21 41-56 78-50 48-111 77t-141 43-151 17-183 4H251l8-11q463-633 465-639 1-2 0-6-3-3-264-302L196-356q0-1 211-1h141q89 0 128-1 136 0 220 5t167 21 141 49 103 87q21 26 41 72h40q0-1-7-21t-25-65-31-84l-58-155-601-1q-602 0-605 2-6 2-6 9 0 2 2 6l533 610q0 1-33 45T452 366 322 544L56 909l-1 15q0 21 5 24"/><path id="b" d="M121 647q0 10 4 23t12 13q1 0 72 5t73 6q12 0 12-8 0-7-50-209-50-198-50-205 19 10 29 19 24 18 69 63t70 61q40 27 76 27 30 0 47-19t18-54q0-25-7-42t-19-25-21-11-18-3q-20 0-32 11t-12 29q0 25 16 41t32 21l16 3q-12 12-24 12h-4q-32-3-63-25t-73-64-66-61q2-1 15-3t24-6 26-8 27-14 22-18 17-26 6-33q0-17-5-41t-6-40q0-40 27-40 48 0 78 119 2 8 20 8h4q16 0 16-9 0-5-3-14Q455-11 378-11q-45 0-73 26t-28 75q0 18 3 31t3 24q0 22-14 38t-35 23-34 11-18 3h-2q-12-42-21-81t-14-58-9-37-7-24-7-13-11-9q-13-9-28-9-17 0-26 10t-9 17q0 10 37 160t73 295l37 145q1 13-7 16t-39 5h-18q-3 0-7 3t-3 7"/><path id="c" d="M56 347q0 13 14 20h637q15-8 15-20 0-11-14-19l-318-1H72q-16 5-16 20m0-194q0 15 16 20h636q14-10 14-20 0-13-15-20H70q-14 7-14 20"/><path id="d" d="M297 596q0 31 21 48t43 17q17 0 28-10t14-28q0-28-19-47t-44-19q-18 0-30 10t-13 29m-9-220q0 29-26 29-22 0-42-12t-35-31-24-37-17-32l-7-14q-2-1-16-1h-14q-6 6-6 8t4 13q21 49 59 92t88 50h8q7 0 12 1 24-1 44-10 25-14 38-31t13-53v-16l-49-199Q267-67 264-75q-18-50-70-89T75-204q-50 0-68 21t-19 46q0 27 19 46t46 20q17 0 29-10t13-31q0-36-32-55 6-1 14-1 34 0 62 28t43 66l11 42q11 43 26 104t32 125 27 111 11 57q0 7-1 11"/><path id="e" d="M56 237v13l14 20h299v150l1 150q10 13 19 13 13 0 20-15V270h298q15-8 15-20t-15-20H409V-68q-8-14-18-14h-4q-12 0-18 14v298H70q-14 7-14 20Z"/><path id="f" d="m213 578-13-5q-14-5-40-10t-58-7H83v46h19q47 2 87 15t56 24 28 22q2 3 12 3 9 0 17-6V361l1-300q7-7 12-9t24-4 62-2h26V0h-11q-21 3-159 3-136 0-157-3H88v46h64q16 0 25 1t16 3 8 2 6 5 6 4z"/><path id="g" d="M23 287q1 3 2 8t5 22 10 31 15 33 20 30 26 22 33 9q75 0 96-64l10 9q62 55 118 55 65 0 102-47t37-114q0-108-76-199T249-10q-22 0-39 6-11 5-23 15t-19 17l-7 8q-1-1-22-87t-21-87q0-6 8-7t37-3h25q6-7 6-9t-3-18q-3-12-6-15t-13-4h-11q-9 0-34 1t-62 1q-70 0-89-2h-8q-7 7-7 11 2 27 13 35h20q34 1 39 12 3 6 61 239t61 247q1 5 1 14 0 41-25 41-22 0-37-28t-23-61-12-36q-2-2-16-2H29q-6 6-6 9m155-185q22-76 74-76 30 0 58 23t46 58q18 34 36 108t19 110v6q0 74-61 74-11 0-22-3t-22-9-20-13-17-15-15-15-11-14-8-10l-3-4q0-1-3-14t-11-44-14-52q-26-106-26-110"/><path id="h" d="M33 157q0 101 76 192t171 92q51 0 90-49 16 30 46 30 13 0 23-8t10-20q0-13-37-160T374 68q0-25 7-33t21-9q9 1 20 9 21 20 41 96 6 20 10 21 2 1 10 1h4q19 0 19-9 0-6-5-27t-20-54-32-50Q436 0 417-8q-8-2-24-2-34 0-57 15t-30 31l-6 15q-1 1-4-1l-4-4q-59-56-120-56-55 0-97 40T33 157m318 171q0 6-5 22t-23 35-46 20q-35 0-67-31t-50-81q-29-79-41-164v-11q0-8-1-12 0-45 18-62t43-18q38 0 75 33t44 51q2 4 27 107t26 111"/><path id="i" d="M78 35v25l16 43 43 18q28 0 50-25t23-88q0-35-9-68t-21-57-26-41-24-27-13-9q-4 0-13 9t-9 13 11 16 25 30 26 50 16 73V9l-1-1q-2-1-5-2t-6-3-9-2-12-1q-27 0-44 17Z"/><path id="j" d="M701-940q0-3-6-9h-31q-2 2-28 27t-45 43-54 61-62 81-63 101-62 125-55 149-45 176-29 203-12 234q0 711 364 1110 23 25 43 44t33 32 15 13h31q6-6 6-9 0-5-20-26t-52-59-72-95-81-143-76-191-60-252-32-316q-2-38-2-109 0-389 94-680t290-494q11-12 11-16"/><path id="k" d="M34 1438q0 8 3 10t13 2h21q2-2 28-27t45-43 54-61 62-81 63-101 62-124 55-149 45-176 29-203 12-234q0-117-7-198-47-572-357-913-23-25-43-44t-33-32-15-13H56q-13 0-17 2t-5 10q54 54 106 124Q428-430 428 251q0 202-26 377t-64 294-93 224-100 163-99 116l-4 4q-2 2-3 4t-3 3z"/><path id="l" d="M273 0q-18 3-127 3Q43 3 34 0h-8v46h16q28 0 49 3 8 3 12 11 1 2 1 164v161H33v46h71v66l1 67 2 10q19 65 64 94t95 36h9q8 0 14 1 41-3 62-26t21-52q0-23-14-37t-37-14-37 14-14 37q0 20 18 40h-4q-4 1-11 1-28 0-50-21t-34-55q-6-20-7-95v-66h111v-46H185V225q0-162 1-164t3-4 5-3 5-3 7-2 7-1 9-1 9 0 10-1 10 0h31V0z"/><path id="m" d="M28 214q0 95 65 164t157 70q90 0 155-68t66-165q0-95-64-160T250-10q-97 0-159 67T28 214M250 30q122 0 122 163v57q0 22-1 38t-7 38-16 36-31 28-49 20q-5 1-16 1-30 0-57-12-43-22-56-61t-13-92v-20q0-96 19-135 32-61 105-61"/><path id="n" d="M36 46h14q39 0 47 14v31q0 14 1 31t0 39 0 42v125l-1 23q-3 19-14 25t-45 9H20v23q0 23 2 23l10 1q10 1 28 2t36 2q16 1 35 2t29 3 11 1h3v-69q39 68 97 68h6q45 0 66-22t21-46q0-21-13-36t-38-15-37 16-13 34q0 9 2 16t5 12 3 5q-2 2-23-4-16-8-24-15-47-45-47-179V101q0-12 1-20t0-15v-5q1-2 3-4t5-3 5-3 7-2 7-1 9-1 9 0 10-1 10 0h31V0h-9q-18 3-127 3Q37 3 28 0h-8v46z"/><path id="o" d="M96 585q56 81 153 81 48 0 96-26t78-92q37-83 37-228 0-155-43-237-20-42-55-67t-61-31-51-7q-26 0-52 6t-61 32-55 67q-43 82-43 237 0 174 57 265m225 12q-30 32-71 32-42 0-72-32-25-26-33-72t-8-192q0-158 8-208t36-79q28-30 69-30 40 0 68 30 29 30 36 84t8 203q0 145-8 191t-33 73"/><path id="p" d="M78 60q0 24 17 42t43 18q24 0 42-16t19-43q0-25-17-43T139 0 96 17 78 60m447 0q0 24 17 42t43 18q24 0 42-16t19-43q0-25-17-43T586 0t-43 17-18 43m447 0q0 24 17 42t43 18q24 0 42-16t19-43q0-25-17-43t-43-18-43 17-18 43"/><path id="q" d="M78 60q0 24 17 42t43 18q24 0 42-16t19-43q0-25-17-43T139 0 96 17 78 60"/></defs><g stroke="currentColor" fill="currentColor" stroke-width="0"><g><use data-c="2211" xlink:href="#a" transform="scale(1 -1) translate(334.8)"/><g data-mjx-texclass="ORD"><use data-c="1D458" xlink:href="#b" transform="scale(1 -1) translate(0 -1107.7)scale(.707)"/><use data-c="3D" xlink:href="#c" transform="scale(1 -1) translate(0 -1107.7)scale(.707) translate(521)"/><use data-c="1D457" xlink:href="#d" transform="scale(1 -1) translate(0 -1107.7)scale(.707) translate(1299)"/><use data-c="2B" xlink:href="#e" transform="scale(1 -1) translate(0 -1107.7)scale(.707) translate(1711)"/><use data-c="31" xlink:href="#f" transform="scale(1 -1) translate(0 -1107.7)scale(.707) translate(2489)"/></g><g data-mjx-texclass="ORD"><use data-c="1D45D" xlink:href="#g" transform="scale(1 -1) translate(427.1 1198.2)scale(.707)"/><use data-c="2B" xlink:href="#e" transform="scale(1 -1) translate(427.1 1198.2)scale(.707) translate(503)"/><use data-c="31" xlink:href="#f" transform="scale(1 -1) translate(427.1 1198.2)scale(.707) translate(1281)"/></g></g><g><use data-c="1D44E" xlink:href="#h" transform="scale(1 -1) translate(2280.2)"/><g data-mjx-texclass="ORD"><use data-c="1D45D" xlink:href="#g" transform="scale(1 -1) translate(2280.2) translate(562 -150)scale(.707)"/><use data-c="2C" xlink:href="#i" transform="scale(1 -1) translate(2280.2) translate(562 -150)scale(.707) translate(503)"/><use data-c="1D458" xlink:href="#b" transform="scale(1 -1) translate(2280.2) translate(562 -150)scale(.707) translate(781)"/></g></g><g><g data-mjx-texclass="OPEN"><use data-c="28" xlink:href="#j" transform="scale(1 -1) translate(3979.9) translate(0 -.5)"/></g><g><use data-c="1D458" xlink:href="#b" transform="scale(1 -1) translate(3979.9) translate(736) translate(0 676)"/><use data-c="1D457" xlink:href="#d" transform="scale(1 -1) translate(3979.9) translate(736) translate(54.5 -686)"/></g><g data-mjx-texclass="CLOSE"><use data-c="29" xlink:href="#k" transform="scale(1 -1) translate(3979.9) translate(1257) translate(0 -.5)"/></g></g><use data-c="3D" xlink:href="#c" transform="scale(1 -1) translate(6250.6)"/><g><g data-mjx-texclass="OPEN"><use data-c="28" xlink:href="#j" transform="scale(1 -1) translate(7306.4) translate(0 -.5)"/></g><g><use data-c="1D45D" xlink:href="#g" transform="scale(1 -1) translate(7306.4) translate(736) translate(0 676)"/><use data-c="1D457" xlink:href="#d" transform="scale(1 -1) translate(7306.4) translate(736) translate(45.5 -686)"/></g><g data-mjx-texclass="CLOSE"><use data-c="29" xlink:href="#k" transform="scale(1 -1) translate(7306.4) translate(1239) translate(0 -.5)"/></g></g><use data-c="2C" xlink:href="#i" transform="scale(1 -1) translate(9281.4)"/><g transform="scale(1 -1) translate(10726.1)"><use data-c="66" xlink:href="#l"/><use data-c="6F" xlink:href="#m" transform="translate(306)"/><use data-c="72" xlink:href="#n" transform="translate(806)"/></g><use data-c="1D457" xlink:href="#d" transform="scale(1 -1) translate(12174.1)"/><use data-c="3D" xlink:href="#c" transform="scale(1 -1) translate(12863.9)"/><use data-c="30" xlink:href="#o" transform="scale(1 -1) translate(13919.6)"/><use data-c="2C" xlink:href="#i" transform="scale(1 -1) translate(14419.6)"/><use data-c="31" xlink:href="#f" transform="scale(1 -1) translate(14864.3)"/><use data-c="2C" xlink:href="#i" transform="scale(1 -1) translate(15364.3)"/><use data-c="2026" xlink:href="#p" transform="scale(1 -1) translate(15809)"/><use data-c="2C" xlink:href="#i" transform="scale(1 -1) translate(17147.6)"/><use data-c="1D45D" xlink:href="#g" transform="scale(1 -1) translate(17592.3)"/><use data-c="2E" xlink:href="#q" transform="scale(1 -1) translate(18095.3)"/></g></svg>