<svg style="vertical-align:-.462ex" xmlns="http://www.w3.org/2000/svg" width="5.08ex" height="1.968ex" viewBox="0 -666 2245.6 870" xmlns:xlink="http://www.w3.org/1999/xlink"><defs><path id="a" d="M297 596q0 31 21 48t43 17q17 0 28-10t14-28q0-28-19-47t-44-19q-18 0-30 10t-13 29m-9-220q0 29-26 29-22 0-42-12t-35-31-24-37-17-32l-7-14q-2-1-16-1h-14q-6 6-6 8t4 13q21 49 59 92t88 50h8q7 0 12 1 24-1 44-10 25-14 38-31t13-53v-16l-49-199Q267-67 264-75q-18-50-70-89T75-204q-50 0-68 21t-19 46q0 27 19 46t46 20q17 0 29-10t13-31q0-36-32-55 6-1 14-1 34 0 62 28t43 66l11 42q11 43 26 104t32 125 27 111 11 57q0 7-1 11"/><path id="b" d="M56 347q0 13 14 20h637q15-8 15-20 0-11-14-19l-318-1H72q-16 5-16 20m0-194q0 15 16 20h636q14-10 14-20 0-13-15-20H70q-14 7-14 20"/><path id="c" d="M96 585q56 81 153 81 48 0 96-26t78-92q37-83 37-228 0-155-43-237-20-42-55-67t-61-31-51-7q-26 0-52 6t-61 32-55 67q-43 82-43 237 0 174 57 265m225 12q-30 32-71 32-42 0-72-32-25-26-33-72t-8-192q0-158 8-208t36-79q28-30 69-30 40 0 68 30 29 30 36 84t8 203q0 145-8 191t-33 73"/></defs><g stroke="currentColor" fill="currentColor" stroke-width="0"><use data-c="1D457" xlink:href="#a" transform="scale(1 -1)"/><use data-c="3D" xlink:href="#b" transform="scale(1 -1) translate(689.8)"/><use data-c="30" xlink:href="#c" transform="scale(1 -1) translate(1745.6)"/></g></svg>