<svg style="vertical-align:-.025ex" xmlns="http://www.w3.org/2000/svg" width=".971ex" height="1.595ex" viewBox="0 -694 429 705" xmlns:xlink="http://www.w3.org/1999/xlink"><defs><path id="a" d="M73 647q0 10 4 23t12 13q1 0 72 5t73 6q12 0 12-9t-34-143q-8-34-17-70t-15-54l-4-19q0-3 6 3 49 40 101 40 62 0 100-46t39-116q0-111-79-201T173-11q-50 0-91 38T40 150v9q0 21 8 58t49 197q50 197 50 209t-38 14H83q-3 0-7 3t-3 7m263-322v6q0 74-61 74-17 0-35-8t-33-21-26-24-18-22l-6-8-21-86q-22-86-22-122 0-48 24-72 16-16 40-16 33 0 67 32 25 23 40 56t33 105 18 106"/></defs><g stroke="currentColor" fill="currentColor" stroke-width="0"><use data-c="1D44F" xlink:href="#a" transform="scale(1 -1)"/></g></svg>