<svg style="vertical-align:-9.396ex" xmlns="http://www.w3.org/2000/svg" width="49.381ex" height="19.923ex" viewBox="0 -4653 21826.2 8806" xmlns:xlink="http://www.w3.org/1999/xlink"><defs><path id="a" d="M370 305h-21l-36 15-16 38q0 23 15 38 5 5 5 6t-10 2q-26 4-49 4-49 0-80-32-47-47-47-157 0-82 31-129 41-61 110-61 41 0 66 26t36 62q2 8 5 10t16 2h14q6-6 6-9 0-4-4-16t-16-33-29-38-48-31-69-13q-86 0-150 64T34 214q0 104 65 169t151 65 120-27 34-64q0-23-17-37Z"/><path id="b" d="M295 316q0 40-27 69t-78 29q-36 0-62-13-30-19-30-52-1-5 0-13t16-24 43-25q18-5 44-9t44-9 32-13q17-8 33-20t32-41 17-62q0-62-38-102T198-10h-8q-52 0-96 36l-8-7-9-9Q71 4 65-1L54-11H42q-3 0-9 6v137q0 21 2 25t10 5h9q12 0 16-4t5-12 7-27 19-42q35-51 97-51 97 0 97 78 0 29-18 47-20 24-83 36t-83 23q-36 17-57 46t-21 62q0 39 17 66t43 40 50 18 44 5h11q40 0 70-15l15-8 9 7q10 9 22 17h12q3 0 9-6V310l-6-6h-28q-6 6-6 12"/><path id="c" d="M94 250q0 69 10 131t23 107 37 88 38 67 42 52 33 34 25 21h17q14 0 14-9 0-3-17-21t-41-53-49-86-42-138-17-193 17-192 41-139 49-86 42-53 17-21q0-9-15-9h-16l-28 24q-94 85-137 212T94 250"/><path id="d" d="M52 289q7 42 54 97t116 56q35 0 64-18t43-45q42 63 101 63 37 0 64-22t28-59q0-29-14-47t-27-22-23-4q-19 0-31 11t-12 29q0 46 50 63-11 13-40 13-13 0-19-2-38-16-56-66-60-221-60-258 0-28 16-40t35-12q37 0 73 33t49 81q3 10 6 11t16 2h4q15 0 15-8 0-1-2-11-16-57-62-101T333-11q-70 0-106 63-41-62-94-62h-6q-49 0-70 26T35 71q0 32 19 52t45 20q43 0 43-42 0-20-12-35t-23-20-13-5l-3-1q0-1 6-4t16-7 19-3q36 0 62 45 9 16 23 68t28 108 16 66q5 27 5 39 0 28-15 40t-34 12q-40 0-75-32t-49-82q-2-9-5-10t-16-2H58q-6 6-6 11"/><path id="e" d="M56 237v13l14 20h299v150l1 150q10 13 19 13 13 0 20-15V270h298q15-8 15-20t-15-20H409V-68q-8-14-18-14h-4q-12 0-18 14v298H70q-14 7-14 20Z"/><path id="f" d="M137 683q1 0 72 5t73 6q12 0 12-9 0-11-36-151-38-148-38-151 0-2 7 5 61 54 130 54 54 0 87-27t34-79q0-51-38-158T402 50q1-14 5-19t15-5q28 0 52 30t39 82q3 11 6 13t16 2q20 0 20-8 0-1-4-15-16-59-51-97-34-43-81-43h-5q-47 0-68 27t-21 57q0 16 36 118t37 153q0 59-44 59h-5q-83 0-144-98l-7-13-34-135Q132 28 127 16q-13-27-44-27-14 0-24 9T48 16q0 14 73 304l74 296q0 13-7 16t-39 5h-21q-6 6-6 8t2 19q5 19 13 19"/><path id="g" d="m60 749 4 1h22l28-24q94-85 137-212t43-264q0-68-10-131T261 12t-37-88-38-67-41-51-32-33-23-19l-4-4H63q-3 0-5 3t-3 9q1 1 11 13Q221-64 221 250T66 725q-10 12-11 13 0 8 5 11"/><path id="h" d="M56 347q0 13 14 20h637q15-8 15-20 0-11-14-19l-318-1H72q-16 5-16 20m0-194q0 15 16 20h636q14-10 14-20 0-13-15-20H70q-14 7-14 20"/><path id="i" d="m213 578-13-5q-14-5-40-10t-58-7H83v46h19q47 2 87 15t56 24 28 22q2 3 12 3 9 0 17-6V361l1-300q7-7 12-9t24-4 62-2h26V0h-11q-21 3-159 3-136 0-157-3H88v46h64q16 0 25 1t16 3 8 2 6 5 6 4z"/><path id="j" d="M69 609q0 28 18 44t44 16q23-2 40-17t17-43q0-30-17-45t-42-15-42 15-18 45M247 0q-15 3-104 3h-37Q80 3 56 1L34 0h-8v46h16q28 0 49 3 9 4 11 11t2 42v191q0 52-2 66t-14 19q-14 7-47 7H30v23q0 23 2 23l10 1q10 1 28 2t36 2q17 1 36 2t29 3 11 1h3V62q5-10 12-12t35-4h23V0z"/><path id="k" d="M41 46h14q39 0 47 14v62q0 17 1 39t0 42v66q0 35-1 59v23q-3 19-14 25t-45 9H25v23q0 23 2 23l10 1q10 1 28 2t37 2q17 1 36 2t29 3 11 1h3v-40q0-38 1-38t5 5 12 15 19 18 29 19 38 16 51 5q114-4 127-113 1-7 1-139v-86q0-38 2-45t11-10q21-3 49-3h16V0h-8l-24 1q-23 1-50 1t-38 1Q319 3 310 0h-8v46h16q61 0 61 16 1 2 1 138-1 135-2 143-6 28-20 42t-24 17-26 2q-45 0-79-34-27-27-34-55t-8-83V108q0-30 1-40t3-13 9-6q21-3 49-3h16V0h-8l-23 1q-24 1-51 1t-38 1Q42 3 33 0h-8v46z"/><path id="l" d="M23 411q0 26 18 43t43 17q24 0 41-17t18-43-17-43-43-17q-26 0-43 17t-17 43m500 0q0 26 18 43t43 17q24 0 41-17t18-43-17-43-43-17q-26 0-43 17t-17 43M274-22q0 26 17 43t43 17q22 0 40-16t18-44-17-43-42-17q-26 0-42 17t-17 43"/><path id="m" d="M28 214q0 95 65 164t157 70q90 0 155-68t66-165q0-95-64-160T250-10q-97 0-159 67T28 214M250 30q122 0 122 163v57q0 22-1 38t-7 38-16 36-31 28-49 20q-5 1-16 1-30 0-57-12-43-22-56-61t-13-92v-20q0-96 19-135 32-61 105-61"/><path id="n" d="M273 411q0 26 18 43t43 17q24 0 41-17t18-43-17-43-43-17q-26 0-43 17t-17 43M84 38q26 0 42-17t17-43q0-24-16-42T83-82q-26 0-42 17T24-22q0 26 17 43t43 17m440-60q0 26 17 43t43 17q24 0 41-17t18-43q0-23-16-41t-44-19q-26 0-42 17t-17 43"/><path id="o" d="M55 319q0 41 17 74t42 51 49 28 42 10h8q6 0 10 1 39 0 73-15t97-55l50-32q59-35 110-35 56 0 96 29t45 79q0 11 4 20t10 9q14 0 14-31 0-66-47-114t-120-49q-41 0-87 21t-80 47-80 47-84 22q-60 0-99-33t-42-75q-2-29-14-29-14 0-14 30m0-234q0 41 17 74t42 51 49 28 42 10h8q6 0 10 1 39 0 73-15t97-55l50-32q59-35 110-35 56 0 96 29t45 79q0 29 14 29t14-32q0-64-47-113T555 55q-41 0-87 21t-80 47-80 47-84 22q-60 0-99-33T83 84q-3-29-14-29-14 0-14 30"/><path id="p" d="M273 0q-18 3-127 3Q43 3 34 0h-8v46h16q28 0 49 3 8 3 12 11 1 2 1 164v161H33v46h71v66l1 67 2 10q19 65 64 94t95 36h9q8 0 14 1 41-3 62-26t21-52q0-23-14-37t-37-14-37 14-14 37q0 20 18 40h-4q-4 1-11 1-28 0-50-21t-34-55q-6-20-7-95v-66h111v-46H185V225q0-162 1-164t3-4 5-3 5-3 7-2 7-1 9-1 9 0 10-1 10 0h31V0z"/><path id="q" d="M36 46h14q39 0 47 14v31q0 14 1 31t0 39 0 42v125l-1 23q-3 19-14 25t-45 9H20v23q0 23 2 23l10 1q10 1 28 2t36 2q16 1 35 2t29 3 11 1h3v-69q39 68 97 68h6q45 0 66-22t21-46q0-21-13-36t-38-15-37 16-13 34q0 9 2 16t5 12 3 5q-2 2-23-4-16-8-24-15-47-45-47-179V101q0-12 1-20t0-15v-5q1-2 3-4t5-3 5-3 7-2 7-1 9-1 9 0 10-1 10 0h31V0h-9q-18 3-127 3Q37 3 28 0h-8v46z"/><path id="r" d="M41 46h14q39 0 47 14v62q0 17 1 39t0 42v66q0 35-1 59v23q-3 19-14 25t-45 9H25v23q0 23 2 23l10 1q10 1 28 2t37 2q17 1 36 2t29 3 11 1h3v-40q0-38 1-38t5 5 12 15 19 18 29 19 38 16 51 5q15 0 28-2t23-6 19-8 15-9 11-11 9-11 7-11 4-10 3-8l2-5 3 4 6 8q3 4 9 11t13 13 15 13 20 12 23 10 26 7 31 3q126 0 137-113 1-7 1-139v-86q0-38 2-45t11-10q21-3 49-3h16V0h-8l-23 1q-24 1-51 1t-38 1Q596 3 587 0h-8v46h16q61 0 61 16 1 2 1 138-1 135-2 143-6 28-20 42t-24 17-26 2q-45 0-79-34-27-27-34-55t-8-83V108q0-30 1-40t3-13 9-6q21-3 49-3h16V0h-8l-24 1q-23 1-50 1t-38 1Q319 3 310 0h-8v46h16q61 0 61 16 1 2 1 138-1 135-2 143-6 28-20 42t-24 17-26 2q-45 0-79-34-27-27-34-55t-8-83V108q0-30 1-40t3-13 9-6q21-3 49-3h16V0h-8l-23 1q-24 1-51 1t-38 1Q42 3 33 0h-8v46z"/><path id="s" d="M137 305h-22l-37 15-15 39q0 35 34 62t121 27q73 0 118-32t60-76q5-14 5-31t1-115v-70q0-48 5-66t21-18q15 0 20 16t5 53v36h40v-39q-1-40-3-47-9-30-35-47T400-6t-47 18-24 42v4l-2-3q-2-3-5-6t-8-9-12-11-15-12-18-11-22-8-26-6-31-3q-60 0-108 31t-48 87q0 21 7 40t27 41 48 37 78 28 110 15h14v22q0 34-6 50-22 71-97 71-18 0-34-1t-25-4-8-3q22-15 22-44 0-25-16-39Zm-11-199q0-31 24-55t59-25q38 0 67 23t39 60q2 7 3 66 0 58-1 58-8 0-21-1t-45-9-58-20-46-37-21-60"/><path id="t" d="M42 46h14q39 0 47 14v64q0 19 1 43t0 50 0 55 0 57v213q0 26-1 44t0 17q-3 19-14 25t-45 9H26v23q0 23 2 23l10 1q10 1 29 2t37 2q17 1 37 2t30 3 11 1h3V379q0-317 1-319 4-8 12-11 21-3 49-3h16V0h-8l-23 1q-23 1-49 1t-38 1-38 0-50-2L34 0h-8v46z"/><path id="u" d="M78 60q0 24 17 42t43 18q24 0 42-16t19-43q0-25-17-43T139 0 96 17 78 60"/></defs><g stroke="currentColor" fill="currentColor" stroke-width="0"><g><g><g><g transform="scale(1 -1) translate(0 3311) translate(1944.8)"><use data-c="63" xlink:href="#a"/><use data-c="73" xlink:href="#b" transform="translate(444)"/><use data-c="63" xlink:href="#a" transform="translate(838)"/></g><use data-c="28" xlink:href="#c" transform="scale(1 -1) translate(0 3311) translate(1944.8) translate(1282)"/><use data-c="1D465" xlink:href="#d" transform="scale(1 -1) translate(0 3311) translate(1944.8) translate(1671)"/><use data-c="2B" xlink:href="#e" transform="scale(1 -1) translate(0 3311) translate(1944.8) translate(2465.2)"/><use data-c="210E" xlink:href="#f" transform="scale(1 -1) translate(0 3311) translate(1944.8) translate(3465.4)"/><use data-c="29" xlink:href="#g" transform="scale(1 -1) translate(0 3311) translate(1944.8) translate(4041.4)"/></g><g><use data-c="3D" xlink:href="#h" transform="scale(1 -1) translate(0 3311) translate(6375.2) translate(277.8)"/><g transform="scale(1 -1) translate(0 3311) translate(6375.2) translate(1333.6)"><use data-c="31" xlink:href="#i" transform="translate(2158.2 676)"/><g><g transform="translate(220 -710)"><use data-c="73" xlink:href="#b"/><use data-c="69" xlink:href="#j" transform="translate(394)"/><use data-c="6E" xlink:href="#k" transform="translate(672)"/></g><use data-c="28" xlink:href="#c" transform="translate(220 -710) translate(1228)"/><use data-c="1D465" xlink:href="#d" transform="translate(220 -710) translate(1617)"/><use data-c="2B" xlink:href="#e" transform="translate(220 -710) translate(2411.2)"/><use data-c="210E" xlink:href="#f" transform="translate(220 -710) translate(3411.4)"/><use data-c="29" xlink:href="#g" transform="translate(220 -710) translate(3987.4)"/></g><path stroke="none" d="M120 220H4696.4V280H120z"/></g></g></g><g><g><use data-c="2235" xlink:href="#l" transform="scale(1 -1) translate(0 1301) translate(1054)"/><g transform="scale(1 -1) translate(0 1301) translate(1054) translate(944.8)"><use data-c="73" xlink:href="#b"/><use data-c="69" xlink:href="#j" transform="translate(394)"/><use data-c="6E" xlink:href="#k" transform="translate(672)"/></g><use data-c="28" xlink:href="#c" transform="scale(1 -1) translate(0 1301) translate(1054) translate(2172.8)"/><use data-c="1D465" xlink:href="#d" transform="scale(1 -1) translate(0 1301) translate(1054) translate(2561.8)"/><use data-c="2B" xlink:href="#e" transform="scale(1 -1) translate(0 1301) translate(1054) translate(3356)"/><use data-c="210E" xlink:href="#f" transform="scale(1 -1) translate(0 1301) translate(1054) translate(4356.2)"/><use data-c="29" xlink:href="#g" transform="scale(1 -1) translate(0 1301) translate(1054) translate(4932.2)"/></g><g><use data-c="3D" xlink:href="#h" transform="scale(1 -1) translate(0 1301) translate(6375.2) translate(277.8)"/><g transform="scale(1 -1) translate(0 1301) translate(6375.2) translate(1333.6)"><use data-c="73" xlink:href="#b"/><use data-c="69" xlink:href="#j" transform="translate(394)"/><use data-c="6E" xlink:href="#k" transform="translate(672)"/></g><use data-c="28" xlink:href="#c" transform="scale(1 -1) translate(0 1301) translate(6375.2) translate(2561.6)"/><use data-c="1D465" xlink:href="#d" transform="scale(1 -1) translate(0 1301) translate(6375.2) translate(2950.6)"/><use data-c="29" xlink:href="#g" transform="scale(1 -1) translate(0 1301) translate(6375.2) translate(3522.6)"/><g transform="scale(1 -1) translate(0 1301) translate(6375.2) translate(4078.2)"><use data-c="63" xlink:href="#a"/><use data-c="6F" xlink:href="#m" transform="translate(444)"/><use data-c="73" xlink:href="#b" transform="translate(944)"/></g><use data-c="28" xlink:href="#c" transform="scale(1 -1) translate(0 1301) translate(6375.2) translate(5416.2)"/><use data-c="210E" xlink:href="#f" transform="scale(1 -1) translate(0 1301) translate(6375.2) translate(5805.2)"/><use data-c="29" xlink:href="#g" transform="scale(1 -1) translate(0 1301) translate(6375.2) translate(6381.2)"/><use data-c="2B" xlink:href="#e" transform="scale(1 -1) translate(0 1301) translate(6375.2) translate(6992.4)"/><g transform="scale(1 -1) translate(0 1301) translate(6375.2) translate(7992.7)"><use data-c="63" xlink:href="#a"/><use data-c="6F" xlink:href="#m" transform="translate(444)"/><use data-c="73" xlink:href="#b" transform="translate(944)"/></g><use data-c="28" xlink:href="#c" transform="scale(1 -1) translate(0 1301) translate(6375.2) translate(9330.7)"/><use data-c="1D465" xlink:href="#d" transform="scale(1 -1) translate(0 1301) translate(6375.2) translate(9719.7)"/><use data-c="29" xlink:href="#g" transform="scale(1 -1) translate(0 1301) translate(6375.2) translate(10291.7)"/><g transform="scale(1 -1) translate(0 1301) translate(6375.2) translate(10847.3)"><use data-c="73" xlink:href="#b"/><use data-c="69" xlink:href="#j" transform="translate(394)"/><use data-c="6E" xlink:href="#k" transform="translate(672)"/></g><use data-c="28" xlink:href="#c" transform="scale(1 -1) translate(0 1301) translate(6375.2) translate(12075.3)"/><use data-c="210E" xlink:href="#f" transform="scale(1 -1) translate(0 1301) translate(6375.2) translate(12464.3)"/><use data-c="29" xlink:href="#g" transform="scale(1 -1) translate(0 1301) translate(6375.2) translate(13040.3)"/></g></g><g><g><use data-c="2234" xlink:href="#n" transform="scale(1 -1) translate(0 -591)"/><g transform="scale(1 -1) translate(0 -591) translate(1944.8)"><use data-c="63" xlink:href="#a"/><use data-c="73" xlink:href="#b" transform="translate(444)"/><use data-c="63" xlink:href="#a" transform="translate(838)"/></g><use data-c="28" xlink:href="#c" transform="scale(1 -1) translate(0 -591) translate(3226.8)"/><use data-c="1D465" xlink:href="#d" transform="scale(1 -1) translate(0 -591) translate(3615.8)"/><use data-c="2B" xlink:href="#e" transform="scale(1 -1) translate(0 -591) translate(4410)"/><use data-c="210E" xlink:href="#f" transform="scale(1 -1) translate(0 -591) translate(5410.2)"/><use data-c="29" xlink:href="#g" transform="scale(1 -1) translate(0 -591) translate(5986.2)"/></g><g><use data-c="3D" xlink:href="#h" transform="scale(1 -1) translate(0 -591) translate(6375.2) translate(277.8)"/><g transform="scale(1 -1) translate(0 -591) translate(6375.2) translate(1333.6)"><use data-c="31" xlink:href="#i" transform="translate(6017.9 676)"/><g><g transform="translate(220 -710)"><use data-c="73" xlink:href="#b"/><use data-c="69" xlink:href="#j" transform="translate(394)"/><use data-c="6E" xlink:href="#k" transform="translate(672)"/></g><use data-c="28" xlink:href="#c" transform="translate(220 -710) translate(1228)"/><use data-c="1D465" xlink:href="#d" transform="translate(220 -710) translate(1617)"/><use data-c="29" xlink:href="#g" transform="translate(220 -710) translate(2189)"/><g transform="translate(220 -710) translate(2744.7)"><use data-c="63" xlink:href="#a"/><use data-c="6F" xlink:href="#m" transform="translate(444)"/><use data-c="73" xlink:href="#b" transform="translate(944)"/></g><use data-c="28" xlink:href="#c" transform="translate(220 -710) translate(4082.7)"/><use data-c="210E" xlink:href="#f" transform="translate(220 -710) translate(4471.7)"/><use data-c="29" xlink:href="#g" transform="translate(220 -710) translate(5047.7)"/><use data-c="2B" xlink:href="#e" transform="translate(220 -710) translate(5658.9)"/><g transform="translate(220 -710) translate(6659.1)"><use data-c="63" xlink:href="#a"/><use data-c="6F" xlink:href="#m" transform="translate(444)"/><use data-c="73" xlink:href="#b" transform="translate(944)"/></g><use data-c="28" xlink:href="#c" transform="translate(220 -710) translate(7997.1)"/><use data-c="1D465" xlink:href="#d" transform="translate(220 -710) translate(8386.1)"/><use data-c="29" xlink:href="#g" transform="translate(220 -710) translate(8958.1)"/><g transform="translate(220 -710) translate(9513.8)"><use data-c="73" xlink:href="#b"/><use data-c="69" xlink:href="#j" transform="translate(394)"/><use data-c="6E" xlink:href="#k" transform="translate(672)"/></g><use data-c="28" xlink:href="#c" transform="translate(220 -710) translate(10741.8)"/><use data-c="210E" xlink:href="#f" transform="translate(220 -710) translate(11130.8)"/><use data-c="29" xlink:href="#g" transform="translate(220 -710) translate(11706.8)"/></g><path stroke="none" d="M120 220H12415.8V280H120z"/></g></g></g><g><g><use data-c="2248" xlink:href="#o" transform="scale(1 -1) translate(0 -3193) translate(6375.2) translate(277.8)"/><g transform="scale(1 -1) translate(0 -3193) translate(6375.2) translate(1333.6)"><use data-c="31" xlink:href="#i" transform="translate(3502.2 676)"/><g><g transform="translate(220 -710)"><use data-c="73" xlink:href="#b"/><use data-c="69" xlink:href="#j" transform="translate(394)"/><use data-c="6E" xlink:href="#k" transform="translate(672)"/></g><use data-c="28" xlink:href="#c" transform="translate(220 -710) translate(1228)"/><use data-c="1D465" xlink:href="#d" transform="translate(220 -710) translate(1617)"/><use data-c="29" xlink:href="#g" transform="translate(220 -710) translate(2189)"/><use data-c="2B" xlink:href="#e" transform="translate(220 -710) translate(2800.2)"/><g transform="translate(220 -710) translate(3800.4)"><use data-c="63" xlink:href="#a"/><use data-c="6F" xlink:href="#m" transform="translate(444)"/><use data-c="73" xlink:href="#b" transform="translate(944)"/></g><use data-c="28" xlink:href="#c" transform="translate(220 -710) translate(5138.4)"/><use data-c="1D465" xlink:href="#d" transform="translate(220 -710) translate(5527.4)"/><use data-c="29" xlink:href="#g" transform="translate(220 -710) translate(6099.4)"/><use data-c="210E" xlink:href="#f" transform="translate(220 -710) translate(6488.4)"/></g><path stroke="none" d="M120 220H7384.4V280H120z"/></g><g transform="scale(1 -1) translate(0 -3193) translate(6375.2) translate(9838)"><use data-c="28" xlink:href="#c"/><use data-c="66" xlink:href="#p" transform="translate(389)"/><use data-c="6F" xlink:href="#m" transform="translate(695)"/><use data-c="72" xlink:href="#q" transform="translate(1195)"/><use data-c="73" xlink:href="#b" transform="translate(1837)"/><use data-c="6D" xlink:href="#r" transform="translate(2231)"/><use data-c="61" xlink:href="#s" transform="translate(3064)"/><use data-c="6C" xlink:href="#t" transform="translate(3564)"/><use data-c="6C" xlink:href="#t" transform="translate(3842)"/></g><use data-c="210E" xlink:href="#f" transform="scale(1 -1) translate(0 -3193) translate(6375.2) translate(14208)"/><use data-c="29" xlink:href="#g" transform="scale(1 -1) translate(0 -3193) translate(6375.2) translate(14784)"/><use data-c="2E" xlink:href="#u" transform="scale(1 -1) translate(0 -3193) translate(6375.2) translate(15173)"/></g></g></g></g></svg>