<svg style="vertical-align:-2.11ex" xmlns="http://www.w3.org/2000/svg" width="45.117ex" height="5.526ex" viewBox="0 -1509.9 19941.8 2442.6" xmlns:xlink="http://www.w3.org/1999/xlink"><defs><path id="a" d="m213 578-13-5q-14-5-40-10t-58-7H83v46h19q47 2 87 15t56 24 28 22q2 3 12 3 9 0 17-6V361l1-300q7-7 12-9t24-4 62-2h26V0h-11q-21 3-159 3-136 0-157-3H88v46h64q16 0 25 1t16 3 8 2 6 5 6 4z"/><path id="b" d="M33 157q0 101 76 192t171 92q51 0 90-49 16 30 46 30 13 0 23-8t10-20q0-13-37-160T374 68q0-25 7-33t21-9q9 1 20 9 21 20 41 96 6 20 10 21 2 1 10 1h4q19 0 19-9 0-6-5-27t-20-54-32-50Q436 0 417-8q-8-2-24-2-34 0-57 15t-30 31l-6 15q-1 1-4-1l-4-4q-59-56-120-56-55 0-97 40T33 157m318 171q0 6-5 22t-23 35-46 20q-35 0-67-31t-50-81q-29-79-41-164v-11q0-8-1-12 0-45 18-62t43-18q38 0 75 33t44 51q2 4 27 107t26 111"/><path id="c" d="M52 289q7 42 54 97t116 56q35 0 64-18t43-45q42 63 101 63 37 0 64-22t28-59q0-29-14-47t-27-22-23-4q-19 0-31 11t-12 29q0 46 50 63-11 13-40 13-13 0-19-2-38-16-56-66-60-221-60-258 0-28 16-40t35-12q37 0 73 33t49 81q3 10 6 11t16 2h4q15 0 15-8 0-1-2-11-16-57-62-101T333-11q-70 0-106 63-41-62-94-62h-6q-49 0-70 26T35 71q0 32 19 52t45 20q43 0 43-42 0-20-12-35t-23-20-13-5l-3-1q0-1 6-4t16-7 19-3q36 0 62 45 9 16 23 68t28 108 16 66q5 27 5 39 0 28-15 40t-34 12q-40 0-75-32t-49-82q-2-9-5-10t-16-2H58q-6 6-6 11"/><path id="d" d="M56 237v13l14 20h299v150l1 150q10 13 19 13 13 0 20-15V270h298q15-8 15-20t-15-20H409V-68q-8-14-18-14h-4q-12 0-18 14v298H70q-14 7-14 20Z"/><path id="e" d="M73 647q0 10 4 23t12 13q1 0 72 5t73 6q12 0 12-9t-34-143q-8-34-17-70t-15-54l-4-19q0-3 6 3 49 40 101 40 62 0 100-46t39-116q0-111-79-201T173-11q-50 0-91 38T40 150v9q0 21 8 58t49 197q50 197 50 209t-38 14H83q-3 0-7 3t-3 7m263-322v6q0 74-61 74-17 0-35-8t-33-21-26-24-18-22l-6-8-21-86q-22-86-22-122 0-48 24-72 16-16 40-16 33 0 67 32 25 23 40 56t33 105 18 106"/><path id="f" d="M21 287q0 14 15 48t48 71 74 36q41 0 66-23t26-64q-2-19-3-21 0-3-16-46t-33-97-16-86q0-43 14-60t42-18q23 0 43 11t31 23 27 33q0 1 5 20t14 59 19 74q38 150 42 157 13 27 43 27 13 0 21-7t11-12 2-9q0-13-49-210T391-23q-28-83-97-132t-138-50q-45 0-79 22t-34 66q0 22 7 37t19 22 20 10 17 3q44 0 44-42 0-20-12-35t-23-20-13-5l-3-1q2-5 19-12t34-7h8q17 0 26 2 33 9 61 38t43 62 23 56 8 30l-6-4q-6-4-19-11T270-6q-20-5-39-5-46 0-81 22t-46 71q-1 7-1 31 0 57 35 149t35 117v14q0 3-4 7t-11 4h-4q-23 0-42-19t-30-41-17-42-8-22-16-2H27q-6 6-6 9"/><path id="g" d="M56 347q0 13 14 20h637q15-8 15-20 0-11-14-19l-318-1H72q-16 5-16 20m0-194q0 15 16 20h636q14-10 14-20 0-13-15-20H70q-14 7-14 20"/><path id="h" d="M84 237v13l14 20h581q15-8 15-20t-15-20H98q-14 7-14 20Z"/><path id="i" d="M109 429q-27 0-43 18t-16 44q0 71 53 123t132 52q91 0 152-56t62-145q0-43-20-82t-48-68-80-74q-36-31-100-92l-59-56 76-1q157 0 167 5 7 2 24 89v3h40v-3q-1-3-13-91T421 3V0H50v31q0 7 6 15t30 35q29 32 50 56 9 10 34 37t34 37 29 33 28 34 23 30 21 32 15 29 13 32 7 30 3 33q0 63-34 109t-97 46q-33 0-58-17t-35-33-10-19q0-1 5-1 18 0 37-14t19-46q0-25-16-42t-45-18"/><path id="j" d="M127 463q-27 0-42 17t-16 44q0 55 48 98t116 43q35 0 44-1 74-12 113-53t40-89q0-52-34-101t-94-71l-3-2q0-1 9-3t29-9 38-21q82-53 82-140 0-79-62-138T238-22q-80 0-138 43T42 130q0 28 18 45t45 18q28 0 46-18t18-45q0-11-3-20t-7-16-11-12-12-8-10-4-8-3l-4-1q51-45 124-45 55 0 83 53 17 33 17 101v20q0 95-64 127-15 6-61 7l-42 1-3 2q-2 3-2 16 0 18 8 18 28 0 58 5 34 5 62 42t28 112v8q0 57-35 79-22 14-47 14-32 0-59-11t-38-23-11-12h3q3-1 8-2t10-5 12-7 10-11 8-15 3-20q0-22-14-39t-45-18"/><path id="k" d="M462 0q-18 3-129 3-116 0-134-3h-9v46h58q7 0 17 2t14 5 7 8q1 2 1 54v50H28v46l151 231q153 232 155 233 2 2 21 2h18l6-6V211h92v-46h-92V66q0-7 6-12 8-7 57-8h29V0zM293 211v334L74 212l109-1z"/><path id="l" d="M78 250q0 24 17 42t43 18q24 0 42-16t19-43q0-25-17-43t-43-18-43 17-18 43m447 0q0 24 17 42t43 18q24 0 42-16t19-43q0-25-17-43t-43-18-43 17-18 43m447 0q0 24 17 42t43 18q24 0 42-16t19-43q0-25-17-43t-43-18-43 17-18 43"/><path id="m" d="M78 35v25l16 43 43 18q28 0 50-25t23-88q0-35-9-68t-21-57-26-41-24-27-13-9q-4 0-13 9t-9 13 11 16 25 30 26 50 16 73V9l-1-1q-2-1-5-2t-6-3-9-2-12-1q-27 0-44 17Z"/></defs><g stroke="currentColor" fill="currentColor" stroke-width="0"><g transform="scale(1 -1)"><use data-c="31" xlink:href="#a" transform="translate(1591.2 676)"/><g><use data-c="1D44E" xlink:href="#b" transform="translate(220 -686)"/><use data-c="1D465" xlink:href="#c" transform="translate(220 -686) translate(529)"/><use data-c="2B" xlink:href="#d" transform="translate(220 -686) translate(1323.2)"/><use data-c="1D44F" xlink:href="#e" transform="translate(220 -686) translate(2323.4)"/><use data-c="1D466" xlink:href="#f" transform="translate(220 -686) translate(2752.4)"/></g><path stroke="none" d="M120 220H3562.4V280H120z"/></g><use data-c="3D" xlink:href="#g" transform="scale(1 -1) translate(3960.2)"/><g transform="scale(1 -1) translate(5016)"><use data-c="31" xlink:href="#a" transform="translate(429.5 676)"/><g><use data-c="1D44F" xlink:href="#e" transform="translate(220 -686)"/><use data-c="1D466" xlink:href="#f" transform="translate(220 -686) translate(429)"/></g><path stroke="none" d="M120 220H1239V280H120z"/></g><use data-c="2212" xlink:href="#h" transform="scale(1 -1) translate(6597.2)"/><g transform="scale(1 -1) translate(7597.4)"><g><use data-c="1D44E" xlink:href="#b" transform="translate(565.6 676)"/><use data-c="1D465" xlink:href="#c" transform="translate(565.6 676) translate(529)"/></g><g><g><use data-c="1D44F" xlink:href="#e" transform="translate(220 -719.9)"/><use data-c="32" xlink:href="#i" transform="translate(220 -719.9) translate(462 289)scale(.707)"/></g><g><use data-c="1D466" xlink:href="#f" transform="translate(220 -719.9) translate(865.6)"/><use data-c="32" xlink:href="#i" transform="translate(220 -719.9) translate(865.6) translate(523 289)scale(.707)"/></g></g><path stroke="none" d="M120 220H2112.1V280H120z"/></g><use data-c="2B" xlink:href="#d" transform="scale(1 -1) translate(10051.8)"/><g transform="scale(1 -1) translate(11052)"><g><g><use data-c="1D44E" xlink:href="#b" transform="translate(220 676)"/><use data-c="32" xlink:href="#i" transform="translate(220 676) translate(562 363)scale(.707)"/></g><g><use data-c="1D465" xlink:href="#c" transform="translate(220 676) translate(965.6)"/><use data-c="32" xlink:href="#i" transform="translate(220 676) translate(965.6) translate(605 363)scale(.707)"/></g></g><g><g><use data-c="1D44F" xlink:href="#e" transform="translate(311 -719.2)"/><use data-c="33" xlink:href="#j" transform="translate(311 -719.2) translate(462 289)scale(.707)"/></g><g><use data-c="1D466" xlink:href="#f" transform="translate(311 -719.2) translate(865.6)"/><use data-c="33" xlink:href="#j" transform="translate(311 -719.2) translate(865.6) translate(523 289)scale(.707)"/></g></g><path stroke="none" d="M120 220H2294.1V280H120z"/></g><use data-c="2212" xlink:href="#h" transform="scale(1 -1) translate(13688.3)"/><g transform="scale(1 -1) translate(14688.5)"><g><g><use data-c="1D44E" xlink:href="#b" transform="translate(220 676)"/><use data-c="33" xlink:href="#j" transform="translate(220 676) translate(562 363)scale(.707)"/></g><g><use data-c="1D465" xlink:href="#c" transform="translate(220 676) translate(965.6)"/><use data-c="33" xlink:href="#j" transform="translate(220 676) translate(965.6) translate(605 363)scale(.707)"/></g></g><g><g><use data-c="1D44F" xlink:href="#e" transform="translate(311 -727.7)"/><use data-c="34" xlink:href="#k" transform="translate(311 -727.7) translate(462 289)scale(.707)"/></g><g><use data-c="1D466" xlink:href="#f" transform="translate(311 -727.7) translate(865.6)"/><use data-c="34" xlink:href="#k" transform="translate(311 -727.7) translate(865.6) translate(523 289)scale(.707)"/></g></g><path stroke="none" d="M120 220H2294.1V280H120z"/></g><use data-c="2B" xlink:href="#d" transform="scale(1 -1) translate(17324.9)"/><use data-c="22EF" xlink:href="#l" transform="scale(1 -1) translate(18325.1)"/><use data-c="2C" xlink:href="#m" transform="scale(1 -1) translate(19663.8)"/></g></svg>