<svg style="vertical-align:-2.093ex" xmlns="http://www.w3.org/2000/svg" width="22.747ex" height="5.15ex" viewBox="0 -1351.5 10054 2276.5" xmlns:xlink="http://www.w3.org/1999/xlink"><defs><path id="a" d="M40 437q-19 0-19 8 0 5 16 56t34 101l17 49q5 18 13 26h558q32 0 38-1t7-9q0-6-17-114t-19-109q0-7-19-7h-12q-3 0-6 5l-2 3q0 6 6 45t6 61q0 35-13 53t-55 25q-5 1-58 2-46 0-58-1t-18-8q-1-1-71-279T298 60q0-12 88-14 32 0 41-1t9-9q0-5-3-14-4-18-9-21l-2-1h-7q-5 0-52 1T228 2Q99 2 64 0H49q-6 6-6 9t2 18q4 13 10 19h39q80 0 95 9 1 1 2 1 5 3 10 20t40 157q17 68 28 111 70 275 70 281 0 5-29 5h-31q-67 0-88-6-45-10-70-41T67 467q-7-22-10-26t-14-4z"/><path id="b" d="M21 287q1 6 3 16t12 38 20 47 33 37 46 17q36 0 60-18t30-34 6-21q0-2 1-2l11 11q61 64 139 64 54 0 87-27t34-79-38-157-38-127q0-26 17-26 6 0 9 1 29 5 52 38t35 80q2 8 20 8 20 0 20-8 0-1-4-15-8-29-22-57t-46-56-69-27q-47 0-68 27t-21 56q0 19 36 120t37 152q0 59-44 59h-5q-86 0-145-101l-7-12-33-134Q156 26 151 16q-13-27-43-27-13 0-21 6T76 7t-2 10q0 13 38 163t40 163q1 5 1 23 0 39-24 39-38 0-63-100-6-20-6-21-2-6-19-6H27q-6 6-6 9"/><path id="c" d="M56 347q0 13 14 20h637q15-8 15-20 0-11-14-19l-318-1H72q-16 5-16 20m0-194q0 15 16 20h636q14-10 14-20 0-13-15-20H70q-14 7-14 20"/><path id="d" d="M94 250q0 69 10 131t23 107 37 88 38 67 42 52 33 34 25 21h17q14 0 14-9 0-3-17-21t-41-53-49-86-42-138-17-193 17-192 41-139 49-86 42-53 17-21q0-9-15-9h-16l-28 24q-94 85-137 212T94 250"/><path id="e" d="M84 237v13l14 20h581q15-8 15-20t-15-20H98q-14 7-14 20Z"/><path id="f" d="m213 578-13-5q-14-5-40-10t-58-7H83v46h19q47 2 87 15t56 24 28 22q2 3 12 3 9 0 17-6V361l1-300q7-7 12-9t24-4 62-2h26V0h-11q-21 3-159 3-136 0-157-3H88v46h64q16 0 25 1t16 3 8 2 6 5 6 4z"/><path id="g" d="m60 749 4 1h22l28-24q94-85 137-212t43-264q0-68-10-131T261 12t-37-88-38-67-41-51-32-33-23-19l-4-4H63q-3 0-5 3t-3 9q1 1 11 13Q221-64 221 250T66 725q-10 12-11 13 0 8 5 11"/><path id="h" d="M33 157q0 101 76 192t171 92q51 0 90-49 16 30 46 30 13 0 23-8t10-20q0-13-37-160T374 68q0-25 7-33t21-9q9 1 20 9 21 20 41 96 6 20 10 21 2 1 10 1h4q19 0 19-9 0-6-5-27t-20-54-32-50Q436 0 417-8q-8-2-24-2-34 0-57 15t-30 31l-6 15q-1 1-4-1l-4-4q-59-56-120-56-55 0-97 40T33 157m318 171q0 6-5 22t-23 35-46 20q-35 0-67-31t-50-81q-29-79-41-164v-11q0-8-1-12 0-45 18-62t43-18q38 0 75 33t44 51q2 4 27 107t26 111"/><path id="i" d="M73 647q0 10 4 23t12 13q1 0 72 5t73 6q12 0 12-9t-34-143q-8-34-17-70t-15-54l-4-19q0-3 6 3 49 40 101 40 62 0 100-46t39-116q0-111-79-201T173-11q-50 0-91 38T40 150v9q0 21 8 58t49 197q50 197 50 209t-38 14H83q-3 0-7 3t-3 7m263-322v6q0 74-61 74-17 0-35-8t-33-21-26-24-18-22l-6-8-21-86q-22-86-22-122 0-48 24-72 16-16 40-16 33 0 67 32 25 23 40 56t33 105 18 106"/><path id="j" d="M56 237v13l14 20h299v150l1 150q10 13 19 13 13 0 20-15V270h298q15-8 15-20t-15-20H409V-68q-8-14-18-14h-4q-12 0-18 14v298H70q-14 7-14 20Z"/><path id="k" d="M52 289q7 42 54 97t116 56q35 0 64-18t43-45q42 63 101 63 37 0 64-22t28-59q0-29-14-47t-27-22-23-4q-19 0-31 11t-12 29q0 46 50 63-11 13-40 13-13 0-19-2-38-16-56-66-60-221-60-258 0-28 16-40t35-12q37 0 73 33t49 81q3 10 6 11t16 2h4q15 0 15-8 0-1-2-11-16-57-62-101T333-11q-70 0-106 63-41-62-94-62h-6q-49 0-70 26T35 71q0 32 19 52t45 20q43 0 43-42 0-20-12-35t-23-20-13-5l-3-1q0-1 6-4t16-7 19-3q36 0 62 45 9 16 23 68t28 108 16 66q5 27 5 39 0 28-15 40t-34 12q-40 0-75-32t-49-82q-2-9-5-10t-16-2H58q-6 6-6 11"/><path id="l" d="M21 287q0 14 15 48t48 71 74 36q41 0 66-23t26-64q-2-19-3-21 0-3-16-46t-33-97-16-86q0-43 14-60t42-18q23 0 43 11t31 23 27 33q0 1 5 20t14 59 19 74q38 150 42 157 13 27 43 27 13 0 21-7t11-12 2-9q0-13-49-210T391-23q-28-83-97-132t-138-50q-45 0-79 22t-34 66q0 22 7 37t19 22 20 10 17 3q44 0 44-42 0-20-12-35t-23-20-13-5l-3-1q2-5 19-12t34-7h8q17 0 26 2 33 9 61 38t43 62 23 56 8 30l-6-4q-6-4-19-11T270-6q-20-5-39-5-46 0-81 22t-46 71q-1 7-1 31 0 57 35 149t35 117v14q0 3-4 7t-11 4h-4q-23 0-42-19t-30-41-17-42-8-22-16-2H27q-6 6-6 9"/><path id="m" d="M78 60q0 24 17 42t43 18q24 0 42-16t19-43q0-25-17-43T139 0 96 17 78 60"/></defs><g stroke="currentColor" fill="currentColor" stroke-width="0"><g><use data-c="1D447" xlink:href="#a" transform="scale(1 -1)"/><use data-c="1D45B" xlink:href="#b" transform="scale(1 -1) translate(617 -150)scale(.707)"/></g><use data-c="3D" xlink:href="#c" transform="scale(1 -1) translate(1369)"/><use data-c="28" xlink:href="#d" transform="scale(1 -1) translate(2424.8)"/><use data-c="2212" xlink:href="#e" transform="scale(1 -1) translate(2813.8)"/><use data-c="31" xlink:href="#f" transform="scale(1 -1) translate(3591.8)"/><g><use data-c="29" xlink:href="#g" transform="scale(1 -1) translate(4091.8)"/><use data-c="1D45B" xlink:href="#b" transform="scale(1 -1) translate(4091.8) translate(422 413)scale(.707)"/></g><g transform="scale(1 -1) translate(4988.1)"><g><use data-c="1D44E" xlink:href="#h" transform="translate(621.8 676)"/><use data-c="1D45B" xlink:href="#b" transform="translate(621.8 676) translate(562 363)scale(.707)"/></g><g><use data-c="1D44F" xlink:href="#i" transform="translate(220 -719.9)"/><g data-mjx-texclass="ORD"><use data-c="1D45B" xlink:href="#b" transform="translate(220 -719.9) translate(462 289)scale(.707)"/><use data-c="2B" xlink:href="#j" transform="translate(220 -719.9) translate(462 289)scale(.707) translate(600)"/><use data-c="31" xlink:href="#f" transform="translate(220 -719.9) translate(462 289)scale(.707) translate(1378)"/></g></g><path stroke="none" d="M120 220H2159.9V280H120z"/></g><g transform="scale(1 -1) translate(7435)"><g><use data-c="1D465" xlink:href="#k" transform="translate(630.8 676)"/><use data-c="1D45B" xlink:href="#b" transform="translate(630.8 676) translate(605 363)scale(.707)"/></g><g><use data-c="1D466" xlink:href="#l" transform="translate(220 -719.9)"/><g data-mjx-texclass="ORD"><use data-c="1D45B" xlink:href="#b" transform="translate(220 -719.9) translate(523 289)scale(.707)"/><use data-c="2B" xlink:href="#j" transform="translate(220 -719.9) translate(523 289)scale(.707) translate(600)"/><use data-c="31" xlink:href="#f" transform="translate(220 -719.9) translate(523 289)scale(.707) translate(1378)"/></g></g><path stroke="none" d="M120 220H2220.9V280H120z"/></g><use data-c="2E" xlink:href="#m" transform="scale(1 -1) translate(9776)"/></g></svg>