<svg style="vertical-align:-.564ex" xmlns="http://www.w3.org/2000/svg" width="6.223ex" height="2.26ex" viewBox="0 -749.5 2750.6 999" xmlns:xlink="http://www.w3.org/1999/xlink"><defs><path id="a" d="M139-249h-2q-12 0-18 14v486l1 486q10 13 19 13 13 0 20-15v-970q-8-14-18-14z"/><path id="b" d="M26 385q-7 7-7 10 0 4 3 16t5 14q2 5 9 5t51 1h53l19 80q3 11 7 29t7 26 6 20 8 17 10 12 14 9 18 2q18-1 25-11t7-19q0-7-9-47t-20-79l-10-37q0-2 50-2h51q7-7 7-11 0-22-13-35H210l-36-145Q135 80 135 68q0-42 27-42 35 0 68 34t53 84q2 6 5 7t15 2h4q15 0 15-8 0-3-3-12-5-16-18-38t-34-47-51-42-61-17q-30 0-57 15T59 56q-2 8-2 27v18l35 140q35 141 36 142 0 2-51 2z"/><path id="c" d="M694-11v-8l-6-14-10-7q-7 0-154 69T234 166L90 235q-7 5-7 15 0 11 8 16 573 274 587 274 3 0 9-6t7-15-7-14q-1-1-270-129L151 250l266-126Q686-4 687-5q7-6 7-14Z"/><path id="d" d="m213 578-13-5q-14-5-40-10t-58-7H83v46h19q47 2 87 15t56 24 28 22q2 3 12 3 9 0 17-6V361l1-300q7-7 12-9t24-4 62-2h26V0h-11q-21 3-159 3-136 0-157-3H88v46h64q16 0 25 1t16 3 8 2 6 5 6 4z"/></defs><g stroke="currentColor" fill="currentColor" stroke-width="0"><use data-c="7C" xlink:href="#a" transform="scale(1 -1) translate(0 -.5)"/><use data-c="1D461" xlink:href="#b" transform="scale(1 -1) translate(278)"/><g data-mjx-texclass="ORD"><use data-c="7C" xlink:href="#a" transform="scale(1 -1) translate(639) translate(0 -.5)"/></g><use data-c="3C" xlink:href="#c" transform="scale(1 -1) translate(1194.8)"/><use data-c="31" xlink:href="#d" transform="scale(1 -1) translate(2250.6)"/></g></svg>