<svg style="vertical-align:-.566ex" xmlns="http://www.w3.org/2000/svg" width="5.799ex" height="2.262ex" viewBox="0 -750 2563.3 1000" xmlns:xlink="http://www.w3.org/1999/xlink"><defs><path id="a" d="M94 250q0 69 10 131t23 107 37 88 38 67 42 52 33 34 25 21h17q14 0 14-9 0-3-17-21t-41-53-49-86-42-138-17-193 17-192 41-139 49-86 42-53 17-21q0-9-15-9h-16l-28 24q-94 85-137 212T94 250"/><path id="b" d="M84 237v13l14 20h581q15-8 15-20t-15-20H98q-14 7-14 20Z"/><path id="c" d="m213 578-13-5q-14-5-40-10t-58-7H83v46h19q47 2 87 15t56 24 28 22q2 3 12 3 9 0 17-6V361l1-300q7-7 12-9t24-4 62-2h26V0h-11q-21 3-159 3-136 0-157-3H88v46h64q16 0 25 1t16 3 8 2 6 5 6 4z"/><path id="d" d="m60 749 4 1h22l28-24q94-85 137-212t43-264q0-68-10-131T261 12t-37-88-38-67-41-51-32-33-23-19l-4-4H63q-3 0-5 3t-3 9q1 1 11 13Q221-64 221 250T66 725q-10 12-11 13 0 8 5 11"/><path id="e" d="M21 287q1 6 3 16t12 38 20 47 33 37 46 17q36 0 60-18t30-34 6-21q0-2 1-2l11 11q61 64 139 64 54 0 87-27t34-79-38-157-38-127q0-26 17-26 6 0 9 1 29 5 52 38t35 80q2 8 20 8 20 0 20-8 0-1-4-15-8-29-22-57t-46-56-69-27q-47 0-68 27t-21 56q0 19 36 120t37 152q0 59-44 59h-5q-86 0-145-101l-7-12-33-134Q156 26 151 16q-13-27-43-27-13 0-21 6T76 7t-2 10q0 13 38 163t40 163q1 5 1 23 0 39-24 39-38 0-63-100-6-20-6-21-2-6-19-6H27q-6 6-6 9"/></defs><g stroke="currentColor" fill="currentColor" stroke-width="0"><use data-c="28" xlink:href="#a" transform="scale(1 -1)"/><use data-c="2212" xlink:href="#b" transform="scale(1 -1) translate(389)"/><use data-c="31" xlink:href="#c" transform="scale(1 -1) translate(1167)"/><g><use data-c="29" xlink:href="#d" transform="scale(1 -1) translate(1667)"/><use data-c="1D45B" xlink:href="#e" transform="scale(1 -1) translate(1667) translate(422 413)scale(.707)"/></g></g></svg>