<svg style="vertical-align:-2.063ex" xmlns="http://www.w3.org/2000/svg" width="42.802ex" height="5.214ex" viewBox="0 -1392.8 18918.7 2304.7" xmlns:xlink="http://www.w3.org/1999/xlink"><defs><path id="a" d="M114-798q18-26 51-26h2q28 0 56 60t52 164 45 209 42 227q3 21 5 31 72 425 156 788t122 472l10 30q4 12 17 44t27 56 34 49 44 40 51 14q56 0 84-35t32-80q0-25-12-40t-23-19-22-3q-21 0-38 15t-17 41q0 48 53 57l-3 4q-3 3-8 7t-8 6q-15 10-33 10-14 0-26-12t-32-56-39-116-47-203-56-308Q574 293 510-5T410-437t-55-192q-77-233-190-233-40 0-73 31t-37 85q0 35 19 48t38 13q21 0 38-15t17-41q0-48-53-57"/><path id="b" d="M132-11q-34 0-34 33v11l13 28q75 158 109 273l8 24h-32q-38 0-54-3t-39-19q-11-7-22-18t-19-21-9-12q-2-1-15-1-19 0-19 10 0 6 19 35t55 62 71 38q7 2 225 2 160 0 164-1 20-7 20-28 0-31-32-42-6-2-69-2h-64l-3-17q-12-72-12-119 0-52 9-93t19-64 10-28q0-17-14-32t-36-15q-11 0-18 3t-16 24-16 60q-1 9-1 44 0 49 9 105t18 92 10 40h-98l-1-4q0-3-19-79t-43-161-31-97q-11-28-43-28"/><path id="c" d="M96 585q56 81 153 81 48 0 96-26t78-92q37-83 37-228 0-155-43-237-20-42-55-67t-61-31-51-7q-26 0-52 6t-61 32-55 67q-43 82-43 237 0 174 57 265m225 12q-30 32-71 32-42 0-72-32-25-26-33-72t-8-192q0-158 8-208t36-79q28-30 69-30 40 0 68 30 29 30 36 84t8 203q0 145-8 191t-33 73"/><path id="d" d="M370 305h-21l-36 15-16 38q0 23 15 38 5 5 5 6t-10 2q-26 4-49 4-49 0-80-32-47-47-47-157 0-82 31-129 41-61 110-61 41 0 66 26t36 62q2 8 5 10t16 2h14q6-6 6-9 0-4-4-16t-16-33-29-38-48-31-69-13q-86 0-150 64T34 214q0 104 65 169t151 65 120-27 34-64q0-23-17-37Z"/><path id="e" d="M28 214q0 95 65 164t157 70q90 0 155-68t66-165q0-95-64-160T250-10q-97 0-159 67T28 214M250 30q122 0 122 163v57q0 22-1 38t-7 38-16 36-31 28-49 20q-5 1-16 1-30 0-57-12-43-22-56-61t-13-92v-20q0-96 19-135 32-61 105-61"/><path id="f" d="M295 316q0 40-27 69t-78 29q-36 0-62-13-30-19-30-52-1-5 0-13t16-24 43-25q18-5 44-9t44-9 32-13q17-8 33-20t32-41 17-62q0-62-38-102T198-10h-8q-52 0-96 36l-8-7-9-9Q71 4 65-1L54-11H42q-3 0-9 6v137q0 21 2 25t10 5h9q12 0 16-4t5-12 7-27 19-42q35-51 97-51 97 0 97 78 0 29-18 47-20 24-83 36t-83 23q-36 17-57 46t-21 62q0 39 17 66t43 40 50 18 44 5h11q40 0 70-15l15-8 9 7q10 9 22 17h12q3 0 9-6V310l-6-6h-28q-6 6-6 12"/><path id="g" d="M94 250q0 69 10 131t23 107 37 88 38 67 42 52 33 34 25 21h17q14 0 14-9 0-3-17-21t-41-53-49-86-42-138-17-193 17-192 41-139 49-86 42-53 17-21q0-9-15-9h-16l-28 24q-94 85-137 212T94 250"/><path id="h" d="M52 289q7 42 54 97t116 56q35 0 64-18t43-45q42 63 101 63 37 0 64-22t28-59q0-29-14-47t-27-22-23-4q-19 0-31 11t-12 29q0 46 50 63-11 13-40 13-13 0-19-2-38-16-56-66-60-221-60-258 0-28 16-40t35-12q37 0 73 33t49 81q3 10 6 11t16 2h4q15 0 15-8 0-1-2-11-16-57-62-101T333-11q-70 0-106 63-41-62-94-62h-6q-49 0-70 26T35 71q0 32 19 52t45 20q43 0 43-42 0-20-12-35t-23-20-13-5l-3-1q0-1 6-4t16-7 19-3q36 0 62 45 9 16 23 68t28 108 16 66q5 27 5 39 0 28-15 40t-34 12q-40 0-75-32t-49-82q-2-9-5-10t-16-2H58q-6 6-6 11"/><path id="i" d="m60 749 4 1h22l28-24q94-85 137-212t43-264q0-68-10-131T261 12t-37-88-38-67-41-51-32-33-23-19l-4-4H63q-3 0-5 3t-3 9q1 1 11 13Q221-64 221 250T66 725q-10 12-11 13 0 8 5 11"/><path id="j" d="M366 683q1 0 72 5t73 6q12 0 12-8 0-7-73-302T375 83t-1-15q0-42 28-42 9 1 20 9 21 20 41 96 6 20 10 21 2 1 10 1h8q15 0 15-8 0-5-3-16-13-50-30-81T445 8 417-8q-8-2-24-2-34 0-57 15t-30 31l-6 15q-1 1-4-1l-4-4q-59-56-120-56-55 0-97 40T33 157q0 48 20 98t48 86q47 57 94 79t85 22q56 0 84-42 5-6 5-4 1 4 27 109t28 111q0 13-7 16t-39 5h-21q-6 6-6 8t2 19q5 19 13 19m-14-357q-23 79-75 79-35 0-67-31t-50-81q-29-79-41-164v-11q0-8-1-12 0-45 18-62t43-18q54 0 111 72l8 11z"/><path id="k" d="M56 347q0 13 14 20h637q15-8 15-20 0-11-14-19l-318-1H72q-16 5-16 20m0-194q0 15 16 20h636q14-10 14-20 0-13-15-20H70q-14 7-14 20"/><path id="l" d="M69 609q0 28 18 44t44 16q23-2 40-17t17-43q0-30-17-45t-42-15-42 15-18 45M247 0q-15 3-104 3h-37Q80 3 56 1L34 0h-8v46h16q28 0 49 3 9 4 11 11t2 42v191q0 52-2 66t-14 19q-14 7-47 7H30v23q0 23 2 23l10 1q10 1 28 2t36 2q17 1 36 2t29 3 11 1h3V62q5-10 12-12t35-4h23V0z"/><path id="m" d="M41 46h14q39 0 47 14v62q0 17 1 39t0 42v66q0 35-1 59v23q-3 19-14 25t-45 9H25v23q0 23 2 23l10 1q10 1 28 2t37 2q17 1 36 2t29 3 11 1h3v-40q0-38 1-38t5 5 12 15 19 18 29 19 38 16 51 5q114-4 127-113 1-7 1-139v-86q0-38 2-45t11-10q21-3 49-3h16V0h-8l-24 1q-23 1-50 1t-38 1Q319 3 310 0h-8v46h16q61 0 61 16 1 2 1 138-1 135-2 143-6 28-20 42t-24 17-26 2q-45 0-79-34-27-27-34-55t-8-83V108q0-30 1-40t3-13 9-6q21-3 49-3h16V0h-8l-23 1q-24 1-51 1t-38 1Q42 3 33 0h-8v46z"/><path id="n" d="M84 237v13l14 20h581q15-8 15-20t-15-20H98q-14 7-14 20Z"/><path id="o" d="M78 60q0 24 17 42t43 18q24 0 42-16t19-43q0-25-17-43T139 0 96 17 78 60"/></defs><g stroke="currentColor" fill="currentColor" stroke-width="0"><g><use data-c="222B" xlink:href="#a" transform="scale(1 -1) translate(0 1)"/><g data-mjx-texclass="ORD"><use data-c="1D70B" xlink:href="#b" transform="scale(1 -1) translate(1046.4 1088.1)scale(.707)"/></g><g data-mjx-texclass="ORD"><use data-c="30" xlink:href="#c" transform="scale(1 -1) translate(589 -896.4)scale(.707)"/></g></g><g transform="scale(1 -1) translate(1666.1)"><use data-c="63" xlink:href="#d"/><use data-c="6F" xlink:href="#e" transform="translate(444)"/><use data-c="73" xlink:href="#f" transform="translate(944)"/></g><use data-c="28" xlink:href="#g" transform="scale(1 -1) translate(3004.1)"/><use data-c="1D465" xlink:href="#h" transform="scale(1 -1) translate(3393.1)"/><use data-c="29" xlink:href="#i" transform="scale(1 -1) translate(3965.1)"/><use data-c="1D451" xlink:href="#j" transform="scale(1 -1) translate(4521.1)"/><use data-c="1D465" xlink:href="#h" transform="scale(1 -1) translate(5041.1)"/><use data-c="3D" xlink:href="#k" transform="scale(1 -1) translate(5890.9)"/><g transform="scale(1 -1) translate(6946.7)"><use data-c="73" xlink:href="#f"/><use data-c="69" xlink:href="#l" transform="translate(394)"/><use data-c="6E" xlink:href="#m" transform="translate(672)"/></g><use data-c="28" xlink:href="#g" transform="scale(1 -1) translate(8174.7)"/><use data-c="1D70B" xlink:href="#b" transform="scale(1 -1) translate(8563.7)"/><use data-c="29" xlink:href="#i" transform="scale(1 -1) translate(9133.7)"/><use data-c="2212" xlink:href="#n" transform="scale(1 -1) translate(9744.9)"/><g transform="scale(1 -1) translate(10745.1)"><use data-c="73" xlink:href="#f"/><use data-c="69" xlink:href="#l" transform="translate(394)"/><use data-c="6E" xlink:href="#m" transform="translate(672)"/></g><use data-c="28" xlink:href="#g" transform="scale(1 -1) translate(11973.1)"/><use data-c="30" xlink:href="#c" transform="scale(1 -1) translate(12362.1)"/><use data-c="29" xlink:href="#i" transform="scale(1 -1) translate(12862.1)"/><use data-c="3D" xlink:href="#k" transform="scale(1 -1) translate(13528.9)"/><use data-c="30" xlink:href="#c" transform="scale(1 -1) translate(14584.7)"/><use data-c="2212" xlink:href="#n" transform="scale(1 -1) translate(15306.9)"/><use data-c="30" xlink:href="#c" transform="scale(1 -1) translate(16307.1)"/><use data-c="3D" xlink:href="#k" transform="scale(1 -1) translate(17084.9)"/><g transform="scale(1 -1) translate(18140.7)"><use data-c="30" xlink:href="#c"/><use data-c="2E" xlink:href="#o" transform="translate(500)"/></g></g></svg>