<svg style="vertical-align:-.564ex" xmlns="http://www.w3.org/2000/svg" width="6.515ex" height="2.26ex" viewBox="0 -749.5 2879.6 999" xmlns:xlink="http://www.w3.org/1999/xlink"><defs><path id="a" d="M139-249h-2q-12 0-18 14v486l1 486q10 13 19 13 13 0 20-15v-970q-8-14-18-14z"/><path id="b" d="M21 287q0 14 15 48t48 71 74 36q41 0 66-23t26-64q-2-19-3-21 0-3-16-46t-33-97-16-86q0-43 14-60t42-18q23 0 43 11t31 23 27 33q0 1 5 20t14 59 19 74q38 150 42 157 13 27 43 27 13 0 21-7t11-12 2-9q0-13-49-210T391-23q-28-83-97-132t-138-50q-45 0-79 22t-34 66q0 22 7 37t19 22 20 10 17 3q44 0 44-42 0-20-12-35t-23-20-13-5l-3-1q2-5 19-12t34-7h8q17 0 26 2 33 9 61 38t43 62 23 56 8 30l-6-4q-6-4-19-11T270-6q-20-5-39-5-46 0-81 22t-46 71q-1 7-1 31 0 57 35 149t35 117v14q0 3-4 7t-11 4h-4q-23 0-42-19t-30-41-17-42-8-22-16-2H27q-6 6-6 9"/><path id="c" d="M694-11v-8l-6-14-10-7q-7 0-154 69T234 166L90 235q-7 5-7 15 0 11 8 16 573 274 587 274 3 0 9-6t7-15-7-14q-1-1-270-129L151 250l266-126Q686-4 687-5q7-6 7-14Z"/><path id="d" d="m213 578-13-5q-14-5-40-10t-58-7H83v46h19q47 2 87 15t56 24 28 22q2 3 12 3 9 0 17-6V361l1-300q7-7 12-9t24-4 62-2h26V0h-11q-21 3-159 3-136 0-157-3H88v46h64q16 0 25 1t16 3 8 2 6 5 6 4z"/></defs><g stroke="currentColor" fill="currentColor" stroke-width="0"><use data-c="7C" xlink:href="#a" transform="scale(1 -1) translate(0 -.5)"/><use data-c="1D466" xlink:href="#b" transform="scale(1 -1) translate(278)"/><g data-mjx-texclass="ORD"><use data-c="7C" xlink:href="#a" transform="scale(1 -1) translate(768) translate(0 -.5)"/></g><use data-c="3C" xlink:href="#c" transform="scale(1 -1) translate(1323.8)"/><use data-c="31" xlink:href="#d" transform="scale(1 -1) translate(2379.6)"/></g></svg>