<svg style="vertical-align:-.025ex" xmlns="http://www.w3.org/2000/svg" width=".781ex" height="1.52ex" viewBox="0 -661 345 672" xmlns:xlink="http://www.w3.org/1999/xlink"><defs><path id="a" d="M184 600q0 24 19 42t44 19q18 0 30-12t13-30q0-23-20-42t-44-20q-15 0-28 10t-14 33M21 287q0 8 9 31t24 51 44 51 60 22q39 0 65-23t27-62q0-17-14-56t-40-105-42-113q-5-22-5-32 0-25 17-25 9 0 19 3t23 14 27 35 25 59q3 12 5 14t17 2q20 0 20-10 0-8-9-31t-25-51-45-50-62-22q-32 0-59 21T74 74q0 17 5 32t43 114q38 101 44 121t7 39q0 24-17 24h-2q-30 0-55-33t-38-84q-1-1-2-3t-1-3-2-2-3-1-4 0-8 0H27q-6 6-6 9"/></defs><g stroke="currentColor" fill="currentColor" stroke-width="0"><use data-c="1D456" xlink:href="#a" transform="scale(1 -1)"/></g></svg>