<svg style="vertical-align:-1.552ex" xmlns="http://www.w3.org/2000/svg" width="7.677ex" height="4.876ex" viewBox="0 -1469 3393.2 2155" xmlns:xlink="http://www.w3.org/1999/xlink"><defs><path id="a" d="M48 1Q31 1 31 11q0 2 3 14 4 16 8 18t23 3q27 0 60 3 14 3 19 12 2 5 71 281t70 280q0 7-4 7-8 3-53 5h-31q-6 6-6 8t2 17q4 17 10 21h539q7-4 7-11 0-5-13-112t-14-110q-2-7-20-7h-12q-7 5-7 13 0 1 3 24t3 53-7 49-19 31-37 16-51 7-72 1h-23q-82-1-87-3t-7-8q-1-1-34-131l-32-129h78q20 0 28 1t22 3 24 7 17 12q13 12 22 33t13 38 5 18q3 5 19 5h12q7-5 7-10 0-3-31-131t-34-132q-2-7-20-7h-12q-7 6-7 12 0 3 5 22t5 40q0 29-20 36t-89 7h-55l-32-127Q245 66 245 60q0-14 89-14h25q6-6 6-7t-2-20q-4-13-10-19h-17q-41 2-151 2H86Q52 2 48 1"/><path id="b" d="M79 43q-6 0-27 6T30 61q0 7 55 232t61 235q15 32 52 32 20 0 42-15t22-44q0-5-2-15-1-7-87-223T84 45t-5-2"/><path id="c" d="M94 250q0 69 10 131t23 107 37 88 38 67 42 52 33 34 25 21h17q14 0 14-9 0-3-17-21t-41-53-49-86-42-138-17-193 17-192 41-139 49-86 42-53 17-21q0-9-15-9h-16l-28 24q-94 85-137 212T94 250"/><path id="d" d="M52 289q7 42 54 97t116 56q35 0 64-18t43-45q42 63 101 63 37 0 64-22t28-59q0-29-14-47t-27-22-23-4q-19 0-31 11t-12 29q0 46 50 63-11 13-40 13-13 0-19-2-38-16-56-66-60-221-60-258 0-28 16-40t35-12q37 0 73 33t49 81q3 10 6 11t16 2h4q15 0 15-8 0-1-2-11-16-57-62-101T333-11q-70 0-106 63-41-62-94-62h-6q-49 0-70 26T35 71q0 32 19 52t45 20q43 0 43-42 0-20-12-35t-23-20-13-5l-3-1q0-1 6-4t16-7 19-3q36 0 62 45 9 16 23 68t28 108 16 66q5 27 5 39 0 28-15 40t-34 12q-40 0-75-32t-49-82q-2-9-5-10t-16-2H58q-6 6-6 11"/><path id="e" d="M184 600q0 24 19 42t44 19q18 0 30-12t13-30q0-23-20-42t-44-20q-15 0-28 10t-14 33M21 287q0 8 9 31t24 51 44 51 60 22q39 0 65-23t27-62q0-17-14-56t-40-105-42-113q-5-22-5-32 0-25 17-25 9 0 19 3t23 14 27 35 25 59q3 12 5 14t17 2q20 0 20-10 0-8-9-31t-25-51-45-50-62-22q-32 0-59 21T74 74q0 17 5 32t43 114q38 101 44 121t7 39q0 24-17 24h-2q-30 0-55-33t-38-84q-1-1-2-3t-1-3-2-2-3-1-4 0-8 0H27q-6 6-6 9"/><path id="f" d="m60 749 4 1h22l28-24q94-85 137-212t43-264q0-68-10-131T261 12t-37-88-38-67-41-51-32-33-23-19l-4-4H63q-3 0-5 3t-3 9q1 1 11 13Q221-64 221 250T66 725q-10 12-11 13 0 8 5 11"/><path id="g" d="M109 429q-27 0-43 18t-16 44q0 71 53 123t132 52q91 0 152-56t62-145q0-43-20-82t-48-68-80-74q-36-31-100-92l-59-56 76-1q157 0 167 5 7 2 24 89v3h40v-3q-1-3-13-91T421 3V0H50v31q0 7 6 15t30 35q29 32 50 56 9 10 34 37t34 37 29 33 28 34 23 30 21 32 15 29 13 32 7 30 3 33q0 63-34 109t-97 46q-33 0-58-17t-35-33-10-19q0-1 5-1 18 0 37-14t19-46q0-25-16-42t-45-18"/><path id="h" d="M78 661q0 21 18 38t42 17 42-16 19-39q0-7-20-229t-21-226q-2-8-19-8-18 0-20 8-1 3-21 225T78 661m1-600q0 28 18 44t44 16q23-2 40-17t17-43q0-30-17-45T139 1 97 16 79 61"/></defs><g stroke="currentColor" fill="currentColor" stroke-width="0"><g transform="scale(1 -1)"><g><g><use data-c="1D439" xlink:href="#a" transform="translate(220 710)"/><g data-c="2033" transform="translate(220 710) translate(837.3 363)scale(.707)"><use data-c="2032" xlink:href="#b"/><use data-c="2032" xlink:href="#b" transform="translate(275)"/></g></g><use data-c="28" xlink:href="#c" transform="translate(220 710) translate(1276.2)"/><g><use data-c="1D465" xlink:href="#d" transform="translate(220 710) translate(1665.2)"/><use data-c="1D456" xlink:href="#e" transform="translate(220 710) translate(1665.2) translate(605 -150)scale(.707)"/></g><use data-c="29" xlink:href="#f" transform="translate(220 710) translate(2564.2)"/></g><g><use data-c="32" xlink:href="#g" transform="translate(1307.6 -686)"/><use data-c="21" xlink:href="#h" transform="translate(1307.6 -686) translate(500)"/></g><path stroke="none" d="M120 220H3273.2V280H120z"/></g></g></svg>