<svg style="vertical-align:-.566ex" xmlns="http://www.w3.org/2000/svg" width="4.431ex" height="2.262ex" viewBox="0 -750 1958.7 1000" xmlns:xlink="http://www.w3.org/1999/xlink"><defs><path id="a" d="M118-250V750h137v-40h-97v-920h97v-40z"/><path id="b" d="M33 157q0 101 76 192t171 92q51 0 90-49 16 30 46 30 13 0 23-8t10-20q0-13-37-160T374 68q0-25 7-33t21-9q9 1 20 9 21 20 41 96 6 20 10 21 2 1 10 1h4q19 0 19-9 0-6-5-27t-20-54-32-50Q436 0 417-8q-8-2-24-2-34 0-57 15t-30 31l-6 15q-1 1-4-1l-4-4q-59-56-120-56-55 0-97 40T33 157m318 171q0 6-5 22t-23 35-46 20q-35 0-67-31t-50-81q-29-79-41-164v-11q0-8-1-12 0-45 18-62t43-18q38 0 75 33t44 51q2 4 27 107t26 111"/><path id="c" d="M78 35v25l16 43 43 18q28 0 50-25t23-88q0-35-9-68t-21-57-26-41-24-27-13-9q-4 0-13 9t-9 13 11 16 25 30 26 50 16 73V9l-1-1q-2-1-5-2t-6-3-9-2-12-1q-27 0-44 17Z"/><path id="d" d="M73 647q0 10 4 23t12 13q1 0 72 5t73 6q12 0 12-9t-34-143q-8-34-17-70t-15-54l-4-19q0-3 6 3 49 40 101 40 62 0 100-46t39-116q0-111-79-201T173-11q-50 0-91 38T40 150v9q0 21 8 58t49 197q50 197 50 209t-38 14H83q-3 0-7 3t-3 7m263-322v6q0 74-61 74-17 0-35-8t-33-21-26-24-18-22l-6-8-21-86q-22-86-22-122 0-48 24-72 16-16 40-16 33 0 67 32 25 23 40 56t33 105 18 106"/><path id="e" d="M22 710v40h137V-250H22v40h97v920z"/></defs><g stroke="currentColor" fill="currentColor" stroke-width="0"><use data-c="5B" xlink:href="#a" transform="scale(1 -1)"/><use data-c="1D44E" xlink:href="#b" transform="scale(1 -1) translate(278)"/><use data-c="2C" xlink:href="#c" transform="scale(1 -1) translate(807)"/><use data-c="1D44F" xlink:href="#d" transform="scale(1 -1) translate(1251.7)"/><use data-c="5D" xlink:href="#e" transform="scale(1 -1) translate(1680.7)"/></g></svg>