<svg style="vertical-align:-1.948ex" xmlns="http://www.w3.org/2000/svg" width="45.332ex" height="5.027ex" viewBox="0 -1361 20036.8 2222" xmlns:xlink="http://www.w3.org/1999/xlink"><defs><path id="a" d="M114-798q18-26 51-26h2q28 0 56 60t52 164 45 209 42 227q3 21 5 31 72 425 156 788t122 472l10 30q4 12 17 44t27 56 34 49 44 40 51 14q56 0 84-35t32-80q0-25-12-40t-23-19-22-3q-21 0-38 15t-17 41q0 48 53 57l-3 4q-3 3-8 7t-8 6q-15 10-33 10-14 0-26-12t-32-56-39-116-47-203-56-308Q574 293 510-5T410-437t-55-192q-77-233-190-233-40 0-73 31t-37 85q0 35 19 48t38 13q21 0 38-15t17-41q0-48-53-57"/><path id="b" d="M118-162q2 0 6-2t11-3 12-1q13 0 24 13t16 29q10 27 34 153t46 240 22 115v3h-47q-47 0-50 2-4 3-4 10l7 28q2 5 8 5t47 1q48 0 48 1 0 2 9 50t12 58q37 165 146 165 37-2 61-22t24-53q0-36-21-52t-42-17q-44 0-44 42 0 19 11 33t24 21l9 5q-16 6-30 6-12 0-23-10t-15-28q-7-29-16-78t-16-83-7-36 55-2q45 0 52-1t11-6q1-4-2-17t-5-16q-2-5-9-5t-54-1h-56l-23-122Q301 15 282-47q-27-85-70-126-37-32-73-32-32 0-58 19t-26 54q0 37 21 54t42 17q44 0 44-42 0-19-11-33t-24-21z"/><path id="c" d="M94 250q0 69 10 131t23 107 37 88 38 67 42 52 33 34 25 21h17q14 0 14-9 0-3-17-21t-41-53-49-86-42-138-17-193 17-192 41-139 49-86 42-53 17-21q0-9-15-9h-16l-28 24q-94 85-137 212T94 250"/><path id="d" d="M52 289q7 42 54 97t116 56q35 0 64-18t43-45q42 63 101 63 37 0 64-22t28-59q0-29-14-47t-27-22-23-4q-19 0-31 11t-12 29q0 46 50 63-11 13-40 13-13 0-19-2-38-16-56-66-60-221-60-258 0-28 16-40t35-12q37 0 73 33t49 81q3 10 6 11t16 2h4q15 0 15-8 0-1-2-11-16-57-62-101T333-11q-70 0-106 63-41-62-94-62h-6q-49 0-70 26T35 71q0 32 19 52t45 20q43 0 43-42 0-20-12-35t-23-20-13-5l-3-1q0-1 6-4t16-7 19-3q36 0 62 45 9 16 23 68t28 108 16 66q5 27 5 39 0 28-15 40t-34 12q-40 0-75-32t-49-82q-2-9-5-10t-16-2H58q-6 6-6 11"/><path id="e" d="m60 749 4 1h22l28-24q94-85 137-212t43-264q0-68-10-131T261 12t-37-88-38-67-41-51-32-33-23-19l-4-4H63q-3 0-5 3t-3 9q1 1 11 13Q221-64 221 250T66 725q-10 12-11 13 0 8 5 11"/><path id="f" d="M311 43q-15-13-44-28T206 0q-63 0-101 45T66 160q0 105 77 193t171 89q47 0 87-48l3 4q2 3 5 6t9 8 13 7 16 3q14 0 23-9t10-19q0-15-57-242T363-80q-18-54-77-89t-135-36q-141 0-141 68 0 26 18 46t46 20q15 0 28-9t14-31q0-10-2-19t-7-14-8-10-7-8l-2-2h1q10-3 60-3 38 0 60 12 23 11 43 33t28 47q6 19 16 62 13 48 13 56m73 285-4 11q-3 11-5 15t-6 14-10 14-13 11-18 9-22 3q-44 0-85-53-30-39-50-119t-20-116q0-79 62-79 56 0 110 70l8 10z"/><path id="g" d="M366 683q1 0 72 5t73 6q12 0 12-8 0-7-73-302T375 83t-1-15q0-42 28-42 9 1 20 9 21 20 41 96 6 20 10 21 2 1 10 1h8q15 0 15-8 0-5-3-16-13-50-30-81T445 8 417-8q-8-2-24-2-34 0-57 15t-30 31l-6 15q-1 1-4-1l-4-4q-59-56-120-56-55 0-97 40T33 157q0 48 20 98t48 86q47 57 94 79t85 22q56 0 84-42 5-6 5-4 1 4 27 109t28 111q0 13-7 16t-39 5h-21q-6 6-6 8t2 19q5 19 13 19m-14-357q-23 79-75 79-35 0-67-31t-50-81q-29-79-41-164v-11q0-8-1-12 0-45 18-62t43-18q54 0 111 72l8 11z"/><path id="h" d="M56 347q0 13 14 20h637q15-8 15-20 0-11-14-19l-318-1H72q-16 5-16 20m0-194q0 15 16 20h636q14-10 14-20 0-13-15-20H70q-14 7-14 20"/><path id="i" d="M50 252q0 115 67 221t169 168 204 63q90 0 143-51 9-10 15-17t8-10l1-3q3 0 27 26 7 6 15 14t16 16 10 11l15 15h6q14 0 14-7 0-4-32-137-36-139-36-140-2-5-5-6t-18-2h-16q-6 6-6 9 0 1 1 7t2 20 1 32q0 71-32 124t-109 54q-18 0-39-3t-53-13-61-28-63-48-58-71-47-102-31-134q-2-18-2-39 0-48 14-85t36-57 50-34 52-17 45-4q54 0 99 23t62 59q3 8 15 55t12 53q0 8-13 10t-60 3h-37q-6 6-6 8t2 19q4 13 10 19h17q40-2 140-2h65q25 0 36 1t12 0q14 0 14-9 0-2-2-14-5-19-10-21-3-1-15-1-20 0-41-3-7-3-10-9t-14-51q-9-33-15-56Q589 6 586 3q-2-2-5-2-10 0-28 20t-23 31q0 1-2 0t-6-5q-74-69-200-69-121 0-196 77T50 252"/><path id="j" d="M84 237v13l14 20h581q15-8 15-20t-15-20H98q-14 7-14 20Z"/><path id="k" d="M79 43q-6 0-27 6T30 61q0 7 55 232t61 235q15 32 52 32 20 0 42-15t22-44q0-5-2-15-1-7-87-223T84 45t-5-2"/><path id="l" d="M78 60q0 24 17 42t43 18q24 0 42-16t19-43q0-25-17-43T139 0 96 17 78 60"/></defs><g stroke="currentColor" fill="currentColor" stroke-width="0"><use data-c="222B" xlink:href="#a" transform="scale(1 -1) translate(0 1)"/><use data-c="1D453" xlink:href="#b" transform="scale(1 -1) translate(1110.7)"/><use data-c="28" xlink:href="#c" transform="scale(1 -1) translate(1660.7)"/><use data-c="1D465" xlink:href="#d" transform="scale(1 -1) translate(2049.7)"/><use data-c="29" xlink:href="#e" transform="scale(1 -1) translate(2621.7)"/><use data-c="1D454" xlink:href="#f" transform="scale(1 -1) translate(3177.7)"/><use data-c="28" xlink:href="#c" transform="scale(1 -1) translate(3654.7)"/><use data-c="1D465" xlink:href="#d" transform="scale(1 -1) translate(4043.7)"/><use data-c="29" xlink:href="#e" transform="scale(1 -1) translate(4615.7)"/><use data-c="1D451" xlink:href="#g" transform="scale(1 -1) translate(5171.7)"/><use data-c="1D465" xlink:href="#d" transform="scale(1 -1) translate(5691.7)"/><use data-c="3D" xlink:href="#h" transform="scale(1 -1) translate(6541.4)"/><use data-c="1D453" xlink:href="#b" transform="scale(1 -1) translate(7597.2)"/><use data-c="28" xlink:href="#c" transform="scale(1 -1) translate(8147.2)"/><use data-c="1D465" xlink:href="#d" transform="scale(1 -1) translate(8536.2)"/><use data-c="29" xlink:href="#e" transform="scale(1 -1) translate(9108.2)"/><use data-c="1D43A" xlink:href="#i" transform="scale(1 -1) translate(9497.2)"/><use data-c="28" xlink:href="#c" transform="scale(1 -1) translate(10283.2)"/><use data-c="1D465" xlink:href="#d" transform="scale(1 -1) translate(10672.2)"/><use data-c="29" xlink:href="#e" transform="scale(1 -1) translate(11244.2)"/><use data-c="2212" xlink:href="#j" transform="scale(1 -1) translate(11855.4)"/><use data-c="222B" xlink:href="#a" transform="scale(1 -1) translate(12855.7 1)"/><use data-c="1D43A" xlink:href="#i" transform="scale(1 -1) translate(13966.3)"/><use data-c="28" xlink:href="#c" transform="scale(1 -1) translate(14752.3)"/><use data-c="1D465" xlink:href="#d" transform="scale(1 -1) translate(15141.3)"/><use data-c="29" xlink:href="#e" transform="scale(1 -1) translate(15713.3)"/><g><use data-c="1D453" xlink:href="#b" transform="scale(1 -1) translate(16269.3)"/><use data-c="2032" xlink:href="#k" transform="scale(1 -1) translate(16269.3) translate(636 413)scale(.707)"/></g><use data-c="28" xlink:href="#c" transform="scale(1 -1) translate(17149.8)"/><use data-c="1D465" xlink:href="#d" transform="scale(1 -1) translate(17538.8)"/><use data-c="29" xlink:href="#e" transform="scale(1 -1) translate(18110.8)"/><use data-c="1D451" xlink:href="#g" transform="scale(1 -1) translate(18666.8)"/><use data-c="1D465" xlink:href="#d" transform="scale(1 -1) translate(19186.8)"/><use data-c="2E" xlink:href="#l" transform="scale(1 -1) translate(19758.8)"/></g></svg>