<svg style="vertical-align:-2.819ex" xmlns="http://www.w3.org/2000/svg" width="60.458ex" height="7.045ex" viewBox="0 -1868.1 26722.6 3114" xmlns:xlink="http://www.w3.org/1999/xlink"><defs><path id="a" d="M60 948q3 2 605 2h602l58-135q59-138 63-146h-40l-7 14q-21 41-56 78-50 48-111 77t-141 43-151 17-183 4H251l8-11q463-633 465-639 1-2 0-6-3-3-264-302L196-356q0-1 211-1h141q89 0 128-1 136 0 220 5t167 21 141 49 103 87q21 26 41 72h40q0-1-7-21t-25-65-31-84l-58-155-601-1q-602 0-605 2-6 2-6 9 0 2 2 6l533 610q0 1-33 45T452 366 322 544L56 909l-1 15q0 21 5 24"/><path id="b" d="M184 600q0 24 19 42t44 19q18 0 30-12t13-30q0-23-20-42t-44-20q-15 0-28 10t-14 33M21 287q0 8 9 31t24 51 44 51 60 22q39 0 65-23t27-62q0-17-14-56t-40-105-42-113q-5-22-5-32 0-25 17-25 9 0 19 3t23 14 27 35 25 59q3 12 5 14t17 2q20 0 20-10 0-8-9-31t-25-51-45-50-62-22q-32 0-59 21T74 74q0 17 5 32t43 114q38 101 44 121t7 39q0 24-17 24h-2q-30 0-55-33t-38-84q-1-1-2-3t-1-3-2-2-3-1-4 0-8 0H27q-6 6-6 9"/><path id="c" d="M56 347q0 13 14 20h637q15-8 15-20 0-11-14-19l-318-1H72q-16 5-16 20m0-194q0 15 16 20h636q14-10 14-20 0-13-15-20H70q-14 7-14 20"/><path id="d" d="M96 585q56 81 153 81 48 0 96-26t78-92q37-83 37-228 0-155-43-237-20-42-55-67t-61-31-51-7q-26 0-52 6t-61 32-55 67q-43 82-43 237 0 174 57 265m225 12q-30 32-71 32-42 0-72-32-25-26-33-72t-8-192q0-158 8-208t36-79q28-30 69-30 40 0 68 30 29 30 36 84t8 203q0 145-8 191t-33 73"/><path id="e" d="M234 637h-8q-25 0-30 1t-5 11q0 27 11 33 2 1 97 1h88q11 0 14-6 211-496 215-509l54 213q53 211 53 225 0 27-64 31-24 0-24 11 0 2 2 12 4 16 6 19t10 4q3 0 31-1t83-2q50 0 76 1t30 1q15 0 15-10 0-22-8-30-2-5-22-5-71-4-89-40L620 7q-2-7-21-7-14 0-17 2-3 3-129 303L326 604l-65-260Q196 88 196 79q5-33 72-33h10q6-5 6-8t-2-19q-4-13-10-19h-13q-31 2-108 2H63Q49 2 46 1q-15 0-15 9 0 4 3 16t5 14q2 6 23 6 68 3 88 39 4 6 71 277l68 272q-2 1-55 3"/><path id="f" d="M423 750q9 0 15-6t6-14q0-5-173-482T92-240q-7-10-17-10-7 0-13 5t-6 14q0 10 174 488t177 483q4 10 16 10"/><path id="g" d="M51 0q-5 4-5 7 0 2 169 350t173 352q3 7 28 7 23 0 28-7 3-4 172-352T786 7q0-3-5-7zm456 344L384 596 137 92l246-1h247q0 2-123 253"/><path id="h" d="M52 289q7 42 54 97t116 56q35 0 64-18t43-45q42 63 101 63 37 0 64-22t28-59q0-29-14-47t-27-22-23-4q-19 0-31 11t-12 29q0 46 50 63-11 13-40 13-13 0-19-2-38-16-56-66-60-221-60-258 0-28 16-40t35-12q37 0 73 33t49 81q3 10 6 11t16 2h4q15 0 15-8 0-1-2-11-16-57-62-101T333-11q-70 0-106 63-41-62-94-62h-6q-49 0-70 26T35 71q0 32 19 52t45 20q43 0 43-42 0-20-12-35t-23-20-13-5l-3-1q0-1 6-4t16-7 19-3q36 0 62 45 9 16 23 68t28 108 16 66q5 27 5 39 0 28-15 40t-34 12q-40 0-75-32t-49-82q-2-9-5-10t-16-2H58q-6 6-6 11"/><path id="i" d="M224-649v1799h231v-51H275V-598h180v-51z"/><path id="j" d="M118-162q2 0 6-2t11-3 12-1q13 0 24 13t16 29q10 27 34 153t46 240 22 115v3h-47q-47 0-50 2-4 3-4 10l7 28q2 5 8 5t47 1q48 0 48 1 0 2 9 50t12 58q37 165 146 165 37-2 61-22t24-53q0-36-21-52t-42-17q-44 0-44 42 0 19 11 33t24 21l9 5q-16 6-30 6-12 0-23-10t-15-28q-7-29-16-78t-16-83-7-36 55-2q45 0 52-1t11-6q1-4-2-17t-5-16q-2-5-9-5t-54-1h-56l-23-122Q301 15 282-47q-27-85-70-126-37-32-73-32-32 0-58 19t-26 54q0 37 21 54t42 17q44 0 44-42 0-19-11-33t-24-21z"/><path id="k" d="M94 250q0 69 10 131t23 107 37 88 38 67 42 52 33 34 25 21h17q14 0 14-9 0-3-17-21t-41-53-49-86-42-138-17-193 17-192 41-139 49-86 42-53 17-21q0-9-15-9h-16l-28 24q-94 85-137 212T94 250"/><path id="l" d="M56 237v13l14 20h299v150l1 150q10 13 19 13 13 0 20-15V270h298q15-8 15-20t-15-20H409V-68q-8-14-18-14h-4q-12 0-18 14v298H70q-14 7-14 20Z"/><path id="m" d="m213 578-13-5q-14-5-40-10t-58-7H83v46h19q47 2 87 15t56 24 28 22q2 3 12 3 9 0 17-6V361l1-300q7-7 12-9t24-4 62-2h26V0h-11q-21 3-159 3-136 0-157-3H88v46h64q16 0 25 1t16 3 8 2 6 5 6 4z"/><path id="n" d="m60 749 4 1h22l28-24q94-85 137-212t43-264q0-68-10-131T261 12t-37-88-38-67-41-51-32-33-23-19l-4-4H63q-3 0-5 3t-3 9q1 1 11 13Q221-64 221 250T66 725q-10 12-11 13 0 8 5 11"/><path id="o" d="M50 252q0 115 67 221t169 168 204 63q90 0 143-51 9-10 15-17t8-10l1-3q3 0 27 26 7 6 15 14t16 16 10 11l15 15h6q14 0 14-7 0-4-32-137-36-139-36-140-2-5-5-6t-18-2h-16q-6 6-6 9 0 1 1 7t2 20 1 32q0 71-32 124t-109 54q-18 0-39-3t-53-13-61-28-63-48-58-71-47-102-31-134q-2-18-2-39 0-48 14-85t36-57 50-34 52-17 45-4q54 0 99 23t62 59q3 8 15 55t12 53q0 8-13 10t-60 3h-37q-6 6-6 8t2 19q4 13 10 19h17q40-2 140-2h65q25 0 36 1t12 0q14 0 14-9 0-2-2-14-5-19-10-21-3-1-15-1-20 0-41-3-7-3-10-9t-14-51q-9-33-15-56Q589 6 586 3q-2-2-5-2-10 0-28 20t-23 31q0 1-2 0t-6-5q-74-69-200-69-121 0-196 77T50 252"/><path id="p" d="M84 237v13l14 20h581q15-8 15-20t-15-20H98q-14 7-14 20Z"/><path id="q" d="M16 1099v51h231V-649H16v51h180v1697z"/><path id="r" d="M78 60q0 24 17 42t43 18q24 0 42-16t19-43q0-25-17-43T139 0 96 17 78 60"/></defs><g stroke="currentColor" fill="currentColor" stroke-width="0"><g><use data-c="2211" xlink:href="#a" transform="scale(1 -1) translate(265.5)"/><g data-mjx-texclass="ORD"><use data-c="1D456" xlink:href="#b" transform="scale(1 -1) translate(413.7 -1087.9)scale(.707)"/><use data-c="3D" xlink:href="#c" transform="scale(1 -1) translate(413.7 -1087.9)scale(.707) translate(345)"/><use data-c="30" xlink:href="#d" transform="scale(1 -1) translate(413.7 -1087.9)scale(.707) translate(1123)"/></g><g data-mjx-texclass="ORD"><use data-c="1D441" xlink:href="#e" transform="scale(1 -1) translate(0 1237.8)scale(.707)"/><g data-mjx-texclass="ORD"><use data-c="2F" xlink:href="#f" transform="scale(1 -1) translate(0 1237.8)scale(.707) translate(888)"/></g><use data-c="394" xlink:href="#g" transform="scale(1 -1) translate(0 1237.8)scale(.707) translate(1388)"/><use data-c="1D465" xlink:href="#h" transform="scale(1 -1) translate(0 1237.8)scale(.707) translate(2221)"/></g></g><g data-mjx-texclass="OPEN"><use data-c="5B" xlink:href="#i" transform="scale(1 -1) translate(1974.9) translate(0 -.5)"/></g><use data-c="1D453" xlink:href="#j" transform="scale(1 -1) translate(2446.9)"/><use data-c="28" xlink:href="#k" transform="scale(1 -1) translate(2996.9)"/><g><use data-c="1D465" xlink:href="#h" transform="scale(1 -1) translate(3385.9)"/><g data-mjx-texclass="ORD"><use data-c="1D456" xlink:href="#b" transform="scale(1 -1) translate(3385.9) translate(605 -150)scale(.707)"/><use data-c="2B" xlink:href="#l" transform="scale(1 -1) translate(3385.9) translate(605 -150)scale(.707) translate(345)"/><use data-c="31" xlink:href="#m" transform="scale(1 -1) translate(3385.9) translate(605 -150)scale(.707) translate(1123)"/></g></g><use data-c="29" xlink:href="#n" transform="scale(1 -1) translate(5188.6)"/><use data-c="1D43A" xlink:href="#o" transform="scale(1 -1) translate(5577.6)"/><use data-c="28" xlink:href="#k" transform="scale(1 -1) translate(6363.6)"/><g><use data-c="1D465" xlink:href="#h" transform="scale(1 -1) translate(6752.6)"/><g data-mjx-texclass="ORD"><use data-c="1D456" xlink:href="#b" transform="scale(1 -1) translate(6752.6) translate(605 -150)scale(.707)"/><use data-c="2B" xlink:href="#l" transform="scale(1 -1) translate(6752.6) translate(605 -150)scale(.707) translate(345)"/><use data-c="31" xlink:href="#m" transform="scale(1 -1) translate(6752.6) translate(605 -150)scale(.707) translate(1123)"/></g></g><use data-c="29" xlink:href="#n" transform="scale(1 -1) translate(8555.2)"/><use data-c="2212" xlink:href="#p" transform="scale(1 -1) translate(9166.4)"/><use data-c="1D453" xlink:href="#j" transform="scale(1 -1) translate(10166.7)"/><use data-c="28" xlink:href="#k" transform="scale(1 -1) translate(10716.7)"/><g><use data-c="1D465" xlink:href="#h" transform="scale(1 -1) translate(11105.7)"/><use data-c="1D456" xlink:href="#b" transform="scale(1 -1) translate(11105.7) translate(605 -150)scale(.707)"/></g><use data-c="29" xlink:href="#n" transform="scale(1 -1) translate(12004.6)"/><use data-c="1D43A" xlink:href="#o" transform="scale(1 -1) translate(12393.6)"/><use data-c="28" xlink:href="#k" transform="scale(1 -1) translate(13179.6)"/><g><use data-c="1D465" xlink:href="#h" transform="scale(1 -1) translate(13568.6)"/><use data-c="1D456" xlink:href="#b" transform="scale(1 -1) translate(13568.6) translate(605 -150)scale(.707)"/></g><use data-c="29" xlink:href="#n" transform="scale(1 -1) translate(14467.6)"/><g data-mjx-texclass="CLOSE"><use data-c="5D" xlink:href="#q" transform="scale(1 -1) translate(14856.6) translate(0 -.5)"/></g><use data-c="3D" xlink:href="#c" transform="scale(1 -1) translate(15606.3)"/><use data-c="1D453" xlink:href="#j" transform="scale(1 -1) translate(16662.1)"/><use data-c="28" xlink:href="#k" transform="scale(1 -1) translate(17212.1)"/><use data-c="1D441" xlink:href="#e" transform="scale(1 -1) translate(17601.1)"/><use data-c="29" xlink:href="#n" transform="scale(1 -1) translate(18489.1)"/><use data-c="1D43A" xlink:href="#o" transform="scale(1 -1) translate(18878.1)"/><use data-c="28" xlink:href="#k" transform="scale(1 -1) translate(19664.1)"/><use data-c="1D441" xlink:href="#e" transform="scale(1 -1) translate(20053.1)"/><use data-c="29" xlink:href="#n" transform="scale(1 -1) translate(20941.1)"/><use data-c="2212" xlink:href="#p" transform="scale(1 -1) translate(21552.3)"/><use data-c="1D453" xlink:href="#j" transform="scale(1 -1) translate(22552.6)"/><use data-c="28" xlink:href="#k" transform="scale(1 -1) translate(23102.6)"/><use data-c="30" xlink:href="#d" transform="scale(1 -1) translate(23491.6)"/><use data-c="29" xlink:href="#n" transform="scale(1 -1) translate(23991.6)"/><use data-c="1D43A" xlink:href="#o" transform="scale(1 -1) translate(24380.6)"/><use data-c="28" xlink:href="#k" transform="scale(1 -1) translate(25166.6)"/><use data-c="30" xlink:href="#d" transform="scale(1 -1) translate(25555.6)"/><use data-c="29" xlink:href="#n" transform="scale(1 -1) translate(26055.6)"/><use data-c="2E" xlink:href="#r" transform="scale(1 -1) translate(26444.6)"/></g></svg>