<svg style="vertical-align:-.566ex" xmlns="http://www.w3.org/2000/svg" width="5.656ex" height="2.262ex" viewBox="0 -750 2500 1000" xmlns:xlink="http://www.w3.org/1999/xlink"><defs><path id="a" d="M55 217q0 88 56 156t143 69q88 0 165-61 38-31 74-78l14-19 7 10q104 148 233 148 86 0 141-68t56-160q0-86-55-155T743-11q-86 0-163 61-38 31-74 78l-14 19-7-10Q381-11 252-11q-86 0-141 68T55 217m852 0q0 68-38 124t-108 56q-21 0-41-5t-38-14-34-19-29-24-25-25-20-25-15-22-11-17l-5-8 31-40q31-40 48-60t42-44 50-33 51-10q62 0 102 49t40 117m-815-3q0-69 39-125t108-56q118 0 217 160l-31 40q-61 79-91 104-49 43-101 43-62 0-101-49T92 214"/><path id="b" d="M423 750q9 0 15-6t6-14q0-5-173-482T92-240q-7-10-17-10-7 0-13 5t-6 14q0 10 174 488t177 483q4 10 16 10"/></defs><g stroke="currentColor" fill="currentColor" stroke-width="0"><use data-c="221E" xlink:href="#a" transform="scale(1 -1)"/><g data-mjx-texclass="ORD"><use data-c="2F" xlink:href="#b" transform="scale(1 -1) translate(1000)"/></g><use data-c="221E" xlink:href="#a" transform="scale(1 -1) translate(1500)"/></g></svg>