<svg style="vertical-align:-3.98ex" xmlns="http://www.w3.org/2000/svg" width="36.964ex" height="9.09ex" viewBox="0 -2259 16338.3 4018" xmlns:xlink="http://www.w3.org/1999/xlink"><defs><path id="a" d="M118-162q2 0 6-2t11-3 12-1q13 0 24 13t16 29q10 27 34 153t46 240 22 115v3h-47q-47 0-50 2-4 3-4 10l7 28q2 5 8 5t47 1q48 0 48 1 0 2 9 50t12 58q37 165 146 165 37-2 61-22t24-53q0-36-21-52t-42-17q-44 0-44 42 0 19 11 33t24 21l9 5q-16 6-30 6-12 0-23-10t-15-28q-7-29-16-78t-16-83-7-36 55-2q45 0 52-1t11-6q1-4-2-17t-5-16q-2-5-9-5t-54-1h-56l-23-122Q301 15 282-47q-27-85-70-126-37-32-73-32-32 0-58 19t-26 54q0 37 21 54t42 17q44 0 44-42 0-19-11-33t-24-21z"/><path id="b" d="M94 250q0 69 10 131t23 107 37 88 38 67 42 52 33 34 25 21h17q14 0 14-9 0-3-17-21t-41-53-49-86-42-138-17-193 17-192 41-139 49-86 42-53 17-21q0-9-15-9h-16l-28 24q-94 85-137 212T94 250"/><path id="c" d="M33 157q0 101 76 192t171 92q51 0 90-49 16 30 46 30 13 0 23-8t10-20q0-13-37-160T374 68q0-25 7-33t21-9q9 1 20 9 21 20 41 96 6 20 10 21 2 1 10 1h4q19 0 19-9 0-6-5-27t-20-54-32-50Q436 0 417-8q-8-2-24-2-34 0-57 15t-30 31l-6 15q-1 1-4-1l-4-4q-59-56-120-56-55 0-97 40T33 157m318 171q0 6-5 22t-23 35-46 20q-35 0-67-31t-50-81q-29-79-41-164v-11q0-8-1-12 0-45 18-62t43-18q38 0 75 33t44 51q2 4 27 107t26 111"/><path id="d" d="M56 237v13l14 20h299v150l1 150q10 13 19 13 13 0 20-15V270h298q15-8 15-20t-15-20H409V-68q-8-14-18-14h-4q-12 0-18 14v298H70q-14 7-14 20Z"/><path id="e" d="M137 683q1 0 72 5t73 6q12 0 12-9 0-11-36-151-38-148-38-151 0-2 7 5 61 54 130 54 54 0 87-27t34-79q0-51-38-158T402 50q1-14 5-19t15-5q28 0 52 30t39 82q3 11 6 13t16 2q20 0 20-8 0-1-4-15-16-59-51-97-34-43-81-43h-5q-47 0-68 27t-21 57q0 16 36 118t37 153q0 59-44 59h-5q-83 0-144-98l-7-13-34-135Q132 28 127 16q-13-27-44-27-14 0-24 9T48 16q0 14 73 304l74 296q0 13-7 16t-39 5h-21q-6 6-6 8t2 19q5 19 13 19"/><path id="f" d="m60 749 4 1h22l28-24q94-85 137-212t43-264q0-68-10-131T261 12t-37-88-38-67-41-51-32-33-23-19l-4-4H63q-3 0-5 3t-3 9q1 1 11 13Q221-64 221 250T66 725q-10 12-11 13 0 8 5 11"/><path id="g" d="M311 43q-15-13-44-28T206 0q-63 0-101 45T66 160q0 105 77 193t171 89q47 0 87-48l3 4q2 3 5 6t9 8 13 7 16 3q14 0 23-9t10-19q0-15-57-242T363-80q-18-54-77-89t-135-36q-141 0-141 68 0 26 18 46t46 20q15 0 28-9t14-31q0-10-2-19t-7-14-8-10-7-8l-2-2h1q10-3 60-3 38 0 60 12 23 11 43 33t28 47q6 19 16 62 13 48 13 56m73 285-4 11q-3 11-5 15t-6 14-10 14-13 11-18 9-22 3q-44 0-85-53-30-39-50-119t-20-116q0-79 62-79 56 0 110 70l8 10z"/><path id="h" d="M56 347q0 13 14 20h637q15-8 15-20 0-11-14-19l-318-1H72q-16 5-16 20m0-194q0 15 16 20h636q14-10 14-20 0-13-15-20H70q-14 7-14 20"/><path id="i" d="M224-649v1799h231v-51H275V-598h180v-51z"/><path id="j" d="M79 43q-6 0-27 6T30 61q0 7 55 232t61 235q15 32 52 32 20 0 42-15t22-44q0-5-2-15-1-7-87-223T84 45t-5-2"/><path id="k" d="M109 429q-27 0-43 18t-16 44q0 71 53 123t132 52q91 0 152-56t62-145q0-43-20-82t-48-68-80-74q-36-31-100-92l-59-56 76-1q157 0 167 5 7 2 24 89v3h40v-3q-1-3-13-91T421 3V0H50v31q0 7 6 15t30 35q29 32 50 56 9 10 34 37t34 37 29 33 28 34 23 30 21 32 15 29 13 32 7 30 3 33q0 63-34 109t-97 46q-33 0-58-17t-35-33-10-19q0-1 5-1 18 0 37-14t19-46q0-25-16-42t-45-18"/><path id="l" d="M78 661q0 21 18 38t42 17 42-16 19-39q0-7-20-229t-21-226q-2-8-19-8-18 0-20 8-1 3-21 225T78 661m1-600q0 28 18 44t44 16q23-2 40-17t17-43q0-30-17-45T139 1 97 16 79 61"/><path id="m" d="M78 250q0 24 17 42t43 18q24 0 42-16t19-43q0-25-17-43t-43-18-43 17-18 43m447 0q0 24 17 42t43 18q24 0 42-16t19-43q0-25-17-43t-43-18-43 17-18 43m447 0q0 24 17 42t43 18q24 0 42-16t19-43q0-25-17-43t-43-18-43 17-18 43"/><path id="n" d="M16 1099v51h231V-649H16v51h180v1697z"/><path id="o" d="M78 60q0 24 17 42t43 18q24 0 42-16t19-43q0-25-17-43T139 0 96 17 78 60"/></defs><g stroke="currentColor" fill="currentColor" stroke-width="0"><g transform="scale(1 -1)"><g><use data-c="1D453" xlink:href="#a" transform="translate(220 710)"/><use data-c="28" xlink:href="#b" transform="translate(220 710) translate(550)"/><use data-c="1D44E" xlink:href="#c" transform="translate(220 710) translate(939)"/><use data-c="2B" xlink:href="#d" transform="translate(220 710) translate(1690.2)"/><use data-c="210E" xlink:href="#e" transform="translate(220 710) translate(2690.4)"/><use data-c="29" xlink:href="#f" transform="translate(220 710) translate(3266.4)"/></g><g><use data-c="1D454" xlink:href="#g" transform="translate(256.5 -710)"/><use data-c="28" xlink:href="#b" transform="translate(256.5 -710) translate(477)"/><use data-c="1D44E" xlink:href="#c" transform="translate(256.5 -710) translate(866)"/><use data-c="2B" xlink:href="#d" transform="translate(256.5 -710) translate(1617.2)"/><use data-c="210E" xlink:href="#e" transform="translate(256.5 -710) translate(2617.4)"/><use data-c="29" xlink:href="#f" transform="translate(256.5 -710) translate(3193.4)"/></g><path stroke="none" d="M120 220H3975.4V280H120z"/></g><use data-c="3D" xlink:href="#h" transform="scale(1 -1) translate(4373.2)"/><g transform="scale(1 -1) translate(5429)"><g><use data-c="210E" xlink:href="#e" transform="translate(220 1109.5)"/><g><use data-c="5B" xlink:href="#i" transform="translate(220 1109.5) translate(742.7) translate(0 -.5)"/><g><use data-c="1D453" xlink:href="#a" transform="translate(220 1109.5) translate(742.7) translate(472)"/><use data-c="2032" xlink:href="#j" transform="translate(220 1109.5) translate(742.7) translate(472) translate(636 363)scale(.707)"/></g><use data-c="28" xlink:href="#b" transform="translate(220 1109.5) translate(742.7) translate(1352.5)"/><use data-c="1D44E" xlink:href="#c" transform="translate(220 1109.5) translate(742.7) translate(1741.5)"/><use data-c="29" xlink:href="#f" transform="translate(220 1109.5) translate(742.7) translate(2270.5)"/><use data-c="2B" xlink:href="#d" transform="translate(220 1109.5) translate(742.7) translate(2881.7)"/><g transform="translate(220 1109.5) translate(742.7) translate(3881.9)"><g><g><use data-c="1D453" xlink:href="#a" transform="translate(220 516.8)scale(.707)"/><g data-c="2033" transform="translate(220 516.8)scale(.707) translate(636 363)scale(.707)"><use data-c="2032" xlink:href="#j"/><use data-c="2032" xlink:href="#j" transform="translate(275)"/></g></g><use data-c="28" xlink:href="#b" transform="translate(220 516.8)scale(.707) translate(1074.9)"/><use data-c="1D44E" xlink:href="#c" transform="translate(220 516.8)scale(.707) translate(1463.9)"/><use data-c="29" xlink:href="#f" transform="translate(220 516.8)scale(.707) translate(1992.9)"/></g><g><use data-c="32" xlink:href="#k" transform="translate(787.1 -346.3)scale(.707)"/><use data-c="21" xlink:href="#l" transform="translate(787.1 -346.3)scale(.707) translate(500)"/></g><path stroke="none" d="M120 220H2004.3V280H120z"/></g><use data-c="210E" xlink:href="#e" transform="translate(220 1109.5) translate(742.7) translate(6006.2)"/><use data-c="2B" xlink:href="#d" transform="translate(220 1109.5) translate(742.7) translate(6804.4)"/><use data-c="22EF" xlink:href="#m" transform="translate(220 1109.5) translate(742.7) translate(7804.6)"/><use data-c="5D" xlink:href="#n" transform="translate(220 1109.5) translate(742.7) translate(8976.6 -.5)"/></g></g><g><use data-c="210E" xlink:href="#e" transform="translate(327.5 -1109.5)"/><g><use data-c="5B" xlink:href="#i" transform="translate(327.5 -1109.5) translate(742.7) translate(0 -.5)"/><g><use data-c="1D454" xlink:href="#g" transform="translate(327.5 -1109.5) translate(742.7) translate(472)"/><use data-c="2032" xlink:href="#j" transform="translate(327.5 -1109.5) translate(742.7) translate(472) translate(510 289)scale(.707)"/></g><use data-c="28" xlink:href="#b" transform="translate(327.5 -1109.5) translate(742.7) translate(1226.5)"/><use data-c="1D44E" xlink:href="#c" transform="translate(327.5 -1109.5) translate(742.7) translate(1615.5)"/><use data-c="29" xlink:href="#f" transform="translate(327.5 -1109.5) translate(742.7) translate(2144.5)"/><use data-c="2B" xlink:href="#d" transform="translate(327.5 -1109.5) translate(742.7) translate(2755.7)"/><g transform="translate(327.5 -1109.5) translate(742.7) translate(3755.9)"><g><g><use data-c="1D454" xlink:href="#g" transform="translate(220 516.8)scale(.707)"/><g data-c="2033" transform="translate(220 516.8)scale(.707) translate(510 289)scale(.707)"><use data-c="2032" xlink:href="#j"/><use data-c="2032" xlink:href="#j" transform="translate(275)"/></g></g><use data-c="28" xlink:href="#b" transform="translate(220 516.8)scale(.707) translate(948.9)"/><use data-c="1D44E" xlink:href="#c" transform="translate(220 516.8)scale(.707) translate(1337.9)"/><use data-c="29" xlink:href="#f" transform="translate(220 516.8)scale(.707) translate(1866.9)"/></g><g><use data-c="32" xlink:href="#k" transform="translate(742.5 -346.3)scale(.707)"/><use data-c="21" xlink:href="#l" transform="translate(742.5 -346.3)scale(.707) translate(500)"/></g><path stroke="none" d="M120 220H1915.2V280H120z"/></g><use data-c="210E" xlink:href="#e" transform="translate(327.5 -1109.5) translate(742.7) translate(5791.1)"/><use data-c="2B" xlink:href="#d" transform="translate(327.5 -1109.5) translate(742.7) translate(6589.3)"/><use data-c="22EF" xlink:href="#m" transform="translate(327.5 -1109.5) translate(742.7) translate(7589.5)"/><use data-c="5D" xlink:href="#n" transform="translate(327.5 -1109.5) translate(742.7) translate(8761.5 -.5)"/></g></g><path stroke="none" d="M120 220H10511.3V280H120z"/></g><use data-c="2E" xlink:href="#o" transform="scale(1 -1) translate(16060.3)"/></g></svg>