<svg style="vertical-align:-2.148ex" xmlns="http://www.w3.org/2000/svg" width="12.514ex" height="5.428ex" viewBox="0 -1449.5 5531 2399" xmlns:xlink="http://www.w3.org/1999/xlink"><defs><path id="a" d="M701-940q0-3-6-9h-31q-2 2-28 27t-45 43-54 61-62 81-63 101-62 125-55 149-45 176-29 203-12 234q0 711 364 1110 23 25 43 44t33 32 15 13h31q6-6 6-9 0-5-20-26t-52-59-72-95-81-143-76-191-60-252-32-316q-2-38-2-109 0-389 94-680t290-494q11-12 11-16"/><path id="b" d="M23 287q1 3 2 8t5 22 10 31 15 33 20 30 26 22 33 9q75 0 96-64l10 9q62 55 118 55 65 0 102-47t37-114q0-108-76-199T249-10q-22 0-39 6-11 5-23 15t-19 17l-7 8q-1-1-22-87t-21-87q0-6 8-7t37-3h25q6-7 6-9t-3-18q-3-12-6-15t-13-4h-11q-9 0-34 1t-62 1q-70 0-89-2h-8q-7 7-7 11 2 27 13 35h20q34 1 39 12 3 6 61 239t61 247q1 5 1 14 0 41-25 41-22 0-37-28t-23-61-12-36q-2-2-16-2H29q-6 6-6 9m155-185q22-76 74-76 30 0 58 23t46 58q18 34 36 108t19 110v6q0 74-61 74-11 0-22-3t-22-9-20-13-17-15-15-15-11-14-8-10l-3-4q0-1-3-14t-11-44-14-52q-26-106-26-110"/><path id="c" d="M56 237v13l14 20h299v150l1 150q10 13 19 13 13 0 20-15V270h298q15-8 15-20t-15-20H409V-68q-8-14-18-14h-4q-12 0-18 14v298H70q-14 7-14 20Z"/><path id="d" d="m213 578-13-5q-14-5-40-10t-58-7H83v46h19q47 2 87 15t56 24 28 22q2 3 12 3 9 0 17-6V361l1-300q7-7 12-9t24-4 62-2h26V0h-11q-21 3-159 3-136 0-157-3H88v46h64q16 0 25 1t16 3 8 2 6 5 6 4z"/><path id="e" d="M96 585q56 81 153 81 48 0 96-26t78-92q37-83 37-228 0-155-43-237-20-42-55-67t-61-31-51-7q-26 0-52 6t-61 32-55 67q-43 82-43 237 0 174 57 265m225 12q-30 32-71 32-42 0-72-32-25-26-33-72t-8-192q0-158 8-208t36-79q28-30 69-30 40 0 68 30 29 30 36 84t8 203q0 145-8 191t-33 73"/><path id="f" d="M34 1438q0 8 3 10t13 2h21q2-2 28-27t45-43 54-61 62-81 63-101 62-124 55-149 45-176 29-203 12-234q0-117-7-198-47-572-357-913-23-25-43-44t-33-32-15-13H56q-13 0-17 2t-5 10q54 54 106 124Q428-430 428 251q0 202-26 377t-64 294-93 224-100 163-99 116l-4 4q-2 2-3 4t-3 3z"/><path id="g" d="M56 347q0 13 14 20h637q15-8 15-20 0-11-14-19l-318-1H72q-16 5-16 20m0-194q0 15 16 20h636q14-10 14-20 0-13-15-20H70q-14 7-14 20"/></defs><g stroke="currentColor" fill="currentColor" stroke-width="0"><g><g data-mjx-texclass="OPEN"><use data-c="28" xlink:href="#a" transform="scale(1 -1) translate(0 -.5)"/></g><g><g><use data-c="1D45D" xlink:href="#b" transform="scale(1 -1) translate(736) translate(0 676)"/><use data-c="2B" xlink:href="#c" transform="scale(1 -1) translate(736) translate(0 676) translate(725.2)"/><use data-c="31" xlink:href="#d" transform="scale(1 -1) translate(736) translate(0 676) translate(1725.4)"/></g><use data-c="30" xlink:href="#e" transform="scale(1 -1) translate(736) translate(862.7 -686)"/></g><g data-mjx-texclass="CLOSE"><use data-c="29" xlink:href="#f" transform="scale(1 -1) translate(2961.4) translate(0 -.5)"/></g></g><use data-c="3D" xlink:href="#g" transform="scale(1 -1) translate(3975.2)"/><use data-c="31" xlink:href="#d" transform="scale(1 -1) translate(5031)"/></g></svg>