<svg style="vertical-align:-.65ex" xmlns="http://www.w3.org/2000/svg" width="47.873ex" height="2.65ex" viewBox="0 -883.9 21159.9 1171.1" xmlns:xlink="http://www.w3.org/1999/xlink"><defs><path id="a" d="M308 24q59 0 108 52t50 121q0 63-52 87-106 27-136 37t-42 20q-60 42-60 121 0 61 32 111t65 75q29 25 70 40t64 16h18q96 0 139-64 1 0 13 13t26 29 20 22h4q3 0 5 1 13 0 13-7t-28-121-32-118-16-3q-20 0-20 9 0 6 1 10 0 3 1 19t2 26q0 34-9 59t-18 37-25 25q-36 21-82 21-57 0-106-46t-50-106q0-30 15-52t41-31q4-2 70-19t67-18q34-11 66-48t32-100q0-26-8-56-5-22-18-49t-36-59-66-60-94-38q-12-2-34-2-99 0-154 55l-10 11-28-31Q83-14 78-18t-13-4q-13 0-13 8 0 3 58 235 2 6 20 6h13q6-6 6-11 0-2-1-9t-4-21-2-33q2-39 18-66t43-40 52-18 53-5"/><path id="b" d="M23 287q1 3 2 8t5 22 10 31 15 33 20 30 26 22 33 9q75 0 96-64l10 9q62 55 118 55 65 0 102-47t37-114q0-108-76-199T249-10q-22 0-39 6-11 5-23 15t-19 17l-7 8q-1-1-22-87t-21-87q0-6 8-7t37-3h25q6-7 6-9t-3-18q-3-12-6-15t-13-4h-11q-9 0-34 1t-62 1q-70 0-89-2h-8q-7 7-7 11 2 27 13 35h20q34 1 39 12 3 6 61 239t61 247q1 5 1 14 0 41-25 41-22 0-37-28t-23-61-12-36q-2-2-16-2H29q-6 6-6 9m155-185q22-76 74-76 30 0 58 23t46 58q18 34 36 108t19 110v6q0 74-61 74-11 0-22-3t-22-9-20-13-17-15-15-15-11-14-8-10l-3-4q0-1-3-14t-11-44-14-52q-26-106-26-110"/><path id="c" d="M94 250q0 69 10 131t23 107 37 88 38 67 42 52 33 34 25 21h17q14 0 14-9 0-3-17-21t-41-53-49-86-42-138-17-193 17-192 41-139 49-86 42-53 17-21q0-9-15-9h-16l-28 24q-94 85-137 212T94 250"/><path id="d" d="M21 287q1 6 3 16t12 38 20 47 33 37 46 17q36 0 60-18t30-34 6-21q0-2 1-2l11 11q61 64 139 64 54 0 87-27t34-79-38-157-38-127q0-26 17-26 6 0 9 1 29 5 52 38t35 80q2 8 20 8 20 0 20-8 0-1-4-15-8-29-22-57t-46-56-69-27q-47 0-68 27t-21 56q0 19 36 120t37 152q0 59-44 59h-5q-86 0-145-101l-7-12-33-134Q156 26 151 16q-13-27-43-27-13 0-21 6T76 7t-2 10q0 13 38 163t40 163q1 5 1 23 0 39-24 39-38 0-63-100-6-20-6-21-2-6-19-6H27q-6 6-6 9"/><path id="e" d="m60 749 4 1h22l28-24q94-85 137-212t43-264q0-68-10-131T261 12t-37-88-38-67-41-51-32-33-23-19l-4-4H63q-3 0-5 3t-3 9q1 1 11 13Q221-64 221 250T66 725q-10 12-11 13 0 8 5 11"/><path id="f" d="M56 347q0 13 14 20h637q15-8 15-20 0-11-14-19l-318-1H72q-16 5-16 20m0-194q0 15 16 20h636q14-10 14-20 0-13-15-20H70q-14 7-14 20"/><path id="g" d="M33 157q0 101 76 192t171 92q51 0 90-49 16 30 46 30 13 0 23-8t10-20q0-13-37-160T374 68q0-25 7-33t21-9q9 1 20 9 21 20 41 96 6 20 10 21 2 1 10 1h4q19 0 19-9 0-6-5-27t-20-54-32-50Q436 0 417-8q-8-2-24-2-34 0-57 15t-30 31l-6 15q-1 1-4-1l-4-4q-59-56-120-56-55 0-97 40T33 157m318 171q0 6-5 22t-23 35-46 20q-35 0-67-31t-50-81q-29-79-41-164v-11q0-8-1-12 0-45 18-62t43-18q38 0 75 33t44 51q2 4 27 107t26 111"/><path id="h" d="M78 35v25l16 43 43 18q28 0 50-25t23-88q0-35-9-68t-21-57-26-41-24-27-13-9q-4 0-13 9t-9 13 11 16 25 30 26 50 16 73V9l-1-1q-2-1-5-2t-6-3-9-2-12-1q-27 0-44 17Z"/><path id="i" d="M96 585q56 81 153 81 48 0 96-26t78-92q37-83 37-228 0-155-43-237-20-42-55-67t-61-31-51-7q-26 0-52 6t-61 32-55 67q-43 82-43 237 0 174 57 265m225 12q-30 32-71 32-42 0-72-32-25-26-33-72t-8-192q0-158 8-208t36-79q28-30 69-30 40 0 68 30 29 30 36 84t8 203q0 145-8 191t-33 73"/><path id="j" d="M56 237v13l14 20h299v150l1 150q10 13 19 13 13 0 20-15V270h298q15-8 15-20t-15-20H409V-68q-8-14-18-14h-4q-12 0-18 14v298H70q-14 7-14 20Z"/><path id="k" d="m213 578-13-5q-14-5-40-10t-58-7H83v46h19q47 2 87 15t56 24 28 22q2 3 12 3 9 0 17-6V361l1-300q7-7 12-9t24-4 62-2h26V0h-11q-21 3-159 3-136 0-157-3H88v46h64q16 0 25 1t16 3 8 2 6 5 6 4z"/><path id="l" d="M109 429q-27 0-43 18t-16 44q0 71 53 123t132 52q91 0 152-56t62-145q0-43-20-82t-48-68-80-74q-36-31-100-92l-59-56 76-1q157 0 167 5 7 2 24 89v3h40v-3q-1-3-13-91T421 3V0H50v31q0 7 6 15t30 35q29 32 50 56 9 10 34 37t34 37 29 33 28 34 23 30 21 32 15 29 13 32 7 30 3 33q0 63-34 109t-97 46q-33 0-58-17t-35-33-10-19q0-1 5-1 18 0 37-14t19-46q0-25-16-42t-45-18"/><path id="m" d="M78 250q0 24 17 42t43 18q24 0 42-16t19-43q0-25-17-43t-43-18-43 17-18 43m447 0q0 24 17 42t43 18q24 0 42-16t19-43q0-25-17-43t-43-18-43 17-18 43m447 0q0 24 17 42t43 18q24 0 42-16t19-43q0-25-17-43t-43-18-43 17-18 43"/><path id="n" d="M78 60q0 24 17 42t43 18q24 0 42-16t19-43q0-25-17-43T139 0 96 17 78 60"/></defs><g stroke="currentColor" fill="currentColor" stroke-width="0"><g><use data-c="1D446" xlink:href="#a" transform="scale(1 -1)"/><use data-c="1D45D" xlink:href="#b" transform="scale(1 -1) translate(646 -150)scale(.707)"/></g><use data-c="28" xlink:href="#c" transform="scale(1 -1) translate(1051.7)"/><use data-c="1D45B" xlink:href="#d" transform="scale(1 -1) translate(1440.7)"/><use data-c="29" xlink:href="#e" transform="scale(1 -1) translate(2040.7)"/><use data-c="3D" xlink:href="#f" transform="scale(1 -1) translate(2707.5)"/><g><use data-c="1D44E" xlink:href="#g" transform="scale(1 -1) translate(3763.2)"/><g data-mjx-texclass="ORD"><use data-c="1D45D" xlink:href="#b" transform="scale(1 -1) translate(3763.2) translate(562 -150)scale(.707)"/><use data-c="2C" xlink:href="#h" transform="scale(1 -1) translate(3763.2) translate(562 -150)scale(.707) translate(503)"/><use data-c="30" xlink:href="#i" transform="scale(1 -1) translate(3763.2) translate(562 -150)scale(.707) translate(781)"/></g></g><use data-c="2B" xlink:href="#j" transform="scale(1 -1) translate(5503.3)"/><g><use data-c="1D44E" xlink:href="#g" transform="scale(1 -1) translate(6503.5)"/><g data-mjx-texclass="ORD"><use data-c="1D45D" xlink:href="#b" transform="scale(1 -1) translate(6503.5) translate(562 -150)scale(.707)"/><use data-c="2C" xlink:href="#h" transform="scale(1 -1) translate(6503.5) translate(562 -150)scale(.707) translate(503)"/><use data-c="31" xlink:href="#k" transform="scale(1 -1) translate(6503.5) translate(562 -150)scale(.707) translate(781)"/></g></g><use data-c="1D45B" xlink:href="#d" transform="scale(1 -1) translate(8188.3)"/><use data-c="2B" xlink:href="#j" transform="scale(1 -1) translate(9010.5)"/><g><use data-c="1D44E" xlink:href="#g" transform="scale(1 -1) translate(10010.7)"/><g data-mjx-texclass="ORD"><use data-c="1D45D" xlink:href="#b" transform="scale(1 -1) translate(10010.7) translate(562 -150)scale(.707)"/><use data-c="2C" xlink:href="#h" transform="scale(1 -1) translate(10010.7) translate(562 -150)scale(.707) translate(503)"/><use data-c="32" xlink:href="#l" transform="scale(1 -1) translate(10010.7) translate(562 -150)scale(.707) translate(781)"/></g></g><g><use data-c="1D45B" xlink:href="#d" transform="scale(1 -1) translate(11695.5)"/><use data-c="32" xlink:href="#l" transform="scale(1 -1) translate(11695.5) translate(633 413)scale(.707)"/></g><use data-c="2B" xlink:href="#j" transform="scale(1 -1) translate(12954.3)"/><use data-c="22EF" xlink:href="#m" transform="scale(1 -1) translate(13954.5)"/><use data-c="2B" xlink:href="#j" transform="scale(1 -1) translate(15348.8)"/><g><use data-c="1D44E" xlink:href="#g" transform="scale(1 -1) translate(16349)"/><g data-mjx-texclass="ORD"><use data-c="1D45D" xlink:href="#b" transform="scale(1 -1) translate(16349) translate(562 -150)scale(.707)"/><use data-c="2C" xlink:href="#h" transform="scale(1 -1) translate(16349) translate(562 -150)scale(.707) translate(503)"/><use data-c="1D45D" xlink:href="#b" transform="scale(1 -1) translate(16349) translate(562 -150)scale(.707) translate(781)"/><use data-c="2B" xlink:href="#j" transform="scale(1 -1) translate(16349) translate(562 -150)scale(.707) translate(1284)"/><use data-c="31" xlink:href="#k" transform="scale(1 -1) translate(16349) translate(562 -150)scale(.707) translate(2062)"/></g></g><g><use data-c="1D45B" xlink:href="#d" transform="scale(1 -1) translate(18939.6)"/><g data-mjx-texclass="ORD"><use data-c="1D45D" xlink:href="#b" transform="scale(1 -1) translate(18939.6) translate(633 413)scale(.707)"/><use data-c="2B" xlink:href="#j" transform="scale(1 -1) translate(18939.6) translate(633 413)scale(.707) translate(503)"/><use data-c="31" xlink:href="#k" transform="scale(1 -1) translate(18939.6) translate(633 413)scale(.707) translate(1281)"/></g></g><use data-c="2E" xlink:href="#n" transform="scale(1 -1) translate(20881.9)"/></g></svg>