<svg style="vertical-align:-2.819ex" xmlns="http://www.w3.org/2000/svg" width="50.254ex" height="6.74ex" viewBox="0 -1733 22212.4 2978.9" xmlns:xlink="http://www.w3.org/1999/xlink"><defs><path id="a" d="M60 948q3 2 605 2h602l58-135q59-138 63-146h-40l-7 14q-21 41-56 78-50 48-111 77t-141 43-151 17-183 4H251l8-11q463-633 465-639 1-2 0-6-3-3-264-302L196-356q0-1 211-1h141q89 0 128-1 136 0 220 5t167 21 141 49 103 87q21 26 41 72h40q0-1-7-21t-25-65-31-84l-58-155-601-1q-602 0-605 2-6 2-6 9 0 2 2 6l533 610q0 1-33 45T452 366 322 544L56 909l-1 15q0 21 5 24"/><path id="b" d="M21 287q1 6 3 16t12 38 20 47 33 37 46 17q36 0 60-18t30-34 6-21q0-2 1-2l11 11q61 64 139 64 54 0 87-27t34-79-38-157-38-127q0-26 17-26 6 0 9 1 29 5 52 38t35 80q2 8 20 8 20 0 20-8 0-1-4-15-8-29-22-57t-46-56-69-27q-47 0-68 27t-21 56q0 19 36 120t37 152q0 59-44 59h-5q-86 0-145-101l-7-12-33-134Q156 26 151 16q-13-27-43-27-13 0-21 6T76 7t-2 10q0 13 38 163t40 163q1 5 1 23 0 39-24 39-38 0-63-100-6-20-6-21-2-6-19-6H27q-6 6-6 9"/><path id="c" d="M56 347q0 13 14 20h637q15-8 15-20 0-11-14-19l-318-1H72q-16 5-16 20m0-194q0 15 16 20h636q14-10 14-20 0-13-15-20H70q-14 7-14 20"/><path id="d" d="M96 585q56 81 153 81 48 0 96-26t78-92q37-83 37-228 0-155-43-237-20-42-55-67t-61-31-51-7q-26 0-52 6t-61 32-55 67q-43 82-43 237 0 174 57 265m225 12q-30 32-71 32-42 0-72-32-25-26-33-72t-8-192q0-158 8-208t36-79q28-30 69-30 40 0 68 30 29 30 36 84t8 203q0 145-8 191t-33 73"/><path id="e" d="M234 637h-8q-25 0-30 1t-5 11q0 27 11 33 2 1 97 1h88q11 0 14-6 211-496 215-509l54 213q53 211 53 225 0 27-64 31-24 0-24 11 0 2 2 12 4 16 6 19t10 4q3 0 31-1t83-2q50 0 76 1t30 1q15 0 15-10 0-22-8-30-2-5-22-5-71-4-89-40L620 7q-2-7-21-7-14 0-17 2-3 3-129 303L326 604l-65-260Q196 88 196 79q5-33 72-33h10q6-5 6-8t-2-19q-4-13-10-19h-13q-31 2-108 2H63Q49 2 46 1q-15 0-15 9 0 4 3 16t5 14q2 6 23 6 68 3 88 39 4 6 71 277l68 272q-2 1-55 3"/><path id="f" d="M84 237v13l14 20h581q15-8 15-20t-15-20H98q-14 7-14 20Z"/><path id="g" d="m213 578-13-5q-14-5-40-10t-58-7H83v46h19q47 2 87 15t56 24 28 22q2 3 12 3 9 0 17-6V361l1-300q7-7 12-9t24-4 62-2h26V0h-11q-21 3-159 3-136 0-157-3H88v46h64q16 0 25 1t16 3 8 2 6 5 6 4z"/><path id="h" d="M224-649v1799h231v-51H275V-598h180v-51z"/><path id="i" d="M308 24q59 0 108 52t50 121q0 63-52 87-106 27-136 37t-42 20q-60 42-60 121 0 61 32 111t65 75q29 25 70 40t64 16h18q96 0 139-64 1 0 13 13t26 29 20 22h4q3 0 5 1 13 0 13-7t-28-121-32-118-16-3q-20 0-20 9 0 6 1 10 0 3 1 19t2 26q0 34-9 59t-18 37-25 25q-36 21-82 21-57 0-106-46t-50-106q0-30 15-52t41-31q4-2 70-19t67-18q34-11 66-48t32-100q0-26-8-56-5-22-18-49t-36-59-66-60-94-38q-12-2-34-2-99 0-154 55l-10 11-28-31Q83-14 78-18t-13-4q-13 0-13 8 0 3 58 235 2 6 20 6h13q6-6 6-11 0-2-1-9t-4-21-2-33q2-39 18-66t43-40 52-18 53-5"/><path id="j" d="M23 287q1 3 2 8t5 22 10 31 15 33 20 30 26 22 33 9q75 0 96-64l10 9q62 55 118 55 65 0 102-47t37-114q0-108-76-199T249-10q-22 0-39 6-11 5-23 15t-19 17l-7 8q-1-1-22-87t-21-87q0-6 8-7t37-3h25q6-7 6-9t-3-18q-3-12-6-15t-13-4h-11q-9 0-34 1t-62 1q-70 0-89-2h-8q-7 7-7 11 2 27 13 35h20q34 1 39 12 3 6 61 239t61 247q1 5 1 14 0 41-25 41-22 0-37-28t-23-61-12-36q-2-2-16-2H29q-6 6-6 9m155-185q22-76 74-76 30 0 58 23t46 58q18 34 36 108t19 110v6q0 74-61 74-11 0-22-3t-22-9-20-13-17-15-15-15-11-14-8-10l-3-4q0-1-3-14t-11-44-14-52q-26-106-26-110"/><path id="k" d="M94 250q0 69 10 131t23 107 37 88 38 67 42 52 33 34 25 21h17q14 0 14-9 0-3-17-21t-41-53-49-86-42-138-17-193 17-192 41-139 49-86 42-53 17-21q0-9-15-9h-16l-28 24q-94 85-137 212T94 250"/><path id="l" d="M56 237v13l14 20h299v150l1 150q10 13 19 13 13 0 20-15V270h298q15-8 15-20t-15-20H409V-68q-8-14-18-14h-4q-12 0-18 14v298H70q-14 7-14 20Z"/><path id="m" d="m60 749 4 1h22l28-24q94-85 137-212t43-264q0-68-10-131T261 12t-37-88-38-67-41-51-32-33-23-19l-4-4H63q-3 0-5 3t-3 9q1 1 11 13Q221-64 221 250T66 725q-10 12-11 13 0 8 5 11"/><path id="n" d="M16 1099v51h231V-649H16v51h180v1697z"/><path id="o" d="M78 60q0 24 17 42t43 18q24 0 42-16t19-43q0-25-17-43T139 0 96 17 78 60"/></defs><g stroke="currentColor" fill="currentColor" stroke-width="0"><g><use data-c="2211" xlink:href="#a" transform="scale(1 -1) translate(43.8)"/><g data-mjx-texclass="ORD"><use data-c="1D45B" xlink:href="#b" transform="scale(1 -1) translate(101.8 -1087.9)scale(.707)"/><use data-c="3D" xlink:href="#c" transform="scale(1 -1) translate(101.8 -1087.9)scale(.707) translate(600)"/><use data-c="30" xlink:href="#d" transform="scale(1 -1) translate(101.8 -1087.9)scale(.707) translate(1378)"/></g><g data-mjx-texclass="ORD"><use data-c="1D441" xlink:href="#e" transform="scale(1 -1) translate(0 1150)scale(.707)"/><use data-c="2212" xlink:href="#f" transform="scale(1 -1) translate(0 1150)scale(.707) translate(888)"/><use data-c="31" xlink:href="#g" transform="scale(1 -1) translate(0 1150)scale(.707) translate(1666)"/></g></g><g data-mjx-texclass="OPEN"><use data-c="5B" xlink:href="#h" transform="scale(1 -1) translate(1531.6) translate(0 -.5)"/></g><g><use data-c="1D446" xlink:href="#i" transform="scale(1 -1) translate(2003.6)"/><use data-c="1D45D" xlink:href="#j" transform="scale(1 -1) translate(2003.6) translate(646 -150)scale(.707)"/></g><use data-c="28" xlink:href="#k" transform="scale(1 -1) translate(3055.3)"/><use data-c="1D45B" xlink:href="#b" transform="scale(1 -1) translate(3444.3)"/><use data-c="2B" xlink:href="#l" transform="scale(1 -1) translate(4266.5)"/><use data-c="31" xlink:href="#g" transform="scale(1 -1) translate(5266.7)"/><use data-c="29" xlink:href="#m" transform="scale(1 -1) translate(5766.7)"/><use data-c="2212" xlink:href="#f" transform="scale(1 -1) translate(6377.9)"/><g><use data-c="1D446" xlink:href="#i" transform="scale(1 -1) translate(7378.2)"/><use data-c="1D45D" xlink:href="#j" transform="scale(1 -1) translate(7378.2) translate(646 -150)scale(.707)"/></g><use data-c="28" xlink:href="#k" transform="scale(1 -1) translate(8429.8)"/><use data-c="1D45B" xlink:href="#b" transform="scale(1 -1) translate(8818.8)"/><use data-c="29" xlink:href="#m" transform="scale(1 -1) translate(9418.8)"/><g data-mjx-texclass="CLOSE"><use data-c="5D" xlink:href="#n" transform="scale(1 -1) translate(9807.8) translate(0 -.5)"/></g><use data-c="3D" xlink:href="#c" transform="scale(1 -1) translate(10557.6)"/><g><use data-c="1D446" xlink:href="#i" transform="scale(1 -1) translate(11613.4)"/><use data-c="1D45D" xlink:href="#j" transform="scale(1 -1) translate(11613.4) translate(646 -150)scale(.707)"/></g><use data-c="28" xlink:href="#k" transform="scale(1 -1) translate(12665.1)"/><use data-c="1D441" xlink:href="#e" transform="scale(1 -1) translate(13054.1)"/><use data-c="29" xlink:href="#m" transform="scale(1 -1) translate(13942.1)"/><use data-c="2212" xlink:href="#f" transform="scale(1 -1) translate(14553.3)"/><g><use data-c="1D446" xlink:href="#i" transform="scale(1 -1) translate(15553.5)"/><use data-c="1D45D" xlink:href="#j" transform="scale(1 -1) translate(15553.5) translate(646 -150)scale(.707)"/></g><use data-c="28" xlink:href="#k" transform="scale(1 -1) translate(16605.2)"/><use data-c="30" xlink:href="#d" transform="scale(1 -1) translate(16994.2)"/><use data-c="29" xlink:href="#m" transform="scale(1 -1) translate(17494.2)"/><use data-c="3D" xlink:href="#c" transform="scale(1 -1) translate(18161)"/><g><use data-c="1D446" xlink:href="#i" transform="scale(1 -1) translate(19216.7)"/><use data-c="1D45D" xlink:href="#j" transform="scale(1 -1) translate(19216.7) translate(646 -150)scale(.707)"/></g><use data-c="28" xlink:href="#k" transform="scale(1 -1) translate(20268.4)"/><use data-c="1D441" xlink:href="#e" transform="scale(1 -1) translate(20657.4)"/><use data-c="29" xlink:href="#m" transform="scale(1 -1) translate(21545.4)"/><use data-c="2E" xlink:href="#o" transform="scale(1 -1) translate(21934.4)"/></g></svg>