<svg style="vertical-align:-.462ex" xmlns="http://www.w3.org/2000/svg" width="8.984ex" height="1.968ex" viewBox="0 -666 3971 870" xmlns:xlink="http://www.w3.org/1999/xlink"><defs><path id="a" d="M297 596q0 31 21 48t43 17q17 0 28-10t14-28q0-28-19-47t-44-19q-18 0-30 10t-13 29m-9-220q0 29-26 29-22 0-42-12t-35-31-24-37-17-32l-7-14q-2-1-16-1h-14q-6 6-6 8t4 13q21 49 59 92t88 50h8q7 0 12 1 24-1 44-10 25-14 38-31t13-53v-16l-49-199Q267-67 264-75q-18-50-70-89T75-204q-50 0-68 21t-19 46q0 27 19 46t46 20q17 0 29-10t13-31q0-36-32-55 6-1 14-1 34 0 62 28t43 66l11 42q11 43 26 104t32 125 27 111 11 57q0 7-1 11"/><path id="b" d="M56 347q0 13 14 20h637q15-8 15-20 0-11-14-19l-318-1H72q-16 5-16 20m0-194q0 15 16 20h636q14-10 14-20 0-13-15-20H70q-14 7-14 20"/><path id="c" d="M23 287q1 3 2 8t5 22 10 31 15 33 20 30 26 22 33 9q75 0 96-64l10 9q62 55 118 55 65 0 102-47t37-114q0-108-76-199T249-10q-22 0-39 6-11 5-23 15t-19 17l-7 8q-1-1-22-87t-21-87q0-6 8-7t37-3h25q6-7 6-9t-3-18q-3-12-6-15t-13-4h-11q-9 0-34 1t-62 1q-70 0-89-2h-8q-7 7-7 11 2 27 13 35h20q34 1 39 12 3 6 61 239t61 247q1 5 1 14 0 41-25 41-22 0-37-28t-23-61-12-36q-2-2-16-2H29q-6 6-6 9m155-185q22-76 74-76 30 0 58 23t46 58q18 34 36 108t19 110v6q0 74-61 74-11 0-22-3t-22-9-20-13-17-15-15-15-11-14-8-10l-3-4q0-1-3-14t-11-44-14-52q-26-106-26-110"/><path id="d" d="M56 237v13l14 20h299v150l1 150q10 13 19 13 13 0 20-15V270h298q15-8 15-20t-15-20H409V-68q-8-14-18-14h-4q-12 0-18 14v298H70q-14 7-14 20Z"/><path id="e" d="m213 578-13-5q-14-5-40-10t-58-7H83v46h19q47 2 87 15t56 24 28 22q2 3 12 3 9 0 17-6V361l1-300q7-7 12-9t24-4 62-2h26V0h-11q-21 3-159 3-136 0-157-3H88v46h64q16 0 25 1t16 3 8 2 6 5 6 4z"/></defs><g stroke="currentColor" fill="currentColor" stroke-width="0"><use data-c="1D457" xlink:href="#a" transform="scale(1 -1)"/><use data-c="3D" xlink:href="#b" transform="scale(1 -1) translate(689.8)"/><use data-c="1D45D" xlink:href="#c" transform="scale(1 -1) translate(1745.6)"/><use data-c="2B" xlink:href="#d" transform="scale(1 -1) translate(2470.8)"/><use data-c="31" xlink:href="#e" transform="scale(1 -1) translate(3471)"/></g></svg>