<svg style="vertical-align:-.186ex" xmlns="http://www.w3.org/2000/svg" width="5.119ex" height="1.756ex" viewBox="0 -694 2262.6 776" xmlns:xlink="http://www.w3.org/1999/xlink"><defs><path id="a" d="M73 647q0 10 4 23t12 13q1 0 72 5t73 6q12 0 12-9t-34-143q-8-34-17-70t-15-54l-4-19q0-3 6 3 49 40 101 40 62 0 100-46t39-116q0-111-79-201T173-11q-50 0-91 38T40 150v9q0 21 8 58t49 197q50 197 50 209t-38 14H83q-3 0-7 3t-3 7m263-322v6q0 74-61 74-17 0-35-8t-33-21-26-24-18-22l-6-8-21-86q-22-86-22-122 0-48 24-72 16-16 40-16 33 0 67 32 25 23 40 56t33 105 18 106"/><path id="b" d="M56 347q0 13 14 20h637q15-8 15-20 0-11-14-19l-318-1H72q-16 5-16 20m0-194q0 15 16 20h636q14-10 14-20 0-13-15-20H70q-14 7-14 20"/><path id="c" d="m213 578-13-5q-14-5-40-10t-58-7H83v46h19q47 2 87 15t56 24 28 22q2 3 12 3 9 0 17-6V361l1-300q7-7 12-9t24-4 62-2h26V0h-11q-21 3-159 3-136 0-157-3H88v46h64q16 0 25 1t16 3 8 2 6 5 6 4z"/></defs><g stroke="currentColor" fill="currentColor" stroke-width="0"><use data-c="1D44F" xlink:href="#a" transform="scale(1 -1)"/><use data-c="3D" xlink:href="#b" transform="scale(1 -1) translate(706.8)"/><use data-c="31" xlink:href="#c" transform="scale(1 -1) translate(1762.6)"/></g></svg>