<svg style="vertical-align:-5.003ex" xmlns="http://www.w3.org/2000/svg" width="62.292ex" height="11.137ex" viewBox="0 -2711.3 27533.2 4922.7" xmlns:xlink="http://www.w3.org/1999/xlink"><defs><path id="a" d="M118-162q2 0 6-2t11-3 12-1q13 0 24 13t16 29q10 27 34 153t46 240 22 115v3h-47q-47 0-50 2-4 3-4 10l7 28q2 5 8 5t47 1q48 0 48 1 0 2 9 50t12 58q37 165 146 165 37-2 61-22t24-53q0-36-21-52t-42-17q-44 0-44 42 0 19 11 33t24 21l9 5q-16 6-30 6-12 0-23-10t-15-28q-7-29-16-78t-16-83-7-36 55-2q45 0 52-1t11-6q1-4-2-17t-5-16q-2-5-9-5t-54-1h-56l-23-122Q301 15 282-47q-27-85-70-126-37-32-73-32-32 0-58 19t-26 54q0 37 21 54t42 17q44 0 44-42 0-19-11-33t-24-21z"/><path id="b" d="M94 250q0 69 10 131t23 107 37 88 38 67 42 52 33 34 25 21h17q14 0 14-9 0-3-17-21t-41-53-49-86-42-138-17-193 17-192 41-139 49-86 42-53 17-21q0-9-15-9h-16l-28 24q-94 85-137 212T94 250"/><path id="c" d="M52 289q7 42 54 97t116 56q35 0 64-18t43-45q42 63 101 63 37 0 64-22t28-59q0-29-14-47t-27-22-23-4q-19 0-31 11t-12 29q0 46 50 63-11 13-40 13-13 0-19-2-38-16-56-66-60-221-60-258 0-28 16-40t35-12q37 0 73 33t49 81q3 10 6 11t16 2h4q15 0 15-8 0-1-2-11-16-57-62-101T333-11q-70 0-106 63-41-62-94-62h-6q-49 0-70 26T35 71q0 32 19 52t45 20q43 0 43-42 0-20-12-35t-23-20-13-5l-3-1q0-1 6-4t16-7 19-3q36 0 62 45 9 16 23 68t28 108 16 66q5 27 5 39 0 28-15 40t-34 12q-40 0-75-32t-49-82q-2-9-5-10t-16-2H58q-6 6-6 11"/><path id="d" d="m60 749 4 1h22l28-24q94-85 137-212t43-264q0-68-10-131T261 12t-37-88-38-67-41-51-32-33-23-19l-4-4H63q-3 0-5 3t-3 9q1 1 11 13Q221-64 221 250T66 725q-10 12-11 13 0 8 5 11"/><path id="e" d="M56 347q0 13 14 20h637q15-8 15-20 0-11-14-19l-318-1H72q-16 5-16 20m0-194q0 15 16 20h636q14-10 14-20 0-13-15-20H70q-14 7-14 20"/><path id="f" d="M33 157q0 101 76 192t171 92q51 0 90-49 16 30 46 30 13 0 23-8t10-20q0-13-37-160T374 68q0-25 7-33t21-9q9 1 20 9 21 20 41 96 6 20 10 21 2 1 10 1h4q19 0 19-9 0-6-5-27t-20-54-32-50Q436 0 417-8q-8-2-24-2-34 0-57 15t-30 31l-6 15q-1 1-4-1l-4-4q-59-56-120-56-55 0-97 40T33 157m318 171q0 6-5 22t-23 35-46 20q-35 0-67-31t-50-81q-29-79-41-164v-11q0-8-1-12 0-45 18-62t43-18q38 0 75 33t44 51q2 4 27 107t26 111"/><path id="g" d="M56 237v13l14 20h299v150l1 150q10 13 19 13 13 0 20-15V270h298q15-8 15-20t-15-20H409V-68q-8-14-18-14h-4q-12 0-18 14v298H70q-14 7-14 20Z"/><path id="h" d="M137 683q1 0 72 5t73 6q12 0 12-9 0-11-36-151-38-148-38-151 0-2 7 5 61 54 130 54 54 0 87-27t34-79q0-51-38-158T402 50q1-14 5-19t15-5q28 0 52 30t39 82q3 11 6 13t16 2q20 0 20-8 0-1-4-15-16-59-51-97-34-43-81-43h-5q-47 0-68 27t-21 57q0 16 36 118t37 153q0 59-44 59h-5q-83 0-144-98l-7-13-34-135Q132 28 127 16q-13-27-44-27-14 0-24 9T48 16q0 14 73 304l74 296q0 13-7 16t-39 5h-21q-6 6-6 8t2 19q5 19 13 19"/><path id="i" d="M79 43q-6 0-27 6T30 61q0 7 55 232t61 235q15 32 52 32 20 0 42-15t22-44q0-5-2-15-1-7-87-223T84 45t-5-2"/><path id="j" d="M109 429q-27 0-43 18t-16 44q0 71 53 123t132 52q91 0 152-56t62-145q0-43-20-82t-48-68-80-74q-36-31-100-92l-59-56 76-1q157 0 167 5 7 2 24 89v3h40v-3q-1-3-13-91T421 3V0H50v31q0 7 6 15t30 35q29 32 50 56 9 10 34 37t34 37 29 33 28 34 23 30 21 32 15 29 13 32 7 30 3 33q0 63-34 109t-97 46q-33 0-58-17t-35-33-10-19q0-1 5-1 18 0 37-14t19-46q0-25-16-42t-45-18"/><path id="k" d="M78 661q0 21 18 38t42 17 42-16 19-39q0-7-20-229t-21-226q-2-8-19-8-18 0-20 8-1 3-21 225T78 661m1-600q0 28 18 44t44 16q23-2 40-17t17-43q0-30-17-45T139 1 97 16 79 61"/><path id="l" d="M127 463q-27 0-42 17t-16 44q0 55 48 98t116 43q35 0 44-1 74-12 113-53t40-89q0-52-34-101t-94-71l-3-2q0-1 9-3t29-9 38-21q82-53 82-140 0-79-62-138T238-22q-80 0-138 43T42 130q0 28 18 45t45 18q28 0 46-18t18-45q0-11-3-20t-7-16-11-12-12-8-10-4-8-3l-4-1q51-45 124-45 55 0 83 53 17 33 17 101v20q0 95-64 127-15 6-61 7l-42 1-3 2q-2 3-2 16 0 18 8 18 28 0 58 5 34 5 62 42t28 112v8q0 57-35 79-22 14-47 14-32 0-59-11t-38-23-11-12h3q3-1 8-2t10-5 12-7 10-11 8-15 3-20q0-22-14-39t-45-18"/><path id="m" d="M78 250q0 24 17 42t43 18q24 0 42-16t19-43q0-25-17-43t-43-18-43 17-18 43m447 0q0 24 17 42t43 18q24 0 42-16t19-43q0-25-17-43t-43-18-43 17-18 43m447 0q0 24 17 42t43 18q24 0 42-16t19-43q0-25-17-43t-43-18-43 17-18 43"/><path id="n" d="M78 35v25l16 43 43 18q28 0 50-25t23-88q0-35-9-68t-21-57-26-41-24-27-13-9q-4 0-13 9t-9 13 11 16 25 30 26 50 16 73V9l-1-1q-2-1-5-2t-6-3-9-2-12-1q-27 0-44 17Z"/><path id="o" d="M311 43q-15-13-44-28T206 0q-63 0-101 45T66 160q0 105 77 193t171 89q47 0 87-48l3 4q2 3 5 6t9 8 13 7 16 3q14 0 23-9t10-19q0-15-57-242T363-80q-18-54-77-89t-135-36q-141 0-141 68 0 26 18 46t46 20q15 0 28-9t14-31q0-10-2-19t-7-14-8-10-7-8l-2-2h1q10-3 60-3 38 0 60 12 23 11 43 33t28 47q6 19 16 62 13 48 13 56m73 285-4 11q-3 11-5 15t-6 14-10 14-13 11-18 9-22 3q-44 0-85-53-30-39-50-119t-20-116q0-79 62-79 56 0 110 70l8 10z"/><path id="p" d="M78 60q0 24 17 42t43 18q24 0 42-16t19-43q0-25-17-43T139 0 96 17 78 60"/></defs><g stroke="currentColor" fill="currentColor" stroke-width="0"><g><g><g><use data-c="1D453" xlink:href="#a" transform="scale(1 -1) translate(0 1108)"/><use data-c="28" xlink:href="#b" transform="scale(1 -1) translate(0 1108) translate(550)"/><use data-c="1D465" xlink:href="#c" transform="scale(1 -1) translate(0 1108) translate(939)"/><use data-c="29" xlink:href="#d" transform="scale(1 -1) translate(0 1108) translate(1511)"/></g><g><use data-c="3D" xlink:href="#e" transform="scale(1 -1) translate(0 1108) translate(1900) translate(277.8)"/><use data-c="1D453" xlink:href="#a" transform="scale(1 -1) translate(0 1108) translate(1900) translate(1333.6)"/><use data-c="28" xlink:href="#b" transform="scale(1 -1) translate(0 1108) translate(1900) translate(1883.6)"/><use data-c="1D44E" xlink:href="#f" transform="scale(1 -1) translate(0 1108) translate(1900) translate(2272.6)"/><use data-c="2B" xlink:href="#g" transform="scale(1 -1) translate(0 1108) translate(1900) translate(3023.8)"/><use data-c="210E" xlink:href="#h" transform="scale(1 -1) translate(0 1108) translate(1900) translate(4024)"/><use data-c="29" xlink:href="#d" transform="scale(1 -1) translate(0 1108) translate(1900) translate(4600)"/><use data-c="3D" xlink:href="#e" transform="scale(1 -1) translate(0 1108) translate(1900) translate(5266.8)"/><use data-c="1D453" xlink:href="#a" transform="scale(1 -1) translate(0 1108) translate(1900) translate(6322.6)"/><use data-c="28" xlink:href="#b" transform="scale(1 -1) translate(0 1108) translate(1900) translate(6872.6)"/><use data-c="1D44E" xlink:href="#f" transform="scale(1 -1) translate(0 1108) translate(1900) translate(7261.6)"/><use data-c="29" xlink:href="#d" transform="scale(1 -1) translate(0 1108) translate(1900) translate(7790.6)"/><use data-c="2B" xlink:href="#g" transform="scale(1 -1) translate(0 1108) translate(1900) translate(8401.8)"/><g><use data-c="1D453" xlink:href="#a" transform="scale(1 -1) translate(0 1108) translate(1900) translate(9402)"/><use data-c="2032" xlink:href="#i" transform="scale(1 -1) translate(0 1108) translate(1900) translate(9402) translate(636 413)scale(.707)"/></g><use data-c="28" xlink:href="#b" transform="scale(1 -1) translate(0 1108) translate(1900) translate(10282.5)"/><use data-c="1D44E" xlink:href="#f" transform="scale(1 -1) translate(0 1108) translate(1900) translate(10671.5)"/><use data-c="29" xlink:href="#d" transform="scale(1 -1) translate(0 1108) translate(1900) translate(11200.5)"/><use data-c="210E" xlink:href="#h" transform="scale(1 -1) translate(0 1108) translate(1900) translate(11589.5)"/><use data-c="2B" xlink:href="#g" transform="scale(1 -1) translate(0 1108) translate(1900) translate(12387.7)"/><g transform="scale(1 -1) translate(0 1108) translate(1900) translate(13387.9)"><g><g><use data-c="1D453" xlink:href="#a" transform="translate(220 710)"/><g data-c="2033" transform="translate(220 710) translate(636 363)scale(.707)"><use data-c="2032" xlink:href="#i"/><use data-c="2032" xlink:href="#i" transform="translate(275)"/></g></g><use data-c="28" xlink:href="#b" transform="translate(220 710) translate(1074.9)"/><use data-c="1D44E" xlink:href="#f" transform="translate(220 710) translate(1463.9)"/><use data-c="29" xlink:href="#d" transform="translate(220 710) translate(1992.9)"/></g><g><use data-c="32" xlink:href="#j" transform="translate(1022 -686)"/><use data-c="21" xlink:href="#k" transform="translate(1022 -686) translate(500)"/></g><path stroke="none" d="M120 220H2701.9V280H120z"/></g><g><use data-c="210E" xlink:href="#h" transform="scale(1 -1) translate(0 1108) translate(1900) translate(16209.8)"/><use data-c="32" xlink:href="#j" transform="scale(1 -1) translate(0 1108) translate(1900) translate(16209.8) translate(609 413)scale(.707)"/></g><use data-c="2B" xlink:href="#g" transform="scale(1 -1) translate(0 1108) translate(1900) translate(17444.6)"/><g transform="scale(1 -1) translate(0 1108) translate(1900) translate(18444.8)"><g><g><use data-c="1D453" xlink:href="#a" transform="translate(220 710)"/><g data-mjx-texclass="ORD"><use data-c="28" xlink:href="#b" transform="translate(220 710) translate(636 363)scale(.707)"/><use data-c="33" xlink:href="#l" transform="translate(220 710) translate(636 363)scale(.707) translate(389)"/><use data-c="29" xlink:href="#d" transform="translate(220 710) translate(636 363)scale(.707) translate(889)"/></g></g><use data-c="28" xlink:href="#b" transform="translate(220 710) translate(1589.7)"/><use data-c="1D44E" xlink:href="#f" transform="translate(220 710) translate(1978.7)"/><use data-c="29" xlink:href="#d" transform="translate(220 710) translate(2507.7)"/></g><g><use data-c="33" xlink:href="#l" transform="translate(1279.3 -686)"/><use data-c="21" xlink:href="#k" transform="translate(1279.3 -686) translate(500)"/></g><path stroke="none" d="M120 220H3216.7V280H120z"/></g><g><use data-c="210E" xlink:href="#h" transform="scale(1 -1) translate(0 1108) translate(1900) translate(21781.5)"/><use data-c="33" xlink:href="#l" transform="scale(1 -1) translate(0 1108) translate(1900) translate(21781.5) translate(609 413)scale(.707)"/></g><use data-c="2B" xlink:href="#g" transform="scale(1 -1) translate(0 1108) translate(1900) translate(23016.3)"/><use data-c="22EF" xlink:href="#m" transform="scale(1 -1) translate(0 1108) translate(1900) translate(24016.5)"/><use data-c="2C" xlink:href="#n" transform="scale(1 -1) translate(0 1108) translate(1900) translate(25355.2)"/></g></g><g><g><use data-c="1D454" xlink:href="#o" transform="scale(1 -1) translate(0 -1503.3) translate(73)"/><use data-c="28" xlink:href="#b" transform="scale(1 -1) translate(0 -1503.3) translate(73) translate(477)"/><use data-c="1D465" xlink:href="#c" transform="scale(1 -1) translate(0 -1503.3) translate(73) translate(866)"/><use data-c="29" xlink:href="#d" transform="scale(1 -1) translate(0 -1503.3) translate(73) translate(1438)"/></g><g><use data-c="3D" xlink:href="#e" transform="scale(1 -1) translate(0 -1503.3) translate(1900) translate(277.8)"/><use data-c="1D454" xlink:href="#o" transform="scale(1 -1) translate(0 -1503.3) translate(1900) translate(1333.6)"/><use data-c="28" xlink:href="#b" transform="scale(1 -1) translate(0 -1503.3) translate(1900) translate(1810.6)"/><use data-c="1D44E" xlink:href="#f" transform="scale(1 -1) translate(0 -1503.3) translate(1900) translate(2199.6)"/><use data-c="2B" xlink:href="#g" transform="scale(1 -1) translate(0 -1503.3) translate(1900) translate(2950.8)"/><use data-c="210E" xlink:href="#h" transform="scale(1 -1) translate(0 -1503.3) translate(1900) translate(3951)"/><use data-c="29" xlink:href="#d" transform="scale(1 -1) translate(0 -1503.3) translate(1900) translate(4527)"/><use data-c="3D" xlink:href="#e" transform="scale(1 -1) translate(0 -1503.3) translate(1900) translate(5193.8)"/><use data-c="1D454" xlink:href="#o" transform="scale(1 -1) translate(0 -1503.3) translate(1900) translate(6249.6)"/><use data-c="28" xlink:href="#b" transform="scale(1 -1) translate(0 -1503.3) translate(1900) translate(6726.6)"/><use data-c="1D44E" xlink:href="#f" transform="scale(1 -1) translate(0 -1503.3) translate(1900) translate(7115.6)"/><use data-c="29" xlink:href="#d" transform="scale(1 -1) translate(0 -1503.3) translate(1900) translate(7644.6)"/><use data-c="2B" xlink:href="#g" transform="scale(1 -1) translate(0 -1503.3) translate(1900) translate(8255.8)"/><g><use data-c="1D454" xlink:href="#o" transform="scale(1 -1) translate(0 -1503.3) translate(1900) translate(9256)"/><use data-c="2032" xlink:href="#i" transform="scale(1 -1) translate(0 -1503.3) translate(1900) translate(9256) translate(510 413)scale(.707)"/></g><use data-c="28" xlink:href="#b" transform="scale(1 -1) translate(0 -1503.3) translate(1900) translate(10010.5)"/><use data-c="1D44E" xlink:href="#f" transform="scale(1 -1) translate(0 -1503.3) translate(1900) translate(10399.5)"/><use data-c="29" xlink:href="#d" transform="scale(1 -1) translate(0 -1503.3) translate(1900) translate(10928.5)"/><use data-c="210E" xlink:href="#h" transform="scale(1 -1) translate(0 -1503.3) translate(1900) translate(11317.5)"/><use data-c="2B" xlink:href="#g" transform="scale(1 -1) translate(0 -1503.3) translate(1900) translate(12115.7)"/><g transform="scale(1 -1) translate(0 -1503.3) translate(1900) translate(13115.9)"><g><g><use data-c="1D454" xlink:href="#o" transform="translate(220 710)"/><g data-c="2033" transform="translate(220 710) translate(510 363)scale(.707)"><use data-c="2032" xlink:href="#i"/><use data-c="2032" xlink:href="#i" transform="translate(275)"/></g></g><use data-c="28" xlink:href="#b" transform="translate(220 710) translate(948.9)"/><use data-c="1D44E" xlink:href="#f" transform="translate(220 710) translate(1337.9)"/><use data-c="29" xlink:href="#d" transform="translate(220 710) translate(1866.9)"/></g><g><use data-c="32" xlink:href="#j" transform="translate(959 -686)"/><use data-c="21" xlink:href="#k" transform="translate(959 -686) translate(500)"/></g><path stroke="none" d="M120 220H2575.9V280H120z"/></g><g><use data-c="210E" xlink:href="#h" transform="scale(1 -1) translate(0 -1503.3) translate(1900) translate(15811.8)"/><use data-c="32" xlink:href="#j" transform="scale(1 -1) translate(0 -1503.3) translate(1900) translate(15811.8) translate(609 413)scale(.707)"/></g><use data-c="2B" xlink:href="#g" transform="scale(1 -1) translate(0 -1503.3) translate(1900) translate(17046.6)"/><g transform="scale(1 -1) translate(0 -1503.3) translate(1900) translate(18046.8)"><g><g><use data-c="1D454" xlink:href="#o" transform="translate(220 710)"/><g data-mjx-texclass="ORD"><use data-c="28" xlink:href="#b" transform="translate(220 710) translate(510 363)scale(.707)"/><use data-c="33" xlink:href="#l" transform="translate(220 710) translate(510 363)scale(.707) translate(389)"/><use data-c="29" xlink:href="#d" transform="translate(220 710) translate(510 363)scale(.707) translate(889)"/></g></g><use data-c="28" xlink:href="#b" transform="translate(220 710) translate(1463.7)"/><use data-c="1D44E" xlink:href="#f" transform="translate(220 710) translate(1852.7)"/><use data-c="29" xlink:href="#d" transform="translate(220 710) translate(2381.7)"/></g><g><use data-c="33" xlink:href="#l" transform="translate(1216.3 -686)"/><use data-c="21" xlink:href="#k" transform="translate(1216.3 -686) translate(500)"/></g><path stroke="none" d="M120 220H3090.7V280H120z"/></g><g><use data-c="210E" xlink:href="#h" transform="scale(1 -1) translate(0 -1503.3) translate(1900) translate(21257.5)"/><use data-c="33" xlink:href="#l" transform="scale(1 -1) translate(0 -1503.3) translate(1900) translate(21257.5) translate(609 413)scale(.707)"/></g><use data-c="2B" xlink:href="#g" transform="scale(1 -1) translate(0 -1503.3) translate(1900) translate(22492.3)"/><use data-c="22EF" xlink:href="#m" transform="scale(1 -1) translate(0 -1503.3) translate(1900) translate(23492.5)"/><use data-c="2E" xlink:href="#p" transform="scale(1 -1) translate(0 -1503.3) translate(1900) translate(24831.2)"/></g></g></g></g></svg>