<svg style="vertical-align:-2.709ex" xmlns="http://www.w3.org/2000/svg" width="34.308ex" height="5.745ex" viewBox="0 -1342 15164.1 2539.5" xmlns:xlink="http://www.w3.org/1999/xlink"><defs><path id="a" d="m213 578-13-5q-14-5-40-10t-58-7H83v46h19q47 2 87 15t56 24 28 22q2 3 12 3 9 0 17-6V361l1-300q7-7 12-9t24-4 62-2h26V0h-11q-21 3-159 3-136 0-157-3H88v46h64q16 0 25 1t16 3 8 2 6 5 6 4z"/><path id="b" d="M52 289q7 42 54 97t116 56q35 0 64-18t43-45q42 63 101 63 37 0 64-22t28-59q0-29-14-47t-27-22-23-4q-19 0-31 11t-12 29q0 46 50 63-11 13-40 13-13 0-19-2-38-16-56-66-60-221-60-258 0-28 16-40t35-12q37 0 73 33t49 81q3 10 6 11t16 2h4q15 0 15-8 0-1-2-11-16-57-62-101T333-11q-70 0-106 63-41-62-94-62h-6q-49 0-70 26T35 71q0 32 19 52t45 20q43 0 43-42 0-20-12-35t-23-20-13-5l-3-1q0-1 6-4t16-7 19-3q36 0 62 45 9 16 23 68t28 108 16 66q5 27 5 39 0 28-15 40t-34 12q-40 0-75-32t-49-82q-2-9-5-10t-16-2H58q-6 6-6 11"/><path id="c" d="M56 237v13l14 20h299v150l1 150q10 13 19 13 13 0 20-15V270h298q15-8 15-20t-15-20H409V-68q-8-14-18-14h-4q-12 0-18 14v298H70q-14 7-14 20Z"/><path id="d" d="M137 683q1 0 72 5t73 6q12 0 12-9 0-11-36-151-38-148-38-151 0-2 7 5 61 54 130 54 54 0 87-27t34-79q0-51-38-158T402 50q1-14 5-19t15-5q28 0 52 30t39 82q3 11 6 13t16 2q20 0 20-8 0-1-4-15-16-59-51-97-34-43-81-43h-5q-47 0-68 27t-21 57q0 16 36 118t37 153q0 59-44 59h-5q-83 0-144-98l-7-13-34-135Q132 28 127 16q-13-27-44-27-14 0-24 9T48 16q0 14 73 304l74 296q0 13-7 16t-39 5h-21q-6 6-6 8t2 19q5 19 13 19"/><path id="e" d="M56 347q0 13 14 20h637q15-8 15-20 0-11-14-19l-318-1H72q-16 5-16 20m0-194q0 15 16 20h636q14-10 14-20 0-13-15-20H70q-14 7-14 20"/><path id="f" d="M152 251q0 395 236 599h28q6-6 6-9 0-4-19-25t-46-63-55-104-47-167-19-232q0-126 19-231t46-166 55-104 47-64 19-25q0-3-6-9h-28q-29 24-56 53t-61 83-59 116-42 153-18 195"/><path id="g" d="M305 251q0-396-236-600H56q-13 0-17 2t-4 9q2 5 25 31t48 68 52 103 44 163 17 223-17 223-44 163-52 104-48 67-25 32q0 11 15 11h19q128-107 187-284 49-141 49-315"/><path id="h" d="M78 250q0 24 17 42t43 18q24 0 42-16t19-43q0-25-17-43t-43-18-43 17-18 43"/><path id="i" d="M78 60q0 24 17 42t43 18q24 0 42-16t19-43q0-25-17-43T139 0 96 17 78 60"/></defs><g stroke="currentColor" fill="currentColor" stroke-width="0"><g transform="scale(1 -1)"><use data-c="31" xlink:href="#a" transform="translate(1155.2 676)"/><g><use data-c="1D465" xlink:href="#b" transform="translate(220 -686)"/><use data-c="2B" xlink:href="#c" transform="translate(220 -686) translate(794.2)"/><use data-c="210E" xlink:href="#d" transform="translate(220 -686) translate(1794.4)"/></g><path stroke="none" d="M120 220H2690.4V280H120z"/></g><use data-c="3D" xlink:href="#e" transform="scale(1 -1) translate(3088.2)"/><g transform="scale(1 -1) translate(4144)"><use data-c="31" xlink:href="#a" transform="translate(2082.2 676)"/><g><use data-c="1D465" xlink:href="#b" transform="translate(220 -844.7)"/><g><use data-c="28" xlink:href="#f" transform="translate(220 -844.7) translate(738.7) translate(0 -.5)"/><use data-c="31" xlink:href="#a" transform="translate(220 -844.7) translate(738.7) translate(458)"/><use data-c="2B" xlink:href="#c" transform="translate(220 -844.7) translate(738.7) translate(1180.2)"/><g transform="translate(220 -844.7) translate(738.7) translate(2180.4)"><use data-c="210E" xlink:href="#d" transform="translate(220 394)scale(.707)"/><use data-c="1D465" xlink:href="#b" transform="translate(221.4 -345)scale(.707)"/><path stroke="none" d="M120 220H727.3V280H120z"/></g><use data-c="29" xlink:href="#g" transform="translate(220 -844.7) translate(738.7) translate(3027.7 -.5)"/></g></g><path stroke="none" d="M120 220H4544.4V280H120z"/></g><use data-c="3D" xlink:href="#e" transform="scale(1 -1) translate(9086.2)"/><g transform="scale(1 -1) translate(10142)"><use data-c="31" xlink:href="#a" transform="translate(256 676)"/><use data-c="1D465" xlink:href="#b" transform="translate(220 -686)"/><path stroke="none" d="M120 220H892V280H120z"/></g><use data-c="22C5" xlink:href="#h" transform="scale(1 -1) translate(11376.2)"/><g transform="scale(1 -1) translate(11876.4)"><use data-c="31" xlink:href="#a" transform="translate(1254.9 676)"/><g><use data-c="31" xlink:href="#a" transform="translate(220 -844.7)"/><use data-c="2B" xlink:href="#c" transform="translate(220 -844.7) translate(722.2)"/><g transform="translate(220 -844.7) translate(1722.4)"><use data-c="210E" xlink:href="#d" transform="translate(220 394)scale(.707)"/><use data-c="1D465" xlink:href="#b" transform="translate(221.4 -345)scale(.707)"/><path stroke="none" d="M120 220H727.3V280H120z"/></g></g><path stroke="none" d="M120 220H2889.7V280H120z"/></g><use data-c="2E" xlink:href="#i" transform="scale(1 -1) translate(14886.1)"/></g></svg>