<svg style="vertical-align:-1.654ex" xmlns="http://www.w3.org/2000/svg" width="9.874ex" height="4.957ex" viewBox="0 -1460 4364.5 2190.9" xmlns:xlink="http://www.w3.org/1999/xlink"><defs><path id="a" d="M94 250q0 69 10 131t23 107 37 88 38 67 42 52 33 34 25 21h17q14 0 14-9 0-3-17-21t-41-53-49-86-42-138-17-193 17-192 41-139 49-86 42-53 17-21q0-9-15-9h-16l-28 24q-94 85-137 212T94 250"/><path id="b" d="M84 237v13l14 20h581q15-8 15-20t-15-20H98q-14 7-14 20Z"/><path id="c" d="m213 578-13-5q-14-5-40-10t-58-7H83v46h19q47 2 87 15t56 24 28 22q2 3 12 3 9 0 17-6V361l1-300q7-7 12-9t24-4 62-2h26V0h-11q-21 3-159 3-136 0-157-3H88v46h64q16 0 25 1t16 3 8 2 6 5 6 4z"/><path id="d" d="m60 749 4 1h22l28-24q94-85 137-212t43-264q0-68-10-131T261 12t-37-88-38-67-41-51-32-33-23-19l-4-4H63q-3 0-5 3t-3 9q1 1 11 13Q221-64 221 250T66 725q-10 12-11 13 0 8 5 11"/><path id="e" d="M21 287q1 6 3 16t12 38 20 47 33 37 46 17q36 0 60-18t30-34 6-21q0-2 1-2l11 11q61 64 139 64 54 0 87-27t34-79-38-157-38-127q0-26 17-26 6 0 9 1 29 5 52 38t35 80q2 8 20 8 20 0 20-8 0-1-4-15-8-29-22-57t-46-56-69-27q-47 0-68 27t-21 56q0 19 36 120t37 152q0 59-44 59h-5q-86 0-145-101l-7-12-33-134Q156 26 151 16q-13-27-43-27-13 0-21 6T76 7t-2 10q0 13 38 163t40 163q1 5 1 23 0 39-24 39-38 0-63-100-6-20-6-21-2-6-19-6H27q-6 6-6 9"/><path id="f" d="M137 683q1 0 72 5t73 6q12 0 12-9 0-11-36-151-38-148-38-151 0-2 7 5 61 54 130 54 54 0 87-27t34-79q0-51-38-158T402 50q1-14 5-19t15-5q28 0 52 30t39 82q3 11 6 13t16 2q20 0 20-8 0-1-4-15-16-59-51-97-34-43-81-43h-5q-47 0-68 27t-21 57q0 16 36 118t37 153q0 59-44 59h-5q-83 0-144-98l-7-13-34-135Q132 28 127 16q-13-27-44-27-14 0-24 9T48 16q0 14 73 304l74 296q0 13-7 16t-39 5h-21q-6 6-6 8t2 19q5 19 13 19"/><path id="g" d="M52 289q7 42 54 97t116 56q35 0 64-18t43-45q42 63 101 63 37 0 64-22t28-59q0-29-14-47t-27-22-23-4q-19 0-31 11t-12 29q0 46 50 63-11 13-40 13-13 0-19-2-38-16-56-66-60-221-60-258 0-28 16-40t35-12q37 0 73 33t49 81q3 10 6 11t16 2h4q15 0 15-8 0-1-2-11-16-57-62-101T333-11q-70 0-106 63-41-62-94-62h-6q-49 0-70 26T35 71q0 32 19 52t45 20q43 0 43-42 0-20-12-35t-23-20-13-5l-3-1q0-1 6-4t16-7 19-3q36 0 62 45 9 16 23 68t28 108 16 66q5 27 5 39 0 28-15 40t-34 12q-40 0-75-32t-49-82q-2-9-5-10t-16-2H58q-6 6-6 11"/><path id="h" d="M56 237v13l14 20h299v150l1 150q10 13 19 13 13 0 20-15V270h298q15-8 15-20t-15-20H409V-68q-8-14-18-14h-4q-12 0-18 14v298H70q-14 7-14 20Z"/><path id="i" d="M78 60q0 24 17 42t43 18q24 0 42-16t19-43q0-25-17-43T139 0 96 17 78 60"/></defs><g stroke="currentColor" fill="currentColor" stroke-width="0"><g transform="scale(1 -1)"><g><use data-c="28" xlink:href="#a" transform="translate(220 710)"/><use data-c="2212" xlink:href="#b" transform="translate(220 710) translate(389)"/><use data-c="31" xlink:href="#c" transform="translate(220 710) translate(1167)"/><g><use data-c="29" xlink:href="#d" transform="translate(220 710) translate(1667)"/><use data-c="1D45B" xlink:href="#e" transform="translate(220 710) translate(1667) translate(422 363)scale(.707)"/></g><g><use data-c="210E" xlink:href="#f" transform="translate(220 710) translate(2563.3)"/><use data-c="1D45B" xlink:href="#e" transform="translate(220 710) translate(2563.3) translate(609 363)scale(.707)"/></g></g><g><use data-c="1D465" xlink:href="#g" transform="translate(1051.8 -719.9)"/><g data-mjx-texclass="ORD"><use data-c="1D45B" xlink:href="#e" transform="translate(1051.8 -719.9) translate(605 289)scale(.707)"/><use data-c="2B" xlink:href="#h" transform="translate(1051.8 -719.9) translate(605 289)scale(.707) translate(600)"/><use data-c="31" xlink:href="#c" transform="translate(1051.8 -719.9) translate(605 289)scale(.707) translate(1378)"/></g></g><path stroke="none" d="M120 220H3966.5V280H120z"/></g><use data-c="2E" xlink:href="#i" transform="scale(1 -1) translate(4086.5)"/></g></svg>