<svg style="vertical-align:-.65ex" xmlns="http://www.w3.org/2000/svg" width="10.046ex" height="2.347ex" viewBox="0 -750 4440.1 1037.2" xmlns:xlink="http://www.w3.org/1999/xlink"><defs><path id="a" d="M308 24q59 0 108 52t50 121q0 63-52 87-106 27-136 37t-42 20q-60 42-60 121 0 61 32 111t65 75q29 25 70 40t64 16h18q96 0 139-64 1 0 13 13t26 29 20 22h4q3 0 5 1 13 0 13-7t-28-121-32-118-16-3q-20 0-20 9 0 6 1 10 0 3 1 19t2 26q0 34-9 59t-18 37-25 25q-36 21-82 21-57 0-106-46t-50-106q0-30 15-52t41-31q4-2 70-19t67-18q34-11 66-48t32-100q0-26-8-56-5-22-18-49t-36-59-66-60-94-38q-12-2-34-2-99 0-154 55l-10 11-28-31Q83-14 78-18t-13-4q-13 0-13 8 0 3 58 235 2 6 20 6h13q6-6 6-11 0-2-1-9t-4-21-2-33q2-39 18-66t43-40 52-18 53-5"/><path id="b" d="M23 287q1 3 2 8t5 22 10 31 15 33 20 30 26 22 33 9q75 0 96-64l10 9q62 55 118 55 65 0 102-47t37-114q0-108-76-199T249-10q-22 0-39 6-11 5-23 15t-19 17l-7 8q-1-1-22-87t-21-87q0-6 8-7t37-3h25q6-7 6-9t-3-18q-3-12-6-15t-13-4h-11q-9 0-34 1t-62 1q-70 0-89-2h-8q-7 7-7 11 2 27 13 35h20q34 1 39 12 3 6 61 239t61 247q1 5 1 14 0 41-25 41-22 0-37-28t-23-61-12-36q-2-2-16-2H29q-6 6-6 9m155-185q22-76 74-76 30 0 58 23t46 58q18 34 36 108t19 110v6q0 74-61 74-11 0-22-3t-22-9-20-13-17-15-15-15-11-14-8-10l-3-4q0-1-3-14t-11-44-14-52q-26-106-26-110"/><path id="c" d="M94 250q0 69 10 131t23 107 37 88 38 67 42 52 33 34 25 21h17q14 0 14-9 0-3-17-21t-41-53-49-86-42-138-17-193 17-192 41-139 49-86 42-53 17-21q0-9-15-9h-16l-28 24q-94 85-137 212T94 250"/><path id="d" d="M234 637h-8q-25 0-30 1t-5 11q0 27 11 33 2 1 97 1h88q11 0 14-6 211-496 215-509l54 213q53 211 53 225 0 27-64 31-24 0-24 11 0 2 2 12 4 16 6 19t10 4q3 0 31-1t83-2q50 0 76 1t30 1q15 0 15-10 0-22-8-30-2-5-22-5-71-4-89-40L620 7q-2-7-21-7-14 0-17 2-3 3-129 303L326 604l-65-260Q196 88 196 79q5-33 72-33h10q6-5 6-8t-2-19q-4-13-10-19h-13q-31 2-108 2H63Q49 2 46 1q-15 0-15 9 0 4 3 16t5 14q2 6 23 6 68 3 88 39 4 6 71 277l68 272q-2 1-55 3"/><path id="e" d="M84 237v13l14 20h581q15-8 15-20t-15-20H98q-14 7-14 20Z"/><path id="f" d="m213 578-13-5q-14-5-40-10t-58-7H83v46h19q47 2 87 15t56 24 28 22q2 3 12 3 9 0 17-6V361l1-300q7-7 12-9t24-4 62-2h26V0h-11q-21 3-159 3-136 0-157-3H88v46h64q16 0 25 1t16 3 8 2 6 5 6 4z"/><path id="g" d="m60 749 4 1h22l28-24q94-85 137-212t43-264q0-68-10-131T261 12t-37-88-38-67-41-51-32-33-23-19l-4-4H63q-3 0-5 3t-3 9q1 1 11 13Q221-64 221 250T66 725q-10 12-11 13 0 8 5 11"/></defs><g stroke="currentColor" fill="currentColor" stroke-width="0"><g><use data-c="1D446" xlink:href="#a" transform="scale(1 -1)"/><use data-c="1D45D" xlink:href="#b" transform="scale(1 -1) translate(646 -150)scale(.707)"/></g><use data-c="28" xlink:href="#c" transform="scale(1 -1) translate(1051.7)"/><use data-c="1D441" xlink:href="#d" transform="scale(1 -1) translate(1440.7)"/><use data-c="2212" xlink:href="#e" transform="scale(1 -1) translate(2550.9)"/><use data-c="31" xlink:href="#f" transform="scale(1 -1) translate(3551.1)"/><use data-c="29" xlink:href="#g" transform="scale(1 -1) translate(4051.1)"/></g></svg>