<svg style="vertical-align:-2.819ex" xmlns="http://www.w3.org/2000/svg" width="48.439ex" height="6.354ex" viewBox="0 -1562.5 21410 2808.5" xmlns:xlink="http://www.w3.org/1999/xlink"><defs><path id="a" d="m213 578-13-5q-14-5-40-10t-58-7H83v46h19q47 2 87 15t56 24 28 22q2 3 12 3 9 0 17-6V361l1-300q7-7 12-9t24-4 62-2h26V0h-11q-21 3-159 3-136 0-157-3H88v46h64q16 0 25 1t16 3 8 2 6 5 6 4z"/><path id="b" d="M56 237v13l14 20h299v150l1 150q10 13 19 13 13 0 20-15V270h298q15-8 15-20t-15-20H409V-68q-8-14-18-14h-4q-12 0-18 14v298H70q-14 7-14 20Z"/><path id="c" d="M52 289q7 42 54 97t116 56q35 0 64-18t43-45q42 63 101 63 37 0 64-22t28-59q0-29-14-47t-27-22-23-4q-19 0-31 11t-12 29q0 46 50 63-11 13-40 13-13 0-19-2-38-16-56-66-60-221-60-258 0-28 16-40t35-12q37 0 73 33t49 81q3 10 6 11t16 2h4q15 0 15-8 0-1-2-11-16-57-62-101T333-11q-70 0-106 63-41-62-94-62h-6q-49 0-70 26T35 71q0 32 19 52t45 20q43 0 43-42 0-20-12-35t-23-20-13-5l-3-1q0-1 6-4t16-7 19-3q36 0 62 45 9 16 23 68t28 108 16 66q5 27 5 39 0 28-15 40t-34 12q-40 0-75-32t-49-82q-2-9-5-10t-16-2H58q-6 6-6 11"/><path id="d" d="M56 347q0 13 14 20h637q15-8 15-20 0-11-14-19l-318-1H72q-16 5-16 20m0-194q0 15 16 20h636q14-10 14-20 0-13-15-20H70q-14 7-14 20"/><path id="e" d="M60 948q3 2 605 2h602l58-135q59-138 63-146h-40l-7 14q-21 41-56 78-50 48-111 77t-141 43-151 17-183 4H251l8-11q463-633 465-639 1-2 0-6-3-3-264-302L196-356q0-1 211-1h141q89 0 128-1 136 0 220 5t167 21 141 49 103 87q21 26 41 72h40q0-1-7-21t-25-65-31-84l-58-155-601-1q-602 0-605 2-6 2-6 9 0 2 2 6l533 610q0 1-33 45T452 366 322 544L56 909l-1 15q0 21 5 24"/><path id="f" d="M21 287q1 6 3 16t12 38 20 47 33 37 46 17q36 0 60-18t30-34 6-21q0-2 1-2l11 11q61 64 139 64 54 0 87-27t34-79-38-157-38-127q0-26 17-26 6 0 9 1 29 5 52 38t35 80q2 8 20 8 20 0 20-8 0-1-4-15-8-29-22-57t-46-56-69-27q-47 0-68 27t-21 56q0 19 36 120t37 152q0 59-44 59h-5q-86 0-145-101l-7-12-33-134Q156 26 151 16q-13-27-43-27-13 0-21 6T76 7t-2 10q0 13 38 163t40 163q1 5 1 23 0 39-24 39-38 0-63-100-6-20-6-21-2-6-19-6H27q-6 6-6 9"/><path id="g" d="M96 585q56 81 153 81 48 0 96-26t78-92q37-83 37-228 0-155-43-237-20-42-55-67t-61-31-51-7q-26 0-52 6t-61 32-55 67q-43 82-43 237 0 174 57 265m225 12q-30 32-71 32-42 0-72-32-25-26-33-72t-8-192q0-158 8-208t36-79q28-30 69-30 40 0 68 30 29 30 36 84t8 203q0 145-8 191t-33 73"/><path id="h" d="M55 217q0 88 56 156t143 69q88 0 165-61 38-31 74-78l14-19 7 10q104 148 233 148 86 0 141-68t56-160q0-86-55-155T743-11q-86 0-163 61-38 31-74 78l-14 19-7-10Q381-11 252-11q-86 0-141 68T55 217m852 0q0 68-38 124t-108 56q-21 0-41-5t-38-14-34-19-29-24-25-25-20-25-15-22-11-17l-5-8 31-40q31-40 48-60t42-44 50-33 51-10q62 0 102 49t40 117m-815-3q0-69 39-125t108-56q118 0 217 160l-31 40q-61 79-91 104-49 43-101 43-62 0-101-49T92 214"/><path id="i" d="M94 250q0 69 10 131t23 107 37 88 38 67 42 52 33 34 25 21h17q14 0 14-9 0-3-17-21t-41-53-49-86-42-138-17-193 17-192 41-139 49-86 42-53 17-21q0-9-15-9h-16l-28 24q-94 85-137 212T94 250"/><path id="j" d="M84 237v13l14 20h581q15-8 15-20t-15-20H98q-14 7-14 20Z"/><path id="k" d="m60 749 4 1h22l28-24q94-85 137-212t43-264q0-68-10-131T261 12t-37-88-38-67-41-51-32-33-23-19l-4-4H63q-3 0-5 3t-3 9q1 1 11 13Q221-64 221 250T66 725q-10 12-11 13 0 8 5 11"/><path id="l" d="M109 429q-27 0-43 18t-16 44q0 71 53 123t132 52q91 0 152-56t62-145q0-43-20-82t-48-68-80-74q-36-31-100-92l-59-56 76-1q157 0 167 5 7 2 24 89v3h40v-3q-1-3-13-91T421 3V0H50v31q0 7 6 15t30 35q29 32 50 56 9 10 34 37t34 37 29 33 28 34 23 30 21 32 15 29 13 32 7 30 3 33q0 63-34 109t-97 46q-33 0-58-17t-35-33-10-19q0-1 5-1 18 0 37-14t19-46q0-25-16-42t-45-18"/><path id="m" d="M127 463q-27 0-42 17t-16 44q0 55 48 98t116 43q35 0 44-1 74-12 113-53t40-89q0-52-34-101t-94-71l-3-2q0-1 9-3t29-9 38-21q82-53 82-140 0-79-62-138T238-22q-80 0-138 43T42 130q0 28 18 45t45 18q28 0 46-18t18-45q0-11-3-20t-7-16-11-12-12-8-10-4-8-3l-4-1q51-45 124-45 55 0 83 53 17 33 17 101v20q0 95-64 127-15 6-61 7l-42 1-3 2q-2 3-2 16 0 18 8 18 28 0 58 5 34 5 62 42t28 112v8q0 57-35 79-22 14-47 14-32 0-59-11t-38-23-11-12h3q3-1 8-2t10-5 12-7 10-11 8-15 3-20q0-22-14-39t-45-18"/><path id="n" d="M78 60q0 24 17 42t43 18q24 0 42-16t19-43q0-25-17-43T139 0 96 17 78 60m447 0q0 24 17 42t43 18q24 0 42-16t19-43q0-25-17-43T586 0t-43 17-18 43m447 0q0 24 17 42t43 18q24 0 42-16t19-43q0-25-17-43t-43-18-43 17-18 43"/><path id="o" d="M78 60q0 24 17 42t43 18q24 0 42-16t19-43q0-25-17-43T139 0 96 17 78 60"/></defs><g stroke="currentColor" fill="currentColor" stroke-width="0"><g transform="scale(1 -1)"><use data-c="31" xlink:href="#a" transform="translate(1117.2 676)"/><g><use data-c="31" xlink:href="#a" transform="translate(220 -686)"/><use data-c="2B" xlink:href="#b" transform="translate(220 -686) translate(722.2)"/><use data-c="1D465" xlink:href="#c" transform="translate(220 -686) translate(1722.4)"/></g><path stroke="none" d="M120 220H2614.4V280H120z"/></g><use data-c="3D" xlink:href="#d" transform="scale(1 -1) translate(3012.2)"/><g transform="scale(1 -1) translate(4068)"><use data-c="31" xlink:href="#a" transform="translate(256 676)"/><use data-c="1D465" xlink:href="#c" transform="translate(220 -686)"/><path stroke="none" d="M120 220H892V280H120z"/></g><g><use data-c="2211" xlink:href="#e" transform="scale(1 -1) translate(5246.7)"/><g data-mjx-texclass="ORD"><use data-c="1D45B" xlink:href="#f" transform="scale(1 -1) translate(5246.7) translate(58 -1087.9)scale(.707)"/><use data-c="3D" xlink:href="#d" transform="scale(1 -1) translate(5246.7) translate(58 -1087.9)scale(.707) translate(600)"/><use data-c="30" xlink:href="#g" transform="scale(1 -1) translate(5246.7) translate(58 -1087.9)scale(.707) translate(1378)"/></g><g data-mjx-texclass="ORD"><use data-c="221E" xlink:href="#h" transform="scale(1 -1) translate(5246.7) translate(368.4 1150)scale(.707)"/></g></g><use data-c="28" xlink:href="#i" transform="scale(1 -1) translate(6690.7)"/><use data-c="2212" xlink:href="#j" transform="scale(1 -1) translate(7079.7)"/><use data-c="31" xlink:href="#a" transform="scale(1 -1) translate(7857.7)"/><g><use data-c="29" xlink:href="#k" transform="scale(1 -1) translate(8357.7)"/><use data-c="1D45B" xlink:href="#f" transform="scale(1 -1) translate(8357.7) translate(422 413)scale(.707)"/></g><g><use data-c="1D465" xlink:href="#c" transform="scale(1 -1) translate(9253.9)"/><g data-mjx-texclass="ORD"><use data-c="2212" xlink:href="#j" transform="scale(1 -1) translate(9253.9) translate(605 413)scale(.707)"/><use data-c="1D45B" xlink:href="#f" transform="scale(1 -1) translate(9253.9) translate(605 413)scale(.707) translate(778)"/></g></g><use data-c="3D" xlink:href="#d" transform="scale(1 -1) translate(11161.1)"/><g transform="scale(1 -1) translate(12216.9)"><use data-c="31" xlink:href="#a" transform="translate(256 676)"/><use data-c="1D465" xlink:href="#c" transform="translate(220 -686)"/><path stroke="none" d="M120 220H892V280H120z"/></g><use data-c="2212" xlink:href="#j" transform="scale(1 -1) translate(13451.1)"/><g transform="scale(1 -1) translate(14451.3)"><use data-c="31" xlink:href="#a" transform="translate(474.3 676)"/><g><use data-c="1D465" xlink:href="#c" transform="translate(220 -719.9)"/><use data-c="32" xlink:href="#l" transform="translate(220 -719.9) translate(605 289)scale(.707)"/></g><path stroke="none" d="M120 220H1328.6V280H120z"/></g><use data-c="2B" xlink:href="#b" transform="scale(1 -1) translate(16122.1)"/><g transform="scale(1 -1) translate(17122.3)"><use data-c="31" xlink:href="#a" transform="translate(474.3 676)"/><g><use data-c="1D465" xlink:href="#c" transform="translate(220 -719.2)"/><use data-c="33" xlink:href="#m" transform="translate(220 -719.2) translate(605 289)scale(.707)"/></g><path stroke="none" d="M120 220H1328.6V280H120z"/></g><use data-c="2212" xlink:href="#j" transform="scale(1 -1) translate(18793.1)"/><use data-c="2026" xlink:href="#n" transform="scale(1 -1) translate(19793.3)"/><use data-c="2E" xlink:href="#o" transform="scale(1 -1) translate(21132)"/></g></svg>