<svg style="vertical-align:-1.738ex" xmlns="http://www.w3.org/2000/svg" width="7.803ex" height="5.171ex" viewBox="0 -1517.7 3449 2285.7" xmlns:xlink="http://www.w3.org/1999/xlink"><defs><path id="a" d="M52 289q7 42 54 97t116 56q35 0 64-18t43-45q42 63 101 63 37 0 64-22t28-59q0-29-14-47t-27-22-23-4q-19 0-31 11t-12 29q0 46 50 63-11 13-40 13-13 0-19-2-38-16-56-66-60-221-60-258 0-28 16-40t35-12q37 0 73 33t49 81q3 10 6 11t16 2h4q15 0 15-8 0-1-2-11-16-57-62-101T333-11q-70 0-106 63-41-62-94-62h-6q-49 0-70 26T35 71q0 32 19 52t45 20q43 0 43-42 0-20-12-35t-23-20-13-5l-3-1q0-1 6-4t16-7 19-3q36 0 62 45 9 16 23 68t28 108 16 66q5 27 5 39 0 28-15 40t-34 12q-40 0-75-32t-49-82q-2-9-5-10t-16-2H58q-6 6-6 11"/><path id="b" d="M462 0q-18 3-129 3-116 0-134-3h-9v46h58q7 0 17 2t14 5 7 8q1 2 1 54v50H28v46l151 231q153 232 155 233 2 2 21 2h18l6-6V211h92v-46h-92V66q0-7 6-12 8-7 57-8h29V0zM293 211v334L74 212l109-1z"/><path id="c" d="M84 237v13l14 20h581q15-8 15-20t-15-20H98q-14 7-14 20Z"/><path id="d" d="M56 237v13l14 20h299v150l1 150q10 13 19 13 13 0 20-15V270h298q15-8 15-20t-15-20H409V-68q-8-14-18-14h-4q-12 0-18 14v298H70q-14 7-14 20Z"/><path id="e" d="M109 429q-27 0-43 18t-16 44q0 71 53 123t132 52q91 0 152-56t62-145q0-43-20-82t-48-68-80-74q-36-31-100-92l-59-56 76-1q157 0 167 5 7 2 24 89v3h40v-3q-1-3-13-91T421 3V0H50v31q0 7 6 15t30 35q29 32 50 56 9 10 34 37t34 37 29 33 28 34 23 30 21 32 15 29 13 32 7 30 3 33q0 63-34 109t-97 46q-33 0-58-17t-35-33-10-19q0-1 5-1 18 0 37-14t19-46q0-25-16-42t-45-18"/><path id="f" d="M78 35v25l16 43 43 18q28 0 50-25t23-88q0-35-9-68t-21-57-26-41-24-27-13-9q-4 0-13 9t-9 13 11 16 25 30 26 50 16 73V9l-1-1q-2-1-5-2t-6-3-9-2-12-1q-27 0-44 17Z"/></defs><g stroke="currentColor" fill="currentColor" stroke-width="0"><g transform="scale(1 -1)"><g><g><use data-c="1D465" xlink:href="#a" transform="translate(220 676)"/><use data-c="34" xlink:href="#b" transform="translate(220 676) translate(605 363)scale(.707)"/></g><use data-c="2212" xlink:href="#c" transform="translate(220 676) translate(1230.8)"/><use data-c="34" xlink:href="#b" transform="translate(220 676) translate(2231)"/></g><g><use data-c="1D465" xlink:href="#a" transform="translate(438.3 -686)"/><use data-c="2B" xlink:href="#d" transform="translate(438.3 -686) translate(794.2)"/><use data-c="32" xlink:href="#e" transform="translate(438.3 -686) translate(1794.4)"/></g><path stroke="none" d="M120 220H3051V280H120z"/></g><use data-c="2C" xlink:href="#f" transform="scale(1 -1) translate(3171)"/></g></svg>