<svg style="vertical-align:-2.819ex" xmlns="http://www.w3.org/2000/svg" width="21.522ex" height="7.142ex" viewBox="0 -1911 9512.6 3156.9" xmlns:xlink="http://www.w3.org/1999/xlink"><defs><path id="a" d="M60 948q3 2 605 2h602l58-135q59-138 63-146h-40l-7 14q-21 41-56 78-50 48-111 77t-141 43-151 17-183 4H251l8-11q463-633 465-639 1-2 0-6-3-3-264-302L196-356q0-1 211-1h141q89 0 128-1 136 0 220 5t167 21 141 49 103 87q21 26 41 72h40q0-1-7-21t-25-65-31-84l-58-155-601-1q-602 0-605 2-6 2-6 9 0 2 2 6l533 610q0 1-33 45T452 366 322 544L56 909l-1 15q0 21 5 24"/><path id="b" d="M184 600q0 24 19 42t44 19q18 0 30-12t13-30q0-23-20-42t-44-20q-15 0-28 10t-14 33M21 287q0 8 9 31t24 51 44 51 60 22q39 0 65-23t27-62q0-17-14-56t-40-105-42-113q-5-22-5-32 0-25 17-25 9 0 19 3t23 14 27 35 25 59q3 12 5 14t17 2q20 0 20-10 0-8-9-31t-25-51-45-50-62-22q-32 0-59 21T74 74q0 17 5 32t43 114q38 101 44 121t7 39q0 24-17 24h-2q-30 0-55-33t-38-84q-1-1-2-3t-1-3-2-2-3-1-4 0-8 0H27q-6 6-6 9"/><path id="c" d="M56 347q0 13 14 20h637q15-8 15-20 0-11-14-19l-318-1H72q-16 5-16 20m0-194q0 15 16 20h636q14-10 14-20 0-13-15-20H70q-14 7-14 20"/><path id="d" d="M96 585q56 81 153 81 48 0 96-26t78-92q37-83 37-228 0-155-43-237-20-42-55-67t-61-31-51-7q-26 0-52 6t-61 32-55 67q-43 82-43 237 0 174 57 265m225 12q-30 32-71 32-42 0-72-32-25-26-33-72t-8-192q0-158 8-208t36-79q28-30 69-30 40 0 68 30 29 30 36 84t8 203q0 145-8 191t-33 73"/><path id="e" d="M21 287q1 6 3 16t12 38 20 47 33 37 46 17q36 0 60-18t30-34 6-21q0-2 1-2l11 11q61 64 139 64 54 0 87-27t34-79-38-157-38-127q0-26 17-26 6 0 9 1 29 5 52 38t35 80q2 8 20 8 20 0 20-8 0-1-4-15-8-29-22-57t-46-56-69-27q-47 0-68 27t-21 56q0 19 36 120t37 152q0 59-44 59h-5q-86 0-145-101l-7-12-33-134Q156 26 151 16q-13-27-43-27-13 0-21 6T76 7t-2 10q0 13 38 163t40 163q1 5 1 23 0 39-24 39-38 0-63-100-6-20-6-21-2-6-19-6H27q-6 6-6 9"/><path id="f" d="M51 0q-5 4-5 7 0 2 169 350t173 352q3 7 28 7 23 0 28-7 3-4 172-352T786 7q0-3-5-7zm456 344L384 596 137 92l246-1h247q0 2-123 253"/><path id="g" d="M52 289q7 42 54 97t116 56q35 0 64-18t43-45q42 63 101 63 37 0 64-22t28-59q0-29-14-47t-27-22-23-4q-19 0-31 11t-12 29q0 46 50 63-11 13-40 13-13 0-19-2-38-16-56-66-60-221-60-258 0-28 16-40t35-12q37 0 73 33t49 81q3 10 6 11t16 2h4q15 0 15-8 0-1-2-11-16-57-62-101T333-11q-70 0-106 63-41-62-94-62h-6q-49 0-70 26T35 71q0 32 19 52t45 20q43 0 43-42 0-20-12-35t-23-20-13-5l-3-1q0-1 6-4t16-7 19-3q36 0 62 45 9 16 23 68t28 108 16 66q5 27 5 39 0 28-15 40t-34 12q-40 0-75-32t-49-82q-2-9-5-10t-16-2H58q-6 6-6 11"/><path id="h" d="M152 251q0 395 236 599h28q6-6 6-9 0-4-19-25t-46-63-55-104-47-167-19-232q0-126 19-231t46-166 55-104 47-64 19-25q0-3-6-9h-28q-29 24-56 53t-61 83-59 116-42 153-18 195"/><path id="i" d="M56 237v13l14 20h299v150l1 150q10 13 19 13 13 0 20-15V270h298q15-8 15-20t-15-20H409V-68q-8-14-18-14h-4q-12 0-18 14v298H70q-14 7-14 20Z"/><path id="j" d="m213 578-13-5q-14-5-40-10t-58-7H83v46h19q47 2 87 15t56 24 28 22q2 3 12 3 9 0 17-6V361l1-300q7-7 12-9t24-4 62-2h26V0h-11q-21 3-159 3-136 0-157-3H88v46h64q16 0 25 1t16 3 8 2 6 5 6 4z"/><path id="k" d="M305 251q0-396-236-600H56q-13 0-17 2t-4 9q2 5 25 31t48 68 52 103 44 163 17 223-17 223-44 163-52 104-48 67-25 32q0 11 15 11h19q128-107 187-284 49-141 49-315"/><path id="l" d="M109 429q-27 0-43 18t-16 44q0 71 53 123t132 52q91 0 152-56t62-145q0-43-20-82t-48-68-80-74q-36-31-100-92l-59-56 76-1q157 0 167 5 7 2 24 89v3h40v-3q-1-3-13-91T421 3V0H50v31q0 7 6 15t30 35q29 32 50 56 9 10 34 37t34 37 29 33 28 34 23 30 21 32 15 29 13 32 7 30 3 33q0 63-34 109t-97 46q-33 0-58-17t-35-33-10-19q0-1 5-1 18 0 37-14t19-46q0-25-16-42t-45-18"/><path id="m" d="M78 60q0 24 17 42t43 18q24 0 42-16t19-43q0-25-17-43T139 0 96 17 78 60"/></defs><g stroke="currentColor" fill="currentColor" stroke-width="0"><g><use data-c="2211" xlink:href="#a" transform="scale(1 -1)"/><g data-mjx-texclass="ORD"><use data-c="1D456" xlink:href="#b" transform="scale(1 -1) translate(148.2 -1087.9)scale(.707)"/><use data-c="3D" xlink:href="#c" transform="scale(1 -1) translate(148.2 -1087.9)scale(.707) translate(345)"/><use data-c="30" xlink:href="#d" transform="scale(1 -1) translate(148.2 -1087.9)scale(.707) translate(1123)"/></g><g data-mjx-texclass="ORD"><g transform="scale(1 -1) translate(215.2 1311.4)scale(.707)"><use data-c="1D45B" xlink:href="#e" transform="translate(504.6 394)scale(.707)"/><g><use data-c="394" xlink:href="#f" transform="translate(220 -346.3)scale(.707)"/><use data-c="1D465" xlink:href="#g" transform="translate(220 -346.3)scale(.707) translate(833)"/></g><path stroke="none" d="M120 220H1313.5V280H120z"/></g></g></g><use data-c="1D456" xlink:href="#b" transform="scale(1 -1) translate(1610.7)"/><use data-c="3D" xlink:href="#c" transform="scale(1 -1) translate(2233.4)"/><g transform="scale(1 -1) translate(3289.2)"><g><g transform="translate(220 814.1)"><use data-c="1D45B" xlink:href="#e" transform="translate(504.6 394)scale(.707)"/><g><use data-c="394" xlink:href="#f" transform="translate(220 -346.3)scale(.707)"/><use data-c="1D465" xlink:href="#g" transform="translate(220 -346.3)scale(.707) translate(833)"/></g><path stroke="none" d="M120 220H1313.5V280H120z"/></g><g><use data-c="28" xlink:href="#h" transform="translate(220 814.1) translate(1433.5) translate(0 -.5)"/><g transform="translate(220 814.1) translate(1433.5) translate(458)"><use data-c="1D45B" xlink:href="#e" transform="translate(504.6 394)scale(.707)"/><g><use data-c="394" xlink:href="#f" transform="translate(220 -346.3)scale(.707)"/><use data-c="1D465" xlink:href="#g" transform="translate(220 -346.3)scale(.707) translate(833)"/></g><path stroke="none" d="M120 220H1313.5V280H120z"/></g><use data-c="2B" xlink:href="#i" transform="translate(220 814.1) translate(1433.5) translate(2113.7)"/><use data-c="31" xlink:href="#j" transform="translate(220 814.1) translate(1433.5) translate(3113.9)"/><use data-c="29" xlink:href="#k" transform="translate(220 814.1) translate(1433.5) translate(3613.9 -.5)"/></g></g><use data-c="32" xlink:href="#l" transform="translate(2722.7 -686)"/><path stroke="none" d="M120 220H5825.4V280H120z"/></g><use data-c="2E" xlink:href="#m" transform="scale(1 -1) translate(9234.6)"/></g></svg>