<svg style="vertical-align:-.574ex" xmlns="http://www.w3.org/2000/svg" width="115.889ex" height="2.591ex" viewBox="0 -891.7 51222.7 1145.2" xmlns:xlink="http://www.w3.org/1999/xlink"><defs><path id="a" d="M118-162q2 0 6-2t11-3 12-1q13 0 24 13t16 29q10 27 34 153t46 240 22 115v3h-47q-47 0-50 2-4 3-4 10l7 28q2 5 8 5t47 1q48 0 48 1 0 2 9 50t12 58q37 165 146 165 37-2 61-22t24-53q0-36-21-52t-42-17q-44 0-44 42 0 19 11 33t24 21l9 5q-16 6-30 6-12 0-23-10t-15-28q-7-29-16-78t-16-83-7-36 55-2q45 0 52-1t11-6q1-4-2-17t-5-16q-2-5-9-5t-54-1h-56l-23-122Q301 15 282-47q-27-85-70-126-37-32-73-32-32 0-58 19t-26 54q0 37 21 54t42 17q44 0 44-42 0-19-11-33t-24-21z"/><path id="b" d="M94 250q0 69 10 131t23 107 37 88 38 67 42 52 33 34 25 21h17q14 0 14-9 0-3-17-21t-41-53-49-86-42-138-17-193 17-192 41-139 49-86 42-53 17-21q0-9-15-9h-16l-28 24q-94 85-137 212T94 250"/><path id="c" d="M311 43q-15-13-44-28T206 0q-63 0-101 45T66 160q0 105 77 193t171 89q47 0 87-48l3 4q2 3 5 6t9 8 13 7 16 3q14 0 23-9t10-19q0-15-57-242T363-80q-18-54-77-89t-135-36q-141 0-141 68 0 26 18 46t46 20q15 0 28-9t14-31q0-10-2-19t-7-14-8-10-7-8l-2-2h1q10-3 60-3 38 0 60 12 23 11 43 33t28 47q6 19 16 62 13 48 13 56m73 285-4 11q-3 11-5 15t-6 14-10 14-13 11-18 9-22 3q-44 0-85-53-30-39-50-119t-20-116q0-79 62-79 56 0 110 70l8 10z"/><path id="d" d="M52 289q7 42 54 97t116 56q35 0 64-18t43-45q42 63 101 63 37 0 64-22t28-59q0-29-14-47t-27-22-23-4q-19 0-31 11t-12 29q0 46 50 63-11 13-40 13-13 0-19-2-38-16-56-66-60-221-60-258 0-28 16-40t35-12q37 0 73 33t49 81q3 10 6 11t16 2h4q15 0 15-8 0-1-2-11-16-57-62-101T333-11q-70 0-106 63-41-62-94-62h-6q-49 0-70 26T35 71q0 32 19 52t45 20q43 0 43-42 0-20-12-35t-23-20-13-5l-3-1q0-1 6-4t16-7 19-3q36 0 62 45 9 16 23 68t28 108 16 66q5 27 5 39 0 28-15 40t-34 12q-40 0-75-32t-49-82q-2-9-5-10t-16-2H58q-6 6-6 11"/><path id="e" d="M56 237v13l14 20h299v150l1 150q10 13 19 13 13 0 20-15V270h298q15-8 15-20t-15-20H409V-68q-8-14-18-14h-4q-12 0-18 14v298H70q-14 7-14 20Z"/><path id="f" d="M137 683q1 0 72 5t73 6q12 0 12-9 0-11-36-151-38-148-38-151 0-2 7 5 61 54 130 54 54 0 87-27t34-79q0-51-38-158T402 50q1-14 5-19t15-5q28 0 52 30t39 82q3 11 6 13t16 2q20 0 20-8 0-1-4-15-16-59-51-97-34-43-81-43h-5q-47 0-68 27t-21 57q0 16 36 118t37 153q0 59-44 59h-5q-83 0-144-98l-7-13-34-135Q132 28 127 16q-13-27-44-27-14 0-24 9T48 16q0 14 73 304l74 296q0 13-7 16t-39 5h-21q-6 6-6 8t2 19q5 19 13 19"/><path id="g" d="m60 749 4 1h22l28-24q94-85 137-212t43-264q0-68-10-131T261 12t-37-88-38-67-41-51-32-33-23-19l-4-4H63q-3 0-5 3t-3 9q1 1 11 13Q221-64 221 250T66 725q-10 12-11 13 0 8 5 11"/><path id="h" d="M56 347q0 13 14 20h637q15-8 15-20 0-11-14-19l-318-1H72q-16 5-16 20m0-194q0 15 16 20h636q14-10 14-20 0-13-15-20H70q-14 7-14 20"/><path id="i" d="M231 637q-27 0-32 1t-5 11q0 27 11 33 1 1 130 1 259 0 273-2 63-10 105-45t43-92q0-64-58-115t-133-69l-10-3q64-9 105-46t42-92q0-73-72-141T453 1q-7-1-211-1Q42 0 39 2q-4 3-4 8 0 7 2 14 5 19 10 21 4 1 15 1h6q27 0 60 3 14 3 19 12 3 4 72 278t69 289q0 7-57 9m418-93q0 30-15 56t-49 34q-7 2-92 3h-42q-22 0-35-1h-13q-15-1-19-10-2-4-32-120 0-3-1-6l-31-126h81q81 0 93 2 60 10 107 58t48 110m-54-315q0 44-23 73t-60 34q-6 1-83 1-118 0-119-1 0-2-17-73t-35-141l-18-70q0-4 12-4t81-2q89 0 96 1 62 7 114 58t52 124"/><path id="j" d="M96 585q56 81 153 81 48 0 96-26t78-92q37-83 37-228 0-155-43-237-20-42-55-67t-61-31-51-7q-26 0-52 6t-61 32-55 67q-43 82-43 237 0 174 57 265m225 12q-30 32-71 32-42 0-72-32-25-26-33-72t-8-192q0-158 8-208t36-79q28-30 69-30 40 0 68 30 29 30 36 84t8 203q0 145-8 191t-33 73"/><path id="k" d="m213 578-13-5q-14-5-40-10t-58-7H83v46h19q47 2 87 15t56 24 28 22q2 3 12 3 9 0 17-6V361l1-300q7-7 12-9t24-4 62-2h26V0h-11q-21 3-159 3-136 0-157-3H88v46h64q16 0 25 1t16 3 8 2 6 5 6 4z"/><path id="l" d="M50 252q0 115 67 221t169 168 204 63q90 0 143-51 9-10 15-17t8-10l1-3q3 0 27 26 7 6 15 14t16 16 10 11l15 15h6q14 0 14-7 0-4-32-137-36-139-36-140-2-5-5-6t-18-2h-16q-6 6-6 9 0 1 1 7t2 20 1 32q0 71-32 124t-109 54q-26 0-56-7t-72-24-83-56-73-93q-32-57-51-133t-19-124q0-114 76-164 48-34 118-34 91 0 162 68t94 148q4 13 6 15t16 2q20 0 20-9 0-5-1-9-29-107-124-184T319-22q-113 0-191 75T50 252"/><path id="m" d="M109 429q-27 0-43 18t-16 44q0 71 53 123t132 52q91 0 152-56t62-145q0-43-20-82t-48-68-80-74q-36-31-100-92l-59-56 76-1q157 0 167 5 7 2 24 89v3h40v-3q-1-3-13-91T421 3V0H50v31q0 7 6 15t30 35q29 32 50 56 9 10 34 37t34 37 29 33 28 34 23 30 21 32 15 29 13 32 7 30 3 33q0 63-34 109t-97 46q-33 0-58-17t-35-33-10-19q0-1 5-1 18 0 37-14t19-46q0-25-16-42t-45-18"/><path id="n" d="M127 463q-27 0-42 17t-16 44q0 55 48 98t116 43q35 0 44-1 74-12 113-53t40-89q0-52-34-101t-94-71l-3-2q0-1 9-3t29-9 38-21q82-53 82-140 0-79-62-138T238-22q-80 0-138 43T42 130q0 28 18 45t45 18q28 0 46-18t18-45q0-11-3-20t-7-16-11-12-12-8-10-4-8-3l-4-1q51-45 124-45 55 0 83 53 17 33 17 101v20q0 95-64 127-15 6-61 7l-42 1-3 2q-2 3-2 16 0 18 8 18 28 0 58 5 34 5 62 42t28 112v8q0 57-35 79-22 14-47 14-32 0-59-11t-38-23-11-12h3q3-1 8-2t10-5 12-7 10-11 8-15 3-20q0-22-14-39t-45-18"/><path id="o" d="M462 0q-18 3-129 3-116 0-134-3h-9v46h58q7 0 17 2t14 5 7 8q1 2 1 54v50H28v46l151 231q153 232 155 233 2 2 21 2h18l6-6V211h92v-46h-92V66q0-7 6-12 8-7 57-8h29V0zM293 211v334L74 212l109-1z"/><path id="p" d="M164 157q0-24-16-40t-39-16h-7q46-79 122-79 70 0 102 60 19 33 19 128 0 103-27 139-26 33-58 33h-6q-78 0-118-68-4-7-7-8t-15-2q-17 0-19 6-2 4-2 175v129q0 50 5 50 2 2 4 2 1 0 21-8t55-16 75-8q71 0 136 28 8 4 13 4 8 0 8-18v-13q-82-97-205-97-31 0-56 6l-10 2V374q19 14 30 22t36 16 51 8q81 0 137-65t56-154q0-92-64-157T229-22q-81 0-130 54T50 154q0 24 11 38t23 18 23 4q25 0 41-17t16-40"/><path id="q" d="M42 313q0 163 81 258t180 95q69 0 99-36t30-80q0-25-14-40t-39-15q-23 0-38 14t-15 39q0 44 47 53-22 22-62 25-71 0-117-60-47-66-47-202l1-4q5 6 8 13 41 60 107 60h4q46 0 81-19 24-14 48-40t39-57q21-49 21-107v-18q0-23-5-43-11-59-64-115T253-22q-28 0-54 8t-56 30-51 59-36 97-14 141m215 84q-30 0-52-17t-34-45-17-57-6-62q0-83 12-119t38-58q24-18 53-18 51 0 78 38 13 18 18 45t5 105q0 80-5 107t-18 45q-27 36-72 36"/><path id="r" d="M78 60q0 24 17 42t43 18q24 0 42-16t19-43q0-25-17-43T139 0 96 17 78 60m447 0q0 24 17 42t43 18q24 0 42-16t19-43q0-25-17-43T586 0t-43 17-18 43m447 0q0 24 17 42t43 18q24 0 42-16t19-43q0-25-17-43t-43-18-43 17-18 43"/></defs><g stroke="currentColor" fill="currentColor" stroke-width="0"><use data-c="1D453" xlink:href="#a" transform="scale(1 -1)"/><use data-c="28" xlink:href="#b" transform="scale(1 -1) translate(550)"/><use data-c="1D454" xlink:href="#c" transform="scale(1 -1) translate(939)"/><use data-c="28" xlink:href="#b" transform="scale(1 -1) translate(1416)"/><use data-c="1D465" xlink:href="#d" transform="scale(1 -1) translate(1805)"/><use data-c="2B" xlink:href="#e" transform="scale(1 -1) translate(2599.2)"/><use data-c="210E" xlink:href="#f" transform="scale(1 -1) translate(3599.4)"/><use data-c="29" xlink:href="#g" transform="scale(1 -1) translate(4175.4)"/><use data-c="29" xlink:href="#g" transform="scale(1 -1) translate(4564.4)"/><use data-c="3D" xlink:href="#h" transform="scale(1 -1) translate(5231.2)"/><use data-c="1D453" xlink:href="#a" transform="scale(1 -1) translate(6287)"/><use data-c="28" xlink:href="#b" transform="scale(1 -1) translate(6837)"/><g><use data-c="1D435" xlink:href="#i" transform="scale(1 -1) translate(7226)"/><use data-c="30" xlink:href="#j" transform="scale(1 -1) translate(7226) translate(792 -150)scale(.707)"/></g><use data-c="2B" xlink:href="#e" transform="scale(1 -1) translate(8643.8)"/><g><use data-c="1D435" xlink:href="#i" transform="scale(1 -1) translate(9644)"/><use data-c="31" xlink:href="#k" transform="scale(1 -1) translate(9644) translate(792 -150)scale(.707)"/></g><use data-c="210E" xlink:href="#f" transform="scale(1 -1) translate(10839.6)"/><use data-c="29" xlink:href="#g" transform="scale(1 -1) translate(11415.6)"/><use data-c="3D" xlink:href="#h" transform="scale(1 -1) translate(12082.3)"/><use data-c="1D453" xlink:href="#a" transform="scale(1 -1) translate(13138.1)"/><use data-c="28" xlink:href="#b" transform="scale(1 -1) translate(13688.1)"/><use data-c="1D454" xlink:href="#c" transform="scale(1 -1) translate(14077.1)"/><use data-c="28" xlink:href="#b" transform="scale(1 -1) translate(14554.1)"/><use data-c="1D465" xlink:href="#d" transform="scale(1 -1) translate(14943.1)"/><use data-c="29" xlink:href="#g" transform="scale(1 -1) translate(15515.1)"/><use data-c="2B" xlink:href="#e" transform="scale(1 -1) translate(16126.3)"/><g><use data-c="1D435" xlink:href="#i" transform="scale(1 -1) translate(17126.6)"/><use data-c="31" xlink:href="#k" transform="scale(1 -1) translate(17126.6) translate(792 -150)scale(.707)"/></g><use data-c="210E" xlink:href="#f" transform="scale(1 -1) translate(18322.1)"/><use data-c="29" xlink:href="#g" transform="scale(1 -1) translate(18898.1)"/><use data-c="3D" xlink:href="#h" transform="scale(1 -1) translate(19564.9)"/><g><use data-c="1D436" xlink:href="#l" transform="scale(1 -1) translate(20620.7)"/><use data-c="30" xlink:href="#j" transform="scale(1 -1) translate(20620.7) translate(748 -150)scale(.707)"/></g><use data-c="2B" xlink:href="#e" transform="scale(1 -1) translate(21994.4)"/><g><use data-c="1D436" xlink:href="#l" transform="scale(1 -1) translate(22994.7)"/><use data-c="31" xlink:href="#k" transform="scale(1 -1) translate(22994.7) translate(748 -150)scale(.707)"/></g><g><use data-c="1D435" xlink:href="#i" transform="scale(1 -1) translate(24146.2)"/><use data-c="31" xlink:href="#k" transform="scale(1 -1) translate(24146.2) translate(792 -150)scale(.707)"/></g><use data-c="210E" xlink:href="#f" transform="scale(1 -1) translate(25341.8)"/><use data-c="2B" xlink:href="#e" transform="scale(1 -1) translate(26140)"/><g><use data-c="1D436" xlink:href="#l" transform="scale(1 -1) translate(27140.2)"/><use data-c="32" xlink:href="#m" transform="scale(1 -1) translate(27140.2) translate(748 -150)scale(.707)"/></g><g><use data-c="1D435" xlink:href="#i" transform="scale(1 -1) translate(28291.8)"/><use data-c="32" xlink:href="#m" transform="scale(1 -1) translate(28291.8) translate(792 413)scale(.707)"/><use data-c="31" xlink:href="#k" transform="scale(1 -1) translate(28291.8) translate(792 -247)scale(.707)"/></g><g><use data-c="210E" xlink:href="#f" transform="scale(1 -1) translate(29487.3)"/><use data-c="32" xlink:href="#m" transform="scale(1 -1) translate(29487.3) translate(609 413)scale(.707)"/></g><use data-c="2B" xlink:href="#e" transform="scale(1 -1) translate(30722.1)"/><g><use data-c="1D436" xlink:href="#l" transform="scale(1 -1) translate(31722.3)"/><use data-c="33" xlink:href="#n" transform="scale(1 -1) translate(31722.3) translate(748 -150)scale(.707)"/></g><g><use data-c="1D435" xlink:href="#i" transform="scale(1 -1) translate(32873.9)"/><use data-c="33" xlink:href="#n" transform="scale(1 -1) translate(32873.9) translate(792 413)scale(.707)"/><use data-c="31" xlink:href="#k" transform="scale(1 -1) translate(32873.9) translate(792 -253.5)scale(.707)"/></g><g><use data-c="210E" xlink:href="#f" transform="scale(1 -1) translate(34069.4)"/><use data-c="33" xlink:href="#n" transform="scale(1 -1) translate(34069.4) translate(609 413)scale(.707)"/></g><use data-c="2B" xlink:href="#e" transform="scale(1 -1) translate(35304.2)"/><g><use data-c="1D436" xlink:href="#l" transform="scale(1 -1) translate(36304.4)"/><use data-c="34" xlink:href="#o" transform="scale(1 -1) translate(36304.4) translate(748 -150)scale(.707)"/></g><g><use data-c="1D435" xlink:href="#i" transform="scale(1 -1) translate(37456)"/><use data-c="34" xlink:href="#o" transform="scale(1 -1) translate(37456) translate(792 413)scale(.707)"/><use data-c="31" xlink:href="#k" transform="scale(1 -1) translate(37456) translate(792 -247)scale(.707)"/></g><g><use data-c="210E" xlink:href="#f" transform="scale(1 -1) translate(38651.5)"/><use data-c="34" xlink:href="#o" transform="scale(1 -1) translate(38651.5) translate(609 413)scale(.707)"/></g><use data-c="2B" xlink:href="#e" transform="scale(1 -1) translate(39886.3)"/><g><use data-c="1D436" xlink:href="#l" transform="scale(1 -1) translate(40886.5)"/><use data-c="35" xlink:href="#p" transform="scale(1 -1) translate(40886.5) translate(748 -150)scale(.707)"/></g><g><use data-c="1D435" xlink:href="#i" transform="scale(1 -1) translate(42038.1)"/><use data-c="35" xlink:href="#p" transform="scale(1 -1) translate(42038.1) translate(792 413)scale(.707)"/><use data-c="31" xlink:href="#k" transform="scale(1 -1) translate(42038.1) translate(792 -253.5)scale(.707)"/></g><g><use data-c="210E" xlink:href="#f" transform="scale(1 -1) translate(43233.6)"/><use data-c="35" xlink:href="#p" transform="scale(1 -1) translate(43233.6) translate(609 413)scale(.707)"/></g><use data-c="2B" xlink:href="#e" transform="scale(1 -1) translate(44468.4)"/><g><use data-c="1D436" xlink:href="#l" transform="scale(1 -1) translate(45468.6)"/><use data-c="36" xlink:href="#q" transform="scale(1 -1) translate(45468.6) translate(748 -150)scale(.707)"/></g><g><use data-c="1D435" xlink:href="#i" transform="scale(1 -1) translate(46620.2)"/><use data-c="36" xlink:href="#q" transform="scale(1 -1) translate(46620.2) translate(792 413)scale(.707)"/><use data-c="31" xlink:href="#k" transform="scale(1 -1) translate(46620.2) translate(792 -253.5)scale(.707)"/></g><g><use data-c="210E" xlink:href="#f" transform="scale(1 -1) translate(47815.7)"/><use data-c="36" xlink:href="#q" transform="scale(1 -1) translate(47815.7) translate(609 413)scale(.707)"/></g><use data-c="2B" xlink:href="#e" transform="scale(1 -1) translate(49050.5)"/><use data-c="2026" xlink:href="#r" transform="scale(1 -1) translate(50050.7)"/></g></svg>