<svg style="vertical-align:-.566ex" xmlns="http://www.w3.org/2000/svg" width="68.013ex" height="2.396ex" viewBox="0 -809 30061.7 1059" xmlns:xlink="http://www.w3.org/1999/xlink"><defs><path id="a" d="M208 74q0-24 46-28 18 0 18-11 0-1-2-13-3-14-6-18t-13-4h-12q-10 0-34 1t-64 1Q70 2 50 0h-8q-7 7-7 11 2 27 13 35h14q70 3 102 50 6 6 181 305t178 303q7 12 24 12h25q6-9 6-10l28-323q28-323 30-326 5-11 65-11 25 0 25-10 0-2-3-14-3-15-5-18t-14-4h-14q-11 0-39 1t-73 1q-94 0-123-2h-12q-6 6-6 9t2 18q4 13 6 16l4 3h20q54 3 64 17l-12 150H283l-34-58q-41-69-41-81m308 186q0 11-12 156t-14 146l-27-43q-16-27-63-107l-90-152 103-1q103 0 103 1"/><path id="b" d="M96 585q56 81 153 81 48 0 96-26t78-92q37-83 37-228 0-155-43-237-20-42-55-67t-61-31-51-7q-26 0-52 6t-61 32-55 67q-43 82-43 237 0 174 57 265m225 12q-30 32-71 32-42 0-72-32-25-26-33-72t-8-192q0-158 8-208t36-79q28-30 69-30 40 0 68 30 29 30 36 84t8 203q0 145-8 191t-33 73"/><path id="c" d="M56 347q0 13 14 20h637q15-8 15-20 0-11-14-19l-318-1H72q-16 5-16 20m0-194q0 15 16 20h636q14-10 14-20 0-13-15-20H70q-14 7-14 20"/><path id="d" d="M118-162q2 0 6-2t11-3 12-1q13 0 24 13t16 29q10 27 34 153t46 240 22 115v3h-47q-47 0-50 2-4 3-4 10l7 28q2 5 8 5t47 1q48 0 48 1 0 2 9 50t12 58q37 165 146 165 37-2 61-22t24-53q0-36-21-52t-42-17q-44 0-44 42 0 19 11 33t24 21l9 5q-16 6-30 6-12 0-23-10t-15-28q-7-29-16-78t-16-83-7-36 55-2q45 0 52-1t11-6q1-4-2-17t-5-16q-2-5-9-5t-54-1h-56l-23-122Q301 15 282-47q-27-85-70-126-37-32-73-32-32 0-58 19t-26 54q0 37 21 54t42 17q44 0 44-42 0-19-11-33t-24-21z"/><path id="e" d="M94 250q0 69 10 131t23 107 37 88 38 67 42 52 33 34 25 21h17q14 0 14-9 0-3-17-21t-41-53-49-86-42-138-17-193 17-192 41-139 49-86 42-53 17-21q0-9-15-9h-16l-28 24q-94 85-137 212T94 250"/><path id="f" d="M52 289q7 42 54 97t116 56q35 0 64-18t43-45q42 63 101 63 37 0 64-22t28-59q0-29-14-47t-27-22-23-4q-19 0-31 11t-12 29q0 46 50 63-11 13-40 13-13 0-19-2-38-16-56-66-60-221-60-258 0-28 16-40t35-12q37 0 73 33t49 81q3 10 6 11t16 2h4q15 0 15-8 0-1-2-11-16-57-62-101T333-11q-70 0-106 63-41-62-94-62h-6q-49 0-70 26T35 71q0 32 19 52t45 20q43 0 43-42 0-20-12-35t-23-20-13-5l-3-1q0-1 6-4t16-7 19-3q36 0 62 45 9 16 23 68t28 108 16 66q5 27 5 39 0 28-15 40t-34 12q-40 0-75-32t-49-82q-2-9-5-10t-16-2H58q-6 6-6 11"/><path id="g" d="m60 749 4 1h22l28-24q94-85 137-212t43-264q0-68-10-131T261 12t-37-88-38-67-41-51-32-33-23-19l-4-4H63q-3 0-5 3t-3 9q1 1 11 13Q221-64 221 250T66 725q-10 12-11 13 0 8 5 11"/><path id="h" d="M78 35v25l16 43 43 18q28 0 50-25t23-88q0-35-9-68t-21-57-26-41-24-27-13-9q-4 0-13 9t-9 13 11 16 25 30 26 50 16 73V9l-1-1q-2-1-5-2t-6-3-9-2-12-1q-27 0-44 17Z"/><path id="i" d="m213 578-13-5q-14-5-40-10t-58-7H83v46h19q47 2 87 15t56 24 28 22q2 3 12 3 9 0 17-6V361l1-300q7-7 12-9t24-4 62-2h26V0h-11q-21 3-159 3-136 0-157-3H88v46h64q16 0 25 1t16 3 8 2 6 5 6 4z"/><path id="j" d="M79 43q-6 0-27 6T30 61q0 7 55 232t61 235q15 32 52 32 20 0 42-15t22-44q0-5-2-15-1-7-87-223T84 45t-5-2"/><path id="k" d="M78 60q0 24 17 42t43 18q24 0 42-16t19-43q0-25-17-43T139 0 96 17 78 60m447 0q0 24 17 42t43 18q24 0 42-16t19-43q0-25-17-43T586 0t-43 17-18 43m447 0q0 24 17 42t43 18q24 0 42-16t19-43q0-25-17-43t-43-18-43 17-18 43"/><path id="l" d="M137 305h-22l-37 15-15 39q0 35 34 62t121 27q73 0 118-32t60-76q5-14 5-31t1-115v-70q0-48 5-66t21-18q15 0 20 16t5 53v36h40v-39q-1-40-3-47-9-30-35-47T400-6t-47 18-24 42v4l-2-3q-2-3-5-6t-8-9-12-11-15-12-18-11-22-8-26-6-31-3q-60 0-108 31t-48 87q0 21 7 40t27 41 48 37 78 28 110 15h14v22q0 34-6 50-22 71-97 71-18 0-34-1t-25-4-8-3q22-15 22-44 0-25-16-39Zm-11-199q0-31 24-55t59-25q38 0 67 23t39 60q2 7 3 66 0 58-1 58-8 0-21-1t-45-9-58-20-46-37-21-60"/><path id="m" d="M41 46h14q39 0 47 14v62q0 17 1 39t0 42v66q0 35-1 59v23q-3 19-14 25t-45 9H25v23q0 23 2 23l10 1q10 1 28 2t37 2q17 1 36 2t29 3 11 1h3v-40q0-38 1-38t5 5 12 15 19 18 29 19 38 16 51 5q114-4 127-113 1-7 1-139v-86q0-38 2-45t11-10q21-3 49-3h16V0h-8l-24 1q-23 1-50 1t-38 1Q319 3 310 0h-8v46h16q61 0 61 16 1 2 1 138-1 135-2 143-6 28-20 42t-24 17-26 2q-45 0-79-34-27-27-34-55t-8-83V108q0-30 1-40t3-13 9-6q21-3 49-3h16V0h-8l-23 1q-24 1-51 1t-38 1Q42 3 33 0h-8v46z"/><path id="n" d="M376 495v40q0 24 1 33 0 45-10 56t-51 13h-18v23q0 23 2 23l10 1q10 1 29 2t37 2q17 1 37 2t30 3 11 1h3V390q0-306 1-309 3-20 14-26t45-9h18V0q-2 0-76-5t-79-6h-7v55l-8-7q-58-48-130-48-77 0-139 61T34 215q0 100 63 163t147 64q75 0 132-49zm-3-153q-45 63-113 63-49 0-87-36-27-28-34-64t-8-94q0-56 7-91t35-61q30-33 78-33 71 0 122 77z"/><path id="o" d="M231 637q-27 0-32 1t-5 11q0 27 11 33 1 1 130 1 259 0 273-2 63-10 105-45t43-92q0-64-58-115t-133-69l-10-3q64-9 105-46t42-92q0-73-72-141T453 1q-7-1-211-1Q42 0 39 2q-4 3-4 8 0 7 2 14 5 19 10 21 4 1 15 1h6q27 0 60 3 14 3 19 12 3 4 72 278t69 289q0 7-57 9m418-93q0 30-15 56t-49 34q-7 2-92 3h-42q-22 0-35-1h-13q-15-1-19-10-2-4-32-120 0-3-1-6l-31-126h81q81 0 93 2 60 10 107 58t48 110m-54-315q0 44-23 73t-60 34q-6 1-83 1-118 0-119-1 0-2-17-73t-35-141l-18-70q0-4 12-4t81-2q89 0 96 1 62 7 114 58t52 124"/><path id="p" d="M311 43q-15-13-44-28T206 0q-63 0-101 45T66 160q0 105 77 193t171 89q47 0 87-48l3 4q2 3 5 6t9 8 13 7 16 3q14 0 23-9t10-19q0-15-57-242T363-80q-18-54-77-89t-135-36q-141 0-141 68 0 26 18 46t46 20q15 0 28-9t14-31q0-10-2-19t-7-14-8-10-7-8l-2-2h1q10-3 60-3 38 0 60 12 23 11 43 33t28 47q6 19 16 62 13 48 13 56m73 285-4 11q-3 11-5 15t-6 14-10 14-13 11-18 9-22 3q-44 0-85-53-30-39-50-119t-20-116q0-79 62-79 56 0 110 70l8 10z"/></defs><g stroke="currentColor" fill="currentColor" stroke-width="0"><g><use data-c="1D434" xlink:href="#a" transform="scale(1 -1)"/><use data-c="30" xlink:href="#b" transform="scale(1 -1) translate(783 -150)scale(.707)"/></g><use data-c="3D" xlink:href="#c" transform="scale(1 -1) translate(1464.3)"/><use data-c="1D453" xlink:href="#d" transform="scale(1 -1) translate(2520.1)"/><use data-c="28" xlink:href="#e" transform="scale(1 -1) translate(3070.1)"/><use data-c="1D465" xlink:href="#f" transform="scale(1 -1) translate(3459.1)"/><use data-c="29" xlink:href="#g" transform="scale(1 -1) translate(4031.1)"/><use data-c="2C" xlink:href="#h" transform="scale(1 -1) translate(4420.1)"/><g><use data-c="1D434" xlink:href="#a" transform="scale(1 -1) translate(5864.8)"/><use data-c="31" xlink:href="#i" transform="scale(1 -1) translate(5864.8) translate(783 -150)scale(.707)"/></g><use data-c="3D" xlink:href="#c" transform="scale(1 -1) translate(7329.1)"/><g><use data-c="1D453" xlink:href="#d" transform="scale(1 -1) translate(8384.9)"/><use data-c="2032" xlink:href="#j" transform="scale(1 -1) translate(8384.9) translate(636 413)scale(.707)"/></g><use data-c="28" xlink:href="#e" transform="scale(1 -1) translate(9265.3)"/><use data-c="1D465" xlink:href="#f" transform="scale(1 -1) translate(9654.3)"/><use data-c="29" xlink:href="#g" transform="scale(1 -1) translate(10226.3)"/><use data-c="2C" xlink:href="#h" transform="scale(1 -1) translate(10615.3)"/><use data-c="2026" xlink:href="#k" transform="scale(1 -1) translate(12060)"/><g transform="scale(1 -1) translate(14398.7)"><use data-c="61" xlink:href="#l"/><use data-c="6E" xlink:href="#m" transform="translate(500)"/><use data-c="64" xlink:href="#n" transform="translate(1056)"/></g><g><use data-c="1D435" xlink:href="#o" transform="scale(1 -1) translate(17010.7)"/><use data-c="30" xlink:href="#b" transform="scale(1 -1) translate(17010.7) translate(792 -150)scale(.707)"/></g><use data-c="3D" xlink:href="#c" transform="scale(1 -1) translate(18484)"/><use data-c="1D454" xlink:href="#p" transform="scale(1 -1) translate(19539.8)"/><use data-c="28" xlink:href="#e" transform="scale(1 -1) translate(20016.8)"/><use data-c="1D465" xlink:href="#f" transform="scale(1 -1) translate(20405.8)"/><use data-c="29" xlink:href="#g" transform="scale(1 -1) translate(20977.8)"/><use data-c="2C" xlink:href="#h" transform="scale(1 -1) translate(21366.8)"/><g><use data-c="1D435" xlink:href="#o" transform="scale(1 -1) translate(22811.4)"/><use data-c="31" xlink:href="#i" transform="scale(1 -1) translate(22811.4) translate(792 -150)scale(.707)"/></g><use data-c="3D" xlink:href="#c" transform="scale(1 -1) translate(24284.8)"/><g><use data-c="1D454" xlink:href="#p" transform="scale(1 -1) translate(25340.6)"/><use data-c="2032" xlink:href="#j" transform="scale(1 -1) translate(25340.6) translate(510 413)scale(.707)"/></g><use data-c="28" xlink:href="#e" transform="scale(1 -1) translate(26095)"/><use data-c="1D465" xlink:href="#f" transform="scale(1 -1) translate(26484)"/><use data-c="29" xlink:href="#g" transform="scale(1 -1) translate(27056)"/><use data-c="2C" xlink:href="#h" transform="scale(1 -1) translate(27445)"/><use data-c="2026" xlink:href="#k" transform="scale(1 -1) translate(28889.7)"/></g></svg>