<svg style="vertical-align:-.566ex" xmlns="http://www.w3.org/2000/svg" width="26.812ex" height="2.565ex" viewBox="0 -883.9 11851 1133.9" xmlns:xlink="http://www.w3.org/1999/xlink"><defs><path id="a" d="M311 43q-15-13-44-28T206 0q-63 0-101 45T66 160q0 105 77 193t171 89q47 0 87-48l3 4q2 3 5 6t9 8 13 7 16 3q14 0 23-9t10-19q0-15-57-242T363-80q-18-54-77-89t-135-36q-141 0-141 68 0 26 18 46t46 20q15 0 28-9t14-31q0-10-2-19t-7-14-8-10-7-8l-2-2h1q10-3 60-3 38 0 60 12 23 11 43 33t28 47q6 19 16 62 13 48 13 56m73 285-4 11q-3 11-5 15t-6 14-10 14-13 11-18 9-22 3q-44 0-85-53-30-39-50-119t-20-116q0-79 62-79 56 0 110 70l8 10z"/><path id="b" d="M94 250q0 69 10 131t23 107 37 88 38 67 42 52 33 34 25 21h17q14 0 14-9 0-3-17-21t-41-53-49-86-42-138-17-193 17-192 41-139 49-86 42-53 17-21q0-9-15-9h-16l-28 24q-94 85-137 212T94 250"/><path id="c" d="M52 289q7 42 54 97t116 56q35 0 64-18t43-45q42 63 101 63 37 0 64-22t28-59q0-29-14-47t-27-22-23-4q-19 0-31 11t-12 29q0 46 50 63-11 13-40 13-13 0-19-2-38-16-56-66-60-221-60-258 0-28 16-40t35-12q37 0 73 33t49 81q3 10 6 11t16 2h4q15 0 15-8 0-1-2-11-16-57-62-101T333-11q-70 0-106 63-41-62-94-62h-6q-49 0-70 26T35 71q0 32 19 52t45 20q43 0 43-42 0-20-12-35t-23-20-13-5l-3-1q0-1 6-4t16-7 19-3q36 0 62 45 9 16 23 68t28 108 16 66q5 27 5 39 0 28-15 40t-34 12q-40 0-75-32t-49-82q-2-9-5-10t-16-2H58q-6 6-6 11"/><path id="d" d="M56 237v13l14 20h299v150l1 150q10 13 19 13 13 0 20-15V270h298q15-8 15-20t-15-20H409V-68q-8-14-18-14h-4q-12 0-18 14v298H70q-14 7-14 20Z"/><path id="e" d="M137 683q1 0 72 5t73 6q12 0 12-9 0-11-36-151-38-148-38-151 0-2 7 5 61 54 130 54 54 0 87-27t34-79q0-51-38-158T402 50q1-14 5-19t15-5q28 0 52 30t39 82q3 11 6 13t16 2q20 0 20-8 0-1-4-15-16-59-51-97-34-43-81-43h-5q-47 0-68 27t-21 57q0 16 36 118t37 153q0 59-44 59h-5q-83 0-144-98l-7-13-34-135Q132 28 127 16q-13-27-44-27-14 0-24 9T48 16q0 14 73 304l74 296q0 13-7 16t-39 5h-21q-6 6-6 8t2 19q5 19 13 19"/><path id="f" d="m60 749 4 1h22l28-24q94-85 137-212t43-264q0-68-10-131T261 12t-37-88-38-67-41-51-32-33-23-19l-4-4H63q-3 0-5 3t-3 9q1 1 11 13Q221-64 221 250T66 725q-10 12-11 13 0 8 5 11"/><path id="g" d="M56 347q0 13 14 20h637q15-8 15-20 0-11-14-19l-318-1H72q-16 5-16 20m0-194q0 15 16 20h636q14-10 14-20 0-13-15-20H70q-14 7-14 20"/><path id="h" d="M109 429q-27 0-43 18t-16 44q0 71 53 123t132 52q91 0 152-56t62-145q0-43-20-82t-48-68-80-74q-36-31-100-92l-59-56 76-1q157 0 167 5 7 2 24 89v3h40v-3q-1-3-13-91T421 3V0H50v31q0 7 6 15t30 35q29 32 50 56 9 10 34 37t34 37 29 33 28 34 23 30 21 32 15 29 13 32 7 30 3 33q0 63-34 109t-97 46q-33 0-58-17t-35-33-10-19q0-1 5-1 18 0 37-14t19-46q0-25-16-42t-45-18"/></defs><g stroke="currentColor" fill="currentColor" stroke-width="0"><use data-c="1D454" xlink:href="#a" transform="scale(1 -1)"/><use data-c="28" xlink:href="#b" transform="scale(1 -1) translate(477)"/><use data-c="1D465" xlink:href="#c" transform="scale(1 -1) translate(866)"/><use data-c="2B" xlink:href="#d" transform="scale(1 -1) translate(1660.2)"/><use data-c="210E" xlink:href="#e" transform="scale(1 -1) translate(2660.4)"/><use data-c="29" xlink:href="#f" transform="scale(1 -1) translate(3236.4)"/><use data-c="3D" xlink:href="#g" transform="scale(1 -1) translate(3903.2)"/><use data-c="28" xlink:href="#b" transform="scale(1 -1) translate(4959)"/><g><use data-c="1D465" xlink:href="#c" transform="scale(1 -1) translate(5348)"/><use data-c="32" xlink:href="#h" transform="scale(1 -1) translate(5348) translate(605 413)scale(.707)"/></g><use data-c="2B" xlink:href="#d" transform="scale(1 -1) translate(6578.8)"/><use data-c="32" xlink:href="#h" transform="scale(1 -1) translate(7579)"/><use data-c="1D465" xlink:href="#c" transform="scale(1 -1) translate(8079)"/><use data-c="210E" xlink:href="#e" transform="scale(1 -1) translate(8651)"/><use data-c="2B" xlink:href="#d" transform="scale(1 -1) translate(9449.2)"/><g><use data-c="210E" xlink:href="#e" transform="scale(1 -1) translate(10449.4)"/><use data-c="32" xlink:href="#h" transform="scale(1 -1) translate(10449.4) translate(609 413)scale(.707)"/></g><use data-c="29" xlink:href="#f" transform="scale(1 -1) translate(11462)"/></g></svg>