<svg style="vertical-align:-.439ex" xmlns="http://www.w3.org/2000/svg" width="12.532ex" height="2.439ex" viewBox="0 -883.9 5539 1077.9" xmlns:xlink="http://www.w3.org/1999/xlink"><defs><path id="a" d="M137 683q1 0 72 5t73 6q12 0 12-9 0-11-36-151-38-148-38-151 0-2 7 5 61 54 130 54 54 0 87-27t34-79q0-51-38-158T402 50q1-14 5-19t15-5q28 0 52 30t39 82q3 11 6 13t16 2q20 0 20-8 0-1-4-15-16-59-51-97-34-43-81-43h-5q-47 0-68 27t-21 57q0 16 36 118t37 153q0 59-44 59h-5q-83 0-144-98l-7-13-34-135Q132 28 127 16q-13-27-44-27-14 0-24 9T48 16q0 14 73 304l74 296q0 13-7 16t-39 5h-21q-6 6-6 8t2 19q5 19 13 19"/><path id="b" d="M96 585q56 81 153 81 48 0 96-26t78-92q37-83 37-228 0-155-43-237-20-42-55-67t-61-31-51-7q-26 0-52 6t-61 32-55 67q-43 82-43 237 0 174 57 265m225 12q-30 32-71 32-42 0-72-32-25-26-33-72t-8-192q0-158 8-208t36-79q28-30 69-30 40 0 68 30 29 30 36 84t8 203q0 145-8 191t-33 73"/><path id="c" d="M78 35v25l16 43 43 18q28 0 50-25t23-88q0-35-9-68t-21-57-26-41-24-27-13-9q-4 0-13 9t-9 13 11 16 25 30 26 50 16 73V9l-1-1q-2-1-5-2t-6-3-9-2-12-1q-27 0-44 17Z"/><path id="d" d="m213 578-13-5q-14-5-40-10t-58-7H83v46h19q47 2 87 15t56 24 28 22q2 3 12 3 9 0 17-6V361l1-300q7-7 12-9t24-4 62-2h26V0h-11q-21 3-159 3-136 0-157-3H88v46h64q16 0 25 1t16 3 8 2 6 5 6 4z"/><path id="e" d="M109 429q-27 0-43 18t-16 44q0 71 53 123t132 52q91 0 152-56t62-145q0-43-20-82t-48-68-80-74q-36-31-100-92l-59-56 76-1q157 0 167 5 7 2 24 89v3h40v-3q-1-3-13-91T421 3V0H50v31q0 7 6 15t30 35q29 32 50 56 9 10 34 37t34 37 29 33 28 34 23 30 21 32 15 29 13 32 7 30 3 33q0 63-34 109t-97 46q-33 0-58-17t-35-33-10-19q0-1 5-1 18 0 37-14t19-46q0-25-16-42t-45-18"/><path id="f" d="M78 60q0 24 17 42t43 18q24 0 42-16t19-43q0-25-17-43T139 0 96 17 78 60"/></defs><g stroke="currentColor" fill="currentColor" stroke-width="0"><g><use data-c="210E" xlink:href="#a" transform="scale(1 -1)"/><use data-c="30" xlink:href="#b" transform="scale(1 -1) translate(609 413)scale(.707)"/></g><use data-c="2C" xlink:href="#c" transform="scale(1 -1) translate(1012.6)"/><g><use data-c="210E" xlink:href="#a" transform="scale(1 -1) translate(1457.2)"/><use data-c="31" xlink:href="#d" transform="scale(1 -1) translate(1457.2) translate(609 413)scale(.707)"/></g><use data-c="2C" xlink:href="#c" transform="scale(1 -1) translate(2469.8)"/><g><use data-c="210E" xlink:href="#a" transform="scale(1 -1) translate(2914.4)"/><use data-c="32" xlink:href="#e" transform="scale(1 -1) translate(2914.4) translate(609 413)scale(.707)"/></g><use data-c="2C" xlink:href="#c" transform="scale(1 -1) translate(3927)"/><use data-c="2E" xlink:href="#f" transform="scale(1 -1) translate(4371.7)"/><use data-c="2E" xlink:href="#f" transform="scale(1 -1) translate(4816.3)"/><use data-c="2E" xlink:href="#f" transform="scale(1 -1) translate(5261)"/></g></svg>