<svg style="vertical-align:-.464ex" xmlns="http://www.w3.org/2000/svg" width="1.079ex" height="1.464ex" viewBox="0 -442 477 647" xmlns:xlink="http://www.w3.org/1999/xlink"><defs><path id="a" d="M311 43q-15-13-44-28T206 0q-63 0-101 45T66 160q0 105 77 193t171 89q47 0 87-48l3 4q2 3 5 6t9 8 13 7 16 3q14 0 23-9t10-19q0-15-57-242T363-80q-18-54-77-89t-135-36q-141 0-141 68 0 26 18 46t46 20q15 0 28-9t14-31q0-10-2-19t-7-14-8-10-7-8l-2-2h1q10-3 60-3 38 0 60 12 23 11 43 33t28 47q6 19 16 62 13 48 13 56m73 285-4 11q-3 11-5 15t-6 14-10 14-13 11-18 9-22 3q-44 0-85-53-30-39-50-119t-20-116q0-79 62-79 56 0 110 70l8 10z"/></defs><g stroke="currentColor" fill="currentColor" stroke-width="0"><use data-c="1D454" xlink:href="#a" transform="scale(1 -1)"/></g></svg>