<svg style="vertical-align:-6.902ex" xmlns="http://www.w3.org/2000/svg" width="76.145ex" height="14.936ex" viewBox="0 -3550.9 33656.1 6601.8" xmlns:xlink="http://www.w3.org/1999/xlink"><defs><path id="a" d="M118-162q2 0 6-2t11-3 12-1q13 0 24 13t16 29q10 27 34 153t46 240 22 115v3h-47q-47 0-50 2-4 3-4 10l7 28q2 5 8 5t47 1q48 0 48 1 0 2 9 50t12 58q37 165 146 165 37-2 61-22t24-53q0-36-21-52t-42-17q-44 0-44 42 0 19 11 33t24 21l9 5q-16 6-30 6-12 0-23-10t-15-28q-7-29-16-78t-16-83-7-36 55-2q45 0 52-1t11-6q1-4-2-17t-5-16q-2-5-9-5t-54-1h-56l-23-122Q301 15 282-47q-27-85-70-126-37-32-73-32-32 0-58 19t-26 54q0 37 21 54t42 17q44 0 44-42 0-19-11-33t-24-21z"/><path id="b" d="M94 250q0 69 10 131t23 107 37 88 38 67 42 52 33 34 25 21h17q14 0 14-9 0-3-17-21t-41-53-49-86-42-138-17-193 17-192 41-139 49-86 42-53 17-21q0-9-15-9h-16l-28 24q-94 85-137 212T94 250"/><path id="c" d="M311 43q-15-13-44-28T206 0q-63 0-101 45T66 160q0 105 77 193t171 89q47 0 87-48l3 4q2 3 5 6t9 8 13 7 16 3q14 0 23-9t10-19q0-15-57-242T363-80q-18-54-77-89t-135-36q-141 0-141 68 0 26 18 46t46 20q15 0 28-9t14-31q0-10-2-19t-7-14-8-10-7-8l-2-2h1q10-3 60-3 38 0 60 12 23 11 43 33t28 47q6 19 16 62 13 48 13 56m73 285-4 11q-3 11-5 15t-6 14-10 14-13 11-18 9-22 3q-44 0-85-53-30-39-50-119t-20-116q0-79 62-79 56 0 110 70l8 10z"/><path id="d" d="M52 289q7 42 54 97t116 56q35 0 64-18t43-45q42 63 101 63 37 0 64-22t28-59q0-29-14-47t-27-22-23-4q-19 0-31 11t-12 29q0 46 50 63-11 13-40 13-13 0-19-2-38-16-56-66-60-221-60-258 0-28 16-40t35-12q37 0 73 33t49 81q3 10 6 11t16 2h4q15 0 15-8 0-1-2-11-16-57-62-101T333-11q-70 0-106 63-41-62-94-62h-6q-49 0-70 26T35 71q0 32 19 52t45 20q43 0 43-42 0-20-12-35t-23-20-13-5l-3-1q0-1 6-4t16-7 19-3q36 0 62 45 9 16 23 68t28 108 16 66q5 27 5 39 0 28-15 40t-34 12q-40 0-75-32t-49-82q-2-9-5-10t-16-2H58q-6 6-6 11"/><path id="e" d="M56 237v13l14 20h299v150l1 150q10 13 19 13 13 0 20-15V270h298q15-8 15-20t-15-20H409V-68q-8-14-18-14h-4q-12 0-18 14v298H70q-14 7-14 20Z"/><path id="f" d="M137 683q1 0 72 5t73 6q12 0 12-9 0-11-36-151-38-148-38-151 0-2 7 5 61 54 130 54 54 0 87-27t34-79q0-51-38-158T402 50q1-14 5-19t15-5q28 0 52 30t39 82q3 11 6 13t16 2q20 0 20-8 0-1-4-15-16-59-51-97-34-43-81-43h-5q-47 0-68 27t-21 57q0 16 36 118t37 153q0 59-44 59h-5q-83 0-144-98l-7-13-34-135Q132 28 127 16q-13-27-44-27-14 0-24 9T48 16q0 14 73 304l74 296q0 13-7 16t-39 5h-21q-6 6-6 8t2 19q5 19 13 19"/><path id="g" d="m60 749 4 1h22l28-24q94-85 137-212t43-264q0-68-10-131T261 12t-37-88-38-67-41-51-32-33-23-19l-4-4H63q-3 0-5 3t-3 9q1 1 11 13Q221-64 221 250T66 725q-10 12-11 13 0 8 5 11"/><path id="h" d="M56 347q0 13 14 20h637q15-8 15-20 0-11-14-19l-318-1H72q-16 5-16 20m0-194q0 15 16 20h636q14-10 14-20 0-13-15-20H70q-14 7-14 20"/><path id="i" d="M231 637q-27 0-32 1t-5 11q0 27 11 33 1 1 130 1 259 0 273-2 63-10 105-45t43-92q0-64-58-115t-133-69l-10-3q64-9 105-46t42-92q0-73-72-141T453 1q-7-1-211-1Q42 0 39 2q-4 3-4 8 0 7 2 14 5 19 10 21 4 1 15 1h6q27 0 60 3 14 3 19 12 3 4 72 278t69 289q0 7-57 9m418-93q0 30-15 56t-49 34q-7 2-92 3h-42q-22 0-35-1h-13q-15-1-19-10-2-4-32-120 0-3-1-6l-31-126h81q81 0 93 2 60 10 107 58t48 110m-54-315q0 44-23 73t-60 34q-6 1-83 1-118 0-119-1 0-2-17-73t-35-141l-18-70q0-4 12-4t81-2q89 0 96 1 62 7 114 58t52 124"/><path id="j" d="M96 585q56 81 153 81 48 0 96-26t78-92q37-83 37-228 0-155-43-237-20-42-55-67t-61-31-51-7q-26 0-52 6t-61 32-55 67q-43 82-43 237 0 174 57 265m225 12q-30 32-71 32-42 0-72-32-25-26-33-72t-8-192q0-158 8-208t36-79q28-30 69-30 40 0 68 30 29 30 36 84t8 203q0 145-8 191t-33 73"/><path id="k" d="m213 578-13-5q-14-5-40-10t-58-7H83v46h19q47 2 87 15t56 24 28 22q2 3 12 3 9 0 17-6V361l1-300q7-7 12-9t24-4 62-2h26V0h-11q-21 3-159 3-136 0-157-3H88v46h64q16 0 25 1t16 3 8 2 6 5 6 4z"/><path id="l" d="M109 429q-27 0-43 18t-16 44q0 71 53 123t132 52q91 0 152-56t62-145q0-43-20-82t-48-68-80-74q-36-31-100-92l-59-56 76-1q157 0 167 5 7 2 24 89v3h40v-3q-1-3-13-91T421 3V0H50v31q0 7 6 15t30 35q29 32 50 56 9 10 34 37t34 37 29 33 28 34 23 30 21 32 15 29 13 32 7 30 3 33q0 63-34 109t-97 46q-33 0-58-17t-35-33-10-19q0-1 5-1 18 0 37-14t19-46q0-25-16-42t-45-18"/><path id="m" d="M78 60q0 24 17 42t43 18q24 0 42-16t19-43q0-25-17-43T139 0 96 17 78 60m447 0q0 24 17 42t43 18q24 0 42-16t19-43q0-25-17-43T586 0t-43 17-18 43m447 0q0 24 17 42t43 18q24 0 42-16t19-43q0-25-17-43t-43-18-43 17-18 43"/><path id="n" d="M370 305h-21l-36 15-16 38q0 23 15 38 5 5 5 6t-10 2q-26 4-49 4-49 0-80-32-47-47-47-157 0-82 31-129 41-61 110-61 41 0 66 26t36 62q2 8 5 10t16 2h14q6-6 6-9 0-4-4-16t-16-33-29-38-48-31-69-13q-86 0-150 64T34 214q0 104 65 169t151 65 120-27 34-64q0-23-17-37Z"/><path id="o" d="M28 214q0 95 65 164t157 70q90 0 155-68t66-165q0-95-64-160T250-10q-97 0-159 67T28 214M250 30q122 0 122 163v57q0 22-1 38t-7 38-16 36-31 28-49 20q-5 1-16 1-30 0-57-12-43-22-56-61t-13-92v-20q0-96 19-135 32-61 105-61"/><path id="p" d="M295 316q0 40-27 69t-78 29q-36 0-62-13-30-19-30-52-1-5 0-13t16-24 43-25q18-5 44-9t44-9 32-13q17-8 33-20t32-41 17-62q0-62-38-102T198-10h-8q-52 0-96 36l-8-7-9-9Q71 4 65-1L54-11H42q-3 0-9 6v137q0 21 2 25t10 5h9q12 0 16-4t5-12 7-27 19-42q35-51 97-51 97 0 97 78 0 29-18 47-20 24-83 36t-83 23q-36 17-57 46t-21 62q0 39 17 66t43 40 50 18 44 5h11q40 0 70-15l15-8 9 7q10 9 22 17h12q3 0 9-6V310l-6-6h-28q-6 6-6 12"/><path id="q" d="M51 0q-5 4-5 7 0 2 169 350t173 352q3 7 28 7 23 0 28-7 3-4 172-352T786 7q0-3-5-7zm456 344L384 596 137 92l246-1h247q0 2-123 253"/><path id="r" d="M84 237v13l14 20h581q15-8 15-20t-15-20H98q-14 7-14 20Z"/><path id="s" d="M69 609q0 28 18 44t44 16q23-2 40-17t17-43q0-30-17-45t-42-15-42 15-18 45M247 0q-15 3-104 3h-37Q80 3 56 1L34 0h-8v46h16q28 0 49 3 9 4 11 11t2 42v191q0 52-2 66t-14 19q-14 7-47 7H30v23q0 23 2 23l10 1q10 1 28 2t36 2q17 1 36 2t29 3 11 1h3V62q5-10 12-12t35-4h23V0z"/><path id="t" d="M41 46h14q39 0 47 14v62q0 17 1 39t0 42v66q0 35-1 59v23q-3 19-14 25t-45 9H25v23q0 23 2 23l10 1q10 1 28 2t37 2q17 1 36 2t29 3 11 1h3v-40q0-38 1-38t5 5 12 15 19 18 29 19 38 16 51 5q114-4 127-113 1-7 1-139v-86q0-38 2-45t11-10q21-3 49-3h16V0h-8l-24 1q-23 1-50 1t-38 1Q319 3 310 0h-8v46h16q61 0 61 16 1 2 1 138-1 135-2 143-6 28-20 42t-24 17-26 2q-45 0-79-34-27-27-34-55t-8-83V108q0-30 1-40t3-13 9-6q21-3 49-3h16V0h-8l-23 1q-24 1-51 1t-38 1Q42 3 33 0h-8v46z"/><path id="u" d="M55 319q0 41 17 74t42 51 49 28 42 10h8q6 0 10 1 39 0 73-15t97-55l50-32q59-35 110-35 56 0 96 29t45 79q0 11 4 20t10 9q14 0 14-31 0-66-47-114t-120-49q-41 0-87 21t-80 47-80 47-84 22q-60 0-99-33t-42-75q-2-29-14-29-14 0-14 30m0-234q0 41 17 74t42 51 49 28 42 10h8q6 0 10 1 39 0 73-15t97-55l50-32q59-35 110-35 56 0 96 29t45 79q0 29 14 29t14-32q0-64-47-113T555 55q-41 0-87 21t-80 47-80 47-84 22q-60 0-99-33T83 84q-3-29-14-29-14 0-14 30"/><path id="v" d="M273 411q0 26 18 43t43 17q24 0 41-17t18-43-17-43-43-17q-26 0-43 17t-17 43M84 38q26 0 42-17t17-43q0-24-16-42T83-82q-26 0-42 17T24-22q0 26 17 43t43 17m440-60q0 26 17 43t43 17q24 0 41-17t18-43q0-23-16-41t-44-19q-26 0-42 17t-17 43"/></defs><g stroke="currentColor" fill="currentColor" stroke-width="0"><g><g><g><use data-c="1D453" xlink:href="#a" transform="scale(1 -1) translate(0 2667) translate(4388.3)"/><use data-c="28" xlink:href="#b" transform="scale(1 -1) translate(0 2667) translate(4388.3) translate(550)"/><use data-c="1D454" xlink:href="#c" transform="scale(1 -1) translate(0 2667) translate(4388.3) translate(939)"/><use data-c="28" xlink:href="#b" transform="scale(1 -1) translate(0 2667) translate(4388.3) translate(1416)"/><use data-c="1D465" xlink:href="#d" transform="scale(1 -1) translate(0 2667) translate(4388.3) translate(1805)"/><use data-c="2B" xlink:href="#e" transform="scale(1 -1) translate(0 2667) translate(4388.3) translate(2599.2)"/><use data-c="210E" xlink:href="#f" transform="scale(1 -1) translate(0 2667) translate(4388.3) translate(3599.4)"/><use data-c="29" xlink:href="#g" transform="scale(1 -1) translate(0 2667) translate(4388.3) translate(4175.4)"/><use data-c="29" xlink:href="#g" transform="scale(1 -1) translate(0 2667) translate(4388.3) translate(4564.4)"/></g><g><use data-c="3D" xlink:href="#h" transform="scale(1 -1) translate(0 2667) translate(9341.8) translate(277.8)"/><use data-c="1D453" xlink:href="#a" transform="scale(1 -1) translate(0 2667) translate(9341.8) translate(1333.6)"/><use data-c="28" xlink:href="#b" transform="scale(1 -1) translate(0 2667) translate(9341.8) translate(1883.6)"/><g><use data-c="1D435" xlink:href="#i" transform="scale(1 -1) translate(0 2667) translate(9341.8) translate(2272.6)"/><use data-c="30" xlink:href="#j" transform="scale(1 -1) translate(0 2667) translate(9341.8) translate(2272.6) translate(792 -150)scale(.707)"/></g><use data-c="2B" xlink:href="#e" transform="scale(1 -1) translate(0 2667) translate(9341.8) translate(3690.3)"/><g><use data-c="1D435" xlink:href="#i" transform="scale(1 -1) translate(0 2667) translate(9341.8) translate(4690.6)"/><use data-c="31" xlink:href="#k" transform="scale(1 -1) translate(0 2667) translate(9341.8) translate(4690.6) translate(792 -150)scale(.707)"/></g><use data-c="210E" xlink:href="#f" transform="scale(1 -1) translate(0 2667) translate(9341.8) translate(5886.1)"/><use data-c="2B" xlink:href="#e" transform="scale(1 -1) translate(0 2667) translate(9341.8) translate(6684.3)"/><g><use data-c="1D435" xlink:href="#i" transform="scale(1 -1) translate(0 2667) translate(9341.8) translate(7684.6)"/><use data-c="32" xlink:href="#l" transform="scale(1 -1) translate(0 2667) translate(9341.8) translate(7684.6) translate(792 -150)scale(.707)"/></g><g><use data-c="210E" xlink:href="#f" transform="scale(1 -1) translate(0 2667) translate(9341.8) translate(8880.1)"/><use data-c="32" xlink:href="#l" transform="scale(1 -1) translate(0 2667) translate(9341.8) translate(8880.1) translate(609 413)scale(.707)"/></g><use data-c="2B" xlink:href="#e" transform="scale(1 -1) translate(0 2667) translate(9341.8) translate(10114.9)"/><use data-c="2026" xlink:href="#m" transform="scale(1 -1) translate(0 2667) translate(9341.8) translate(11115.1)"/><use data-c="29" xlink:href="#g" transform="scale(1 -1) translate(0 2667) translate(9341.8) translate(12287.1)"/></g></g><g><g><g transform="scale(1 -1) translate(0 67) translate(4026.3)"><use data-c="63" xlink:href="#n"/><use data-c="6F" xlink:href="#o" transform="translate(444)"/><use data-c="73" xlink:href="#p" transform="translate(944)"/></g><use data-c="28" xlink:href="#b" transform="scale(1 -1) translate(0 67) translate(4026.3) translate(1338)"/><use data-c="1D465" xlink:href="#d" transform="scale(1 -1) translate(0 67) translate(4026.3) translate(1727)"/><use data-c="2B" xlink:href="#e" transform="scale(1 -1) translate(0 67) translate(4026.3) translate(2521.2)"/><use data-c="394" xlink:href="#q" transform="scale(1 -1) translate(0 67) translate(4026.3) translate(3521.4)"/><use data-c="1D465" xlink:href="#d" transform="scale(1 -1) translate(0 67) translate(4026.3) translate(4354.4)"/><use data-c="29" xlink:href="#g" transform="scale(1 -1) translate(0 67) translate(4026.3) translate(4926.4)"/></g><g><use data-c="3D" xlink:href="#h" transform="scale(1 -1) translate(0 67) translate(9341.8) translate(277.8)"/><g transform="scale(1 -1) translate(0 67) translate(9341.8) translate(1333.6)"><use data-c="63" xlink:href="#n"/><use data-c="6F" xlink:href="#o" transform="translate(444)"/><use data-c="73" xlink:href="#p" transform="translate(944)"/></g><use data-c="28" xlink:href="#b" transform="scale(1 -1) translate(0 67) translate(9341.8) translate(2671.6)"/><use data-c="1D465" xlink:href="#d" transform="scale(1 -1) translate(0 67) translate(9341.8) translate(3060.6)"/><use data-c="29" xlink:href="#g" transform="scale(1 -1) translate(0 67) translate(9341.8) translate(3632.6)"/><g transform="scale(1 -1) translate(0 67) translate(9341.8) translate(4188.2)"><use data-c="63" xlink:href="#n"/><use data-c="6F" xlink:href="#o" transform="translate(444)"/><use data-c="73" xlink:href="#p" transform="translate(944)"/></g><use data-c="28" xlink:href="#b" transform="scale(1 -1) translate(0 67) translate(9341.8) translate(5526.2)"/><use data-c="394" xlink:href="#q" transform="scale(1 -1) translate(0 67) translate(9341.8) translate(5915.2)"/><use data-c="1D465" xlink:href="#d" transform="scale(1 -1) translate(0 67) translate(9341.8) translate(6748.2)"/><use data-c="29" xlink:href="#g" transform="scale(1 -1) translate(0 67) translate(9341.8) translate(7320.2)"/><use data-c="2212" xlink:href="#r" transform="scale(1 -1) translate(0 67) translate(9341.8) translate(7931.4)"/><g transform="scale(1 -1) translate(0 67) translate(9341.8) translate(8931.7)"><use data-c="73" xlink:href="#p"/><use data-c="69" xlink:href="#s" transform="translate(394)"/><use data-c="6E" xlink:href="#t" transform="translate(672)"/></g><use data-c="28" xlink:href="#b" transform="scale(1 -1) translate(0 67) translate(9341.8) translate(10159.7)"/><use data-c="1D465" xlink:href="#d" transform="scale(1 -1) translate(0 67) translate(9341.8) translate(10548.7)"/><use data-c="29" xlink:href="#g" transform="scale(1 -1) translate(0 67) translate(9341.8) translate(11120.7)"/><g transform="scale(1 -1) translate(0 67) translate(9341.8) translate(11676.3)"><use data-c="73" xlink:href="#p"/><use data-c="69" xlink:href="#s" transform="translate(394)"/><use data-c="6E" xlink:href="#t" transform="translate(672)"/></g><use data-c="28" xlink:href="#b" transform="scale(1 -1) translate(0 67) translate(9341.8) translate(12904.3)"/><use data-c="394" xlink:href="#q" transform="scale(1 -1) translate(0 67) translate(9341.8) translate(13293.3)"/><use data-c="1D465" xlink:href="#d" transform="scale(1 -1) translate(0 67) translate(9341.8) translate(14126.3)"/><use data-c="29" xlink:href="#g" transform="scale(1 -1) translate(0 67) translate(9341.8) translate(14698.3)"/><use data-c="2248" xlink:href="#u" transform="scale(1 -1) translate(0 67) translate(9341.8) translate(15365.1)"/><g transform="scale(1 -1) translate(0 67) translate(9341.8) translate(16420.9)"><use data-c="63" xlink:href="#n"/><use data-c="6F" xlink:href="#o" transform="translate(444)"/><use data-c="73" xlink:href="#p" transform="translate(944)"/></g><use data-c="28" xlink:href="#b" transform="scale(1 -1) translate(0 67) translate(9341.8) translate(17758.9)"/><use data-c="1D465" xlink:href="#d" transform="scale(1 -1) translate(0 67) translate(9341.8) translate(18147.9)"/><use data-c="29" xlink:href="#g" transform="scale(1 -1) translate(0 67) translate(9341.8) translate(18719.9)"/><use data-c="2212" xlink:href="#r" transform="scale(1 -1) translate(0 67) translate(9341.8) translate(19331.1)"/><g transform="scale(1 -1) translate(0 67) translate(9341.8) translate(20331.3)"><use data-c="73" xlink:href="#p"/><use data-c="69" xlink:href="#s" transform="translate(394)"/><use data-c="6E" xlink:href="#t" transform="translate(672)"/></g><use data-c="28" xlink:href="#b" transform="scale(1 -1) translate(0 67) translate(9341.8) translate(21559.3)"/><use data-c="1D465" xlink:href="#d" transform="scale(1 -1) translate(0 67) translate(9341.8) translate(21948.3)"/><use data-c="29" xlink:href="#g" transform="scale(1 -1) translate(0 67) translate(9341.8) translate(22520.3)"/><use data-c="394" xlink:href="#q" transform="scale(1 -1) translate(0 67) translate(9341.8) translate(22909.3)"/><use data-c="1D465" xlink:href="#d" transform="scale(1 -1) translate(0 67) translate(9341.8) translate(23742.3)"/></g></g><g><g><use data-c="2234" xlink:href="#v" transform="scale(1 -1) translate(0 -1367)"/><g transform="scale(1 -1) translate(0 -1367) translate(1111.8)"><use data-c="63" xlink:href="#n"/><use data-c="6F" xlink:href="#o" transform="translate(444)"/><use data-c="73" xlink:href="#p" transform="translate(944)"/></g><use data-c="28" xlink:href="#b" transform="scale(1 -1) translate(0 -1367) translate(2449.8)"/><g><use data-c="1D465" xlink:href="#d" transform="scale(1 -1) translate(0 -1367) translate(2838.8)"/><use data-c="32" xlink:href="#l" transform="scale(1 -1) translate(0 -1367) translate(2838.8) translate(605 413)scale(.707)"/></g><use data-c="2B" xlink:href="#e" transform="scale(1 -1) translate(0 -1367) translate(4069.6)"/><use data-c="32" xlink:href="#l" transform="scale(1 -1) translate(0 -1367) translate(5069.8)"/><use data-c="1D465" xlink:href="#d" transform="scale(1 -1) translate(0 -1367) translate(5569.8)"/><use data-c="210E" xlink:href="#f" transform="scale(1 -1) translate(0 -1367) translate(6141.8)"/><use data-c="2B" xlink:href="#e" transform="scale(1 -1) translate(0 -1367) translate(6940)"/><g><use data-c="210E" xlink:href="#f" transform="scale(1 -1) translate(0 -1367) translate(7940.2)"/><use data-c="32" xlink:href="#l" transform="scale(1 -1) translate(0 -1367) translate(7940.2) translate(609 413)scale(.707)"/></g><use data-c="29" xlink:href="#g" transform="scale(1 -1) translate(0 -1367) translate(8952.8)"/></g><g><use data-c="3D" xlink:href="#h" transform="scale(1 -1) translate(0 -1367) translate(9341.8) translate(277.8)"/><g transform="scale(1 -1) translate(0 -1367) translate(9341.8) translate(1333.6)"><use data-c="63" xlink:href="#n"/><use data-c="6F" xlink:href="#o" transform="translate(444)"/><use data-c="73" xlink:href="#p" transform="translate(944)"/></g><use data-c="28" xlink:href="#b" transform="scale(1 -1) translate(0 -1367) translate(9341.8) translate(2671.6)"/><g><use data-c="1D465" xlink:href="#d" transform="scale(1 -1) translate(0 -1367) translate(9341.8) translate(3060.6)"/><use data-c="32" xlink:href="#l" transform="scale(1 -1) translate(0 -1367) translate(9341.8) translate(3060.6) translate(605 413)scale(.707)"/></g><use data-c="29" xlink:href="#g" transform="scale(1 -1) translate(0 -1367) translate(9341.8) translate(4069.1)"/><use data-c="2212" xlink:href="#r" transform="scale(1 -1) translate(0 -1367) translate(9341.8) translate(4680.3)"/><g transform="scale(1 -1) translate(0 -1367) translate(9341.8) translate(5680.6)"><use data-c="73" xlink:href="#p"/><use data-c="69" xlink:href="#s" transform="translate(394)"/><use data-c="6E" xlink:href="#t" transform="translate(672)"/></g><use data-c="28" xlink:href="#b" transform="scale(1 -1) translate(0 -1367) translate(9341.8) translate(6908.6)"/><g><use data-c="1D465" xlink:href="#d" transform="scale(1 -1) translate(0 -1367) translate(9341.8) translate(7297.6)"/><use data-c="32" xlink:href="#l" transform="scale(1 -1) translate(0 -1367) translate(9341.8) translate(7297.6) translate(605 413)scale(.707)"/></g><use data-c="29" xlink:href="#g" transform="scale(1 -1) translate(0 -1367) translate(9341.8) translate(8306.1)"/><use data-c="394" xlink:href="#q" transform="scale(1 -1) translate(0 -1367) translate(9341.8) translate(8695.1)"/><use data-c="1D465" xlink:href="#d" transform="scale(1 -1) translate(0 -1367) translate(9341.8) translate(9528.1)"/></g></g><g><g><use data-c="3D" xlink:href="#h" transform="scale(1 -1) translate(0 -2800.9) translate(9341.8) translate(277.8)"/><g transform="scale(1 -1) translate(0 -2800.9) translate(9341.8) translate(1333.6)"><use data-c="63" xlink:href="#n"/><use data-c="6F" xlink:href="#o" transform="translate(444)"/><use data-c="73" xlink:href="#p" transform="translate(944)"/></g><use data-c="28" xlink:href="#b" transform="scale(1 -1) translate(0 -2800.9) translate(9341.8) translate(2671.6)"/><g><use data-c="1D465" xlink:href="#d" transform="scale(1 -1) translate(0 -2800.9) translate(9341.8) translate(3060.6)"/><use data-c="32" xlink:href="#l" transform="scale(1 -1) translate(0 -2800.9) translate(9341.8) translate(3060.6) translate(605 413)scale(.707)"/></g><use data-c="29" xlink:href="#g" transform="scale(1 -1) translate(0 -2800.9) translate(9341.8) translate(4069.1)"/><use data-c="2212" xlink:href="#r" transform="scale(1 -1) translate(0 -2800.9) translate(9341.8) translate(4680.3)"/><g transform="scale(1 -1) translate(0 -2800.9) translate(9341.8) translate(5680.6)"><use data-c="73" xlink:href="#p"/><use data-c="69" xlink:href="#s" transform="translate(394)"/><use data-c="6E" xlink:href="#t" transform="translate(672)"/></g><use data-c="28" xlink:href="#b" transform="scale(1 -1) translate(0 -2800.9) translate(9341.8) translate(6908.6)"/><g><use data-c="1D465" xlink:href="#d" transform="scale(1 -1) translate(0 -2800.9) translate(9341.8) translate(7297.6)"/><use data-c="32" xlink:href="#l" transform="scale(1 -1) translate(0 -2800.9) translate(9341.8) translate(7297.6) translate(605 413)scale(.707)"/></g><use data-c="29" xlink:href="#g" transform="scale(1 -1) translate(0 -2800.9) translate(9341.8) translate(8306.1)"/><use data-c="28" xlink:href="#b" transform="scale(1 -1) translate(0 -2800.9) translate(9341.8) translate(8695.1)"/><use data-c="32" xlink:href="#l" transform="scale(1 -1) translate(0 -2800.9) translate(9341.8) translate(9084.1)"/><use data-c="1D465" xlink:href="#d" transform="scale(1 -1) translate(0 -2800.9) translate(9341.8) translate(9584.1)"/><use data-c="210E" xlink:href="#f" transform="scale(1 -1) translate(0 -2800.9) translate(9341.8) translate(10156.1)"/><use data-c="2B" xlink:href="#e" transform="scale(1 -1) translate(0 -2800.9) translate(9341.8) translate(10954.3)"/><g><use data-c="210E" xlink:href="#f" transform="scale(1 -1) translate(0 -2800.9) translate(9341.8) translate(11954.6)"/><use data-c="32" xlink:href="#l" transform="scale(1 -1) translate(0 -2800.9) translate(9341.8) translate(11954.6) translate(609 413)scale(.707)"/></g><use data-c="29" xlink:href="#g" transform="scale(1 -1) translate(0 -2800.9) translate(9341.8) translate(12967.1)"/></g></g></g></g></svg>