<svg style="vertical-align:-.05ex" xmlns="http://www.w3.org/2000/svg" width="7.829ex" height="1.67ex" viewBox="0 -716 3460.6 738" xmlns:xlink="http://www.w3.org/1999/xlink"><defs><path id="a" d="M51 0q-5 4-5 7 0 2 169 350t173 352q3 7 28 7 23 0 28-7 3-4 172-352T786 7q0-3-5-7zm456 344L384 596 137 92l246-1h247q0 2-123 253"/><path id="b" d="M52 289q7 42 54 97t116 56q35 0 64-18t43-45q42 63 101 63 37 0 64-22t28-59q0-29-14-47t-27-22-23-4q-19 0-31 11t-12 29q0 46 50 63-11 13-40 13-13 0-19-2-38-16-56-66-60-221-60-258 0-28 16-40t35-12q37 0 73 33t49 81q3 10 6 11t16 2h4q15 0 15-8 0-1-2-11-16-57-62-101T333-11q-70 0-106 63-41-62-94-62h-6q-49 0-70 26T35 71q0 32 19 52t45 20q43 0 43-42 0-20-12-35t-23-20-13-5l-3-1q0-1 6-4t16-7 19-3q36 0 62 45 9 16 23 68t28 108 16 66q5 27 5 39 0 28-15 40t-34 12q-40 0-75-32t-49-82q-2-9-5-10t-16-2H58q-6 6-6 11"/><path id="c" d="M56 237v13l14 20h765q-116 87-143 223v3q0 2-1 3 0 12 17 12h3q9 0 12-1t6-4 3-9 3-16 8-25q22-67 73-120t119-75q9-3 9-11 0-6-5-9t-24-10-38-19q-41-26-71-60t-45-67-21-50-8-31q-2-10-5-12t-16-3q-20 0-20 11 0 7 5 25 32 126 139 205H70q-14 7-14 20Z"/><path id="d" d="M96 585q56 81 153 81 48 0 96-26t78-92q37-83 37-228 0-155-43-237-20-42-55-67t-61-31-51-7q-26 0-52 6t-61 32-55 67q-43 82-43 237 0 174 57 265m225 12q-30 32-71 32-42 0-72-32-25-26-33-72t-8-192q0-158 8-208t36-79q28-30 69-30 40 0 68 30 29 30 36 84t8 203q0 145-8 191t-33 73"/></defs><g stroke="currentColor" fill="currentColor" stroke-width="0"><use data-c="394" xlink:href="#a" transform="scale(1 -1)"/><use data-c="1D465" xlink:href="#b" transform="scale(1 -1) translate(833)"/><use data-c="2192" xlink:href="#c" transform="scale(1 -1) translate(1682.8)"/><use data-c="30" xlink:href="#d" transform="scale(1 -1) translate(2960.6)"/></g></svg>