<svg style="vertical-align:-2.437ex" xmlns="http://www.w3.org/2000/svg" width="11.146ex" height="5.74ex" viewBox="0 -1460 4926.7 2537" xmlns:xlink="http://www.w3.org/1999/xlink"><defs><path id="a" d="M84 237v13l14 20h581q15-8 15-20t-15-20H98q-14 7-14 20Z"/><path id="b" d="M370 305h-21l-36 15-16 38q0 23 15 38 5 5 5 6t-10 2q-26 4-49 4-49 0-80-32-47-47-47-157 0-82 31-129 41-61 110-61 41 0 66 26t36 62q2 8 5 10t16 2h14q6-6 6-9 0-4-4-16t-16-33-29-38-48-31-69-13q-86 0-150 64T34 214q0 104 65 169t151 65 120-27 34-64q0-23-17-37Z"/><path id="c" d="M28 214q0 95 65 164t157 70q90 0 155-68t66-165q0-95-64-160T250-10q-97 0-159 67T28 214M250 30q122 0 122 163v57q0 22-1 38t-7 38-16 36-31 28-49 20q-5 1-16 1-30 0-57-12-43-22-56-61t-13-92v-20q0-96 19-135 32-61 105-61"/><path id="d" d="M295 316q0 40-27 69t-78 29q-36 0-62-13-30-19-30-52-1-5 0-13t16-24 43-25q18-5 44-9t44-9 32-13q17-8 33-20t32-41 17-62q0-62-38-102T198-10h-8q-52 0-96 36l-8-7-9-9Q71 4 65-1L54-11H42q-3 0-9 6v137q0 21 2 25t10 5h9q12 0 16-4t5-12 7-27 19-42q35-51 97-51 97 0 97 78 0 29-18 47-20 24-83 36t-83 23q-36 17-57 46t-21 62q0 39 17 66t43 40 50 18 44 5h11q40 0 70-15l15-8 9 7q10 9 22 17h12q3 0 9-6V310l-6-6h-28q-6 6-6 12"/><path id="e" d="M94 250q0 69 10 131t23 107 37 88 38 67 42 52 33 34 25 21h17q14 0 14-9 0-3-17-21t-41-53-49-86-42-138-17-193 17-192 41-139 49-86 42-53 17-21q0-9-15-9h-16l-28 24q-94 85-137 212T94 250"/><path id="f" d="M52 289q7 42 54 97t116 56q35 0 64-18t43-45q42 63 101 63 37 0 64-22t28-59q0-29-14-47t-27-22-23-4q-19 0-31 11t-12 29q0 46 50 63-11 13-40 13-13 0-19-2-38-16-56-66-60-221-60-258 0-28 16-40t35-12q37 0 73 33t49 81q3 10 6 11t16 2h4q15 0 15-8 0-1-2-11-16-57-62-101T333-11q-70 0-106 63-41-62-94-62h-6q-49 0-70 26T35 71q0 32 19 52t45 20q43 0 43-42 0-20-12-35t-23-20-13-5l-3-1q0-1 6-4t16-7 19-3q36 0 62 45 9 16 23 68t28 108 16 66q5 27 5 39 0 28-15 40t-34 12q-40 0-75-32t-49-82q-2-9-5-10t-16-2H58q-6 6-6 11"/><path id="g" d="m60 749 4 1h22l28-24q94-85 137-212t43-264q0-68-10-131T261 12t-37-88-38-67-41-51-32-33-23-19l-4-4H63q-3 0-5 3t-3 9q1 1 11 13Q221-64 221 250T66 725q-10 12-11 13 0 8 5 11"/><path id="h" d="M137 683q1 0 72 5t73 6q12 0 12-9 0-11-36-151-38-148-38-151 0-2 7 5 61 54 130 54 54 0 87-27t34-79q0-51-38-158T402 50q1-14 5-19t15-5q28 0 52 30t39 82q3 11 6 13t16 2q20 0 20-8 0-1-4-15-16-59-51-97-34-43-81-43h-5q-47 0-68 27t-21 57q0 16 36 118t37 153q0 59-44 59h-5q-83 0-144-98l-7-13-34-135Q132 28 127 16q-13-27-44-27-14 0-24 9T48 16q0 14 73 304l74 296q0 13-7 16t-39 5h-21q-6 6-6 8t2 19q5 19 13 19"/><path id="i" d="M69 609q0 28 18 44t44 16q23-2 40-17t17-43q0-30-17-45t-42-15-42 15-18 45M247 0q-15 3-104 3h-37Q80 3 56 1L34 0h-8v46h16q28 0 49 3 9 4 11 11t2 42v191q0 52-2 66t-14 19q-14 7-47 7H30v23q0 23 2 23l10 1q10 1 28 2t36 2q17 1 36 2t29 3 11 1h3V62q5-10 12-12t35-4h23V0z"/><path id="j" d="M41 46h14q39 0 47 14v62q0 17 1 39t0 42v66q0 35-1 59v23q-3 19-14 25t-45 9H25v23q0 23 2 23l10 1q10 1 28 2t37 2q17 1 36 2t29 3 11 1h3v-40q0-38 1-38t5 5 12 15 19 18 29 19 38 16 51 5q114-4 127-113 1-7 1-139v-86q0-38 2-45t11-10q21-3 49-3h16V0h-8l-24 1q-23 1-50 1t-38 1Q319 3 310 0h-8v46h16q61 0 61 16 1 2 1 138-1 135-2 143-6 28-20 42t-24 17-26 2q-45 0-79-34-27-27-34-55t-8-83V108q0-30 1-40t3-13 9-6q21-3 49-3h16V0h-8l-23 1q-24 1-51 1t-38 1Q42 3 33 0h-8v46z"/><path id="k" d="M109 429q-27 0-43 18t-16 44q0 71 53 123t132 52q91 0 152-56t62-145q0-43-20-82t-48-68-80-74q-36-31-100-92l-59-56 76-1q157 0 167 5 7 2 24 89v3h40v-3q-1-3-13-91T421 3V0H50v31q0 7 6 15t30 35q29 32 50 56 9 10 34 37t34 37 29 33 28 34 23 30 21 32 15 29 13 32 7 30 3 33q0 63-34 109t-97 46q-33 0-58-17t-35-33-10-19q0-1 5-1 18 0 37-14t19-46q0-25-16-42t-45-18"/><path id="l" d="M78 60q0 24 17 42t43 18q24 0 42-16t19-43q0-25-17-43T139 0 96 17 78 60"/></defs><g stroke="currentColor" fill="currentColor" stroke-width="0"><g transform="scale(1 -1)"><g><use data-c="2212" xlink:href="#a" transform="translate(220 710)"/><g transform="translate(220 710) translate(944.7)"><use data-c="63" xlink:href="#b"/><use data-c="6F" xlink:href="#c" transform="translate(444)"/><use data-c="73" xlink:href="#d" transform="translate(944)"/></g><use data-c="28" xlink:href="#e" transform="translate(220 710) translate(2282.7)"/><use data-c="1D465" xlink:href="#f" transform="translate(220 710) translate(2671.7)"/><use data-c="29" xlink:href="#g" transform="translate(220 710) translate(3243.7)"/><use data-c="210E" xlink:href="#h" transform="translate(220 710) translate(3632.7)"/></g><g><g><g transform="translate(817.1 -827)"><use data-c="73" xlink:href="#d"/><use data-c="69" xlink:href="#i" transform="translate(394)"/><use data-c="6E" xlink:href="#j" transform="translate(672)"/></g><use data-c="32" xlink:href="#k" transform="translate(817.1 -827) translate(1261 396.1)scale(.707)"/></g><use data-c="28" xlink:href="#e" transform="translate(817.1 -827) translate(1664.6)"/><use data-c="1D465" xlink:href="#f" transform="translate(817.1 -827) translate(2053.6)"/><use data-c="29" xlink:href="#g" transform="translate(817.1 -827) translate(2625.6)"/></g><path stroke="none" d="M120 220H4528.7V280H120z"/></g><use data-c="2E" xlink:href="#l" transform="scale(1 -1) translate(4648.7)"/></g></svg>