<svg style="vertical-align:-2.552ex" xmlns="http://www.w3.org/2000/svg" width="22.928ex" height="6.235ex" viewBox="0 -1628 10134.3 2756" xmlns:xlink="http://www.w3.org/1999/xlink"><defs><path id="a" d="M114-798q18-26 51-26h2q28 0 56 60t52 164 45 209 42 227q3 21 5 31 72 425 156 788t122 472l10 30q4 12 17 44t27 56 34 49 44 40 51 14q56 0 84-35t32-80q0-25-12-40t-23-19-22-3q-21 0-38 15t-17 41q0 48 53 57l-3 4q-3 3-8 7t-8 6q-15 10-33 10-14 0-26-12t-32-56-39-116-47-203-56-308Q574 293 510-5T410-437t-55-192q-77-233-190-233-40 0-73 31t-37 85q0 35 19 48t38 13q21 0 38-15t17-41q0-48-53-57"/><path id="b" d="M21 287q0 8 9 31t25 52 44 50 59 22q46 0 69-25t23-59q0-18-34-112t-34-141q0-43 14-60t42-18 53 17 37 34l11 17q2 4 38 152 30 120 36 140t14 29q17 15 36 15 17 0 25-10t8-19L420 84q-1-5-1-16 0-25 7-33t21-9q22 3 35 31t30 88q2 8 20 8 19 0 19-9-1-5-2-14t-9-32-17-43-25-38-36-25q-8-2-24-2-66 0-91 56-2-1-11-10t-18-15-22-15-29-12-34-5q-44 0-78 18-52 31-52 106 0 57 35 149t35 117v14q0 3-4 7t-11 4h-4q-23 0-42-19t-30-41-17-42-8-22-16-2H27q-6 6-6 9"/><path id="c" d="M366 683q1 0 72 5t73 6q12 0 12-8 0-7-73-302T375 83t-1-15q0-42 28-42 9 1 20 9 21 20 41 96 6 20 10 21 2 1 10 1h8q15 0 15-8 0-5-3-16-13-50-30-81T445 8 417-8q-8-2-24-2-34 0-57 15t-30 31l-6 15q-1 1-4-1l-4-4q-59-56-120-56-55 0-97 40T33 157q0 48 20 98t48 86q47 57 94 79t85 22q56 0 84-42 5-6 5-4 1 4 27 109t28 111q0 13-7 16t-39 5h-21q-6 6-6 8t2 19q5 19 13 19m-14-357q-23 79-75 79-35 0-67-31t-50-81q-29-79-41-164v-11q0-8-1-12 0-45 18-62t43-18q54 0 111 72l8 11z"/><path id="d" d="M173 380q0 25-19 25-24 0-50-29t-43-89q-1-1-2-3t-1-3-2-2-3-1-4 0-8 0H27q-6 6-6 9 0 7 8 29t24 52 44 51 63 22q42 0 65-24t24-56q0-17-3-26 0-6-15-44t-31-89-18-89q0-27 5-44 13-43 63-43 37 0 69 34t50 79 29 83 11 55q0 23-8 40t-18 26-18 18-8 22q0 22 19 41t41 19q19 0 34-18t16-58q0-27-12-83t-37-125-71-119-106-51q-64 0-102 33-37 32-37 95 0 31 8 64t41 117q22 64 22 82"/><path id="e" d="M56 347q0 13 14 20h637q15-8 15-20 0-11-14-19l-318-1H72q-16 5-16 20m0-194q0 15 16 20h636q14-10 14-20 0-13-15-20H70q-14 7-14 20"/><path id="f" d="M84 237v13l14 20h581q15-8 15-20t-15-20H98q-14 7-14 20Z"/><path id="g" d="M78 60q0 24 17 42t43 18q24 0 42-16t19-43q0-25-17-43T139 0 96 17 78 60"/></defs><g stroke="currentColor" fill="currentColor" stroke-width="0"><g transform="scale(1 -1)"><g data-mjx-texclass="ORD"><g><g data-mjx-texclass="ORD"><use data-c="222B" xlink:href="#a" transform="translate(267) translate(0 1)"/><use data-c="1D462" xlink:href="#b" transform="translate(267) translate(1110.7)"/><use data-c="1D451" xlink:href="#c" transform="translate(267) translate(1849.7)"/><use data-c="1D463" xlink:href="#d" transform="translate(267) translate(2369.7)"/><use data-c="3D" xlink:href="#e" transform="translate(267) translate(3132.4)"/><use data-c="1D462" xlink:href="#b" transform="translate(267) translate(4188.2)"/><use data-c="1D463" xlink:href="#d" transform="translate(267) translate(4760.2)"/><use data-c="2212" xlink:href="#f" transform="translate(267) translate(5467.4)"/><use data-c="222B" xlink:href="#a" transform="translate(267) translate(6467.7 1)"/><use data-c="1D463" xlink:href="#d" transform="translate(267) translate(7578.3)"/><use data-c="1D451" xlink:href="#c" transform="translate(267) translate(8230.3)"/><use data-c="1D462" xlink:href="#b" transform="translate(267) translate(8750.3)"/><use data-c="2E" xlink:href="#g" transform="translate(267) translate(9322.3)"/></g></g></g><path fill="none" stroke-width="67" d="M33.5-1094.5H10100.8V1594.5H33.5z"/></g></g></svg>