<svg style="vertical-align:-1.948ex" xmlns="http://www.w3.org/2000/svg" width="20.598ex" height="5.027ex" viewBox="0 -1361 9104.3 2222" xmlns:xlink="http://www.w3.org/1999/xlink"><defs><path id="a" d="M114-798q18-26 51-26h2q28 0 56 60t52 164 45 209 42 227q3 21 5 31 72 425 156 788t122 472l10 30q4 12 17 44t27 56 34 49 44 40 51 14q56 0 84-35t32-80q0-25-12-40t-23-19-22-3q-21 0-38 15t-17 41q0 48 53 57l-3 4q-3 3-8 7t-8 6q-15 10-33 10-14 0-26-12t-32-56-39-116-47-203-56-308Q574 293 510-5T410-437t-55-192q-77-233-190-233-40 0-73 31t-37 85q0 35 19 48t38 13q21 0 38-15t17-41q0-48-53-57"/><path id="b" d="m213 578-13-5q-14-5-40-10t-58-7H83v46h19q47 2 87 15t56 24 28 22q2 3 12 3 9 0 17-6V361l1-300q7-7 12-9t24-4 62-2h26V0h-11q-21 3-159 3-136 0-157-3H88v46h64q16 0 25 1t16 3 8 2 6 5 6 4z"/><path id="c" d="M52 289q7 42 54 97t116 56q35 0 64-18t43-45q42 63 101 63 37 0 64-22t28-59q0-29-14-47t-27-22-23-4q-19 0-31 11t-12 29q0 46 50 63-11 13-40 13-13 0-19-2-38-16-56-66-60-221-60-258 0-28 16-40t35-12q37 0 73 33t49 81q3 10 6 11t16 2h4q15 0 15-8 0-1-2-11-16-57-62-101T333-11q-70 0-106 63-41-62-94-62h-6q-49 0-70 26T35 71q0 32 19 52t45 20q43 0 43-42 0-20-12-35t-23-20-13-5l-3-1q0-1 6-4t16-7 19-3q36 0 62 45 9 16 23 68t28 108 16 66q5 27 5 39 0 28-15 40t-34 12q-40 0-75-32t-49-82q-2-9-5-10t-16-2H58q-6 6-6 11"/><path id="d" d="M366 683q1 0 72 5t73 6q12 0 12-8 0-7-73-302T375 83t-1-15q0-42 28-42 9 1 20 9 21 20 41 96 6 20 10 21 2 1 10 1h8q15 0 15-8 0-5-3-16-13-50-30-81T445 8 417-8q-8-2-24-2-34 0-57 15t-30 31l-6 15q-1 1-4-1l-4-4q-59-56-120-56-55 0-97 40T33 157q0 48 20 98t48 86q47 57 94 79t85 22q56 0 84-42 5-6 5-4 1 4 27 109t28 111q0 13-7 16t-39 5h-21q-6 6-6 8t2 19q5 19 13 19m-14-357q-23 79-75 79-35 0-67-31t-50-81q-29-79-41-164v-11q0-8-1-12 0-45 18-62t43-18q54 0 111 72l8 11z"/><path id="e" d="M56 347q0 13 14 20h637q15-8 15-20 0-11-14-19l-318-1H72q-16 5-16 20m0-194q0 15 16 20h636q14-10 14-20 0-13-15-20H70q-14 7-14 20"/><path id="f" d="M42 46h14q39 0 47 14v64q0 19 1 43t0 50 0 55 0 57v213q0 26-1 44t0 17q-3 19-14 25t-45 9H26v23q0 23 2 23l10 1q10 1 29 2t37 2q17 1 37 2t30 3 11 1h3V379q0-317 1-319 4-8 12-11 21-3 49-3h16V0h-8l-23 1q-23 1-49 1t-38 1-38 0-50-2L34 0h-8v46z"/><path id="g" d="M41 46h14q39 0 47 14v62q0 17 1 39t0 42v66q0 35-1 59v23q-3 19-14 25t-45 9H25v23q0 23 2 23l10 1q10 1 28 2t37 2q17 1 36 2t29 3 11 1h3v-40q0-38 1-38t5 5 12 15 19 18 29 19 38 16 51 5q114-4 127-113 1-7 1-139v-86q0-38 2-45t11-10q21-3 49-3h16V0h-8l-24 1q-23 1-50 1t-38 1Q319 3 310 0h-8v46h16q61 0 61 16 1 2 1 138-1 135-2 143-6 28-20 42t-24 17-26 2q-45 0-79-34-27-27-34-55t-8-83V108q0-30 1-40t3-13 9-6q21-3 49-3h16V0h-8l-23 1q-24 1-51 1t-38 1Q42 3 33 0h-8v46z"/><path id="h" d="M139-249h-2q-12 0-18 14v486l1 486q10 13 19 13 13 0 20-15v-970q-8-14-18-14z"/><path id="i" d="M56 237v13l14 20h299v150l1 150q10 13 19 13 13 0 20-15V270h298q15-8 15-20t-15-20H409V-68q-8-14-18-14h-4q-12 0-18 14v298H70q-14 7-14 20Z"/><path id="j" d="M50 252q0 115 67 221t169 168 204 63q90 0 143-51 9-10 15-17t8-10l1-3q3 0 27 26 7 6 15 14t16 16 10 11l15 15h6q14 0 14-7 0-4-32-137-36-139-36-140-2-5-5-6t-18-2h-16q-6 6-6 9 0 1 1 7t2 20 1 32q0 71-32 124t-109 54q-26 0-56-7t-72-24-83-56-73-93q-32-57-51-133t-19-124q0-114 76-164 48-34 118-34 91 0 162 68t94 148q4 13 6 15t16 2q20 0 20-9 0-5-1-9-29-107-124-184T319-22q-113 0-191 75T50 252"/><path id="k" d="M78 60q0 24 17 42t43 18q24 0 42-16t19-43q0-25-17-43T139 0 96 17 78 60"/></defs><g stroke="currentColor" fill="currentColor" stroke-width="0"><use data-c="222B" xlink:href="#a" transform="scale(1 -1) translate(0 1)"/><g transform="scale(1 -1) translate(1110.7)"><use data-c="31" xlink:href="#b" transform="translate(256 676)"/><use data-c="1D465" xlink:href="#c" transform="translate(220 -686)"/><path stroke="none" d="M120 220H892V280H120z"/></g><use data-c="1D451" xlink:href="#d" transform="scale(1 -1) translate(2289.7)"/><use data-c="1D465" xlink:href="#c" transform="scale(1 -1) translate(2809.7)"/><use data-c="3D" xlink:href="#e" transform="scale(1 -1) translate(3659.4)"/><g transform="scale(1 -1) translate(4715.2)"><use data-c="6C" xlink:href="#f"/><use data-c="6E" xlink:href="#g" transform="translate(278)"/></g><g data-mjx-texclass="ORD"><use data-c="7C" xlink:href="#h" transform="scale(1 -1) translate(5715.9) translate(0 -.5)"/></g><use data-c="1D465" xlink:href="#c" transform="scale(1 -1) translate(5993.9)"/><g data-mjx-texclass="ORD"><use data-c="7C" xlink:href="#h" transform="scale(1 -1) translate(6565.9) translate(0 -.5)"/></g><use data-c="2B" xlink:href="#i" transform="scale(1 -1) translate(7066.1)"/><use data-c="1D436" xlink:href="#j" transform="scale(1 -1) translate(8066.3)"/><use data-c="2E" xlink:href="#k" transform="scale(1 -1) translate(8826.3)"/></g></svg>