<svg style="vertical-align:-2.819ex" xmlns="http://www.w3.org/2000/svg" width="31.559ex" height="7.045ex" viewBox="0 -1868.1 13948.9 3114" xmlns:xlink="http://www.w3.org/1999/xlink"><defs><path id="a" d="M60 948q3 2 605 2h602l58-135q59-138 63-146h-40l-7 14q-21 41-56 78-50 48-111 77t-141 43-151 17-183 4H251l8-11q463-633 465-639 1-2 0-6-3-3-264-302L196-356q0-1 211-1h141q89 0 128-1 136 0 220 5t167 21 141 49 103 87q21 26 41 72h40q0-1-7-21t-25-65-31-84l-58-155-601-1q-602 0-605 2-6 2-6 9 0 2 2 6l533 610q0 1-33 45T452 366 322 544L56 909l-1 15q0 21 5 24"/><path id="b" d="M184 600q0 24 19 42t44 19q18 0 30-12t13-30q0-23-20-42t-44-20q-15 0-28 10t-14 33M21 287q0 8 9 31t24 51 44 51 60 22q39 0 65-23t27-62q0-17-14-56t-40-105-42-113q-5-22-5-32 0-25 17-25 9 0 19 3t23 14 27 35 25 59q3 12 5 14t17 2q20 0 20-10 0-8-9-31t-25-51-45-50-62-22q-32 0-59 21T74 74q0 17 5 32t43 114q38 101 44 121t7 39q0 24-17 24h-2q-30 0-55-33t-38-84q-1-1-2-3t-1-3-2-2-3-1-4 0-8 0H27q-6 6-6 9"/><path id="c" d="M56 347q0 13 14 20h637q15-8 15-20 0-11-14-19l-318-1H72q-16 5-16 20m0-194q0 15 16 20h636q14-10 14-20 0-13-15-20H70q-14 7-14 20"/><path id="d" d="M96 585q56 81 153 81 48 0 96-26t78-92q37-83 37-228 0-155-43-237-20-42-55-67t-61-31-51-7q-26 0-52 6t-61 32-55 67q-43 82-43 237 0 174 57 265m225 12q-30 32-71 32-42 0-72-32-25-26-33-72t-8-192q0-158 8-208t36-79q28-30 69-30 40 0 68 30 29 30 36 84t8 203q0 145-8 191t-33 73"/><path id="e" d="M21 287q1 6 3 16t12 38 20 47 33 37 46 17q36 0 60-18t30-34 6-21q0-2 1-2l11 11q61 64 139 64 54 0 87-27t34-79-38-157-38-127q0-26 17-26 6 0 9 1 29 5 52 38t35 80q2 8 20 8 20 0 20-8 0-1-4-15-8-29-22-57t-46-56-69-27q-47 0-68 27t-21 56q0 19 36 120t37 152q0 59-44 59h-5q-86 0-145-101l-7-12-33-134Q156 26 151 16q-13-27-43-27-13 0-21 6T76 7t-2 10q0 13 38 163t40 163q1 5 1 23 0 39-24 39-38 0-63-100-6-20-6-21-2-6-19-6H27q-6 6-6 9"/><path id="f" d="M423 750q9 0 15-6t6-14q0-5-173-482T92-240q-7-10-17-10-7 0-13 5t-6 14q0 10 174 488t177 483q4 10 16 10"/><path id="g" d="M51 0q-5 4-5 7 0 2 169 350t173 352q3 7 28 7 23 0 28-7 3-4 172-352T786 7q0-3-5-7zm456 344L384 596 137 92l246-1h247q0 2-123 253"/><path id="h" d="M52 289q7 42 54 97t116 56q35 0 64-18t43-45q42 63 101 63 37 0 64-22t28-59q0-29-14-47t-27-22-23-4q-19 0-31 11t-12 29q0 46 50 63-11 13-40 13-13 0-19-2-38-16-56-66-60-221-60-258 0-28 16-40t35-12q37 0 73 33t49 81q3 10 6 11t16 2h4q15 0 15-8 0-1-2-11-16-57-62-101T333-11q-70 0-106 63-41-62-94-62h-6q-49 0-70 26T35 71q0 32 19 52t45 20q43 0 43-42 0-20-12-35t-23-20-13-5l-3-1q0-1 6-4t16-7 19-3q36 0 62 45 9 16 23 68t28 108 16 66q5 27 5 39 0 28-15 40t-34 12q-40 0-75-32t-49-82q-2-9-5-10t-16-2H58q-6 6-6 11"/><path id="i" d="M118-250V750h137v-40h-97v-920h97v-40z"/><path id="j" d="M370 305h-21l-36 15-16 38q0 23 15 38 5 5 5 6t-10 2q-26 4-49 4-49 0-80-32-47-47-47-157 0-82 31-129 41-61 110-61 41 0 66 26t36 62q2 8 5 10t16 2h14q6-6 6-9 0-4-4-16t-16-33-29-38-48-31-69-13q-86 0-150 64T34 214q0 104 65 169t151 65 120-27 34-64q0-23-17-37Z"/><path id="k" d="M28 214q0 95 65 164t157 70q90 0 155-68t66-165q0-95-64-160T250-10q-97 0-159 67T28 214M250 30q122 0 122 163v57q0 22-1 38t-7 38-16 36-31 28-49 20q-5 1-16 1-30 0-57-12-43-22-56-61t-13-92v-20q0-96 19-135 32-61 105-61"/><path id="l" d="M295 316q0 40-27 69t-78 29q-36 0-62-13-30-19-30-52-1-5 0-13t16-24 43-25q18-5 44-9t44-9 32-13q17-8 33-20t32-41 17-62q0-62-38-102T198-10h-8q-52 0-96 36l-8-7-9-9Q71 4 65-1L54-11H42q-3 0-9 6v137q0 21 2 25t10 5h9q12 0 16-4t5-12 7-27 19-42q35-51 97-51 97 0 97 78 0 29-18 47-20 24-83 36t-83 23q-36 17-57 46t-21 62q0 39 17 66t43 40 50 18 44 5h11q40 0 70-15l15-8 9 7q10 9 22 17h12q3 0 9-6V310l-6-6h-28q-6 6-6 12"/><path id="m" d="M94 250q0 69 10 131t23 107 37 88 38 67 42 52 33 34 25 21h17q14 0 14-9 0-3-17-21t-41-53-49-86-42-138-17-193 17-192 41-139 49-86 42-53 17-21q0-9-15-9h-16l-28 24q-94 85-137 212T94 250"/><path id="n" d="m60 749 4 1h22l28-24q94-85 137-212t43-264q0-68-10-131T261 12t-37-88-38-67-41-51-32-33-23-19l-4-4H63q-3 0-5 3t-3 9q1 1 11 13Q221-64 221 250T66 725q-10 12-11 13 0 8 5 11"/><path id="o" d="M84 237v13l14 20h581q15-8 15-20t-15-20H98q-14 7-14 20Z"/><path id="p" d="M56 237v13l14 20h299v150l1 150q10 13 19 13 13 0 20-15V270h298q15-8 15-20t-15-20H409V-68q-8-14-18-14h-4q-12 0-18 14v298H70q-14 7-14 20Z"/><path id="q" d="m213 578-13-5q-14-5-40-10t-58-7H83v46h19q47 2 87 15t56 24 28 22q2 3 12 3 9 0 17-6V361l1-300q7-7 12-9t24-4 62-2h26V0h-11q-21 3-159 3-136 0-157-3H88v46h64q16 0 25 1t16 3 8 2 6 5 6 4z"/><path id="r" d="M22 710v40h137V-250H22v40h97v920z"/></defs><g stroke="currentColor" fill="currentColor" stroke-width="0"><g><use data-c="2211" xlink:href="#a" transform="scale(1 -1) translate(163.7)"/><g data-mjx-texclass="ORD"><use data-c="1D456" xlink:href="#b" transform="scale(1 -1) translate(311.8 -1087.9)scale(.707)"/><use data-c="3D" xlink:href="#c" transform="scale(1 -1) translate(311.8 -1087.9)scale(.707) translate(345)"/><use data-c="30" xlink:href="#d" transform="scale(1 -1) translate(311.8 -1087.9)scale(.707) translate(1123)"/></g><g data-mjx-texclass="ORD"><use data-c="1D45B" xlink:href="#e" transform="scale(1 -1) translate(0 1237.8)scale(.707)"/><g data-mjx-texclass="ORD"><use data-c="2F" xlink:href="#f" transform="scale(1 -1) translate(0 1237.8)scale(.707) translate(600)"/></g><use data-c="394" xlink:href="#g" transform="scale(1 -1) translate(0 1237.8)scale(.707) translate(1100)"/><use data-c="1D465" xlink:href="#h" transform="scale(1 -1) translate(0 1237.8)scale(.707) translate(1933)"/></g></g><g><use data-c="5B" xlink:href="#i" transform="scale(1 -1) translate(1938)"/><g transform="scale(1 -1) translate(1938) translate(278)"><use data-c="63" xlink:href="#j"/><use data-c="6F" xlink:href="#k" transform="translate(444)"/><use data-c="73" xlink:href="#l" transform="translate(944)"/></g><use data-c="28" xlink:href="#m" transform="scale(1 -1) translate(1938) translate(1616)"/><use data-c="1D456" xlink:href="#b" transform="scale(1 -1) translate(1938) translate(2005)"/><use data-c="394" xlink:href="#g" transform="scale(1 -1) translate(1938) translate(2350)"/><use data-c="1D465" xlink:href="#h" transform="scale(1 -1) translate(1938) translate(3183)"/><use data-c="29" xlink:href="#n" transform="scale(1 -1) translate(1938) translate(3755)"/><use data-c="2212" xlink:href="#o" transform="scale(1 -1) translate(1938) translate(4366.2)"/><g transform="scale(1 -1) translate(1938) translate(5366.4)"><use data-c="63" xlink:href="#j"/><use data-c="6F" xlink:href="#k" transform="translate(444)"/><use data-c="73" xlink:href="#l" transform="translate(944)"/></g><use data-c="28" xlink:href="#m" transform="scale(1 -1) translate(1938) translate(6704.4)"/><use data-c="28" xlink:href="#m" transform="scale(1 -1) translate(1938) translate(7093.4)"/><use data-c="1D456" xlink:href="#b" transform="scale(1 -1) translate(1938) translate(7482.4)"/><use data-c="2B" xlink:href="#p" transform="scale(1 -1) translate(1938) translate(8049.7)"/><use data-c="31" xlink:href="#q" transform="scale(1 -1) translate(1938) translate(9049.9)"/><use data-c="29" xlink:href="#n" transform="scale(1 -1) translate(1938) translate(9549.9)"/><use data-c="394" xlink:href="#g" transform="scale(1 -1) translate(1938) translate(9938.9)"/><use data-c="1D465" xlink:href="#h" transform="scale(1 -1) translate(1938) translate(10771.9)"/><use data-c="29" xlink:href="#n" transform="scale(1 -1) translate(1938) translate(11343.9)"/><use data-c="5D" xlink:href="#r" transform="scale(1 -1) translate(1938) translate(11732.9)"/></g></g></svg>