<svg style="vertical-align:-2.181ex" xmlns="http://www.w3.org/2000/svg" width="30.072ex" height="5.885ex" viewBox="0 -1637 13291.9 2601" xmlns:xlink="http://www.w3.org/1999/xlink"><defs><path id="a" d="M366 683q1 0 72 5t73 6q12 0 12-8 0-7-73-302T375 83t-1-15q0-42 28-42 9 1 20 9 21 20 41 96 6 20 10 21 2 1 10 1h8q15 0 15-8 0-5-3-16-13-50-30-81T445 8 417-8q-8-2-24-2-34 0-57 15t-30 31l-6 15q-1 1-4-1l-4-4q-59-56-120-56-55 0-97 40T33 157q0 48 20 98t48 86q47 57 94 79t85 22q56 0 84-42 5-6 5-4 1 4 27 109t28 111q0 13-7 16t-39 5h-21q-6 6-6 8t2 19q5 19 13 19m-14-357q-23 79-75 79-35 0-67-31t-50-81q-29-79-41-164v-11q0-8-1-12 0-45 18-62t43-18q54 0 111 72l8 11z"/><path id="b" d="M52 289q7 42 54 97t116 56q35 0 64-18t43-45q42 63 101 63 37 0 64-22t28-59q0-29-14-47t-27-22-23-4q-19 0-31 11t-12 29q0 46 50 63-11 13-40 13-13 0-19-2-38-16-56-66-60-221-60-258 0-28 16-40t35-12q37 0 73 33t49 81q3 10 6 11t16 2h4q15 0 15-8 0-1-2-11-16-57-62-101T333-11q-70 0-106 63-41-62-94-62h-6q-49 0-70 26T35 71q0 32 19 52t45 20q43 0 43-42 0-20-12-35t-23-20-13-5l-3-1q0-1 6-4t16-7 19-3q36 0 62 45 9 16 23 68t28 108 16 66q5 27 5 39 0 28-15 40t-34 12q-40 0-75-32t-49-82q-2-9-5-10t-16-2H58q-6 6-6 11"/><path id="c" d="M118-250V750h137v-40h-97v-920h97v-40z"/><path id="d" d="M370 305h-21l-36 15-16 38q0 23 15 38 5 5 5 6t-10 2q-26 4-49 4-49 0-80-32-47-47-47-157 0-82 31-129 41-61 110-61 41 0 66 26t36 62q2 8 5 10t16 2h14q6-6 6-9 0-4-4-16t-16-33-29-38-48-31-69-13q-86 0-150 64T34 214q0 104 65 169t151 65 120-27 34-64q0-23-17-37Z"/><path id="e" d="M295 316q0 40-27 69t-78 29q-36 0-62-13-30-19-30-52-1-5 0-13t16-24 43-25q18-5 44-9t44-9 32-13q17-8 33-20t32-41 17-62q0-62-38-102T198-10h-8q-52 0-96 36l-8-7-9-9Q71 4 65-1L54-11H42q-3 0-9 6v137q0 21 2 25t10 5h9q12 0 16-4t5-12 7-27 19-42q35-51 97-51 97 0 97 78 0 29-18 47-20 24-83 36t-83 23q-36 17-57 46t-21 62q0 39 17 66t43 40 50 18 44 5h11q40 0 70-15l15-8 9 7q10 9 22 17h12q3 0 9-6V310l-6-6h-28q-6 6-6 12"/><path id="f" d="M94 250q0 69 10 131t23 107 37 88 38 67 42 52 33 34 25 21h17q14 0 14-9 0-3-17-21t-41-53-49-86-42-138-17-193 17-192 41-139 49-86 42-53 17-21q0-9-15-9h-16l-28 24q-94 85-137 212T94 250"/><path id="g" d="m60 749 4 1h22l28-24q94-85 137-212t43-264q0-68-10-131T261 12t-37-88-38-67-41-51-32-33-23-19l-4-4H63q-3 0-5 3t-3 9q1 1 11 13Q221-64 221 250T66 725q-10 12-11 13 0 8 5 11"/><path id="h" d="M22 710v40h137V-250H22v40h97v920z"/><path id="i" d="M56 347q0 13 14 20h637q15-8 15-20 0-11-14-19l-318-1H72q-16 5-16 20m0-194q0 15 16 20h636q14-10 14-20 0-13-15-20H70q-14 7-14 20"/><path id="j" d="M84 237v13l14 20h581q15-8 15-20t-15-20H98q-14 7-14 20Z"/><path id="k" d="M28 214q0 95 65 164t157 70q90 0 155-68t66-165q0-95-64-160T250-10q-97 0-159 67T28 214M250 30q122 0 122 163v57q0 22-1 38t-7 38-16 36-31 28-49 20q-5 1-16 1-30 0-57-12-43-22-56-61t-13-92v-20q0-96 19-135 32-61 105-61"/><path id="l" d="M27 422q53 4 82 56t32 122v15h40V431h135v-46H181V241q1-125 1-141t7-32q14-39 49-39 44 0 54 71 1 8 1 46v35h40v-47q0-77-42-117-27-27-70-27-34 0-59 12t-38 31-19 35-7 32q-1 7-1 148v137H18v37z"/><path id="m" d="M78 60q0 24 17 42t43 18q24 0 42-16t19-43q0-25-17-43T139 0 96 17 78 60"/></defs><g stroke="currentColor" fill="currentColor" stroke-width="0"><g transform="scale(1 -1)"><g data-mjx-texclass="ORD"><g><g data-mjx-texclass="ORD"><g transform="translate(267)"><use data-c="1D451" xlink:href="#a" transform="translate(506 676)"/><g><use data-c="1D451" xlink:href="#a" transform="translate(220 -686)"/><use data-c="1D465" xlink:href="#b" transform="translate(220 -686) translate(520)"/></g><path stroke="none" d="M120 220H1412V280H120z"/></g><use data-c="5B" xlink:href="#c" transform="translate(267) translate(1532)"/><g transform="translate(267) translate(1810)"><use data-c="63" xlink:href="#d"/><use data-c="73" xlink:href="#e" transform="translate(444)"/><use data-c="63" xlink:href="#d" transform="translate(838)"/></g><use data-c="28" xlink:href="#f" transform="translate(267) translate(3092)"/><use data-c="1D465" xlink:href="#b" transform="translate(267) translate(3481)"/><use data-c="29" xlink:href="#g" transform="translate(267) translate(4053)"/><use data-c="5D" xlink:href="#h" transform="translate(267) translate(4442)"/><use data-c="3D" xlink:href="#i" transform="translate(267) translate(4997.8)"/><use data-c="2212" xlink:href="#j" transform="translate(267) translate(6053.6)"/><g transform="translate(267) translate(6998.2)"><use data-c="63" xlink:href="#d"/><use data-c="73" xlink:href="#e" transform="translate(444)"/><use data-c="63" xlink:href="#d" transform="translate(838)"/></g><use data-c="28" xlink:href="#f" transform="translate(267) translate(8280.2)"/><use data-c="1D465" xlink:href="#b" transform="translate(267) translate(8669.2)"/><use data-c="29" xlink:href="#g" transform="translate(267) translate(9241.2)"/><g transform="translate(267) translate(9796.9)"><use data-c="63" xlink:href="#d"/><use data-c="6F" xlink:href="#k" transform="translate(444)"/><use data-c="74" xlink:href="#l" transform="translate(944)"/></g><use data-c="28" xlink:href="#f" transform="translate(267) translate(11129.9)"/><use data-c="1D465" xlink:href="#b" transform="translate(267) translate(11518.9)"/><use data-c="29" xlink:href="#g" transform="translate(267) translate(12090.9)"/><use data-c="2E" xlink:href="#m" transform="translate(267) translate(12479.9)"/></g></g></g><path fill="none" stroke-width="67" d="M33.5-930.5H13258.4V1603.5H33.5z"/></g></g></svg>