<svg style="vertical-align:-.566ex" xmlns="http://www.w3.org/2000/svg" width="4.685ex" height="2.262ex" viewBox="0 -750 2070.7 1000" xmlns:xlink="http://www.w3.org/1999/xlink"><defs><path id="a" d="M118-250V750h137v-40h-97v-920h97v-40z"/><path id="b" d="M96 585q56 81 153 81 48 0 96-26t78-92q37-83 37-228 0-155-43-237-20-42-55-67t-61-31-51-7q-26 0-52 6t-61 32-55 67q-43 82-43 237 0 174 57 265m225 12q-30 32-71 32-42 0-72-32-25-26-33-72t-8-192q0-158 8-208t36-79q28-30 69-30 40 0 68 30 29 30 36 84t8 203q0 145-8 191t-33 73"/><path id="c" d="M78 35v25l16 43 43 18q28 0 50-25t23-88q0-35-9-68t-21-57-26-41-24-27-13-9q-4 0-13 9t-9 13 11 16 25 30 26 50 16 73V9l-1-1q-2-1-5-2t-6-3-9-2-12-1q-27 0-44 17Z"/><path id="d" d="M132-11q-34 0-34 33v11l13 28q75 158 109 273l8 24h-32q-38 0-54-3t-39-19q-11-7-22-18t-19-21-9-12q-2-1-15-1-19 0-19 10 0 6 19 35t55 62 71 38q7 2 225 2 160 0 164-1 20-7 20-28 0-31-32-42-6-2-69-2h-64l-3-17q-12-72-12-119 0-52 9-93t19-64 10-28q0-17-14-32t-36-15q-11 0-18 3t-16 24-16 60q-1 9-1 44 0 49 9 105t18 92 10 40h-98l-1-4q0-3-19-79t-43-161-31-97q-11-28-43-28"/><path id="e" d="M22 710v40h137V-250H22v40h97v920z"/></defs><g stroke="currentColor" fill="currentColor" stroke-width="0"><use data-c="5B" xlink:href="#a" transform="scale(1 -1)"/><use data-c="30" xlink:href="#b" transform="scale(1 -1) translate(278)"/><use data-c="2C" xlink:href="#c" transform="scale(1 -1) translate(778)"/><use data-c="1D70B" xlink:href="#d" transform="scale(1 -1) translate(1222.7)"/><use data-c="5D" xlink:href="#e" transform="scale(1 -1) translate(1792.7)"/></g></svg>