<svg style="vertical-align:-3.212ex" xmlns="http://www.w3.org/2000/svg" width="14.026ex" height="7.554ex" viewBox="0 -1919.5 6199.6 3339" xmlns:xlink="http://www.w3.org/1999/xlink"><defs><path id="a" d="M118-162q2 0 6-2t11-3 12-1q13 0 24 13t16 29q10 27 34 153t46 240 22 115v3h-47q-47 0-50 2-4 3-4 10l7 28q2 5 8 5t47 1q48 0 48 1 0 2 9 50t12 58q37 165 146 165 37-2 61-22t24-53q0-36-21-52t-42-17q-44 0-44 42 0 19 11 33t24 21l9 5q-16 6-30 6-12 0-23-10t-15-28q-7-29-16-78t-16-83-7-36 55-2q45 0 52-1t11-6q1-4-2-17t-5-16q-2-5-9-5t-54-1h-56l-23-122Q301 15 282-47q-27-85-70-126-37-32-73-32-32 0-58 19t-26 54q0 37 21 54t42 17q44 0 44-42 0-19-11-33t-24-21z"/><path id="b" d="M94 250q0 69 10 131t23 107 37 88 38 67 42 52 33 34 25 21h17q14 0 14-9 0-3-17-21t-41-53-49-86-42-138-17-193 17-192 41-139 49-86 42-53 17-21q0-9-15-9h-16l-28 24q-94 85-137 212T94 250"/><path id="c" d="M52 289q7 42 54 97t116 56q35 0 64-18t43-45q42 63 101 63 37 0 64-22t28-59q0-29-14-47t-27-22-23-4q-19 0-31 11t-12 29q0 46 50 63-11 13-40 13-13 0-19-2-38-16-56-66-60-221-60-258 0-28 16-40t35-12q37 0 73 33t49 81q3 10 6 11t16 2h4q15 0 15-8 0-1-2-11-16-57-62-101T333-11q-70 0-106 63-41-62-94-62h-6q-49 0-70 26T35 71q0 32 19 52t45 20q43 0 43-42 0-20-12-35t-23-20-13-5l-3-1q0-1 6-4t16-7 19-3q36 0 62 45 9 16 23 68t28 108 16 66q5 27 5 39 0 28-15 40t-34 12q-40 0-75-32t-49-82q-2-9-5-10t-16-2H58q-6 6-6 11"/><path id="d" d="m60 749 4 1h22l28-24q94-85 137-212t43-264q0-68-10-131T261 12t-37-88-38-67-41-51-32-33-23-19l-4-4H63q-3 0-5 3t-3 9q1 1 11 13Q221-64 221 250T66 725q-10 12-11 13 0 8 5 11"/><path id="e" d="M56 347q0 13 14 20h637q15-8 15-20 0-11-14-19l-318-1H72q-16 5-16 20m0-194q0 15 16 20h636q14-10 14-20 0-13-15-20H70q-14 7-14 20"/><path id="f" d="m213 578-13-5q-14-5-40-10t-58-7H83v46h19q47 2 87 15t56 24 28 22q2 3 12 3 9 0 17-6V361l1-300q7-7 12-9t24-4 62-2h26V0h-11q-21 3-159 3-136 0-157-3H88v46h64q16 0 25 1t16 3 8 2 6 5 6 4z"/><path id="g" d="M78 35v25l16 43 43 18q28 0 50-25t23-88q0-35-9-68t-21-57-26-41-24-27-13-9q-4 0-13 9t-9 13 11 16 25 30 26 50 16 73V9l-1-1q-2-1-5-2t-6-3-9-2-12-1q-27 0-44 17Z"/><path id="h" d="M311 43q-15-13-44-28T206 0q-63 0-101 45T66 160q0 105 77 193t171 89q47 0 87-48l3 4q2 3 5 6t9 8 13 7 16 3q14 0 23-9t10-19q0-15-57-242T363-80q-18-54-77-89t-135-36q-141 0-141 68 0 26 18 46t46 20q15 0 28-9t14-31q0-10-2-19t-7-14-8-10-7-8l-2-2h1q10-3 60-3 38 0 60 12 23 11 43 33t28 47q6 19 16 62 13 48 13 56m73 285-4 11q-3 11-5 15t-6 14-10 14-13 11-18 9-22 3q-44 0-85-53-30-39-50-119t-20-116q0-79 62-79 56 0 110 70l8 10z"/><path id="i" d="M370 305h-21l-36 15-16 38q0 23 15 38 5 5 5 6t-10 2q-26 4-49 4-49 0-80-32-47-47-47-157 0-82 31-129 41-61 110-61 41 0 66 26t36 62q2 8 5 10t16 2h14q6-6 6-9 0-4-4-16t-16-33-29-38-48-31-69-13q-86 0-150 64T34 214q0 104 65 169t151 65 120-27 34-64q0-23-17-37Z"/><path id="j" d="M28 214q0 95 65 164t157 70q90 0 155-68t66-165q0-95-64-160T250-10q-97 0-159 67T28 214M250 30q122 0 122 163v57q0 22-1 38t-7 38-16 36-31 28-49 20q-5 1-16 1-30 0-57-12-43-22-56-61t-13-92v-20q0-96 19-135 32-61 105-61"/><path id="k" d="M295 316q0 40-27 69t-78 29q-36 0-62-13-30-19-30-52-1-5 0-13t16-24 43-25q18-5 44-9t44-9 32-13q17-8 33-20t32-41 17-62q0-62-38-102T198-10h-8q-52 0-96 36l-8-7-9-9Q71 4 65-1L54-11H42q-3 0-9 6v137q0 21 2 25t10 5h9q12 0 16-4t5-12 7-27 19-42q35-51 97-51 97 0 97 78 0 29-18 47-20 24-83 36t-83 23q-36 17-57 46t-21 62q0 39 17 66t43 40 50 18 44 5h11q40 0 70-15l15-8 9 7q10 9 22 17h12q3 0 9-6V310l-6-6h-28q-6 6-6 12"/><path id="l" d="M78 60q0 24 17 42t43 18q24 0 42-16t19-43q0-25-17-43T139 0 96 17 78 60"/></defs><g stroke="currentColor" fill="currentColor" stroke-width="0"><g><g><g><use data-c="1D453" xlink:href="#a" transform="scale(1 -1) translate(0 577.5)"/><use data-c="28" xlink:href="#b" transform="scale(1 -1) translate(0 577.5) translate(550)"/><use data-c="1D465" xlink:href="#c" transform="scale(1 -1) translate(0 577.5) translate(939)"/><use data-c="29" xlink:href="#d" transform="scale(1 -1) translate(0 577.5) translate(1511)"/></g><g><use data-c="3D" xlink:href="#e" transform="scale(1 -1) translate(0 577.5) translate(1900) translate(277.8)"/><g transform="scale(1 -1) translate(0 577.5) translate(1900) translate(1333.6)"><use data-c="31" xlink:href="#f" transform="translate(256 676)"/><use data-c="1D465" xlink:href="#c" transform="translate(220 -686)"/><path stroke="none" d="M120 220H892V280H120z"/></g><use data-c="2C" xlink:href="#g" transform="scale(1 -1) translate(0 577.5) translate(1900) translate(2345.6)"/></g></g><g><g><use data-c="1D454" xlink:href="#h" transform="scale(1 -1) translate(0 -1169.5) translate(73)"/><use data-c="28" xlink:href="#b" transform="scale(1 -1) translate(0 -1169.5) translate(73) translate(477)"/><use data-c="1D465" xlink:href="#c" transform="scale(1 -1) translate(0 -1169.5) translate(73) translate(866)"/><use data-c="29" xlink:href="#d" transform="scale(1 -1) translate(0 -1169.5) translate(73) translate(1438)"/></g><g><use data-c="3D" xlink:href="#e" transform="scale(1 -1) translate(0 -1169.5) translate(1900) translate(277.8)"/><g transform="scale(1 -1) translate(0 -1169.5) translate(1900) translate(1333.6)"><use data-c="63" xlink:href="#i"/><use data-c="6F" xlink:href="#j" transform="translate(444)"/><use data-c="73" xlink:href="#k" transform="translate(944)"/></g><use data-c="28" xlink:href="#b" transform="scale(1 -1) translate(0 -1169.5) translate(1900) translate(2671.6)"/><use data-c="1D465" xlink:href="#c" transform="scale(1 -1) translate(0 -1169.5) translate(1900) translate(3060.6)"/><use data-c="29" xlink:href="#d" transform="scale(1 -1) translate(0 -1169.5) translate(1900) translate(3632.6)"/><use data-c="2E" xlink:href="#l" transform="scale(1 -1) translate(0 -1169.5) translate(1900) translate(4021.6)"/></g></g></g></g></svg>