<svg style="vertical-align:-1.577ex" xmlns="http://www.w3.org/2000/svg" width="20.298ex" height="4.676ex" viewBox="0 -1370 8971.7 2067" xmlns:xlink="http://www.w3.org/1999/xlink"><defs><path id="a" d="M366 683q1 0 72 5t73 6q12 0 12-8 0-7-73-302T375 83t-1-15q0-42 28-42 9 1 20 9 21 20 41 96 6 20 10 21 2 1 10 1h8q15 0 15-8 0-5-3-16-13-50-30-81T445 8 417-8q-8-2-24-2-34 0-57 15t-30 31l-6 15q-1 1-4-1l-4-4q-59-56-120-56-55 0-97 40T33 157q0 48 20 98t48 86q47 57 94 79t85 22q56 0 84-42 5-6 5-4 1 4 27 109t28 111q0 13-7 16t-39 5h-21q-6 6-6 8t2 19q5 19 13 19m-14-357q-23 79-75 79-35 0-67-31t-50-81q-29-79-41-164v-11q0-8-1-12 0-45 18-62t43-18q54 0 111 72l8 11z"/><path id="b" d="M52 289q7 42 54 97t116 56q35 0 64-18t43-45q42 63 101 63 37 0 64-22t28-59q0-29-14-47t-27-22-23-4q-19 0-31 11t-12 29q0 46 50 63-11 13-40 13-13 0-19-2-38-16-56-66-60-221-60-258 0-28 16-40t35-12q37 0 73 33t49 81q3 10 6 11t16 2h4q15 0 15-8 0-1-2-11-16-57-62-101T333-11q-70 0-106 63-41-62-94-62h-6q-49 0-70 26T35 71q0 32 19 52t45 20q43 0 43-42 0-20-12-35t-23-20-13-5l-3-1q0-1 6-4t16-7 19-3q36 0 62 45 9 16 23 68t28 108 16 66q5 27 5 39 0 28-15 40t-34 12q-40 0-75-32t-49-82q-2-9-5-10t-16-2H58q-6 6-6 11"/><path id="c" d="m213 578-13-5q-14-5-40-10t-58-7H83v46h19q47 2 87 15t56 24 28 22q2 3 12 3 9 0 17-6V361l1-300q7-7 12-9t24-4 62-2h26V0h-11q-21 3-159 3-136 0-157-3H88v46h64q16 0 25 1t16 3 8 2 6 5 6 4z"/><path id="d" d="M28 214q0 95 65 164t157 70q90 0 155-68t66-165q0-95-64-160T250-10q-97 0-159 67T28 214M250 30q122 0 122 163v57q0 22-1 38t-7 38-16 36-31 28-49 20q-5 1-16 1-30 0-57-12-43-22-56-61t-13-92v-20q0-96 19-135 32-61 105-61"/><path id="e" d="M36 46h14q39 0 47 14v31q0 14 1 31t0 39 0 42v125l-1 23q-3 19-14 25t-45 9H20v23q0 23 2 23l10 1q10 1 28 2t36 2q16 1 35 2t29 3 11 1h3v-69q39 68 97 68h6q45 0 66-22t21-46q0-21-13-36t-38-15-37 16-13 34q0 9 2 16t5 12 3 5q-2 2-23-4-16-8-24-15-47-45-47-179V101q0-12 1-20t0-15v-5q1-2 3-4t5-3 5-3 7-2 7-1 9-1 9 0 10-1 10 0h31V0h-9q-18 3-127 3Q37 3 28 0h-8v46z"/><path id="f" d="M84 237v13l14 20h581q15-8 15-20t-15-20H98q-14 7-14 20Z"/><path id="g" d="M78 60q0 24 17 42t43 18q24 0 42-16t19-43q0-25-17-43T139 0 96 17 78 60"/></defs><g stroke="currentColor" fill="currentColor" stroke-width="0"><g transform="scale(1 -1)"><use data-c="1D451" xlink:href="#a" transform="translate(506 676)"/><g><use data-c="1D451" xlink:href="#a" transform="translate(220 -686)"/><use data-c="1D465" xlink:href="#b" transform="translate(220 -686) translate(520)"/></g><path stroke="none" d="M120 220H1412V280H120z"/></g><g transform="scale(1 -1) translate(1532)"><use data-c="31" xlink:href="#c" transform="translate(256 676)"/><use data-c="1D465" xlink:href="#b" transform="translate(220 -686)"/><path stroke="none" d="M120 220H892V280H120z"/></g><g transform="scale(1 -1) translate(3544)"><use data-c="6F" xlink:href="#d"/><use data-c="72" xlink:href="#e" transform="translate(500)"/></g><g transform="scale(1 -1) translate(5436)"><use data-c="1D451" xlink:href="#a" transform="translate(506 676)"/><g><use data-c="1D451" xlink:href="#a" transform="translate(220 -686)"/><use data-c="1D465" xlink:href="#b" transform="translate(220 -686) translate(520)"/></g><path stroke="none" d="M120 220H1412V280H120z"/></g><g><use data-c="1D465" xlink:href="#b" transform="scale(1 -1) translate(7135)"/><g data-mjx-texclass="ORD"><use data-c="2212" xlink:href="#f" transform="scale(1 -1) translate(7135) translate(605 413)scale(.707)"/><use data-c="31" xlink:href="#c" transform="scale(1 -1) translate(7135) translate(605 413)scale(.707) translate(778)"/></g></g><use data-c="2E" xlink:href="#g" transform="scale(1 -1) translate(8693.7)"/></g></svg>