<svg style="vertical-align:-2.819ex" xmlns="http://www.w3.org/2000/svg" width="28.526ex" height="6.74ex" viewBox="0 -1733 12608.7 2978.9" xmlns:xlink="http://www.w3.org/1999/xlink"><defs><path id="a" d="M60 948q3 2 605 2h602l58-135q59-138 63-146h-40l-7 14q-21 41-56 78-50 48-111 77t-141 43-151 17-183 4H251l8-11q463-633 465-639 1-2 0-6-3-3-264-302L196-356q0-1 211-1h141q89 0 128-1 136 0 220 5t167 21 141 49 103 87q21 26 41 72h40q0-1-7-21t-25-65-31-84l-58-155-601-1q-602 0-605 2-6 2-6 9 0 2 2 6l533 610q0 1-33 45T452 366 322 544L56 909l-1 15q0 21 5 24"/><path id="b" d="M184 600q0 24 19 42t44 19q18 0 30-12t13-30q0-23-20-42t-44-20q-15 0-28 10t-14 33M21 287q0 8 9 31t24 51 44 51 60 22q39 0 65-23t27-62q0-17-14-56t-40-105-42-113q-5-22-5-32 0-25 17-25 9 0 19 3t23 14 27 35 25 59q3 12 5 14t17 2q20 0 20-10 0-8-9-31t-25-51-45-50-62-22q-32 0-59 21T74 74q0 17 5 32t43 114q38 101 44 121t7 39q0 24-17 24h-2q-30 0-55-33t-38-84q-1-1-2-3t-1-3-2-2-3-1-4 0-8 0H27q-6 6-6 9"/><path id="c" d="M56 347q0 13 14 20h637q15-8 15-20 0-11-14-19l-318-1H72q-16 5-16 20m0-194q0 15 16 20h636q14-10 14-20 0-13-15-20H70q-14 7-14 20"/><path id="d" d="M96 585q56 81 153 81 48 0 96-26t78-92q37-83 37-228 0-155-43-237-20-42-55-67t-61-31-51-7q-26 0-52 6t-61 32-55 67q-43 82-43 237 0 174 57 265m225 12q-30 32-71 32-42 0-72-32-25-26-33-72t-8-192q0-158 8-208t36-79q28-30 69-30 40 0 68 30 29 30 36 84t8 203q0 145-8 191t-33 73"/><path id="e" d="M234 637h-8q-25 0-30 1t-5 11q0 27 11 33 2 1 97 1h88q11 0 14-6 211-496 215-509l54 213q53 211 53 225 0 27-64 31-24 0-24 11 0 2 2 12 4 16 6 19t10 4q3 0 31-1t83-2q50 0 76 1t30 1q15 0 15-10 0-22-8-30-2-5-22-5-71-4-89-40L620 7q-2-7-21-7-14 0-17 2-3 3-129 303L326 604l-65-260Q196 88 196 79q5-33 72-33h10q6-5 6-8t-2-19q-4-13-10-19h-13q-31 2-108 2H63Q49 2 46 1q-15 0-15 9 0 4 3 16t5 14q2 6 23 6 68 3 88 39 4 6 71 277l68 272q-2 1-55 3"/><path id="f" d="M109 429q-27 0-43 18t-16 44q0 71 53 123t132 52q91 0 152-56t62-145q0-43-20-82t-48-68-80-74q-36-31-100-92l-59-56 76-1q157 0 167 5 7 2 24 89v3h40v-3q-1-3-13-91T421 3V0H50v31q0 7 6 15t30 35q29 32 50 56 9 10 34 37t34 37 29 33 28 34 23 30 21 32 15 29 13 32 7 30 3 33q0 63-34 109t-97 46q-33 0-58-17t-35-33-10-19q0-1 5-1 18 0 37-14t19-46q0-25-16-42t-45-18"/><path id="g" d="M94 250q0 69 10 131t23 107 37 88 38 67 42 52 33 34 25 21h17q14 0 14-9 0-3-17-21t-41-53-49-86-42-138-17-193 17-192 41-139 49-86 42-53 17-21q0-9-15-9h-16l-28 24q-94 85-137 212T94 250"/><path id="h" d="M56 237v13l14 20h299v150l1 150q10 13 19 13 13 0 20-15V270h298q15-8 15-20t-15-20H409V-68q-8-14-18-14h-4q-12 0-18 14v298H70q-14 7-14 20Z"/><path id="i" d="m213 578-13-5q-14-5-40-10t-58-7H83v46h19q47 2 87 15t56 24 28 22q2 3 12 3 9 0 17-6V361l1-300q7-7 12-9t24-4 62-2h26V0h-11q-21 3-159 3-136 0-157-3H88v46h64q16 0 25 1t16 3 8 2 6 5 6 4z"/><path id="j" d="m60 749 4 1h22l28-24q94-85 137-212t43-264q0-68-10-131T261 12t-37-88-38-67-41-51-32-33-23-19l-4-4H63q-3 0-5 3t-3 9q1 1 11 13Q221-64 221 250T66 725q-10 12-11 13 0 8 5 11"/><path id="k" d="M42 313q0 163 81 258t180 95q69 0 99-36t30-80q0-25-14-40t-39-15q-23 0-38 14t-15 39q0 44 47 53-22 22-62 25-71 0-117-60-47-66-47-202l1-4q5 6 8 13 41 60 107 60h4q46 0 81-19 24-14 48-40t39-57q21-49 21-107v-18q0-23-5-43-11-59-64-115T253-22q-28 0-54 8t-56 30-51 59-36 97-14 141m215 84q-30 0-52-17t-34-45-17-57-6-62q0-83 12-119t38-58q24-18 53-18 51 0 78 38 13 18 18 45t5 105q0 80-5 107t-18 45q-27 36-72 36"/><path id="l" d="M78 60q0 24 17 42t43 18q24 0 42-16t19-43q0-25-17-43T139 0 96 17 78 60"/></defs><g stroke="currentColor" fill="currentColor" stroke-width="0"><g><use data-c="2211" xlink:href="#a" transform="scale(1 -1)"/><g data-mjx-texclass="ORD"><use data-c="1D456" xlink:href="#b" transform="scale(1 -1) translate(148.2 -1087.9)scale(.707)"/><use data-c="3D" xlink:href="#c" transform="scale(1 -1) translate(148.2 -1087.9)scale(.707) translate(345)"/><use data-c="30" xlink:href="#d" transform="scale(1 -1) translate(148.2 -1087.9)scale(.707) translate(1123)"/></g><g data-mjx-texclass="ORD"><use data-c="1D441" xlink:href="#e" transform="scale(1 -1) translate(408 1150)scale(.707)"/></g></g><g><use data-c="1D456" xlink:href="#b" transform="scale(1 -1) translate(1610.7)"/><use data-c="32" xlink:href="#f" transform="scale(1 -1) translate(1610.7) translate(378 413)scale(.707)"/></g><use data-c="3D" xlink:href="#c" transform="scale(1 -1) translate(2670)"/><g transform="scale(1 -1) translate(3725.8)"><g><use data-c="1D441" xlink:href="#e" transform="translate(220 710)"/><use data-c="28" xlink:href="#g" transform="translate(220 710) translate(888)"/><use data-c="1D441" xlink:href="#e" transform="translate(220 710) translate(1277)"/><use data-c="2B" xlink:href="#h" transform="translate(220 710) translate(2387.2)"/><use data-c="31" xlink:href="#i" transform="translate(220 710) translate(3387.4)"/><use data-c="29" xlink:href="#j" transform="translate(220 710) translate(3887.4)"/><use data-c="28" xlink:href="#g" transform="translate(220 710) translate(4276.4)"/><use data-c="32" xlink:href="#f" transform="translate(220 710) translate(4665.4)"/><use data-c="1D441" xlink:href="#e" transform="translate(220 710) translate(5165.4)"/><use data-c="2B" xlink:href="#h" transform="translate(220 710) translate(6275.7)"/><use data-c="31" xlink:href="#i" transform="translate(220 710) translate(7275.9)"/><use data-c="29" xlink:href="#j" transform="translate(220 710) translate(7775.9)"/></g><use data-c="36" xlink:href="#k" transform="translate(4052.4 -686)"/><path stroke="none" d="M120 220H8484.9V280H120z"/></g><use data-c="2E" xlink:href="#l" transform="scale(1 -1) translate(12330.7)"/></g></svg>